<?xml version="1.0" standalone="no"?>
<!DOCTYPE svg PUBLIC "-//W3C//DTD SVG 1.1//EN" "http://www.w3.org/Graphics/SVG/1.1/DTD/svg11.dtd" >
<svg xmlns="http://www.w3.org/2000/svg">
<metadata></metadata>
<defs>
<font id="fb_reformabold" horiz-adv-x="756" >
<font-face units-per-em="2048" ascent="1638" descent="-410" />
<missing-glyph horiz-adv-x="374" />
<glyph unicode="&#xd;" horiz-adv-x="512" />
<glyph unicode=" "  horiz-adv-x="374" />
<glyph unicode="&#x09;" horiz-adv-x="374" />
<glyph unicode="&#xa0;" horiz-adv-x="374" />
<glyph unicode="!" horiz-adv-x="643" d="M397 412h-205l-100 696q-4 16 1 34.5t22 35.5q22 18 65 31.5t121 13.5q82 0 124 -14.5t58 -37.5q15 -16 17 -31.5t0 -31.5zM450 0h-309v309h309v-309z" />
<glyph unicode="&#x22;" horiz-adv-x="942" d="M442 1247q0 -69 -11.5 -145t-30.5 -146.5t-44 -130t-51 -94.5h-238q47 119 65 253q10 69 14.5 134t4.5 129h291zM849 1247q0 -69 -11.5 -145t-30 -146.5t-43.5 -130t-52 -94.5h-237q47 119 65 253q10 69 14.5 134t4.5 129h290z" />
<glyph unicode="#" horiz-adv-x="1112" d="M1040 846l-31 -167h-160l-33 -182h164l-24 -167h-164l-37 -191h-186l36 191h-196l-37 -191h-186l35 191h-150l23 167h153l33 182h-156l29 167h154l36 201h183l-33 -201h198l37 201h185l-35 -201h162zM665 679h-197l-33 -182h199z" />
<glyph unicode="$" horiz-adv-x="1136" d="M1034 311q0 -62 -25.5 -120t-76.5 -102t-128 -70.5t-179 -26.5v-139h-121v143q-18 0 -61.5 6.5t-95.5 20.5t-103.5 35.5t-83.5 50.5v284q32 -31 76.5 -60.5t92 -52t94 -36t81.5 -13.5v207q-203 39 -287 126t-84 194q0 55 20.5 108.5t64.5 95.5t114.5 67.5t171.5 25.5v145 h121v-145q28 0 67 -7t80 -21t82 -35t74 -50v-254q-22 23 -59 46.5t-79.5 42t-86 30.5t-78.5 12v-182q89 -16 164 -47t129.5 -74t85 -95t30.5 -110zM504 825q-54 0 -80.5 -20.5t-26.5 -54.5q0 -37 36 -55q35 -16 71 -27v157zM727 315q0 21 -8.5 37t-22.5 27.5t-32.5 18.5 t-38.5 12v-179q33 0 68 18q34 19 34 66z" />
<glyph unicode="%" horiz-adv-x="1351" d="M1239 262q0 -135 -57 -212q-56 -76 -196 -76q-71 0 -119.5 21t-77.5 59t-41.5 91.5t-12.5 116.5q0 141 54 215t197 74q144 0 198 -74q55 -74 55 -215zM1159 1047l-707 -1047h-268l708 1047h267zM616 784q0 -136 -57 -212q-55 -76 -195 -76q-72 0 -120 21t-77.5 59.5 t-42 91.5t-12.5 116q0 141 54 215q56 74 198 74q143 0 197 -74q55 -73 55 -215zM1040 261q0 27 -1 49.5t-6.5 38.5t-16.5 24.5t-30 8.5t-29 -8.5t-15.5 -24.5t-6.5 -38.5t-1 -49.5q0 -29 1 -51t6.5 -37t15.5 -22.5t29 -7.5t30 7.5t16.5 22.5t6.5 37t1 51zM417 783 q0 28 -1 50.5t-6 38t-16 24t-30 8.5q-20 0 -30.5 -8.5t-15.5 -24t-6 -38t-1 -50.5q0 -29 1 -51t6 -37t15.5 -22.5t30.5 -7.5q19 0 30 7.5t16 22.5t6 37t1 51z" />
<glyph unicode="&#x26;" horiz-adv-x="1247" d="M1248 76q17 -17 17 -41q0 -40 -42 -40h-101q-51 0 -77 29l-90 95q-121 -139 -404 -139h-101q-414 0 -414 319q0 189 138 288q36 26 202 125q-76 86 -102 149q-31 76 -31 198q0 332 320 332h14q161 0 237 -67q84 -74 84 -244q0 -235 -167 -346l-80 -53l287 -292 q18 67 18 145q0 9 1 37v35q0 49 51 49h119q42 0 49 -46q3 -17 3 -64q0 -178 -104 -294zM681 1019v52q0 92 -21 124q-20 29 -79 29h-16q-58 0 -79 -31q-18 -26 -18 -91v-104q0 -103 50 -159q28 -32 25 -32q3 0 6 2q78 53 99 81q33 45 33 129zM852 229l-353 357q-4 4 -5 3 l-158 -93q-56 -34 -56 -125v-65q0 -85 34 -110q48 -35 217 -35q131 0 186 9q83 13 135 59z" />
<glyph unicode="'" horiz-adv-x="534" d="M442 1253q0 -69 -11.5 -145t-30.5 -146.5t-44 -130t-51 -94.5h-238q47 119 65 253q10 69 14.5 134t4.5 129h291z" />
<glyph unicode="(" horiz-adv-x="759" d="M401 -336q-57 55 -110.5 143.5t-95.5 200t-67.5 241.5t-25.5 267q0 132 25.5 265t67 251.5t95 212.5t111.5 148h338q-59 -62 -113.5 -159t-95.5 -214t-65.5 -247t-24.5 -257q0 -126 23.5 -251.5t64.5 -238.5t95 -207t116 -155h-338z" />
<glyph unicode=")" horiz-adv-x="759" d="M657 516q0 -137 -25.5 -267t-67.5 -241.5t-95.5 -200t-110.5 -143.5h-338q61 62 115.5 155.5t95 206.5t64.5 238.5t24 251.5q0 85 -11 171.5t-31 170t-48 162t-61 148t-71 126.5t-77 99h338q58 -54 111.5 -148t95 -212.5t67 -251.5t25.5 -265z" />
<glyph unicode="*" horiz-adv-x="1005" d="M892 811l-92 -168l-242 186l41 -309h-192l47 305l-246 -192l-96 166l291 114l-291 111l94 168l248 -191l-47 306h192l-41 -306l236 191l96 -166l-276 -111z" />
<glyph unicode="+" horiz-adv-x="862" d="M790 410h-246v-246h-225v246h-248v225h248v248h225v-248h246v-225z" />
<glyph unicode="," horiz-adv-x="497" d="M415 309q0 -69 -11.5 -145t-30.5 -146.5t-44 -130t-51 -94.5h-238q47 119 65 253q10 69 14.5 134t4.5 129h291z" />
<glyph unicode="-" horiz-adv-x="862" d="M729 389h-596v266h596v-266z" />
<glyph unicode="." horiz-adv-x="432" d="M350 0h-289v289h289v-289z" />
<glyph unicode="/" horiz-adv-x="647" d="M624 1282l-356 -1456h-246l356 1456h246z" />
<glyph unicode="0" horiz-adv-x="1019" d="M937 524q0 -150 -29.5 -254t-85 -168.5t-135.5 -93t-180 -28.5q-102 0 -181 28.5t-133.5 93t-83 168t-28.5 254.5q0 153 25.5 258t78 169.5t133 93t191.5 28.5q106 0 186.5 -27.5t134 -92t80.5 -169.5t27 -260zM622 524q0 73 -6.5 124t-20 83.5t-35 47t-51.5 14.5 q-61 0 -87 -65t-26 -204q0 -264 111 -264q115 0 115 264z" />
<glyph unicode="1" horiz-adv-x="1019" d="M825 0h-328v676q-46 -97 -140 -189q-92 -90 -196 -137v322q49 24 106 65.5t112 92.5t103 107t80 110h263v-1047z" />
<glyph unicode="2" horiz-adv-x="1019" d="M928 721q0 -75 -39.5 -154.5t-120.5 -152.5l-135 -125h268v-289h-815v55l442 492q47 53 47 108q0 113 -137 113q-47 0 -93 -14.5t-87 -38t-76 -53t-59 -58.5v326q52 68 151 106q98 37 215 37q99 0 179.5 -17t138.5 -58t89.5 -108.5t31.5 -168.5z" />
<glyph unicode="3" horiz-adv-x="1019" d="M690 532q43 -8 87 -26t80 -48.5t58.5 -73.5t22.5 -101q0 -72 -33.5 -130t-93 -98.5t-142 -62t-180.5 -21.5q-118 0 -224 21q-104 19 -163 61v305q10 -12 36.5 -29t64.5 -33t85 -27t97 -11q108 0 144 24q36 25 36 60q0 42 -40 61t-112 19h-84v219h84q66 0 98.5 19.5 t32.5 48.5q0 34 -30.5 55.5t-108.5 21.5q-47 0 -91 -9t-81 -21.5t-63.5 -26.5t-38.5 -24v305q21 14 60 25.5t87.5 19.5t103 13t107.5 5q86 0 160.5 -14.5t129.5 -48t86.5 -89.5t31.5 -139q0 -56 -18.5 -97t-48.5 -71t-67 -49.5t-73 -32.5z" />
<glyph unicode="4" horiz-adv-x="1019" d="M960 244h-127v-244h-330v244h-444v235l494 568h280v-533h127v-270zM524 514v262l-221 -262h221z" />
<glyph unicode="5" horiz-adv-x="1019" d="M358 494q-61 0 -123 -11.5t-113 -27.5l95 592h645v-291h-375l-20 -90q8 1 14 3t12 3.5t14.5 2.5t20.5 1q81 0 154.5 -19t128.5 -60.5t87.5 -106.5t32.5 -158q0 -72 -30 -137t-86 -115t-136.5 -79.5t-181.5 -29.5q-144 0 -239 20t-156 62v305q10 -12 36.5 -29t64.5 -33 t85 -27t97 -11q55 0 92 11t59.5 28.5t32.5 37.5t10 38q0 32 -17.5 55t-48 37.5t-70.5 21.5t-85 7z" />
<glyph unicode="6" horiz-adv-x="1019" d="M932 346q0 -72 -23.5 -139t-73 -118.5t-126 -82.5t-181.5 -31q-133 0 -218 35t-134 94.5t-67.5 138t-18.5 165.5q0 74 27.5 161t77 173.5t117 166t147.5 138.5h397q-65 -45 -120 -99.5t-98 -107t-74.5 -99.5t-49.5 -77q28 14 59 14q78 0 143.5 -21t113.5 -62.5t75 -103.5 t27 -145zM612 348q0 60 -25 84.5t-79 24.5q-60 0 -83.5 -27t-23.5 -82q0 -49 23.5 -76.5t83.5 -27.5q54 0 79 27.5t25 76.5z" />
<glyph unicode="7" horiz-adv-x="1019" d="M942 834l-389 -834h-348l370 737h-479v310h846v-213z" />
<glyph unicode="8" horiz-adv-x="1019" d="M936 285q0 -87 -28.5 -147t-83 -97t-133.5 -53.5t-181 -16.5q-213 0 -319 67q-105 67 -105 247q0 106 64 169q64 64 153 78q-91 15 -141.5 76t-50.5 172q0 146 97 215.5t302 69.5q199 0 299 -68.5t100 -216.5q0 -105 -52 -168t-140 -80q44 -6 83.5 -25t69.5 -50t48 -74.5 t18 -97.5zM614 727q0 49 -30 70q-22 16 -74 16q-47 0 -72 -16q-30 -21 -30 -70q0 -46 20 -68q25 -24 82 -24t82 22q22 22 22 70zM627 348q0 53 -31 80q-26 25 -86 25q-67 0 -92 -27q-13 -14 -19 -31.5t-6 -46.5q0 -51 25 -76q14 -16 37.5 -22t54.5 -6q60 0 88 26 q29 26 29 78z" />
<glyph unicode="9" horiz-adv-x="1019" d="M90 700q0 73 21.5 140t71.5 118.5t131 82t200 30.5q117 0 196.5 -32.5t129 -88t71 -131t21.5 -160.5q0 -73 -30 -163t-80.5 -181t-117 -174t-141.5 -141h-397q64 46 118.5 98t98 103t75.5 96.5t52 77.5q-14 -7 -22 -10t-12 -4q-5 -1 -26 -1q-77 0 -142.5 19.5t-114 60.5 t-76 105.5t-27.5 154.5zM420 684q0 -51 20 -80t74 -29q98 0 98 109q0 60 -22 89.5t-76 29.5q-55 0 -74.5 -29.5t-19.5 -89.5z" />
<glyph unicode=":" horiz-adv-x="514" d="M391 586h-289v288h289v-288zM391 0h-289v289h289v-289z" />
<glyph unicode=";" horiz-adv-x="552" d="M432 586h-289v288h289v-288zM436 309q0 -69 -11.5 -145t-30.5 -146.5t-44 -130t-51 -94.5h-238q47 119 65 253q10 69 14.5 134t4.5 129h291z" />
<glyph unicode="&#x3c;" horiz-adv-x="862" d="M770 74l-678 332v229l678 326v-275l-422 -168l422 -166v-278z" />
<glyph unicode="=" horiz-adv-x="862" d="M770 621h-678v245h678v-245zM770 176h-678v245h678v-245z" />
<glyph unicode="&#x3e;" horiz-adv-x="862" d="M770 406l-678 -332v278l422 166l-422 168v275l678 -326v-229z" />
<glyph unicode="?" horiz-adv-x="974" d="M698 612q-24 -20 -47 -39.5t-41.5 -42t-29.5 -51t-11 -67.5h-311q-4 12 -3 30.5t1 28.5q0 53 37 123t123 129q82 55 82 119q0 43 -42 63q-42 21 -96 21q-77 0 -150 -41q-35 -20 -65 -42.5t-53 -47.5v325q22 24 59 43t83 32.5t98 20.5t104 7q84 0 157.5 -20.5t129 -60.5 t87.5 -100t32 -139q0 -93 -39 -163.5t-105 -127.5zM569 0h-309v309h309v-309z" />
<glyph unicode="@" horiz-adv-x="1987" d="M1793 739q0 -240 -119 -390q-108 -135 -252 -135q-177 0 -250 121q-36 -74 -80 -99q-49 -29 -153 -29q-147 0 -232 105q-83 102 -83 268q0 443 423 443q160 0 251 -20q58 -13 58 -51v-547q0 -64 68 -64q154 0 154 325q0 335 -157 463q-128 105 -421 105q-322 0 -444 -134 q-125 -137 -125 -502q0 -327 152 -469q135 -127 420 -127q303 0 481 95q20 10 40 3q23 -8 23 -36v-61q0 -39 -41 -64q-208 -125 -499 -125q-802 0 -802 773q0 424 203 627q198 198 601 198q331 0 526 -128q258 -168 258 -545zM1150 490v400q-1 -2 -7 -2q-43 5 -65 5 q-99 0 -145 -29q-97 -62 -97 -270q0 -142 31 -194q32 -55 122 -55q65 0 111 37q50 40 50 108z" />
<glyph unicode="A" horiz-adv-x="1187" d="M1163 51q7 -20 7 -29q0 -22 -41 -22h-154q-50 0 -66 55l-75 243h-474l-74 -243q-16 -55 -66 -55h-157q-41 0 -41 22q0 9 7 29l396 1212q16 49 64 49h212q48 0 65 -49zM780 489l-184 601l-186 -601h370z" />
<glyph unicode="B" horiz-adv-x="1226" d="M1136 345q0 -345 -414 -345h-536q-49 0 -49 47v1220q0 45 49 45h535q325 0 325 -321v-41q0 -174 -165 -241q129 -15 188 -84q67 -79 67 -250v-30zM816 945q0 106 -22 134q-25 31 -119 31h-305v-328h303q98 0 122 32q21 27 21 131zM896 386q0 114 -29 157q-33 46 -124 46 h-373v-385h373q103 0 132 45q21 32 21 137z" />
<glyph unicode="C" horiz-adv-x="1159" d="M1070 81q0 -44 -55 -58q-145 -34 -356 -34q-303 0 -427 132q-73 79 -104 192q-32 121 -32 342q0 271 42 395q37 113 142 187q121 87 379 87q165 0 347 -36q64 -13 64 -63v-96q0 -44 -75 -38q-128 11 -291 11q-186 0 -258 -37q-98 -50 -98 -200v-401q0 -152 84 -206 q68 -44 244 -44q231 0 325 5q38 3 49 -1q20 -7 20 -40v-97z" />
<glyph unicode="D" horiz-adv-x="1307" d="M1197 655q0 -219 -33 -339q-30 -109 -104 -188q-120 -128 -400 -128h-474q-49 0 -49 58v1202q0 52 52 52h445q274 0 379 -74.5t143 -187.5q41 -124 41 -395zM944 464v388q0 157 -72 212q-62 47 -229 47h-265v-906h278q164 0 222 47q66 54 66 212z" />
<glyph unicode="E" horiz-adv-x="1148" d="M1062 50q0 -50 -49 -50h-827q-49 0 -49 47v1220q0 46 49 46h827q49 0 49 -49v-102q0 -52 -49 -52h-638v-328h579q50 0 50 -50v-100q0 -52 -50 -52h-579v-373h638q49 0 49 -53v-104z" />
<glyph unicode="F" horiz-adv-x="1071" d="M1002 1162q0 -52 -49 -52h-579v-328h521q49 0 49 -50v-100q0 -52 -49 -52h-521v-530q0 -50 -47 -50h-141q-49 0 -49 47v1220q0 46 49 46h767q49 0 49 -49v-102z" />
<glyph unicode="G" horiz-adv-x="1309" d="M1181 88q0 -37 -72 -55q-202 -48 -438 -48q-337 0 -455 127q-106 116 -106 340v370q0 245 113 364q128 134 420 134q265 0 471 -39q50 -10 50 -48v-96q0 -48 -58 -46q-257 9 -477 9q-168 0 -226 -55q-44 -43 -44 -149v-475q0 -133 42 -175q48 -48 202 -48q266 0 345 5 v340h-4h-276q-58 0 -58 49v110q0 49 55 49h445q45 0 58 -17.5t13 -62.5v-583z" />
<glyph unicode="H" horiz-adv-x="1329" d="M1192 58q0 -58 -52 -58h-140q-50 0 -50 58v522h-572v-522q0 -58 -52 -58h-140q-49 0 -49 58v1202q0 52 52 52h140q49 0 49 -55v-475h572v478q0 52 52 52h140q50 0 50 -55v-1199z" />
<glyph unicode="I" horiz-adv-x="514" d="M377 49q0 -49 -43 -49h-157q-40 0 -40 49v1220q0 43 43 43h157q40 0 40 -45v-1218z" />
<glyph unicode="J" horiz-adv-x="521" d="M384 131q0 -230 -135 -340q-106 -88 -277 -88q-155 0 -168 59q-1 9 -1 23v93q0 39 57 36q43 -3 79 -3q112 0 159 42q51 47 51 164v1143q0 53 49 53h137q49 0 49 -46v-1136z" />
<glyph unicode="K" horiz-adv-x="1216" d="M1137 113l52 -61q13 -15 13 -27q0 -25 -38 -25h-193q-43 0 -81 46l-481 576q-18 22 -18 43q0 23 20 49l450 569q23 29 79 29h165q41 0 41 -29q0 -12 -9 -23l-479 -586zM378 58q0 -58 -52 -58h-140q-49 0 -49 58v1202q0 52 52 52h140q49 0 49 -55v-1199z" />
<glyph unicode="L" horiz-adv-x="1020" d="M972 50q0 -50 -49 -50h-737q-49 0 -49 47v1220q0 46 49 46h139q49 0 49 -52v-1054h549q49 0 49 -53v-104z" />
<glyph unicode="M" horiz-adv-x="1646" d="M1509 58q0 -58 -52 -58h-135q-50 0 -50 58v867l12 194l-342 -1068q-15 -50 -65 -50h-112q-49 0 -65 50l-337 1066l11 -203v-856q0 -58 -52 -58h-136q-49 0 -49 58v1202q0 52 52 52h273q50 0 66 -54l293 -961l297 961q17 54 67 54h275q49 0 49 -55v-1199z" />
<glyph unicode="N" horiz-adv-x="1329" d="M1192 58q0 -58 -52 -58h-159q-44 0 -75 54l-541 949l13 -145v-800q0 -58 -52 -58h-140q-49 0 -49 58v1202q0 52 52 52h179q41 0 70 -50l525 -916l-13 155v759q0 52 52 52h140q50 0 50 -55v-1199z" />
<glyph unicode="O" horiz-adv-x="1390" d="M1287 678q0 -346 -113 -503q-141 -195 -477 -195h-3q-182 0 -291 38q-125 44 -199 150q-103 148 -103 484q0 331 83 467q72 116 195 167q118 49 315 49h3q200 0 316 -45q122 -48 191 -160q83 -134 83 -452zM1043 538v240q0 202 -73 276q-63 65 -222 65h-124 q-149 0 -210 -67q-66 -73 -66 -263v-254q0 -185 68 -263t230 -78h102q154 0 222 75q73 80 73 269z" />
<glyph unicode="P" horiz-adv-x="1158" d="M1082 886q0 -364 -414 -364h-184q-23 0 -106 23v-487q0 -58 -52 -58h-140q-49 0 -49 58v1202q0 52 52 52h544q153 0 248 -93q101 -99 101 -273v-60zM842 918q0 103 -19 138q-29 54 -126 54h-319v-389h317q98 0 124 40q23 34 23 157z" />
<glyph unicode="Q" horiz-adv-x="1406" d="M1373 -98q11 -14 11 -27q0 -26 -37 -24h-180q-45 2 -84 58l-96 139q-113 -69 -289 -69h-3q-182 0 -291 38q-125 44 -199 150q-104 148 -104 484q0 332 84 468q71 116 194 167q119 49 316 49h3q200 0 316 -45q122 -48 192 -160q83 -135 83 -453q0 -177 -17 -265 q-28 -143 -116 -234zM1044 524v267q0 200 -72 269q-61 58 -223 58h-124q-152 0 -210 -60q-66 -68 -66 -256v-281q0 -184 67 -256t231 -72h88q109 0 139 10l-139 194q-16 22 -16 39q0 22 29 22l159 -1q41 0 66 -34l49 -66q22 70 22 167z" />
<glyph unicode="R" horiz-adv-x="1192" d="M1155 51q11 -14 11 -27q0 -24 -37 -24h-190q-49 0 -81 46l-340 481q-95 0 -109.5 3t-30.5 11v-483q0 -58 -52 -58h-140q-49 0 -49 58v1202q0 52 52 52h545q155 0 248 -86q101 -93 101 -267v-73q0 -301 -310 -349zM843 918q0 103 -19 138q-29 54 -126 54h-320v-375h318 q96 0 125 42q22 33 22 141z" />
<glyph unicode="S" horiz-adv-x="1167" d="M1071 379q0 -220 -128 -312q-115 -83 -426 -83q-115 0 -324 41q-64 13 -64 64v89q0 44 75 38q187 -15 345 -15q180 0 222 23q47 24 47 124v71q0 123 -61 151q-29 14 -168 14h-115q-207 0 -295 91q-76 80 -76 272q0 89 16 143q29 101 116 163q99 71 341 71q205 0 334 -25 q64 -13 64 -64v-93q0 -36 -46 -38h-29q-27 0 -141 2q-119 1 -173 1q-160 0 -197.5 -21t-37.5 -113v-25q0 -68 4.5 -94.5t17.5 -39.5q32 -33 179 -32h71q254 0 354 -97q95 -92 95 -306z" />
<glyph unicode="T" horiz-adv-x="1083" d="M1037 1159q0 -52 -49 -52h-328v-1060q0 -47 -49 -47h-139q-50 0 -50 52v1055h-325q-49 0 -49 52v105q0 49 49 49h891q49 0 49 -49v-105z" />
<glyph unicode="U" horiz-adv-x="1328" d="M1191 410q0 -214 -113 -312q-123 -108 -409 -108q-292 0 -417 107q-115 99 -115 313v845q0 58 49 58h140q52 0 52 -58v-858q0 -110 39 -143q55 -48 247 -48q194 0 248 47q37 33 37 144v858q0 58 52 58h140q50 0 50 -58v-845z" />
<glyph unicode="V" horiz-adv-x="1219" d="M1178 1257l-393 -1207q-16 -49 -65 -49h-228q-49 0 -65 49l-384 1207q-6 18 -6 28q0 28 43 28h147q59 0 73 -49l309 -1079l314 1086q12 42 69 42h147q44 0 44 -30q0 -10 -5 -26z" />
<glyph unicode="W" horiz-adv-x="1880" d="M1839 1257l-279 -1206q-11 -50 -65 -50h-233q-52 0 -65 50l-255 982l-255 -982q-13 -50 -65 -50h-237q-54 0 -65 50l-279 1208q-14 61 39 61h151q52 0 62 -47l229 -1078l277 1069q9 35 26 47q12 9 34 9h166q45 0 61 -61l279 -1063l221 1077q10 47 73 47h141q53 0 39 -63z " />
<glyph unicode="X" horiz-adv-x="1306" d="M1265 63q17 -23 17 -38q0 -25 -38 -25h-179q-43 0 -81 52l-332 455l-330 -455q-37 -52 -81 -52h-180q-38 0 -38 25q0 15 17 38l469 628l-377 512q-46 62 -46 78q0 32 45 32h166q49 0 79 -42l278 -390l273 387q32 45 82 45h166q40 0 40 -36q0 -20 -41 -74l-375 -508z" />
<glyph unicode="Y" horiz-adv-x="1080" d="M1005 1209l-345 -588v-563q0 -58 -52 -58h-139q-50 0 -50 58v566l-344 585q-35 56 -35 72q0 32 41 32h173q51 0 72 -42l213 -421l217 423q21 40 70 40h173q43 0 43 -30q0 -15 -37 -74z" />
<glyph unicode="Z" horiz-adv-x="1082" d="M1054 52q0 -52 -49 -52h-924q-53 0 -53 54q0 24 18 50l78 124l550 879h-545q-49 0 -49 52v105q0 49 49 49h836q53 0 53 -49q0 -23 -14 -45l-636 -1005h637q49 0 49 -50v-112z" />
<glyph unicode="[" horiz-adv-x="784" d="M743 -334h-539v1727h539v-267h-242v-1194h242v-266z" />
<glyph unicode="\" horiz-adv-x="871" d="M827 -105q8 -19 8 -34q0 -37 -44 -37h-110q-51 0 -74 59l-579 1491q-8 21 -8 35q0 34 41 34h112q51 0 69 -46z" />
<glyph unicode="]" horiz-adv-x="784" d="M579 -334h-539v266h242v1194h-242v267h539v-1727z" />
<glyph unicode="^" horiz-adv-x="1071" d="M1010 646h-244l-211 485h-35l-215 -485h-244l318 692h317z" />
<glyph unicode="_" horiz-adv-x="884" d="M865 -101q0 -41 -52 -41h-739q-50 0 -50 41v60q0 41 50 41h739q52 0 52 -41v-60z" />
<glyph unicode="a" horiz-adv-x="993" d="M968 69q0 -28 -39 -41l-57 -18q-50 -16 -83 -16q-57 0 -123 107q-37 -65 -65 -85q-40 -28 -132 -28h-100q-288 0 -288 294v32q0 297 300 297h92q102 0 153 -69h13v122q0 80 -42 111t-158 31q-39 0 -235 -16q-48 -4 -48 21v118q0 31 42 40q156 30 274 30q193 0 270 -63 q120 -98 120 -286v-379q0 -73 53 -91l22 -7q31 -10 31 -36v-68zM638 264v88q0 85 -132 85h-79q-70 0 -99 -23t-29 -85v-41q0 -63 28 -86q25 -23 90 -23h86q135 0 135 85z" />
<glyph unicode="b" horiz-adv-x="1024" d="M928 345q0 -355 -376 -355h-102q-213 0 -292 40q-41 21 -41 58v1289q0 36 30 36h169q30 0 30 -36v-469q46 54 69 66q39 20 130 20h61q322 0 322 -355v-294zM702 332v320q0 157 -147 157h-92q-75 0 -95 -14q-26 -18 -26 -61v-520q0 -31 129 -31h84q147 0 147 149z" />
<glyph unicode="c" horiz-adv-x="881" d="M801 55q0 -27 -35 -35q-119 -28 -262 -28q-231 0 -319 93q-105 112 -105 410q0 197 35 298q32 90 108 144q88 62 281 62q121 0 255 -26q42 -8 42 -39v-123q0 -25 -48 -21q-143 12 -221 12q-123 0 -163 -28q-56 -37 -56 -159v-237q0 -123 44 -158q35 -28 155 -28 q166 0 245 4q44 3 44 -23v-118z" />
<glyph unicode="d" horiz-adv-x="1035" d="M1015 69q0 -28 -39 -41l-57 -18q-50 -16 -83 -16q-54 0 -119 107q-72 -101 -237 -101h-43q-342 0 -342 345v309q0 340 347 340h36q125 0 199 -86v469q0 36 30 36h169q30 0 30 -36v-1106q0 -72 57 -91l21 -7q31 -10 31 -36v-68zM681 283v451q0 43 -26 61q-20 14 -76 14 h-111q-147 0 -147 -167v-261q0 -187 161 -187h70q65 0 103 20q26 13 26 69z" />
<glyph unicode="e" horiz-adv-x="983" d="M886 431q0 -35 -41 -35h-517v-53q0 -92 38 -123t155 -31q118 0 284 9q43 3 43 -31v-104q0 -27 -35 -35q-152 -36 -304 -36q-227 0 -314 93q-98 104 -98 410q0 200 32 300q29 94 104 146q83 60 260 60q179 0 263 -60q73 -51 101.5 -129t28.5 -229v-152zM658 684 q0 76 -31 100.5t-134 24.5q-109 0 -140 -33q-25 -25 -25 -106v-105h330v119z" />
<glyph unicode="f" horiz-adv-x="650" d="M625 1252q0 -21 -35 -19q-32 2 -114 2q-101 0 -101 -106q0 -13 2 -29l15 -126h186q29 0 29 -27v-127q0 -32 -29 -32h-178v-757q0 -31 -30 -31h-166q-29 0 -29 27v761h-101q-29 0 -29 27v108q0 19 30 31l48 20q46 19 46 60v81q0 298 258 298q102 0 173 -23q25 -8 25 -37 v-101z" />
<glyph unicode="g" horiz-adv-x="1030" d="M913 -41q0 -189 -114 -283q-99 -80 -299 -80q-188 0 -296 36q-41 14 -41 40v94q0 37 48 30q146 -20 264 -20q222 0 222 164q0 16 -2 33l-11 116q-40 -47 -78 -64q-43 -19 -121 -19h-50q-332 0 -332 348v240q0 405 372 405h107q150 0 263 -13q68 -8 68 -66v-961zM689 283 v488q0 32 -54 37q1 0 -75 0h-75q-157 0 -157 -178v-255q0 -94 28 -136q33 -51 119 -51h62q152 0 152 95z" />
<glyph unicode="h" horiz-adv-x="1079" d="M963 35q0 -35 -31 -35h-171q-30 0 -30 35v617q0 81 -19 110q-29 47 -127 47h-67q-66 0 -93 -9q-49 -17 -49 -71v-694q0 -35 -30 -35h-164q-30 0 -30 35v1342q0 36 30 36h169q30 0 30 -36v-453q60 70 184 70h104q294 0 294 -323v-636z" />
<glyph unicode="i" horiz-adv-x="460" d="M343 1178q0 -31 -30 -31h-166q-29 0 -29 27v157q0 31 29 31h166q30 0 30 -27v-157zM342 31q0 -31 -29 -31h-167q-29 0 -29 27v924q0 32 30 32h166q29 0 29 -27v-925z" />
<glyph unicode="j" horiz-adv-x="494" d="M377 1178q0 -31 -29 -31h-167q-29 0 -29 27v157q0 31 30 31h166q29 0 29 -27v-157zM377 19q0 -163 -93 -239q-71 -58 -179 -58q-72 0 -143 22q-25 8 -25 38v101q0 21 35 19q32 -2 50 -2q74 0 102 27t28 107v917q0 32 30 32h166q29 0 29 -27v-937z" />
<glyph unicode="k" horiz-adv-x="970" d="M916 104l55 -71q26 -33 -13 -33h-221q-24 0 -48 33l-329 452q-25 33 1 68l304 404q19 26 54 26h192q15 0 18 -16q3 -15 -6 -27l-331 -414zM342 31q0 -31 -29 -31h-167q-29 0 -29 27v1354q0 32 30 32h166q29 0 29 -27v-1355z" />
<glyph unicode="l" horiz-adv-x="482" d="M462 59q0 -30 -39 -41l-58 -15q-49 -13 -92 -13q-78 0 -120 61q-36 53 -36 136v1190q0 36 30 36h169q30 0 30 -36v-1134q0 -58 53 -70l31 -7q32 -7 32 -39v-68z" />
<glyph unicode="m" horiz-adv-x="1579" d="M1461 35q0 -35 -30 -35h-172q-30 0 -30 35v600q0 101 -41 139q-35 33 -117 33h-49q-80 0 -98.5 -19.5t-18.5 -86.5v-666q0 -35 -30 -35h-171q-31 0 -31 35v600q0 100 -44 139q-37 33 -123 33h-35q-122 0 -122 -35v-737q0 -35 -31 -35h-171q-30 0 -30 35v880q0 47 41 57 q133 34 274 34h54q125 0 190 -27t118 -102q60 69 96 92q56 35 145 35h97q329 0 329 -324v-645z" />
<glyph unicode="n" horiz-adv-x="1052" d="M952 35q0 -35 -30 -35h-171q-31 0 -31 35v585q0 106 -39 146.5t-137 40.5h-82q-112 0 -112 -35v-737q0 -35 -31 -35h-171q-30 0 -30 35v874q0 53 44 64q125 32 338 32h64q388 0 388 -339v-631z" />
<glyph unicode="o" horiz-adv-x="1015" d="M935 511q0 -272 -82 -385q-102 -140 -346 -140h-2q-261 0 -355 135q-75 107 -75 372q0 261 60 359q96 156 370 156h2q276 0 368 -148q60 -97 60 -349zM702 407v164q0 156 -37 199q-33 40 -150 40h-33q-109 0 -140.5 -42t-31.5 -188v-175q0 -141 33 -181q35 -43 156 -43 h16q116 0 151.5 41.5t35.5 184.5z" />
<glyph unicode="p" horiz-adv-x="1024" d="M928 370q0 -179 -95 -277.5t-262 -98.5h-51q-107 0 -174 79v-470q0 -36 -30 -36h-169q-30 0 -30 36v1298q0 37 41 58q79 40 292 40h101q168 0 265 -79q112 -89 112 -266v-284zM702 371v242q0 192 -172 192h-89q-100 0 -100 -31v-489q0 -46 37 -77q33 -28 76 -28h86 q162 0 162 191z" />
<glyph unicode="q" horiz-adv-x="1033" d="M906 918v-1315q0 -36 -30 -36h-169q-30 0 -30 36v488q-74 -86 -179 -86h-95q-145 0 -226.5 90.5t-81.5 255.5v253q0 395 383 395h117q123 0 243 -15q68 -8 68 -66zM682 771q0 32 -48 38q4 -1 -71 -1h-75q-167 0 -167 -178v-263q0 -177 137 -177h101q122 0 122 95z" />
<glyph unicode="r" horiz-adv-x="699" d="M666 946l-4 -155q-1 -36 -30 -22q-86 44 -141 44q-108 0 -130 -21q-16 -15 -16 -56v-702q0 -34 -29 -34h-173q-29 0 -29 34v663q0 151 82 219q106 88 275 88q132 0 170 -20q25 -12 25 -38z" />
<glyph unicode="s" horiz-adv-x="885" d="M804 292q0 -164 -111 -244q-83 -59 -296 -59q-94 0 -248 30q-42 8 -42 39v101q0 35 48 31q101 -8 221 -8q108 0 129 5q70 16 70 87v36q0 88 -43 102q-26 9 -87 9h-80q-143 0 -212 72q-59 61 -59 226q0 154 101 226q77 54 248 54q153 0 248 -18q41 -8 41 -40v-97 q0 -31 -47 -31h-125h-147q-68 0 -88 -26q-13 -18 -13 -73v-32q0 -50 27 -67q20 -14 73 -14h47q195 0 267 -69q78 -75 78 -240z" />
<glyph unicode="t" horiz-adv-x="660" d="M175 1212q0 27 29 27h166q30 0 30 -31v-234h173q30 0 30 -31v-128q0 -27 -29 -27h-174v-491q0 -69 11 -94q18 -40 75 -40t89 2q35 2 35 -23v-97q0 -29 -25 -37q-71 -23 -158 -23q-252 0 -252 273v530h-101q-29 0 -29 27v108q0 24 30 31l48 12q52 13 52 60v186z" />
<glyph unicode="u" horiz-adv-x="1072" d="M1040 69q0 -28 -39 -41l-57 -18q-51 -16 -83 -16q-57 0 -123 107q-47 -65 -80 -87q-43 -27 -117 -27h-121q-137 0 -215 81q-88 90 -88 268v610q0 36 30 36h172q30 0 30 -36v-594q0 -101 33 -137q29 -30 108 -30h91q122 0 122 85v676q0 36 31 36h171q30 0 30 -36v-668 q0 -81 52 -98l21 -7q32 -10 32 -36v-68z" />
<glyph unicode="v" horiz-adv-x="1023" d="M985 949l-314 -902q-15 -46 -56 -46h-213q-40 0 -56 46l-312 904q-15 42 30 42h163q30 0 39 -30l235 -770h21l233 766q10 34 39 34h166q40 0 25 -44z" />
<glyph unicode="w" horiz-adv-x="1574" d="M1534 944l-218 -897q-11 -46 -58 -46h-232q-41 0 -53 46l-188 705l-188 -705q-13 -46 -55 -46h-234q-44 0 -55 46l-219 895q-12 51 27 51h160q36 0 44 -37l168 -765h16l191 743q10 39 48 39h196q38 0 48 -39l191 -743h17l162 765q8 37 45 37h159q40 0 28 -49z" />
<glyph unicode="x" horiz-adv-x="956" d="M940 40q10 -15 7 -27q-3 -13 -16 -13h-194q-36 0 -64 45l-196 312l-189 -312q-28 -45 -64 -45h-194q-14 0 -17 13q-3 12 7 27l328 477l-302 429q-8 11 -4 28q4 19 18 19h186q26 0 52 -40l182 -286l177 282q27 44 57 44h185q17 0 22 -15q5 -14 -7 -32l-304 -429z" />
<glyph unicode="y" horiz-adv-x="979" d="M939 951l-330 -1086q-55 -181 -150 -247q-72 -51 -207 -51q-75 0 -139 23q-16 6 -16 33v105q0 22 42 19q1 0 33 -3q27 -3 43 -3q79 0 108 15q44 23 66 103l53 188h-85q-42 0 -56 46l-261 854q-14 46 19 46h187q31 0 40 -36l191 -764h17l203 768q8 32 41 32h172 q42 0 29 -42z" />
<glyph unicode="z" horiz-adv-x="839" d="M795 31q0 -31 -29 -31h-698q-24 0 -30 21q-5 19 6 39l71 127l342 608h-368q-29 0 -29 32v125q0 11 2 18q4 11 27 11h662q32 0 32 -29q0 -14 -9 -29l-427 -732h419q24 0 28 -13q1 -6 1 -16v-131z" />
<glyph unicode="{" horiz-adv-x="720" d="M679 -334h-251q-90 0 -155.5 31t-108 80.5t-63 110.5t-20.5 121q0 32 6 63t19 59l61 154q10 25 15.5 46.5t5.5 41.5q0 48 -34 86.5t-93 68.5q59 30 93 69t34 87q1 20 -5 41.5t-16 46.5l-61 154q-25 54 -25 124q0 60 21 121t64 109.5t108.5 79.5t153.5 31h251v-267h-137 q-25 0 -47 -7t-38.5 -21t-26.5 -34t-10 -46q0 -36 18 -82l55 -143q8 -18 11.5 -36.5t3.5 -36.5q0 -33 -11 -64.5t-29.5 -57t-42 -43.5t-47.5 -25q25 -8 47.5 -27.5t40 -46.5t28 -59t10.5 -65q0 -16 -2.5 -32t-8.5 -32l-51 -133q-17 -43 -17 -81q0 -28 10 -50.5t26 -38 t37 -23.5t44 -8h137v-266z" />
<glyph unicode="|" horiz-adv-x="655" d="M450 -334h-246v1727h246v-1727z" />
<glyph unicode="}" horiz-adv-x="720" d="M658 528q-55 -29 -90.5 -68.5t-35.5 -89.5q0 -36 20 -85l63 -154q23 -57 23 -122q0 -57 -20 -117.5t-62 -111t-107.5 -82.5t-156.5 -32h-252v266h137q23 0 44 8.5t37.5 24t26.5 38t10 51.5q0 34 -17 79l-52 133q-13 32 -13 66q0 33 11 65t29 58.5t41 45.5t47 27 q-25 7 -48.5 25t-41.5 43.5t-29 57t-11 65.5q0 36 15 72l56 143q9 23 13 42.5t4 37.5q0 52 -35 81t-87 29h-137v267h252q92 0 157.5 -32.5t107.5 -83t61.5 -111t19.5 -116.5q0 -67 -23 -122l-63 -154q-10 -24 -15 -44.5t-5 -40.5q0 -51 35 -90.5t91 -68.5z" />
<glyph unicode="~" horiz-adv-x="1107" d="M1076 641q-41 -172 -119 -246q-69 -65 -161 -65q-88 0 -278.5 75.5t-250.5 75.5q-127 0 -192 -186q-13 -37 -33 -37t-14 37q14 100 73 190q74 113 197 113q82 0 272.5 -72.5t259.5 -72.5q74 0 125 61q39 45 70 127q16 41 37 41q16 0 16 -27q0 -6 -2 -14z" />
<glyph unicode="&#xa2;" horiz-adv-x="874" d="M769 299q-79 -319 -330 -319q-67 0 -137 30l-121 -334h-61l133 365q-143 135 -143 346q0 216 133 334q103 88 233 88q10 0 23 -0.5t30 -1.5l119 328h62l-123 -344q157 -72 157 -175q0 -71 -79 -71q-49 0 -74 33q-12 17 -21 59q-10 55 -16 65l-195 -538q79 -53 140 -53 q110 0 174 73q25 33 69 125zM507 739q-27 11 -51 11q-109 0 -164 -97q-45 -80 -45 -196q0 -117 67 -244z" />
<glyph unicode="&#xa3;" horiz-adv-x="874" d="M836 258q-15 -113 -72 -188q-68 -90 -174 -90q-72 0 -150 45q-15 9 -47 32t-82 60q-68 -137 -159 -137q-46 0 -73.5 31t-27.5 79q0 30 10.5 54.5t29.5 42t45 27t57 9.5q27 0 71 -6q1 6 2 15t2 22v29q0 74 -18 280h-166v82h166q-12 127 -12 170q0 225 159 324 q72 45 158 45q82 0 145 -45q72 -50 72 -129q0 -14 -5.5 -26.5t-15 -23t-21.5 -16.5t-25 -6q-33 0 -54 33q-9 12 -14 69q-4 51 -28.5 74t-73.5 23q-156 0 -156 -240q0 -29 2.5 -68.5t7.5 -91.5l8 -92h221v-82h-221q1 -20 1.5 -34t0.5 -23q0 -148 -53 -307q162 -54 191 -60 q43 -10 88 -10q141 0 180 137zM254 147q-38 23 -72 23q-82 0 -82 -74q0 -67 56 -67q70 0 98 118z" />
<glyph unicode="&#xa7;" horiz-adv-x="874" d="M741 412q0 -179 -188 -293q104 -116 104 -217q0 -103 -69 -173q-68 -71 -172 -71q-83 0 -150 56q-65 56 -65 136q0 15 5.5 28.5t14.5 24t21 17t26 6.5q64 0 64 -76q0 -14 -8 -46q-7 -29 -7 -46q0 -32 37 -51q31 -16 66 -16q58 0 104 43q47 44 47 98q0 109 -176 240 q-122 91 -174 153q-88 100 -88 205q0 175 189 291q-105 117 -105 221q0 101 69 172q70 70 173 70q86 0 151 -54q66 -53 66 -135q0 -77 -68 -77q-67 0 -67 67q0 11 6 40q6 28 6 42q0 80 -94 80q-62 0 -105 -43t-43 -107q0 -55 23 -90q38 -60 129 -125q125 -92 184 -157 q94 -104 94 -213zM655 332q0 119 -192 268q-37 29 -65 52t-48 42q-129 -78 -129 -190q0 -80 66 -158q20 -23 53.5 -51.5t79.5 -63.5q31 -23 56.5 -44.5t47.5 -41.5q131 78 131 187z" />
<glyph unicode="&#xa9;" horiz-adv-x="1335" d="M1274 580q0 -163 -82 -306q-83 -143 -226 -222q-142 -79 -298 -79q-163 0 -306 82q-143 83 -222 224q-79 142 -79 301q0 163 84 307q84 146 226 222q143 77 297 77q161 0 304 -81q144 -81 222 -220q80 -146 80 -305zM1223 580q0 150 -76 280q-77 132 -208 203 q-132 72 -271 72q-148 0 -278 -75t-202 -202q-73 -133 -73 -278q0 -148 74 -279q76 -132 205 -203q131 -71 274 -71q148 0 279 74q129 74 203 205q73 130 73 274zM999 369q-119 -174 -327 -174q-165 0 -281 107q-115 108 -115 273q0 175 127 287q121 109 299 109 q60 0 158 -33q21 -6 31 -6q27 0 43 37h35l16 -238h-33q-62 201 -260 201q-138 0 -215 -107q-59 -85 -59 -225q0 -354 282 -354q169 0 269 139z" />
<glyph unicode="&#xab;" horiz-adv-x="1024" d="M961 -8h-60l-393 473l393 469h60l-244 -469zM508 -8h-57l-388 473l388 469h57l-244 -469z" />
<glyph unicode="&#xad;" horiz-adv-x="862" d="M729 389h-596v266h596v-266z" />
<glyph unicode="&#xb6;" horiz-adv-x="792" d="M797 1112h-115v-1491h-61v1491h-160v-1491h-62v893q-137 6 -209 31q-108 34 -159 125q-43 74 -43 170q0 189 170 278q84 41 215 41h424v-47z" />
<glyph unicode="&#xb7;" horiz-adv-x="512" d="M367 678q0 -48 -31.5 -79.5t-79.5 -31.5q-45 0 -78 33t-33 78q0 48 31.5 79t79.5 31t79.5 -31t31.5 -79z" />
<glyph unicode="&#xbb;" horiz-adv-x="1024" d="M961 463l-388 -471h-57l244 471l-244 471h57zM516 463l-393 -471h-60l244 471l-244 471h60z" />
<glyph unicode="&#xbc;" horiz-adv-x="1312" d="M1283 123h-92v-158h-100v158h-293v61l319 398h74v-389h92v-70zM1103 1184l-799 -1231h-76l799 1231h76zM405 567h-277v29q74 0 82 18q4 9 4 64v319q0 87 -12 101q-5 4 -17 4q-17 0 -57 -17l-14 23l176 76h28v-506q0 -51 7 -64q10 -18 80 -18v-29zM1091 193v268l-224 -268 h224z" />
<glyph unicode="&#xbd;" horiz-adv-x="1312" d="M1277 96l-53 -131h-422v27q323 251 323 389q0 55 -35.5 89t-89.5 34q-103 0 -141 -101h-39q27 179 207 179q78 0 137 -41q68 -45 68 -119q0 -134 -293 -373h160q110 0 139 47h39zM1082 1184l-798 -1231h-76l799 1231h75zM405 567h-277v29q74 0 82 18q4 9 4 64v319 q0 87 -12 101q-5 4 -17 4q-17 0 -57 -17l-14 23l176 76h28v-506q0 -51 7 -64q10 -18 80 -18v-29z" />
<glyph unicode="&#xbe;" horiz-adv-x="1312" d="M1283 123h-92v-158h-100v158h-293v61l319 398h74v-389h92v-70zM1091 1184l-797 -1231h-76l799 1231h74zM445 770q0 -107 -92 -166q-79 -49 -192 -49q-125 0 -125 53q0 39 49 39q23 0 71 -21q49 -20 76 -20q47 0 82 33t35 80q0 145 -198 141v25q59 0 107 36q48 37 48 97 q0 94 -104 94q-73 0 -125 -76l-33 15q66 133 197 133q63 0 112 -31q58 -37 58 -96q0 -58 -90 -131q124 -45 124 -156zM1091 193v268l-222 -268h222z" />
<glyph unicode="&#xd7;" horiz-adv-x="987" d="M844 281l-49 -50l-303 304l-302 -304l-49 50l301 301l-301 301l52 49l299 -299l301 299l49 -47l-301 -301z" />
<glyph unicode="&#xf7;" horiz-adv-x="1124" d="M648 987q0 -18 -7 -33.5t-19 -27t-28 -18.5t-34 -7t-34 7t-28 18.5t-19 27t-7 33.5q0 37 25.5 62.5t62.5 25.5q39 0 63.5 -24.5t24.5 -63.5zM1101 641h-1079v82h1079v-82zM648 367q0 -37 -25.5 -62.5t-62.5 -25.5q-18 0 -34 7t-28 19t-19 28t-7 34t7 34t19 28t28 19t34 7 q39 0 63.5 -26t24.5 -62z" />
<glyph unicode="&#x591;" d="M657 770q0 -119 -83 -202t-203 -83q-118 0 -200 84q-83 85 -83 201q0 118 83 203q82 84 200 84q120 0 203 -84q83 -85 83 -203zM578 770q0 88 -60 148q-58 61 -147 61q-86 0 -146 -61q-59 -61 -59 -148q0 -84 59 -146q60 -61 146 -61q89 0 147 61q60 61 60 146z" />
<glyph unicode="&#x592;" d="M657 770q0 -119 -83 -202t-203 -83q-118 0 -200 84q-83 85 -83 201q0 118 83 203q82 84 200 84q120 0 203 -84q83 -85 83 -203zM578 770q0 88 -60 148q-58 61 -147 61q-86 0 -146 -61q-59 -61 -59 -148q0 -84 59 -146q60 -61 146 -61q89 0 147 61q60 61 60 146z" />
<glyph unicode="&#x593;" d="M657 770q0 -119 -83 -202t-203 -83q-118 0 -200 84q-83 85 -83 201q0 118 83 203q82 84 200 84q120 0 203 -84q83 -85 83 -203zM578 770q0 88 -60 148q-58 61 -147 61q-86 0 -146 -61q-59 -61 -59 -148q0 -84 59 -146q60 -61 146 -61q89 0 147 61q60 61 60 146z" />
<glyph unicode="&#x594;" d="M657 770q0 -119 -83 -202t-203 -83q-118 0 -200 84q-83 85 -83 201q0 118 83 203q82 84 200 84q120 0 203 -84q83 -85 83 -203zM578 770q0 88 -60 148q-58 61 -147 61q-86 0 -146 -61q-59 -61 -59 -148q0 -84 59 -146q60 -61 146 -61q89 0 147 61q60 61 60 146z" />
<glyph unicode="&#x595;" d="M657 770q0 -119 -83 -202t-203 -83q-118 0 -200 84q-83 85 -83 201q0 118 83 203q82 84 200 84q120 0 203 -84q83 -85 83 -203zM578 770q0 88 -60 148q-58 61 -147 61q-86 0 -146 -61q-59 -61 -59 -148q0 -84 59 -146q60 -61 146 -61q89 0 147 61q60 61 60 146z" />
<glyph unicode="&#x596;" d="M657 770q0 -119 -83 -202t-203 -83q-118 0 -200 84q-83 85 -83 201q0 118 83 203q82 84 200 84q120 0 203 -84q83 -85 83 -203zM578 770q0 88 -60 148q-58 61 -147 61q-86 0 -146 -61q-59 -61 -59 -148q0 -84 59 -146q60 -61 146 -61q89 0 147 61q60 61 60 146z" />
<glyph unicode="&#x597;" d="M657 770q0 -119 -83 -202t-203 -83q-118 0 -200 84q-83 85 -83 201q0 118 83 203q82 84 200 84q120 0 203 -84q83 -85 83 -203zM578 770q0 88 -60 148q-58 61 -147 61q-86 0 -146 -61q-59 -61 -59 -148q0 -84 59 -146q60 -61 146 -61q89 0 147 61q60 61 60 146z" />
<glyph unicode="&#x598;" d="M657 770q0 -119 -83 -202t-203 -83q-118 0 -200 84q-83 85 -83 201q0 118 83 203q82 84 200 84q120 0 203 -84q83 -85 83 -203zM578 770q0 88 -60 148q-58 61 -147 61q-86 0 -146 -61q-59 -61 -59 -148q0 -84 59 -146q60 -61 146 -61q89 0 147 61q60 61 60 146z" />
<glyph unicode="&#x599;" d="M657 770q0 -119 -83 -202t-203 -83q-118 0 -200 84q-83 85 -83 201q0 118 83 203q82 84 200 84q120 0 203 -84q83 -85 83 -203zM578 770q0 88 -60 148q-58 61 -147 61q-86 0 -146 -61q-59 -61 -59 -148q0 -84 59 -146q60 -61 146 -61q89 0 147 61q60 61 60 146z" />
<glyph unicode="&#x59a;" d="M657 770q0 -119 -83 -202t-203 -83q-118 0 -200 84q-83 85 -83 201q0 118 83 203q82 84 200 84q120 0 203 -84q83 -85 83 -203zM578 770q0 88 -60 148q-58 61 -147 61q-86 0 -146 -61q-59 -61 -59 -148q0 -84 59 -146q60 -61 146 -61q89 0 147 61q60 61 60 146z" />
<glyph unicode="&#x59b;" d="M657 770q0 -119 -83 -202t-203 -83q-118 0 -200 84q-83 85 -83 201q0 118 83 203q82 84 200 84q120 0 203 -84q83 -85 83 -203zM578 770q0 88 -60 148q-58 61 -147 61q-86 0 -146 -61q-59 -61 -59 -148q0 -84 59 -146q60 -61 146 -61q89 0 147 61q60 61 60 146z" />
<glyph unicode="&#x59c;" d="M657 770q0 -119 -83 -202t-203 -83q-118 0 -200 84q-83 85 -83 201q0 118 83 203q82 84 200 84q120 0 203 -84q83 -85 83 -203zM578 770q0 88 -60 148q-58 61 -147 61q-86 0 -146 -61q-59 -61 -59 -148q0 -84 59 -146q60 -61 146 -61q89 0 147 61q60 61 60 146z" />
<glyph unicode="&#x59d;" d="M657 770q0 -119 -83 -202t-203 -83q-118 0 -200 84q-83 85 -83 201q0 118 83 203q82 84 200 84q120 0 203 -84q83 -85 83 -203zM578 770q0 88 -60 148q-58 61 -147 61q-86 0 -146 -61q-59 -61 -59 -148q0 -84 59 -146q60 -61 146 -61q89 0 147 61q60 61 60 146z" />
<glyph unicode="&#x59e;" d="M657 770q0 -119 -83 -202t-203 -83q-118 0 -200 84q-83 85 -83 201q0 118 83 203q82 84 200 84q120 0 203 -84q83 -85 83 -203zM578 770q0 88 -60 148q-58 61 -147 61q-86 0 -146 -61q-59 -61 -59 -148q0 -84 59 -146q60 -61 146 -61q89 0 147 61q60 61 60 146z" />
<glyph unicode="&#x59f;" d="M657 770q0 -119 -83 -202t-203 -83q-118 0 -200 84q-83 85 -83 201q0 118 83 203q82 84 200 84q120 0 203 -84q83 -85 83 -203zM578 770q0 88 -60 148q-58 61 -147 61q-86 0 -146 -61q-59 -61 -59 -148q0 -84 59 -146q60 -61 146 -61q89 0 147 61q60 61 60 146z" />
<glyph unicode="&#x5a0;" d="M657 770q0 -119 -83 -202t-203 -83q-118 0 -200 84q-83 85 -83 201q0 118 83 203q82 84 200 84q120 0 203 -84q83 -85 83 -203zM578 770q0 88 -60 148q-58 61 -147 61q-86 0 -146 -61q-59 -61 -59 -148q0 -84 59 -146q60 -61 146 -61q89 0 147 61q60 61 60 146z" />
<glyph unicode="&#x5a1;" d="M657 770q0 -119 -83 -202t-203 -83q-118 0 -200 84q-83 85 -83 201q0 118 83 203q82 84 200 84q120 0 203 -84q83 -85 83 -203zM578 770q0 88 -60 148q-58 61 -147 61q-86 0 -146 -61q-59 -61 -59 -148q0 -84 59 -146q60 -61 146 -61q89 0 147 61q60 61 60 146z" />
<glyph unicode="&#x5a3;" d="M657 770q0 -119 -83 -202t-203 -83q-118 0 -200 84q-83 85 -83 201q0 118 83 203q82 84 200 84q120 0 203 -84q83 -85 83 -203zM578 770q0 88 -60 148q-58 61 -147 61q-86 0 -146 -61q-59 -61 -59 -148q0 -84 59 -146q60 -61 146 -61q89 0 147 61q60 61 60 146z" />
<glyph unicode="&#x5a4;" d="M657 770q0 -119 -83 -202t-203 -83q-118 0 -200 84q-83 85 -83 201q0 118 83 203q82 84 200 84q120 0 203 -84q83 -85 83 -203zM578 770q0 88 -60 148q-58 61 -147 61q-86 0 -146 -61q-59 -61 -59 -148q0 -84 59 -146q60 -61 146 -61q89 0 147 61q60 61 60 146z" />
<glyph unicode="&#x5a5;" d="M657 770q0 -119 -83 -202t-203 -83q-118 0 -200 84q-83 85 -83 201q0 118 83 203q82 84 200 84q120 0 203 -84q83 -85 83 -203zM578 770q0 88 -60 148q-58 61 -147 61q-86 0 -146 -61q-59 -61 -59 -148q0 -84 59 -146q60 -61 146 -61q89 0 147 61q60 61 60 146z" />
<glyph unicode="&#x5a6;" d="M657 770q0 -119 -83 -202t-203 -83q-118 0 -200 84q-83 85 -83 201q0 118 83 203q82 84 200 84q120 0 203 -84q83 -85 83 -203zM578 770q0 88 -60 148q-58 61 -147 61q-86 0 -146 -61q-59 -61 -59 -148q0 -84 59 -146q60 -61 146 -61q89 0 147 61q60 61 60 146z" />
<glyph unicode="&#x5a7;" d="M657 770q0 -119 -83 -202t-203 -83q-118 0 -200 84q-83 85 -83 201q0 118 83 203q82 84 200 84q120 0 203 -84q83 -85 83 -203zM578 770q0 88 -60 148q-58 61 -147 61q-86 0 -146 -61q-59 -61 -59 -148q0 -84 59 -146q60 -61 146 -61q89 0 147 61q60 61 60 146z" />
<glyph unicode="&#x5a8;" d="M657 770q0 -119 -83 -202t-203 -83q-118 0 -200 84q-83 85 -83 201q0 118 83 203q82 84 200 84q120 0 203 -84q83 -85 83 -203zM578 770q0 88 -60 148q-58 61 -147 61q-86 0 -146 -61q-59 -61 -59 -148q0 -84 59 -146q60 -61 146 -61q89 0 147 61q60 61 60 146z" />
<glyph unicode="&#x5a9;" d="M657 770q0 -119 -83 -202t-203 -83q-118 0 -200 84q-83 85 -83 201q0 118 83 203q82 84 200 84q120 0 203 -84q83 -85 83 -203zM578 770q0 88 -60 148q-58 61 -147 61q-86 0 -146 -61q-59 -61 -59 -148q0 -84 59 -146q60 -61 146 -61q89 0 147 61q60 61 60 146z" />
<glyph unicode="&#x5aa;" d="M657 770q0 -119 -83 -202t-203 -83q-118 0 -200 84q-83 85 -83 201q0 118 83 203q82 84 200 84q120 0 203 -84q83 -85 83 -203zM578 770q0 88 -60 148q-58 61 -147 61q-86 0 -146 -61q-59 -61 -59 -148q0 -84 59 -146q60 -61 146 -61q89 0 147 61q60 61 60 146z" />
<glyph unicode="&#x5ab;" d="M657 770q0 -119 -83 -202t-203 -83q-118 0 -200 84q-83 85 -83 201q0 118 83 203q82 84 200 84q120 0 203 -84q83 -85 83 -203zM578 770q0 88 -60 148q-58 61 -147 61q-86 0 -146 -61q-59 -61 -59 -148q0 -84 59 -146q60 -61 146 -61q89 0 147 61q60 61 60 146z" />
<glyph unicode="&#x5ac;" d="M657 770q0 -119 -83 -202t-203 -83q-118 0 -200 84q-83 85 -83 201q0 118 83 203q82 84 200 84q120 0 203 -84q83 -85 83 -203zM578 770q0 88 -60 148q-58 61 -147 61q-86 0 -146 -61q-59 -61 -59 -148q0 -84 59 -146q60 -61 146 -61q89 0 147 61q60 61 60 146z" />
<glyph unicode="&#x5ad;" d="M657 770q0 -119 -83 -202t-203 -83q-118 0 -200 84q-83 85 -83 201q0 118 83 203q82 84 200 84q120 0 203 -84q83 -85 83 -203zM578 770q0 88 -60 148q-58 61 -147 61q-86 0 -146 -61q-59 -61 -59 -148q0 -84 59 -146q60 -61 146 -61q89 0 147 61q60 61 60 146z" />
<glyph unicode="&#x5ae;" d="M657 770q0 -119 -83 -202t-203 -83q-118 0 -200 84q-83 85 -83 201q0 118 83 203q82 84 200 84q120 0 203 -84q83 -85 83 -203zM578 770q0 88 -60 148q-58 61 -147 61q-86 0 -146 -61q-59 -61 -59 -148q0 -84 59 -146q60 -61 146 -61q89 0 147 61q60 61 60 146z" />
<glyph unicode="&#x5af;" d="M657 770q0 -119 -83 -202t-203 -83q-118 0 -200 84q-83 85 -83 201q0 118 83 203q82 84 200 84q120 0 203 -84q83 -85 83 -203zM578 770q0 88 -60 148q-58 61 -147 61q-86 0 -146 -61q-59 -61 -59 -148q0 -84 59 -146q60 -61 146 -61q89 0 147 61q60 61 60 146z" />
<glyph unicode="&#x5b0;" horiz-adv-x="2" d="M88 -243q0 -18 -7 -33.5t-18.5 -27t-27 -18.5t-33.5 -7t-34 7t-28 18.5t-19 27t-7 33.5t7.5 33t19.5 26.5t28 18t33 6.5q37 0 61.5 -24.5t24.5 -59.5zM88 -512q0 -17 -7 -32.5t-18.5 -27.5t-27 -19t-33.5 -7t-34 7t-28 19t-19 27.5t-7 32.5q0 18 7.5 33t19.5 26.5t28 18 t33 6.5q37 0 61.5 -24.5t24.5 -59.5z" />
<glyph unicode="&#x5b1;" horiz-adv-x="2" d="M-137 -243q0 -18 -7 -33.5t-18.5 -27t-27 -18.5t-33.5 -7q-17 0 -32.5 6.5t-27.5 18t-19 27.5t-7 34q0 16 7 31.5t18.5 27t27 18.5t33.5 7q37 0 61.5 -24.5t24.5 -59.5zM98 -243q0 -18 -7 -33.5t-18.5 -27t-27 -18.5t-33.5 -7q-17 0 -32.5 7t-27.5 18.5t-19.5 27 t-7.5 33.5q0 34 28 59q26 25 59 25q37 0 61.5 -23.5t24.5 -60.5zM-10 -450q0 -18 -7 -33.5t-18.5 -27t-27 -18.5t-33.5 -7q-17 0 -32.5 6.5t-27.5 18t-19 27.5t-7 34q0 35 25.5 59.5t60.5 24.5t60.5 -24.5t25.5 -59.5zM311 -243q0 -15 -6 -27.5t-16.5 -22t-23.5 -15 t-27 -5.5q-70 0 -70 70q0 74 70 74q73 0 73 -74zM311 -458q0 -29 -21.5 -50.5t-51.5 -21.5q-70 0 -70 72q0 30 20.5 50.5t49.5 20.5q73 0 73 -71z" />
<glyph unicode="&#x5b2;" horiz-adv-x="2" d="M287 -243q0 -29 -22.5 -49.5t-51.5 -20.5q-70 0 -70 70q0 74 70 74q74 0 74 -74zM287 -458q0 -29 -21.5 -50.5t-52.5 -21.5q-70 0 -70 72q0 71 70 71q74 0 74 -71zM-258 -305q-26 0 -26 31v66q0 30 26 30h301q27 0 27 -30v-66q0 -31 -27 -31h-301z" />
<glyph unicode="&#x5b3;" horiz-adv-x="2" d="M287 -243q0 -29 -22.5 -49.5t-51.5 -20.5q-70 0 -70 70q0 74 70 74q33 0 53.5 -20.5t20.5 -53.5zM287 -458q0 -29 -21.5 -50.5t-52.5 -21.5q-70 0 -70 72q0 71 70 71q74 0 74 -71zM43 -178q27 0 27 -30v-66q0 -31 -27 -31h-118q0 -42 20 -88l23 -51q8 -18 8 -35 t-6.5 -31.5t-18 -26t-26.5 -18t-33 -6.5t-33 6.5t-26.5 18t-18 26t-6.5 31.5t8 35l23 51q22 48 22 88h-119q-26 0 -26 31v66q0 30 26 30h301z" />
<glyph unicode="&#x5b4;" horiz-adv-x="2" d="M92 -243q0 -35 -28 -62q-27 -28 -62 -28q-36 0 -64 28q-28 27 -28 62q0 18 7.5 34t20.5 28t29.5 19t34.5 7q39 0 64.5 -25.5t25.5 -62.5z" />
<glyph unicode="&#x5b5;" horiz-adv-x="2" d="M-45 -243q0 -18 -7 -33.5t-18.5 -27t-27 -18.5t-33.5 -7q-17 0 -32.5 7t-27.5 18.5t-19 27t-7 33.5t7 33t19 26.5t27.5 18t32.5 6.5q86 0 86 -84zM219 -243q0 -18 -7 -33.5t-18.5 -27t-27 -18.5t-33.5 -7t-33.5 7t-27 18.5t-18.5 27t-7 33.5q0 35 25.5 59.5t60.5 24.5 q37 0 61.5 -24.5t24.5 -59.5z" />
<glyph unicode="&#x5b6;" horiz-adv-x="2" d="M-45 -243q0 -18 -7 -33.5t-18.5 -27t-27 -18.5t-33.5 -7q-17 0 -32.5 7t-27.5 18.5t-19 27t-7 33.5t7 33t19 26.5t27.5 18t32.5 6.5q86 0 86 -84zM219 -243q0 -18 -7 -33.5t-18.5 -27t-27 -18.5t-33.5 -7t-33.5 7t-27 18.5t-18.5 27t-7 33.5q0 35 25.5 59.5t60.5 24.5 q37 0 61.5 -24.5t24.5 -59.5zM94 -468q0 -18 -7 -33.5t-18.5 -27.5t-27 -19t-33.5 -7q-17 0 -32.5 7t-27 19t-18.5 27.5t-7 33.5q0 34 25.5 58.5t59.5 24.5q37 0 61.5 -24.5t24.5 -58.5z" />
<glyph unicode="&#x5b7;" horiz-adv-x="2" d="M-190 -305q-27 0 -27 31v66q0 30 27 30h383q26 0 26 -30v-66q0 -31 -26 -31h-383z" />
<glyph unicode="&#x5b8;" horiz-adv-x="2" d="M193 -178q26 0 26 -30v-66q0 -31 -26 -31h-158q0 -48 18 -88l23 -51q8 -18 8 -35q0 -35 -24.5 -58.5t-57.5 -23.5q-17 0 -32 6.5t-26.5 18t-18 26t-6.5 31.5t8 35l22 51q21 45 21 88h-160q-27 0 -27 31v66q0 30 27 30h383z" />
<glyph unicode="&#x5b9;" horiz-adv-x="2" d="M86 1250q0 -18 -7 -33.5t-18.5 -27t-27 -18.5t-33.5 -7q-17 0 -32.5 7t-27.5 18.5t-19 27t-7 33.5q0 16 7 31.5t19 27t27.5 18.5t32.5 7q39 0 62.5 -23.5t23.5 -60.5z" />
<glyph unicode="&#x5bb;" horiz-adv-x="2" d="M92 -243q0 -18 -7 -33.5t-18.5 -27t-27 -18.5t-33.5 -7t-33.5 7t-27 18.5t-18.5 27t-7 33.5q0 35 25.5 59.5t60.5 24.5q86 0 86 -84zM235 -417q0 -18 -7 -33.5t-18.5 -27t-27 -18.5t-33.5 -7q-17 0 -32.5 7t-27 18.5t-18.5 27t-7 33.5t7 33t18.5 26.5t27 18t32.5 6.5 q37 0 61.5 -23.5t24.5 -60.5zM376 -589q0 -18 -7 -33.5t-18.5 -27t-27 -18.5t-33.5 -7q-17 0 -32.5 7t-27.5 18.5t-19 27t-7 33.5q0 32 26 58t60 26q86 0 86 -84z" />
<glyph unicode="&#x5bc;" horiz-adv-x="2" d="M86 457q0 -18 -7 -33.5t-18.5 -27t-27 -18.5t-33.5 -7q-17 0 -32.5 7t-27.5 18.5t-19 27t-7 33.5q0 32 27 58q28 26 59 26q37 0 61.5 -23.5t24.5 -60.5z" />
<glyph unicode="&#x5bd;" horiz-adv-x="2" d="M67 -587q0 -27 -31 -27h-65q-31 0 -31 27v383q0 26 31 26h65q31 0 31 -26v-383z" />
<glyph unicode="&#x5be;" horiz-adv-x="661" d="M494 759h-361v266h361v-266z" />
<glyph unicode="&#x5bf;" horiz-adv-x="661" d="M494 759h-361v266h361v-266z" />
<glyph unicode="&#x5c0;" horiz-adv-x="655" d="M450 -334h-246v1727h246v-1727z" />
<glyph unicode="&#x5c1;" horiz-adv-x="2" d="M1276 1250q0 -18 -7 -33.5t-18.5 -27t-27 -18.5t-33.5 -7q-17 0 -32.5 7t-27.5 18.5t-19 27t-7 33.5q0 16 7 31.5t19 27t27.5 18.5t32.5 7q39 0 62.5 -23.5t23.5 -60.5z" />
<glyph unicode="&#x5c2;" horiz-adv-x="2" d="M316 1250q0 -18 -7 -33.5t-18.5 -27t-27 -18.5t-33.5 -7q-17 0 -32.5 7t-27.5 18.5t-19 27t-7 33.5q0 16 7 31.5t19 27t27.5 18.5t32.5 7q39 0 62.5 -23.5t23.5 -60.5z" />
<glyph unicode="&#x5c3;" horiz-adv-x="514" d="M391 586h-289v288h289v-288zM391 0h-289v289h289v-289z" />
<glyph unicode="&#x5c4;" horiz-adv-x="2" d="M86 1250q0 -18 -7 -33.5t-18.5 -27t-27 -18.5t-33.5 -7q-17 0 -32.5 7t-27.5 18.5t-19 27t-7 33.5q0 16 7 31.5t19 27t27.5 18.5t32.5 7q39 0 62.5 -23.5t23.5 -60.5z" />
<glyph unicode="&#x5d0;" horiz-adv-x="1239" d="M1187 0h-409q-31 45 -73 106.5t-85.5 126t-84 125t-68.5 103.5q-21 -21 -24 -54.5t-3 -82.5v-324h-363v213q1 79 6 135.5t16.5 97.5t29 71t43 56.5t59.5 53.5t78 63q-51 66 -113.5 146.5t-134.5 179.5v31h399q29 -41 65 -92.5t75.5 -107t79.5 -111.5t77 -107 q17 24 19 47.5t2 62.5v308h375v-158q0 -64 -3 -112.5t-12 -87t-25.5 -70.5t-43.5 -63.5t-66.5 -64.5t-93.5 -73q26 -35 61.5 -84.5t73.5 -104t75.5 -108t67.5 -96.5v-25z" />
<glyph unicode="&#x5d1;" horiz-adv-x="1042" d="M980 0h-913v309h426q12 0 17.5 3t11.5 20q4 11 5.5 25.5t1.5 35t-0.5 48.5t-0.5 65q0 49 -1 82t-3 55.5t-5 37t-8 26.5q-6 16 -22 23t-27 7h-381v310h568q47 0 83.5 -9.5t77.5 -42.5q66 -52 84 -140q19 -85 19 -202q0 -87 -8.5 -176.5t-38.5 -167.5h114v-309z" />
<glyph unicode="&#x5d2;" horiz-adv-x="849" d="M440 0q-2 16 -5 46.5t-6.5 64.5t-7 66.5t-6.5 53.5q-53 -69 -111 -126q-29 -28 -64.5 -55.5t-80.5 -53.5q-8 -5 -19.5 -10.5t-27.5 -12.5q-33 -14 -51 -14v381q87 43 159 80.5t124 79.5q16 12 28.5 26.5t12.5 34.5v86q0 42 -8.5 66t-30.5 24h-254v310h407q58 0 105 -19 t80 -58t51 -100t18 -145v-340q0 -12 2 -35t4.5 -52t6 -62.5t6.5 -66.5t6 -63t4 -53q0 -12 4 -32q4 -21 -4 -21h-342z" />
<glyph unicode="&#x5d3;" horiz-adv-x="1036" d="M968 737h-119v-737h-377v737h-432v310h928v-310z" />
<glyph unicode="&#x5d4;" horiz-adv-x="1181" d="M1079 0h-373v645q0 17 -1 33t-3 30q-5 29 -29 29h-571v310h653q61 0 119.5 -13t104 -52.5t73 -112.5t27.5 -193v-676zM475 0h-373v586h373v-586z" />
<glyph unicode="&#x5d5;" horiz-adv-x="583" d="M475 0h-373v1047h373v-1047z" />
<glyph unicode="&#x5d6;" horiz-adv-x="765" d="M704 737h-89q-45 0 -45 -47v-690h-372v543q0 29 5.5 52t18.5 44t34.5 41t53.5 43v14h-270v310h664v-310z" />
<glyph unicode="&#x5d7;" horiz-adv-x="1202" d="M1099 0h-372v645q0 17 -1.5 33t-3.5 30q-5 29 -28 29h-219v-737h-373v1047h674q41 0 81 -5t76 -19.5t66 -40.5t52.5 -67t35 -100t12.5 -139v-676z" />
<glyph unicode="&#x5d8;" horiz-adv-x="1226" d="M1154 1047l-35 -314l-39 -342q-10 -94 -37.5 -169t-81 -128t-135.5 -81.5t-202 -28.5h-97q-120 0 -197.5 21t-124 63.5t-68 106.5t-29.5 151l-39 411l-29 310h391l23 -316l26 -369q2 -23 7.5 -36.5t16 -20.5t26.5 -9.5t40 -2.5h33q49 0 74 16.5t29 61.5l39 366h-160v310 h569z" />
<glyph unicode="&#x5d9;" horiz-adv-x="573" d="M471 446h-373v601h373v-601z" />
<glyph unicode="&#x5da;" horiz-adv-x="935" d="M833 -319h-373v964q0 17 -1 33t-3 30q-5 29 -29 29h-387v310h469q61 0 119.5 -13t104 -52.5t73 -112.5t27.5 -193v-995z" />
<glyph unicode="&#x5db;" horiz-adv-x="958" d="M897 524q0 -116 -19.5 -212.5t-64.5 -165.5t-119.5 -107.5t-183.5 -38.5h-449v309h387q12 0 25.5 5t19.5 22q4 10 7 23t4.5 34t2 52.5t0.5 78.5q0 49 -2 79t-5.5 48.5t-8 30t-8.5 25.5q-6 16 -22.5 23t-26.5 7h-373v310h457q110 0 183 -36t116.5 -103.5t61.5 -164.5 t18 -219z" />
<glyph unicode="&#x5dc;" horiz-adv-x="964" d="M917 1047l-49 -311l-62 -398q-26 -161 -120 -249q-95 -89 -234 -89h-205v305h72q22 0 41.5 5t35 18.5t26 36.5t15.5 59l45 313h-442v619h373v-309h504z" />
<glyph unicode="&#x5dd;" horiz-adv-x="1222" d="M1120 0h-1018v1047h694q61 0 119.5 -13t104 -52.5t73 -112.5t27.5 -193v-676zM755 301v354q0 17 -1 33.5t-3 30.5q-5 29 -28 29h-254v-447h286z" />
<glyph unicode="&#x5de;" horiz-adv-x="1269" d="M1167 0h-564v309h195v318q0 57 -28.5 82.5t-82.5 25.5h-18q-57 0 -85 -27t-38 -90l-110 -618h-381l110 586l-135 461h381l78 -232l18 55q33 97 95.5 142t172.5 45h82q61 0 117.5 -15.5t99 -52.5t68 -97t25.5 -149v-743z" />
<glyph unicode="&#x5df;" horiz-adv-x="577" d="M475 -319h-373v1366h373v-1366z" />
<glyph unicode="&#x5e0;" horiz-adv-x="761" d="M659 0h-592v309h219v371q0 57 -53 57h-146v310h365q54 0 93.5 -16.5t64.5 -47t37 -73.5t12 -95v-815z" />
<glyph unicode="&#x5e1;" horiz-adv-x="1243" d="M1170 1047l-71 -676q-10 -87 -39.5 -158.5t-85 -122t-140.5 -78.5t-206 -28h-58q-120 0 -203 20t-136.5 64.5t-82 115.5t-38.5 174l-70 689h1130zM759 745h-307l26 -378q4 -45 35.5 -59.5t85.5 -14.5h12q51 0 82 16.5t35 61.5z" />
<glyph unicode="&#x5e2;" horiz-adv-x="1216" d="M1114 477q0 -100 -24 -187t-76 -151.5t-134 -101.5t-199 -37h-614v309h180l-151 738h381l147 -738h27q45 0 66.5 21.5t21.5 72.5v644h375v-570z" />
<glyph unicode="&#x5e3;" horiz-adv-x="1130" d="M1028 -319h-373v985q0 17 -1 33t-3 30q-5 29 -29 29h-163v-119q0 -23 20 -23h62v-213h-304q-145 0 -145 150v494h612q41 0 81 -5t76 -19.5t66.5 -40.5t53 -67t35 -100t12.5 -139v-995z" />
<glyph unicode="&#x5e4;" horiz-adv-x="1163" d="M1091 524q0 -123 -18.5 -220t-62.5 -164.5t-116.5 -103.5t-181.5 -36h-616v305h555q12 0 25.5 5t17.5 22q10 22 12 68t2 124q0 154 -14 205q-6 16 -19.5 23.5t-23.5 7.5h-197v-115q0 -16 17 -16h74v-199h-295q-88 0 -121 35q-33 34 -33 139v443h625q109 0 180.5 -34 t113.5 -100.5t59 -164t17 -224.5z" />
<glyph unicode="&#x5e5;" horiz-adv-x="1157" d="M1063 1047v-156q0 -83 -11.5 -146t-34.5 -111.5t-58.5 -85.5t-83.5 -68t-108.5 -59t-133.5 -59v-681h-373v655q0 45 -3 75.5t-9 54.5t-14.5 44.5t-18.5 46.5l-207 490h389l191 -437q38 21 57.5 58.5t27.5 92t8.5 126t0.5 160.5h381z" />
<glyph unicode="&#x5e6;" horiz-adv-x="1148" d="M1059 18q0 -18 -17 -18h-194h-772v309h405l-471 717v21h418l239 -406q8 14 14 26.5t8 23.5t3.5 29t1.5 44v283h375v-175q0 -96 -10.5 -161.5t-38.5 -114.5t-78 -89t-129 -85l239 -361q7 -10 7 -19v-15v-9z" />
<glyph unicode="&#x5e7;" horiz-adv-x="1234" d="M1167 1047l-78 -668q-24 -209 -123 -294q-97 -85 -256 -85h-129v293h35q51 0 69.5 24.5t22.5 67.5l39 352h-651v310h1071zM481 -319h-373v937h373v-937z" />
<glyph unicode="&#x5e8;" horiz-adv-x="935" d="M833 0h-373v645q0 17 -1 33t-3 30q-5 29 -29 29h-387v310h469q61 0 119.5 -13t104 -52.5t73 -112.5t27.5 -193v-676z" />
<glyph unicode="&#x5e9;" horiz-adv-x="1511" d="M1431 1047l-57 -633q-10 -113 -54.5 -195t-118 -136t-173.5 -80t-221 -26h-154q-127 0 -223 19.5t-163 67t-106.5 127t-52.5 200.5l-61 656h365l34 -390h54q28 0 45.5 20.5t17.5 57.5l4 312h344l-6 -322q-4 -142 -73 -213.5t-199 -71.5h-172q0 -8 1 -13t1 -9t2 -10 q4 -32 16 -56t37 -40t65.5 -23.5t102.5 -7.5h90q125 0 177 34q51 34 59 113l55 619h364z" />
<glyph unicode="&#x5ea;" horiz-adv-x="1282" d="M1171 0h-372v645q0 17 -1.5 33t-3.5 30q-5 29 -28 29h-215v-458q0 -84 -28 -140.5t-74 -91.5t-105.5 -50t-122.5 -15q-57 0 -94 6q-36 6 -82 18v303q16 -8 39.5 -13t42.5 -5q18 0 29.5 5t18 13.5t9 19t2.5 21.5v697h662q61 0 119.5 -12t103.5 -50.5t72.5 -111 t27.5 -193.5v-680z" />
<glyph unicode="&#x5f0;" horiz-adv-x="700" d="M609 712q0 -110 -77 -187q-76 -76 -187 -76q-108 0 -185 77t-77 186q0 110 77 187t185 77q110 0 187 -77t77 -187zM536 712q0 81 -56 137q-55 55 -135 55t-135 -55t-55 -137q0 -79 55 -135q56 -56 135 -56t135 56q56 58 56 135z" />
<glyph unicode="&#x5f1;" horiz-adv-x="700" d="M609 712q0 -110 -77 -187q-76 -76 -187 -76q-108 0 -185 77t-77 186q0 110 77 187t185 77q110 0 187 -77t77 -187zM536 712q0 81 -56 137q-55 55 -135 55t-135 -55t-55 -137q0 -79 55 -135q56 -56 135 -56t135 56q56 58 56 135z" />
<glyph unicode="&#x5f2;" horiz-adv-x="700" d="M609 712q0 -110 -77 -187q-76 -76 -187 -76q-108 0 -185 77t-77 186q0 110 77 187t185 77q110 0 187 -77t77 -187zM536 712q0 81 -56 137q-55 55 -135 55t-135 -55t-55 -137q0 -79 55 -135q56 -56 135 -56t135 56q56 58 56 135z" />
<glyph unicode="&#x5f3;" horiz-adv-x="534" d="M442 1253q0 -69 -11.5 -145t-30.5 -146.5t-44 -130t-51 -94.5h-238q47 119 65 253q10 69 14.5 134t4.5 129h291z" />
<glyph unicode="&#x5f4;" horiz-adv-x="942" d="M442 1247q0 -69 -11.5 -145t-30.5 -146.5t-44 -130t-51 -94.5h-238q47 119 65 253q10 69 14.5 134t4.5 129h291zM849 1247q0 -69 -11.5 -145t-30 -146.5t-43.5 -130t-52 -94.5h-237q47 119 65 253q10 69 14.5 134t4.5 129h290z" />
<glyph unicode="&#x2000;" horiz-adv-x="721" />
<glyph unicode="&#x2001;" horiz-adv-x="1443" />
<glyph unicode="&#x2002;" horiz-adv-x="721" />
<glyph unicode="&#x2003;" horiz-adv-x="1443" />
<glyph unicode="&#x2004;" horiz-adv-x="481" />
<glyph unicode="&#x2005;" horiz-adv-x="360" />
<glyph unicode="&#x2006;" horiz-adv-x="240" />
<glyph unicode="&#x2007;" horiz-adv-x="240" />
<glyph unicode="&#x2008;" horiz-adv-x="180" />
<glyph unicode="&#x2009;" horiz-adv-x="288" />
<glyph unicode="&#x200a;" horiz-adv-x="80" />
<glyph unicode="&#x200c;" d="M657 770q0 -119 -83 -202t-203 -83q-118 0 -200 84q-83 85 -83 201q0 118 83 203q82 84 200 84q120 0 203 -84q83 -85 83 -203zM578 770q0 88 -60 148q-58 61 -147 61q-86 0 -146 -61q-59 -61 -59 -148q0 -84 59 -146q60 -61 146 -61q89 0 147 61q60 61 60 146z" />
<glyph unicode="&#x200d;" d="M657 770q0 -119 -83 -202t-203 -83q-118 0 -200 84q-83 85 -83 201q0 118 83 203q82 84 200 84q120 0 203 -84q83 -85 83 -203zM578 770q0 88 -60 148q-58 61 -147 61q-86 0 -146 -61q-59 -61 -59 -148q0 -84 59 -146q60 -61 146 -61q89 0 147 61q60 61 60 146z" />
<glyph unicode="&#x200e;" d="M657 770q0 -119 -83 -202t-203 -83q-118 0 -200 84q-83 85 -83 201q0 118 83 203q82 84 200 84q120 0 203 -84q83 -85 83 -203zM578 770q0 88 -60 148q-58 61 -147 61q-86 0 -146 -61q-59 -61 -59 -148q0 -84 59 -146q60 -61 146 -61q89 0 147 61q60 61 60 146z" />
<glyph unicode="&#x200f;" d="M657 770q0 -119 -83 -202t-203 -83q-118 0 -200 84q-83 85 -83 201q0 118 83 203q82 84 200 84q120 0 203 -84q83 -85 83 -203zM578 770q0 88 -60 148q-58 61 -147 61q-86 0 -146 -61q-59 -61 -59 -148q0 -84 59 -146q60 -61 146 -61q89 0 147 61q60 61 60 146z" />
<glyph unicode="&#x2010;" horiz-adv-x="862" d="M729 389h-596v266h596v-266z" />
<glyph unicode="&#x2011;" horiz-adv-x="862" d="M729 389h-596v266h596v-266z" />
<glyph unicode="&#x2012;" horiz-adv-x="862" d="M729 389h-596v266h596v-266z" />
<glyph unicode="&#x2013;" horiz-adv-x="862" d="M729 389h-596v266h596v-266z" />
<glyph unicode="&#x2014;" horiz-adv-x="1152" d="M992 389h-859v266h859v-266z" />
<glyph unicode="&#x2018;" horiz-adv-x="534" d="M67 737q0 69 11.5 145t30.5 146.5t44 130t51 94.5h238q-47 -117 -66 -253q-18 -137 -18 -263h-291z" />
<glyph unicode="&#x2019;" horiz-adv-x="534" d="M442 1253q0 -69 -11.5 -145t-30.5 -146.5t-44 -130t-51 -94.5h-238q47 119 65 253q10 69 14.5 134t4.5 129h291z" />
<glyph unicode="&#x201c;" horiz-adv-x="942" d="M474 731q0 69 11.5 145t30.5 146.5t44 130t51 94.5h238q-47 -117 -66 -253q-18 -137 -18 -263h-291zM67 731q0 69 11.5 145t30 146.5t43.5 130t52 94.5h237q-47 -117 -66 -253q-18 -137 -18 -263h-290z" />
<glyph unicode="&#x201d;" horiz-adv-x="942" d="M442 1247q0 -69 -11.5 -145t-30.5 -146.5t-44 -130t-51 -94.5h-238q47 119 65 253q10 69 14.5 134t4.5 129h291zM849 1247q0 -69 -11.5 -145t-30 -146.5t-43.5 -130t-52 -94.5h-237q47 119 65 253q10 69 14.5 134t4.5 129h290z" />
<glyph unicode="&#x2022;" horiz-adv-x="612" d="M524 580q0 -91 -62.5 -153t-150.5 -62q-90 0 -152.5 62t-62.5 153q0 90 61.5 151.5t153.5 61.5q90 0 151.5 -61.5t61.5 -151.5z" />
<glyph unicode="&#x202f;" horiz-adv-x="288" />
<glyph unicode="&#x2039;" horiz-adv-x="681" d="M562 -8h-57l-387 473l387 469h57l-244 -469z" />
<glyph unicode="&#x203a;" horiz-adv-x="681" d="M566 463l-395 -471h-57l243 471l-243 471h57z" />
<glyph unicode="&#x205f;" horiz-adv-x="360" />
<glyph unicode="&#x20aa;" horiz-adv-x="1579" d="M1435 147q0 -65 -41 -106t-102 -41h-797v547h233v-314h445q29 0 29 31v641h233v-758zM1083 358h-233v283q0 31 -29 31h-445v-672h-233v905h797q61 0 102 -42q41 -43 41 -105v-400z" />
<glyph unicode="&#x22c5;" horiz-adv-x="662" d="M565 627q0 -98 -68 -166q-68 -66 -161 -66q-99 0 -166 66q-68 68 -68 166t67 164q67 67 167 67q96 0 162 -67q67 -66 67 -164z" />
<glyph unicode="&#x25a0;" d="M657 770q0 -119 -83 -202t-203 -83q-118 0 -200 84q-83 85 -83 201q0 118 83 203q82 84 200 84q120 0 203 -84q83 -85 83 -203zM578 770q0 88 -60 148q-58 61 -147 61q-86 0 -146 -61q-59 -61 -59 -148q0 -84 59 -146q60 -61 146 -61q89 0 147 61q60 61 60 146z" />
<glyph unicode="&#x25a1;" d="M657 770q0 -119 -83 -202t-203 -83q-118 0 -200 84q-83 85 -83 201q0 118 83 203q82 84 200 84q120 0 203 -84q83 -85 83 -203zM578 770q0 88 -60 148q-58 61 -147 61q-86 0 -146 -61q-59 -61 -59 -148q0 -84 59 -146q60 -61 146 -61q89 0 147 61q60 61 60 146z" />
<glyph unicode="&#x25c6;" d="M657 770q0 -119 -83 -202t-203 -83q-118 0 -200 84q-83 85 -83 201q0 118 83 203q82 84 200 84q120 0 203 -84q83 -85 83 -203zM578 770q0 88 -60 148q-58 61 -147 61q-86 0 -146 -61q-59 -61 -59 -148q0 -84 59 -146q60 -61 146 -61q89 0 147 61q60 61 60 146z" />
<glyph unicode="&#x25c7;" d="M657 770q0 -119 -83 -202t-203 -83q-118 0 -200 84q-83 85 -83 201q0 118 83 203q82 84 200 84q120 0 203 -84q83 -85 83 -203zM578 770q0 88 -60 148q-58 61 -147 61q-86 0 -146 -61q-59 -61 -59 -148q0 -84 59 -146q60 -61 146 -61q89 0 147 61q60 61 60 146z" />
<glyph unicode="&#x25cb;" d="M657 770q0 -119 -83 -202t-203 -83q-118 0 -200 84q-83 85 -83 201q0 118 83 203q82 84 200 84q120 0 203 -84q83 -85 83 -203zM578 770q0 88 -60 148q-58 61 -147 61q-86 0 -146 -61q-59 -61 -59 -148q0 -84 59 -146q60 -61 146 -61q89 0 147 61q60 61 60 146z" />
<glyph unicode="&#x25cc;" d="M657 770q0 -119 -83 -202t-203 -83q-118 0 -200 84q-83 85 -83 201q0 118 83 203q82 84 200 84q120 0 203 -84q83 -85 83 -203zM578 770q0 88 -60 148q-58 61 -147 61q-86 0 -146 -61q-59 -61 -59 -148q0 -84 59 -146q60 -61 146 -61q89 0 147 61q60 61 60 146z" />
<glyph unicode="&#x25fc;" horiz-adv-x="995" d="M0 995h995v-995h-995v995z" />
<glyph unicode="&#x2605;" d="M657 770q0 -119 -83 -202t-203 -83q-118 0 -200 84q-83 85 -83 201q0 118 83 203q82 84 200 84q120 0 203 -84q83 -85 83 -203zM578 770q0 88 -60 148q-58 61 -147 61q-86 0 -146 -61q-59 -61 -59 -148q0 -84 59 -146q60 -61 146 -61q89 0 147 61q60 61 60 146z" />
<glyph unicode="&#x274f;" d="M657 770q0 -119 -83 -202t-203 -83q-118 0 -200 84q-83 85 -83 201q0 118 83 203q82 84 200 84q120 0 203 -84q83 -85 83 -203zM578 770q0 88 -60 148q-58 61 -147 61q-86 0 -146 -61q-59 -61 -59 -148q0 -84 59 -146q60 -61 146 -61q89 0 147 61q60 61 60 146z" />
<glyph unicode="&#xe802;" horiz-adv-x="935" d="M833 -319h-373v964q0 17 -1 33t-3 30q-5 29 -29 29h-387v310h469q61 0 119.5 -13t104 -52.5t73 -112.5t27.5 -193v-995zM307 336q0 -18 -7 -33.5t-18.5 -27t-27 -18.5t-33.5 -7t-34 7t-28 18.5t-19 27t-7 33.5t7.5 33t19.5 26.5t28 18t33 6.5q37 0 61.5 -24.5t24.5 -59.5 zM307 67q0 -17 -7 -32.5t-18.5 -27.5t-27 -19t-33.5 -7t-34 7t-28 19t-19 27.5t-7 32.5q0 18 7.5 33t19.5 26.5t28 18t33 6.5q37 0 61.5 -24.5t24.5 -59.5z" />
<glyph unicode="&#xe803;" horiz-adv-x="935" d="M833 -319h-373v964q0 17 -1 33t-3 30q-5 29 -29 29h-387v310h469q61 0 119.5 -13t104 -52.5t73 -112.5t27.5 -193v-995zM391 367q26 0 26 -30v-66q0 -31 -26 -31h-158q0 -48 18 -88l23 -51q8 -18 8 -35q0 -35 -24.5 -58.5t-57.5 -23.5q-17 0 -32 6.5t-26.5 18t-18 26 t-6.5 31.5t8 35l22 51q21 45 21 88h-160q-27 0 -27 31v66q0 30 27 30h383z" />
<glyph unicode="&#xe804;" horiz-adv-x="964" d="M917 1047l-111 -709q-26 -161 -120 -249q-95 -89 -234 -89h-205v305h72q22 0 41.5 5t35 18.5t26 36.5t15.5 59l45 313h-442v619h373v-309h504zM-4 1250q0 -18 -7 -33.5t-18.5 -27t-27 -18.5t-33.5 -7q-17 0 -32.5 7t-27.5 18.5t-19 27t-7 33.5q0 16 7 31.5t19 27 t27.5 18.5t32.5 7q39 0 62.5 -23.5t23.5 -60.5z" />
<glyph unicode="&#xe805;" horiz-adv-x="964" d="M917 1047l-111 -709q-26 -161 -120 -249q-95 -89 -234 -89h-205v305h72q22 0 41.5 5t35 18.5t26 36.5t15.5 59l45 313h-442v619h373v-309h504zM300 530q0 -15 -5.5 -28t-15 -23.5t-22 -16.5t-26.5 -6q-30 0 -50.5 22.5t-20.5 51.5q0 14 6 27t16 23.5t22.5 16.5t26.5 6 q29 0 49 -20t20 -53zM-4 1250q0 -18 -7 -33.5t-18.5 -27t-27 -18.5t-33.5 -7q-17 0 -32.5 7t-27.5 18.5t-19 27t-7 33.5q0 16 7 31.5t19 27t27.5 18.5t32.5 7q39 0 62.5 -23.5t23.5 -60.5z" />
<glyph unicode="&#xfb1d;" horiz-adv-x="700" d="M609 712q0 -110 -77 -187q-76 -76 -187 -76q-108 0 -185 77t-77 186q0 110 77 187t185 77q110 0 187 -77t77 -187zM536 712q0 81 -56 137q-55 55 -135 55t-135 -55t-55 -137q0 -79 55 -135q56 -56 135 -56t135 56q56 58 56 135z" />
<glyph unicode="&#xfb1e;" horiz-adv-x="700" d="M609 712q0 -110 -77 -187q-76 -76 -187 -76q-108 0 -185 77t-77 186q0 110 77 187t185 77q110 0 187 -77t77 -187zM536 712q0 81 -56 137q-55 55 -135 55t-135 -55t-55 -137q0 -79 55 -135q56 -56 135 -56t135 56q56 58 56 135z" />
<glyph unicode="&#xfb1f;" horiz-adv-x="700" d="M609 712q0 -110 -77 -187q-76 -76 -187 -76q-108 0 -185 77t-77 186q0 110 77 187t185 77q110 0 187 -77t77 -187zM536 712q0 81 -56 137q-55 55 -135 55t-135 -55t-55 -137q0 -79 55 -135q56 -56 135 -56t135 56q56 58 56 135z" />
<glyph unicode="&#xfb20;" horiz-adv-x="700" d="M609 712q0 -110 -77 -187q-76 -76 -187 -76q-108 0 -185 77t-77 186q0 110 77 187t185 77q110 0 187 -77t77 -187zM536 712q0 81 -56 137q-55 55 -135 55t-135 -55t-55 -137q0 -79 55 -135q56 -56 135 -56t135 56q56 58 56 135z" />
<glyph unicode="&#xfb21;" horiz-adv-x="700" d="M609 712q0 -110 -77 -187q-76 -76 -187 -76q-108 0 -185 77t-77 186q0 110 77 187t185 77q110 0 187 -77t77 -187zM536 712q0 81 -56 137q-55 55 -135 55t-135 -55t-55 -137q0 -79 55 -135q56 -56 135 -56t135 56q56 58 56 135z" />
<glyph unicode="&#xfb22;" horiz-adv-x="700" d="M609 712q0 -110 -77 -187q-76 -76 -187 -76q-108 0 -185 77t-77 186q0 110 77 187t185 77q110 0 187 -77t77 -187zM536 712q0 81 -56 137q-55 55 -135 55t-135 -55t-55 -137q0 -79 55 -135q56 -56 135 -56t135 56q56 58 56 135z" />
<glyph unicode="&#xfb23;" horiz-adv-x="700" d="M609 712q0 -110 -77 -187q-76 -76 -187 -76q-108 0 -185 77t-77 186q0 110 77 187t185 77q110 0 187 -77t77 -187zM536 712q0 81 -56 137q-55 55 -135 55t-135 -55t-55 -137q0 -79 55 -135q56 -56 135 -56t135 56q56 58 56 135z" />
<glyph unicode="&#xfb24;" horiz-adv-x="700" d="M609 712q0 -110 -77 -187q-76 -76 -187 -76q-108 0 -185 77t-77 186q0 110 77 187t185 77q110 0 187 -77t77 -187zM536 712q0 81 -56 137q-55 55 -135 55t-135 -55t-55 -137q0 -79 55 -135q56 -56 135 -56t135 56q56 58 56 135z" />
<glyph unicode="&#xfb25;" horiz-adv-x="700" d="M609 712q0 -110 -77 -187q-76 -76 -187 -76q-108 0 -185 77t-77 186q0 110 77 187t185 77q110 0 187 -77t77 -187zM536 712q0 81 -56 137q-55 55 -135 55t-135 -55t-55 -137q0 -79 55 -135q56 -56 135 -56t135 56q56 58 56 135z" />
<glyph unicode="&#xfb26;" horiz-adv-x="700" d="M609 712q0 -110 -77 -187q-76 -76 -187 -76q-108 0 -185 77t-77 186q0 110 77 187t185 77q110 0 187 -77t77 -187zM536 712q0 81 -56 137q-55 55 -135 55t-135 -55t-55 -137q0 -79 55 -135q56 -56 135 -56t135 56q56 58 56 135z" />
<glyph unicode="&#xfb27;" horiz-adv-x="700" d="M609 712q0 -110 -77 -187q-76 -76 -187 -76q-108 0 -185 77t-77 186q0 110 77 187t185 77q110 0 187 -77t77 -187zM536 712q0 81 -56 137q-55 55 -135 55t-135 -55t-55 -137q0 -79 55 -135q56 -56 135 -56t135 56q56 58 56 135z" />
<glyph unicode="&#xfb28;" horiz-adv-x="700" d="M609 712q0 -110 -77 -187q-76 -76 -187 -76q-108 0 -185 77t-77 186q0 110 77 187t185 77q110 0 187 -77t77 -187zM536 712q0 81 -56 137q-55 55 -135 55t-135 -55t-55 -137q0 -79 55 -135q56 -56 135 -56t135 56q56 58 56 135z" />
<glyph unicode="&#xfb29;" horiz-adv-x="862" d="M790 410h-719v225h248v248h225v-248h246v-225z" />
<glyph unicode="&#xfb2a;" horiz-adv-x="1511" d="M1431 1047l-57 -633q-10 -113 -54.5 -195t-118 -136t-173.5 -80t-221 -26h-154q-127 0 -223 19.5t-163 67t-106.5 127t-52.5 200.5l-61 656h365l34 -390h54q28 0 45.5 20.5t17.5 57.5l4 312h344l-6 -322q-4 -142 -73 -213.5t-199 -71.5h-172q0 -8 1 -13t1 -9t2 -10 q4 -32 16 -56t37 -40t65.5 -23.5t102.5 -7.5h90q125 0 177 34q51 34 59 113l55 619h364zM1276 1250q0 -18 -7 -33.5t-18.5 -27t-27 -18.5t-33.5 -7q-17 0 -32.5 7t-27.5 18.5t-19 27t-7 33.5q0 16 7 31.5t19 27t27.5 18.5t32.5 7q39 0 62.5 -23.5t23.5 -60.5z" />
<glyph unicode="&#xfb2b;" horiz-adv-x="1511" d="M1431 1047l-57 -633q-10 -113 -54.5 -195t-118 -136t-173.5 -80t-221 -26h-154q-127 0 -223 19.5t-163 67t-106.5 127t-52.5 200.5l-61 656h365l34 -390h54q28 0 45.5 20.5t17.5 57.5l4 312h344l-6 -322q-4 -142 -73 -213.5t-199 -71.5h-172q0 -8 1 -13t1 -9t2 -10 q4 -32 16 -56t37 -40t65.5 -23.5t102.5 -7.5h90q125 0 177 34q51 34 59 113l55 619h364zM316 1250q0 -18 -7 -33.5t-18.5 -27t-27 -18.5t-33.5 -7q-17 0 -32.5 7t-27.5 18.5t-19 27t-7 33.5q0 16 7 31.5t19 27t27.5 18.5t32.5 7q39 0 62.5 -23.5t23.5 -60.5z" />
<glyph unicode="&#xfb2c;" horiz-adv-x="1511" d="M1431 1047l-57 -633q-10 -113 -54.5 -195t-118 -136t-173.5 -80t-221 -26h-154q-127 0 -223 19.5t-163 67t-106.5 127t-52.5 200.5l-61 656h365l34 -390h54q28 0 45.5 20.5t17.5 57.5l4 312h344l-6 -322q-4 -142 -73 -213.5t-199 -71.5h-172q0 -8 1 -13t1 -9t2 -10 q4 -32 16 -56t37 -40t65.5 -23.5t102.5 -7.5h90q125 0 177 34q51 34 59 113l55 619h364zM981 432q0 -15 -5.5 -28t-15 -23.5t-22 -16.5t-26.5 -6q-30 0 -50.5 22.5t-20.5 51.5q0 14 6 27t16 23.5t22.5 16.5t26.5 6q29 0 49 -20t20 -53zM1276 1250q0 -18 -7 -33.5t-18.5 -27 t-27 -18.5t-33.5 -7q-17 0 -32.5 7t-27.5 18.5t-19 27t-7 33.5q0 16 7 31.5t19 27t27.5 18.5t32.5 7q39 0 62.5 -23.5t23.5 -60.5z" />
<glyph unicode="&#xfb2d;" horiz-adv-x="1511" d="M1431 1047l-57 -633q-10 -113 -54.5 -195t-118 -136t-173.5 -80t-221 -26h-154q-127 0 -223 19.5t-163 67t-106.5 127t-52.5 200.5l-61 656h365l34 -390h54q28 0 45.5 20.5t17.5 57.5l4 312h344l-6 -322q-4 -142 -73 -213.5t-199 -71.5h-172q0 -8 1 -13t1 -9t2 -10 q4 -32 16 -56t37 -40t65.5 -23.5t102.5 -7.5h90q125 0 177 34q51 34 59 113l55 619h364zM316 1250q0 -18 -7 -33.5t-18.5 -27t-27 -18.5t-33.5 -7q-17 0 -32.5 7t-27.5 18.5t-19 27t-7 33.5q0 16 7 31.5t19 27t27.5 18.5t32.5 7q39 0 62.5 -23.5t23.5 -60.5zM981 432 q0 -15 -5.5 -28t-15 -23.5t-22 -16.5t-26.5 -6q-30 0 -50.5 22.5t-20.5 51.5q0 14 6 27t16 23.5t22.5 16.5t26.5 6q29 0 49 -20t20 -53z" />
<glyph unicode="&#xfb31;" horiz-adv-x="1042" d="M980 0h-913v309h426q12 0 17.5 3t11.5 20q4 11 5.5 25.5t1.5 35t-0.5 48.5t-0.5 65q0 49 -1 82t-3 55.5t-5 37t-8 26.5q-6 16 -22 23t-27 7h-381v310h568q47 0 83.5 -9.5t77.5 -42.5q66 -52 84 -140q19 -85 19 -202q0 -87 -8.5 -176.5t-38.5 -167.5h114v-309zM311 515 q0 -15 -5.5 -28t-15 -23.5t-22 -16.5t-26.5 -6q-30 0 -50.5 22.5t-20.5 51.5q0 14 6 27t16 23.5t22.5 16.5t26.5 6q29 0 49 -20t20 -53z" />
<glyph unicode="&#xfb32;" horiz-adv-x="849" d="M440 0q-2 16 -5 46.5t-6.5 64.5t-7 66.5t-6.5 53.5q-53 -69 -111 -126q-29 -28 -64.5 -55.5t-80.5 -53.5q-8 -5 -19.5 -10.5t-27.5 -12.5q-33 -14 -51 -14v381q87 43 159 80.5t124 79.5q16 12 28.5 26.5t12.5 34.5v86q0 42 -8.5 66t-30.5 24h-254v310h407q58 0 105 -19 t80 -58t51 -100t18 -145v-340q0 -12 2 -35t4.5 -52t6 -62.5t6.5 -66.5t6 -63t4 -53q0 -12 4 -32q4 -21 -4 -21h-342zM260 579q0 -15 -5.5 -28t-15 -23.5t-22 -16.5t-26.5 -6q-30 0 -50.5 22.5t-20.5 51.5q0 14 6 27t16 23.5t22.5 16.5t26.5 6q29 0 49 -20t20 -53z" />
<glyph unicode="&#xfb33;" horiz-adv-x="1036" d="M968 737h-119v-737h-377v737h-432v310h928v-310zM301 455q0 -15 -5.5 -28t-15 -23.5t-22 -16.5t-26.5 -6q-30 0 -50.5 22.5t-20.5 51.5q0 14 6 27t16 23.5t22.5 16.5t26.5 6q29 0 49 -20t20 -53z" />
<glyph unicode="&#xfb34;" horiz-adv-x="1181" d="M1079 0h-373v645q0 17 -1 33t-3 30q-5 29 -29 29h-571v310h653q61 0 119.5 -13t104 -52.5t73 -112.5t27.5 -193v-676zM475 0h-373v586h373v-586zM663 435q0 -15 -5.5 -28t-15 -23.5t-22 -16.5t-26.5 -6q-30 0 -50.5 22.5t-20.5 51.5q0 14 6 27t16 23.5t22.5 16.5t26.5 6 q29 0 49 -20t20 -53z" />
<glyph unicode="&#xfb35;" horiz-adv-x="583" d="M475 0h-373v1047h373v-1047zM71 545q0 -15 -5.5 -28t-15 -23.5t-22 -16.5t-26.5 -6q-30 0 -50.5 22.5t-20.5 51.5q0 14 6 27t16 23.5t22.5 16.5t26.5 6q29 0 49 -20t20 -53z" />
<glyph unicode="&#xfb36;" horiz-adv-x="765" d="M704 737h-89q-45 0 -45 -47v-690h-372v543q0 29 5.5 52t18.5 44t34.5 41t53.5 43v14h-270v310h664v-310zM161 425q0 -15 -5.5 -28t-15 -23.5t-22 -16.5t-26.5 -6q-30 0 -50.5 22.5t-20.5 51.5q0 14 6 27t16 23.5t22.5 16.5t26.5 6q29 0 49 -20t20 -53z" />
<glyph unicode="&#xfb38;" horiz-adv-x="1226" d="M1154 1047l-74 -656q-10 -94 -37.5 -169t-81 -128t-135.5 -81.5t-202 -28.5h-97q-120 0 -197.5 21t-124 63.5t-68 106.5t-29.5 151l-68 721h391l49 -685q2 -23 7.5 -36.5t16 -20.5t26.5 -9.5t40 -2.5h33q49 0 74 16.5t29 61.5l39 366h-160v310h569zM666 515 q0 -15 -5.5 -28t-15 -23.5t-22 -16.5t-26.5 -6q-30 0 -50.5 22.5t-20.5 51.5q0 14 6 27t16 23.5t22.5 16.5t26.5 6q29 0 49 -20t20 -53z" />
<glyph unicode="&#xfb39;" horiz-adv-x="573" d="M471 446h-373v601h373v-601zM61 735q0 -15 -5.5 -28t-15 -23.5t-22 -16.5t-26.5 -6q-30 0 -50.5 22.5t-20.5 51.5q0 14 6 27t16 23.5t22.5 16.5t26.5 6q29 0 49 -20t20 -53z" />
<glyph unicode="&#xfb3a;" horiz-adv-x="935" d="M833 -319h-373v964q0 17 -1 33t-3 30q-5 29 -29 29h-387v310h469q61 0 119.5 -13t104 -52.5t73 -112.5t27.5 -193v-995zM294 475q0 -15 -5.5 -28t-15 -23.5t-22 -16.5t-26.5 -6q-30 0 -50.5 22.5t-20.5 51.5q0 14 6 27t16 23.5t22.5 16.5t26.5 6q29 0 49 -20t20 -53z" />
<glyph unicode="&#xfb3b;" horiz-adv-x="958" d="M897 524q0 -116 -19.5 -212.5t-64.5 -165.5t-119.5 -107.5t-183.5 -38.5h-449v309h387q12 0 25.5 5t19.5 22q4 10 7 23t4.5 34t2 52.5t0.5 78.5q0 49 -2 79t-5.5 48.5t-8 30t-8.5 25.5q-6 16 -22.5 23t-26.5 7h-373v310h457q110 0 183 -36t116.5 -103.5t61.5 -164.5 t18 -219zM311 515q0 -15 -5.5 -28t-15 -23.5t-22 -16.5t-26.5 -6q-30 0 -50.5 22.5t-20.5 51.5q0 14 6 27t16 23.5t22.5 16.5t26.5 6q29 0 49 -20t20 -53z" />
<glyph unicode="&#xfb3c;" horiz-adv-x="964" d="M917 1047l-111 -709q-26 -161 -120 -249q-95 -89 -234 -89h-205v305h72q22 0 41.5 5t35 18.5t26 36.5t15.5 59l45 313h-442v619h373v-309h504zM300 530q0 -15 -5.5 -28t-15 -23.5t-22 -16.5t-26.5 -6q-30 0 -50.5 22.5t-20.5 51.5q0 14 6 27t16 23.5t22.5 16.5t26.5 6 q29 0 49 -20t20 -53z" />
<glyph unicode="&#xfb3e;" horiz-adv-x="1269" d="M1167 0h-564v309h195v318q0 57 -28.5 82.5t-82.5 25.5h-18q-57 0 -85 -27t-38 -90l-110 -618h-381l110 586l-135 461h381l78 -232l18 55q33 97 95.5 142t172.5 45h82q61 0 117.5 -15.5t99 -52.5t68 -97t25.5 -149v-743zM738 507q0 -15 -5.5 -28t-15 -23.5t-22 -16.5 t-26.5 -6q-30 0 -50.5 22.5t-20.5 51.5q0 14 6 27t16 23.5t22.5 16.5t26.5 6q29 0 49 -20t20 -53z" />
<glyph unicode="&#xfb40;" horiz-adv-x="761" d="M659 0h-592v309h219v371q0 57 -53 57h-146v310h365q54 0 93.5 -16.5t64.5 -47t37 -73.5t12 -95v-815zM234 518q0 -15 -5.5 -28t-15 -23.5t-22 -16.5t-26.5 -6q-30 0 -50.5 22.5t-20.5 51.5q0 14 6 27t16 23.5t22.5 16.5t26.5 6q29 0 49 -20t20 -53z" />
<glyph unicode="&#xfb41;" horiz-adv-x="1243" d="M1170 1047l-71 -676q-10 -87 -39.5 -158.5t-85 -122t-140.5 -78.5t-206 -28h-58q-120 0 -203 20t-136.5 64.5t-82 115.5t-38.5 174l-70 689h1130zM759 745h-307l26 -378q4 -45 35.5 -59.5t85.5 -14.5h12q51 0 82 16.5t35 61.5zM676 520q0 -15 -5.5 -28t-15 -23.5 t-22 -16.5t-26.5 -6q-30 0 -50.5 22.5t-20.5 51.5q0 14 6 27t16 23.5t22.5 16.5t26.5 6q29 0 49 -20t20 -53z" />
<glyph unicode="&#xfb43;" horiz-adv-x="1130" d="M1028 -319h-373v985q0 17 -1 33t-3 30q-5 29 -29 29h-163v-119q0 -23 20 -23h62v-213h-304q-145 0 -145 150v494h612q41 0 81 -5t76 -19.5t66.5 -40.5t53 -67t35 -100t12.5 -139v-995zM611 275q0 -15 -5.5 -28t-15 -23.5t-22 -16.5t-26.5 -6q-30 0 -50.5 22.5t-20.5 51.5 q0 14 6 27t16 23.5t22.5 16.5t26.5 6q29 0 49 -20t20 -53z" />
<glyph unicode="&#xfb44;" horiz-adv-x="1163" d="M1091 524q0 -123 -18.5 -220t-62.5 -164.5t-116.5 -103.5t-181.5 -36h-616v305h555q12 0 25.5 5t17.5 22q10 22 12 68t2 124q0 154 -14 205q-6 16 -19.5 23.5t-23.5 7.5h-197v-115q0 -16 17 -16h74v-199h-295q-88 0 -121 35q-33 34 -33 139v443h625q109 0 180.5 -34 t113.5 -100.5t59 -164t17 -224.5zM678 392q0 -27 -17.5 -46.5t-40.5 -19.5q-25 0 -42.5 19.5t-17.5 46.5q0 12 5 23.5t13.5 20.5t19 14.5t22.5 5.5q24 0 41 -18t17 -46z" />
<glyph unicode="&#xfb46;" horiz-adv-x="1148" d="M1059 18q0 -18 -17 -18h-194h-772v309h405l-471 717v21h418l239 -406q8 14 14 26.5t8 23.5t3.5 29t1.5 44v283h375v-175q0 -96 -10.5 -161.5t-38.5 -114.5t-78 -89t-129 -85l239 -361q7 -10 7 -19v-15v-9zM222 558q0 -15 -5.5 -28t-15 -23.5t-22 -16.5t-26.5 -6 q-30 0 -50.5 22.5t-20.5 51.5q0 14 6 27t16 23.5t22.5 16.5t26.5 6q29 0 49 -20t20 -53z" />
<glyph unicode="&#xfb47;" horiz-adv-x="1234" d="M1167 1047l-78 -668q-24 -209 -123 -294q-97 -85 -256 -85h-129v293h35q51 0 69.5 24.5t22.5 67.5l39 352h-651v310h1071zM481 -319h-373v937h373v-937zM671 525q0 -15 -5.5 -28t-15 -23.5t-22 -16.5t-26.5 -6q-30 0 -50.5 22.5t-20.5 51.5q0 14 6 27t16 23.5t22.5 16.5 t26.5 6q29 0 49 -20t20 -53z" />
<glyph unicode="&#xfb48;" horiz-adv-x="935" d="M833 0h-373v645q0 17 -1 33t-3 30q-5 29 -29 29h-387v310h469q61 0 119.5 -13t104 -52.5t73 -112.5t27.5 -193v-676zM292 459q0 -15 -5.5 -28t-15 -23.5t-22 -16.5t-26.5 -6q-30 0 -50.5 22.5t-20.5 51.5q0 14 6 27t16 23.5t22.5 16.5t26.5 6q29 0 49 -20t20 -53z" />
<glyph unicode="&#xfb49;" horiz-adv-x="1511" d="M1431 1047l-57 -633q-10 -113 -54.5 -195t-118 -136t-173.5 -80t-221 -26h-154q-127 0 -223 19.5t-163 67t-106.5 127t-52.5 200.5l-61 656h365l34 -390h54q28 0 45.5 20.5t17.5 57.5l4 312h344l-6 -322q-4 -142 -73 -213.5t-199 -71.5h-172q0 -8 1 -13t1 -9t2 -10 q4 -32 16 -56t37 -40t65.5 -23.5t102.5 -7.5h90q125 0 177 34q51 34 59 113l55 619h364zM981 432q0 -15 -5.5 -28t-15 -23.5t-22 -16.5t-26.5 -6q-30 0 -50.5 22.5t-20.5 51.5q0 14 6 27t16 23.5t22.5 16.5t26.5 6q29 0 49 -20t20 -53z" />
<glyph unicode="&#xfb4a;" horiz-adv-x="1282" d="M1171 0h-372v645q0 17 -1.5 33t-3.5 30q-5 29 -28 29h-215v-458q0 -84 -28 -140.5t-74 -91.5t-105.5 -50t-122.5 -15q-57 0 -94 6q-36 6 -82 18v303q16 -8 39.5 -13t42.5 -5q18 0 29.5 5t18 13.5t9 19t2.5 21.5v697h662q61 0 119.5 -12t103.5 -50.5t72.5 -111 t27.5 -193.5v-680zM747 529q0 -15 -5.5 -28t-15 -23.5t-22 -16.5t-26.5 -6q-30 0 -50.5 22.5t-20.5 51.5q0 14 6 27t16 23.5t22.5 16.5t26.5 6q29 0 49 -20t20 -53z" />
<glyph unicode="&#xfb4b;" horiz-adv-x="583" d="M475 0h-373v1047h373v-1047zM376 1250q0 -18 -7 -33.5t-18.5 -27t-27 -18.5t-33.5 -7q-17 0 -32.5 7t-27.5 18.5t-19 27t-7 33.5q0 16 7 31.5t19 27t27.5 18.5t32.5 7q39 0 62.5 -23.5t23.5 -60.5z" />
<glyph horiz-adv-x="0" />
<glyph horiz-adv-x="700" d="M609 712q0 -110 -77 -187q-76 -76 -187 -76q-108 0 -185 77t-77 186q0 110 77 187t185 77q110 0 187 -77t77 -187zM536 712q0 81 -56 137q-55 55 -135 55t-135 -55t-55 -137q0 -79 55 -135q56 -56 135 -56t135 56q56 58 56 135z" />
<glyph horiz-adv-x="700" d="M609 712q0 -110 -77 -187q-76 -76 -187 -76q-108 0 -185 77t-77 186q0 110 77 187t185 77q110 0 187 -77t77 -187zM536 712q0 81 -56 137q-55 55 -135 55t-135 -55t-55 -137q0 -79 55 -135q56 -56 135 -56t135 56q56 58 56 135z" />
<glyph horiz-adv-x="700" d="M609 712q0 -110 -77 -187q-76 -76 -187 -76q-108 0 -185 77t-77 186q0 110 77 187t185 77q110 0 187 -77t77 -187zM536 712q0 81 -56 137q-55 55 -135 55t-135 -55t-55 -137q0 -79 55 -135q56 -56 135 -56t135 56q56 58 56 135z" />
<glyph horiz-adv-x="700" d="M609 712q0 -110 -77 -187q-76 -76 -187 -76q-108 0 -185 77t-77 186q0 110 77 187t185 77q110 0 187 -77t77 -187zM536 712q0 81 -56 137q-55 55 -135 55t-135 -55t-55 -137q0 -79 55 -135q56 -56 135 -56t135 56q56 58 56 135z" />
<glyph d="M657 770q0 -119 -83 -202t-203 -83q-118 0 -200 84q-83 85 -83 201q0 118 83 203q82 84 200 84q120 0 203 -84q83 -85 83 -203zM578 770q0 88 -60 148q-58 61 -147 61q-86 0 -146 -61q-59 -61 -59 -148q0 -84 59 -146q60 -61 146 -61q89 0 147 61q60 61 60 146z" />
<glyph d="M657 770q0 -119 -83 -202t-203 -83q-118 0 -200 84q-83 85 -83 201q0 118 83 203q82 84 200 84q120 0 203 -84q83 -85 83 -203zM578 770q0 88 -60 148q-58 61 -147 61q-86 0 -146 -61q-59 -61 -59 -148q0 -84 59 -146q60 -61 146 -61q89 0 147 61q60 61 60 146z" />
<glyph d="M657 770q0 -119 -83 -202t-203 -83q-118 0 -200 84q-83 85 -83 201q0 118 83 203q82 84 200 84q120 0 203 -84q83 -85 83 -203zM578 770q0 88 -60 148q-58 61 -147 61q-86 0 -146 -61q-59 -61 -59 -148q0 -84 59 -146q60 -61 146 -61q89 0 147 61q60 61 60 146z" />
<glyph horiz-adv-x="0" d="M934 -299q0 -39 -26 -66.5t-68 -27.5q-39 0 -65.5 27.5t-26.5 66.5t26.5 64.5t65.5 25.5t66.5 -25.5t27.5 -64.5zM934 -600q0 -42 -26 -68t-68 -26q-39 0 -65.5 26t-26.5 68q0 18 7.5 35t20 29.5t29.5 20t35 7.5q42 0 68 -26.5t26 -65.5zM639 -672h-94v445h94v-445z M418 -346h-170l-6 -100q0 -23 29 -67q30 -44 30 -65q0 -40 -26.5 -67t-65.5 -27q-20 0 -36.5 7.5t-29 20.5t-19.5 30t-7 36q0 25 30 67q31 41 31 67l-8 98h-170v119h418v-119z" />
<glyph d="M657 770q0 -119 -83 -202t-203 -83q-118 0 -200 84q-83 85 -83 201q0 118 83 203q82 84 200 84q120 0 203 -84q83 -85 83 -203zM578 770q0 88 -60 148q-58 61 -147 61q-86 0 -146 -61q-59 -61 -59 -148q0 -84 59 -146q60 -61 146 -61q89 0 147 61q60 61 60 146z" />
<glyph d="M657 770q0 -119 -83 -202t-203 -83q-118 0 -200 84q-83 85 -83 201q0 118 83 203q82 84 200 84q120 0 203 -84q83 -85 83 -203zM578 770q0 88 -60 148q-58 61 -147 61q-86 0 -146 -61q-59 -61 -59 -148q0 -84 59 -146q60 -61 146 -61q89 0 147 61q60 61 60 146z" />
<glyph d="M657 770q0 -119 -83 -202t-203 -83q-118 0 -200 84q-83 85 -83 201q0 118 83 203q82 84 200 84q120 0 203 -84q83 -85 83 -203zM578 770q0 88 -60 148q-58 61 -147 61q-86 0 -146 -61q-59 -61 -59 -148q0 -84 59 -146q60 -61 146 -61q89 0 147 61q60 61 60 146z" />
<glyph d="M657 770q0 -119 -83 -202t-203 -83q-118 0 -200 84q-83 85 -83 201q0 118 83 203q82 84 200 84q120 0 203 -84q83 -85 83 -203zM578 770q0 88 -60 148q-58 61 -147 61q-86 0 -146 -61q-59 -61 -59 -148q0 -84 59 -146q60 -61 146 -61q89 0 147 61q60 61 60 146z" />
</font>
</defs>
</svg>
