<?xml version="1.0" standalone="no"?>
<!DOCTYPE svg PUBLIC "-//W3C//DTD SVG 1.1//EN" "http://www.w3.org/Graphics/SVG/1.1/DTD/svg11.dtd" >
<svg xmlns="http://www.w3.org/2000/svg">
<metadata></metadata>
<defs>
<font id="fb_spacerregular" horiz-adv-x="756" >
<font-face units-per-em="2048" ascent="1638" descent="-410" />
<missing-glyph horiz-adv-x="532" />
<glyph unicode="&#xd;" horiz-adv-x="512" />
<glyph unicode=" "  horiz-adv-x="532" />
<glyph unicode="&#x09;" horiz-adv-x="532" />
<glyph unicode="&#xa0;" horiz-adv-x="532" />
<glyph unicode="!" horiz-adv-x="514" d="M269 322q-12 -30 -42 -32q-29 -2 -46 32l-55 800q12 36 39.5 54t58.5 18t58.5 -18t40.5 -54zM329 84q0 -21 -8 -40t-22 -33.5t-33 -22.5t-40 -8t-40 8t-33.5 22.5t-22.5 33.5t-8 40t8 40t22.5 32.5t33.5 21.5t40 8t40 -8t33 -21.5t22 -32.5t8 -40z" />
<glyph unicode="&#x22;" horiz-adv-x="622" d="M561 1145q-17 -49 -44.5 -96.5t-58.5 -88t-61 -71.5t-52 -49q-8 6 -13.5 20.5t-9 31.5t-4.5 33.5t1 26.5q18 23 38.5 61t39 82.5t33 92t20.5 90.5q42 -5 73 -46q34 -43 38 -87zM313 1145q-17 -50 -44.5 -97t-58 -87t-60.5 -71.5t-52 -49.5q-9 6 -15 20t-9 31.5t-4 34 t1 26.5q18 23 38.5 61t39 82.5t33 92t20.5 90.5q39 -4 73 -46q33 -41 38 -87z" />
<glyph unicode="#" horiz-adv-x="876" d="M823 879q17 -27 9.5 -53.5t-29.5 -49.5h-111l-55 -246h111q16 -26 8 -52.5t-31 -49.5h-108l-41 -190q-28 -18 -63 -19q-37 -1 -59 19l41 190h-226l-41 -190q-27 -18 -63 -19q-37 -1 -59 19l41 190h-99q-10 23 -7 49.5t30 52.5h96l53 246h-96q-12 23 -9 49.5t29 53.5h99 l39 180q27 22 66 20q37 -1 57 -20l-39 -180h225l39 180q27 22 66 20q37 -1 57 -20l-38 -180h108zM568 776h-225l-53 -246h225z" />
<glyph unicode="$" horiz-adv-x="808" d="M717 270q0 -47 -19 -92t-55.5 -82t-89 -61.5t-119.5 -30.5v-106q-10 -28 -34 -27q-24 2 -34 27v104q-87 4 -154.5 30.5t-109.5 86.5q-6 13 -6 28t5.5 29t17 25.5t28.5 17.5q37 -61 95 -88t124 -27v424l-22 11q-39 18 -83.5 45.5t-82 64t-62 81.5t-24.5 97q0 43 17 84 t51.5 74.5t85.5 55.5t120 26v104q15 21 35.5 19t32.5 -19v-106q81 -6 140 -37.5t102 -85.5q12 -27 0.5 -57.5t-45.5 -42.5q-45 60 -96.5 88t-100.5 33v-351q55 -26 106.5 -56t90.5 -70t62.5 -92.5t23.5 -123.5zM366 961q-52 -10 -92 -44q-39 -32 -39 -106q0 -53 41 -94 q20 -20 42.5 -38t47.5 -32v314zM579 283q0 79 -45 129q-46 52 -100 84v-385q58 13 102 57q43 43 43 115z" />
<glyph unicode="%" horiz-adv-x="1142" d="M1070 279q0 -76 -17.5 -139t-59.5 -105q-29 -27 -63.5 -42.5t-82.5 -15.5t-83.5 15.5t-61.5 42.5q-42 42 -61 105t-19 139q0 75 19 139t61 106q26 25 61.5 40.5t83.5 15.5q84 0 137 -50q48 -42 67 -107.5t19 -143.5zM329 20q-29 -22 -60.5 -20t-54.5 20l617 1022 q28 23 61 24t53 -24zM520 750q0 -75 -18 -137.5t-60 -104.5q-59 -57 -146 -57q-90 0 -145 55q-42 42 -61 105.5t-19 138.5t19 139t61 106q56 56 145 56q84 0 137 -47q48 -42 67.5 -108.5t19.5 -145.5zM970 279q0 99 -34 164q-34 67 -89 67q-58 0 -93 -68q-34 -67 -34 -163 q0 -102 37 -167q38 -65 90 -65q30 0 53 19t38.5 51.5t23.5 74.5t8 87zM419 750q0 101 -34 165q-33 66 -89 66q-59 0 -93 -67q-34 -65 -34 -164t37 -166q37 -66 90 -66q30 0 53 19.5t38.5 51.5t23.5 74t8 87z" />
<glyph unicode="&#x26;" horiz-adv-x="1247" d="M1253 48q13 -13 13 -27q0 -25 -26 -25h-74q-33 0 -67 34l-114 116q-163 -166 -436 -166h-105q-408 0 -408 309q0 137 68 220q39 48 140 108l164 97q6 4 -4 15l-40 43q-68 74 -89 140q-16 52 -16 156q0 148 54 224q71 99 248 99h13q158 0 228 -64q75 -70 75 -237 q0 -238 -153 -340l-95 -62q-5 -4 4 -13l341 -346q29 62 29 201q0 9 1 38v36q0 33 34 33h102q29 0 33 -32q3 -17 3 -64q0 -188 -113 -301zM710 1027v84q0 99 -25 132t-95 33h-38q-117 0 -117 -143v-117q0 -132 51 -189l29 -32q10 -12 26 -1l76 52q93 63 93 181zM903 228 l-375 380q-13 14 -26 6l-204 -118q-76 -45 -76 -123v-97q0 -91 60.5 -123.5t244.5 -32.5q145 0 209 14q101 22 167 94z" />
<glyph unicode="'" horiz-adv-x="364" d="M313 1145q-17 -50 -44.5 -97t-58 -87t-60.5 -71.5t-52 -49.5q-9 6 -15 20t-9 31.5t-4 34t1 26.5q18 23 38.5 61t39 82.5t33 92t20.5 90.5q39 -4 73 -46q33 -41 38 -87z" />
<glyph unicode="(" horiz-adv-x="501" d="M409 -137q-10 -26 -44 -25q-32 1 -56 25q-36 41 -66.5 92.5t-54.5 108.5t-42 117t-30 118.5t-18 112.5t-6 100q0 45 6 99.5t18.5 113t30.5 119t41.5 118t53.5 109t65 92.5q12 12 26 17.5t28.5 5.5t26.5 -5.5t19 -17.5q-29 -48 -53 -104t-43 -116t-33 -120.5t-23.5 -116.5 t-14.5 -105.5t-5 -86.5q0 -57 6 -133.5t24.5 -163.5t53 -178t90.5 -176z" />
<glyph unicode=")" horiz-adv-x="501" d="M409 514q0 -69 -12 -156.5t-38 -177.5t-66 -173.5t-95 -143.5q-32 -36 -64 -31t-42 31q57 86 92 177t54 177t25.5 162.5t6.5 134.5q0 37 -4.5 86t-14.5 105.5t-24 117.5t-34 120.5t-44.5 116t-54.5 103.5q5 12 16.5 18.5t26.5 6.5t31 -6.5t30 -18.5q52 -62 92 -145.5 t66 -172.5t39.5 -176t13.5 -155z" />
<glyph unicode="*" horiz-adv-x="692" d="M378 981l143 -170q-14 -31 -43.5 -44t-58.5 -5l-82 199l-78 -199q-41 -4 -62.5 11t-37.5 40l137 166l-197 -27q-18 23 -18 54.5t18 56.5l199 -39l-139 174q12 27 40.5 40t61.5 9l76 -207l82 209q39 4 64.5 -12t35.5 -39l-141 -174l209 39q22 -27 23 -58.5t-23 -58.5z" />
<glyph unicode="+" horiz-adv-x="587" d="M348 473v-180q-23 -19 -53.5 -18t-55.5 18v180h-174q-16 27 -16 57.5t16 53.5h174v184q23 16 52.5 17t56.5 -17v-184h170q16 -23 17 -53.5t-17 -57.5h-170z" />
<glyph unicode="," horiz-adv-x="303" d="M242 84q-17 -49 -44.5 -96t-58 -87.5t-60.5 -72t-52 -49.5q-9 6 -15 20.5t-9 31.5t-4 33.5t1 26.5q18 23 38.5 61t39 82.5t33 92t20.5 90.5q19 -2 38 -14.5t34.5 -31.5t26 -42t12.5 -45z" />
<glyph unicode="-" horiz-adv-x="587" d="M67 467q-8 11 -12.5 26.5t-5.5 32.5t3.5 33.5t14.5 30.5h453q12 -14 17 -30.5t4 -33.5t-6.5 -32.5t-14.5 -26.5h-453z" />
<glyph unicode="." horiz-adv-x="303" d="M241 84q0 -21 -8 -40t-22 -33.5t-33 -22.5t-40 -8t-40 8t-33.5 22.5t-22.5 33.5t-8 40t8 40t22.5 32.5t33.5 21.5t40 8t40 -8t33 -21.5t22 -32.5t8 -40z" />
<glyph unicode="/" horiz-adv-x="690" d="M176 20q-14 -11 -36.5 -16t-46 -4.5t-44 6t-29.5 14.5l494 1022q13 12 35 18.5t45.5 6.5t44 -6t30.5 -19z" />
<glyph unicode="0" horiz-adv-x="819" d="M734 532q0 -45 -3 -91t-10 -95t-19 -94t-30 -87q-36 -83 -100 -138q-63 -54 -163 -54q-99 0 -163 55q-32 28 -56.5 62.5t-43.5 76.5q-37 84 -50 182q-7 51 -10 97t-3 89q0 88 12 186q14 99 48 181q36 83 99 137q64 55 167 55q104 0 168 -55q66 -55 100 -137 q17 -42 29 -87t17 -94t8 -96t3 -93zM579 535q0 221 -40 334.5t-130 113.5q-93 0 -131.5 -109.5t-38.5 -341.5q0 -244 43 -346t127 -102q82 0 126 109.5t44 341.5z" />
<glyph unicode="1" horiz-adv-x="819" d="M608 20q-10 -12 -32 -17t-46.5 -5t-46 5.5t-29.5 16.5v912q-18 -45 -57 -100.5t-85 -105.5t-95.5 -90t-92.5 -54q-16 30 -18 58t14 67q29 13 61 37t64 53.5t62.5 62.5t57.5 66t48.5 63.5t34.5 54.5q12 13 34.5 19t47.5 6t46.5 -6.5t31.5 -18.5v-1024z" />
<glyph unicode="2" horiz-adv-x="819" d="M725 727q0 -91 -33 -180t-91.5 -169.5t-138 -148t-171.5 -114.5h415q9 -11 14.5 -26.5t6 -32.5t-4.5 -32t-16 -24h-547q-28 0 -42.5 14.5t-16.5 34.5q-5 38 45 74q47 29 96.5 65t96 78.5t88 92t72.5 105t49 117t18 128.5q0 134 -62 199t-145 65q-124 0 -201 -125 q-34 12 -46 44q-11 33 1 58q90 133 279 133q76 0 138 -27.5t105.5 -75.5t67 -113t23.5 -140z" />
<glyph unicode="3" horiz-adv-x="819" d="M723 270q0 -59 -23.5 -111.5t-66.5 -91.5t-104.5 -62t-137.5 -23q-97 0 -172.5 26.5t-120.5 89.5q-6 13 -6 28.5t5.5 29.5t17 25.5t28.5 17.5q18 -31 42.5 -52t53 -33.5t59.5 -18t64 -5.5q83 0 145 50t62 143q0 55 -19.5 96t-50 68t-69.5 40t-78 13h-78q-24 16 -24 56 q0 39 24 56h78q40 0 78.5 12t69 35t49 56.5t18.5 77.5q0 92 -61 138q-59 46 -144 46q-56 0 -114 -27q-57 -25 -94 -88q-18 6 -29.5 17.5t-17 25.5t-5 29t6.5 29q96 124 282 124q154 0 242 -76q88 -75 88 -194q0 -65 -25 -111.5t-63 -77t-84 -48t-88 -25.5q42 -6 88.5 -24.5 t85 -52.5t63.5 -85t25 -123z" />
<glyph unicode="4" horiz-adv-x="819" d="M661 209v-189q-6 -12 -26 -17.5t-44 -5t-45 6t-28 16.5v189h-409q-21 0 -36.5 12.5t-22.5 32t-2.5 43t22.5 45.5q29 33 62 80t66.5 103.5t66 120.5t61.5 131t52.5 135t39.5 132q42 23 84.5 23t72.5 -23q-15 -62 -40.5 -130.5t-58.5 -137t-70.5 -135t-76 -126t-75.5 -110 t-68 -86.5h332v256q12 15 32 23t41 8t40 -7.5t30 -23.5v-256h91q20 -22 21 -55t-21 -55h-91z" />
<glyph unicode="5" horiz-adv-x="819" d="M723 328q0 -72 -24.5 -135t-69 -109.5t-106 -73t-136.5 -26.5q-97 0 -170.5 25.5t-118.5 88.5q-6 13 -6 28.5t5.5 29.5t17 25.5t28.5 17.5q37 -62 92.5 -85.5t120.5 -23.5q41 0 80 14.5t69 44t48 74.5t18 105q0 116 -63 187q-62 71 -160 71q-54 0 -102.5 -22.5 t-79.5 -55.5q-8 -8 -18 -10t-19 0.5t-14.5 10t-3.5 19.5l69 504q2 17 9.5 26t29.5 9h412q12 -8 18 -23.5t6 -33.5t-6 -35t-18 -27h-318l-43 -301q23 17 59 26t76 9q138 0 228 -92t90 -262z" />
<glyph unicode="6" horiz-adv-x="819" d="M736 336q0 -76 -22 -142t-63.5 -114.5t-101.5 -76.5t-136 -28q-82 0 -143.5 29t-103 79t-62.5 117.5t-21 145.5v307q0 94 22 174t64 137.5t102 90t136 32.5q96 0 160.5 -31.5t111.5 -92.5q6 -14 6.5 -29t-5 -29t-17 -25.5t-29.5 -17.5q-37 63 -89.5 89t-109.5 26 q-42 0 -80.5 -19t-68 -58.5t-47 -101.5t-17.5 -149v-86q27 53 85 84t118 31q76 0 134 -25.5t97.5 -71.5t59.5 -108.5t20 -136.5zM585 336q0 104 -45 173t-131 69t-137 -69q-50 -70 -50 -173q0 -112 52 -183q53 -71 135 -71q40 0 73 21t55.5 56.5t35 81t12.5 95.5z" />
<glyph unicode="7" horiz-adv-x="819" d="M731 950q-69 -81 -128.5 -195.5t-105.5 -243.5q-44 -126 -72 -256q-26 -130 -26 -230q-11 -12 -34 -18.5t-47 -7t-45 6t-29 19.5q-1 57 12.5 135t38 165t58.5 178t75 174.5t87.5 154t96.5 116.5h-540q-20 20 -22 57q-1 35 22 62h618q27 0 42 -12t19.5 -29.5t-1 -38 t-19.5 -37.5z" />
<glyph unicode="8" horiz-adv-x="819" d="M736 293q0 -81 -24.5 -140t-69.5 -98q-45 -42 -104.5 -60t-126.5 -18q-70 0 -131 21t-109 63q-42 39 -66 96.5t-24 135.5q0 61 24 117.5t66 91.5q40 38 105 55q-61 22 -107 70q-33 35 -53.5 77.5t-20.5 96.5q0 69 18.5 119.5t53.5 85.5q45 48 107 66t137 18 q67 0 126.5 -16t102.5 -58q39 -35 60.5 -87t21.5 -128q0 -60 -21.5 -104t-56.5 -79q-20 -20 -43.5 -35.5t-54.5 -25.5q66 -18 115 -65q34 -35 54.5 -87t20.5 -112zM581 803q0 16 -4.5 38t-14 45.5t-25.5 44.5t-40 36q-17 10 -38.5 17t-49.5 7q-29 0 -50.5 -7t-37.5 -17 q-24 -15 -40.5 -36t-26 -44.5t-13.5 -45.5t-4 -38q0 -35 18 -87q19 -51 66 -83q16 -10 37.5 -17.5t50.5 -7.5q26 0 46.5 7.5t37.5 17.5q49 31 68 83q20 54 20 87zM587 289q0 20 -4 46.5t-13.5 54.5t-26.5 53.5t-42 43.5q-19 13 -41.5 20t-50.5 7q-55 0 -90 -25 q-26 -18 -43 -44t-27 -54t-14 -55.5t-4 -46.5q0 -20 4 -45t13 -50t24.5 -49t39.5 -43q38 -28 97 -28q60 0 98 28q24 18 39.5 42t24.5 49.5t12.5 50.5t3.5 45z" />
<glyph unicode="9" horiz-adv-x="819" d="M730 412q0 -95 -22 -174.5t-63.5 -137.5t-101.5 -90.5t-136 -32.5q-97 0 -161.5 33t-111.5 92q-6 13 -6 28.5t5.5 29.5t17 25.5t28.5 17.5q37 -62 90.5 -88.5t108.5 -26.5q42 0 80.5 19t68 58.5t47 101.5t17.5 149v86q-14 -27 -35.5 -48t-47.5 -36t-56 -23t-60 -8 q-76 0 -135 25.5t-99 71.5t-60.5 108.5t-20.5 136.5q0 76 22.5 141.5t64.5 114.5t103 77t138 28q82 0 143 -29t101.5 -79t60.5 -117.5t20 -145.5v-307zM591 729q0 111 -50 182q-50 72 -132 72q-41 0 -74 -21t-56.5 -56.5t-36.5 -81.5t-13 -95q0 -103 47 -173q46 -69 133 -69 q86 0 134 69t48 173z" />
<glyph unicode=":" horiz-adv-x="354" d="M241 727q0 -21 -8 -40t-22 -32.5t-33 -21.5t-40 -8t-40 8t-33.5 21.5t-22.5 32.5t-8 40t8 40t22.5 33.5t33.5 22.5t40 8t40 -8t33 -22.5t22 -33.5t8 -40zM241 84q0 -21 -8 -40t-22 -33.5t-33 -22.5t-40 -8t-40 8t-33.5 22.5t-22.5 33.5t-8 40t8 40t22.5 32.5t33.5 21.5 t40 8t40 -8t33 -21.5t22 -32.5t8 -40z" />
<glyph unicode=";" horiz-adv-x="354" d="M242 727q0 -21 -8 -40t-22 -32.5t-33 -21.5t-40 -8t-40 8t-33.5 21.5t-22.5 32.5t-8 40t8 40t22.5 33.5t33.5 22.5t40 8t40 -8t33 -22.5t22 -33.5t8 -40zM242 84q-17 -49 -44.5 -96t-58 -87.5t-60.5 -72t-52 -49.5q-9 6 -15 20.5t-9 31.5t-4 33.5t1 26.5q18 23 38.5 61 t39 82.5t33 92t20.5 90.5q19 -2 38 -14.5t34.5 -31.5t26 -42t12.5 -45z" />
<glyph unicode="&#x3c;" horiz-adv-x="587" d="M532 299q8 -43 -9.5 -79t-44.5 -52l-344 240q-39 26 -48 53.5t-9 56.5q0 31 10 59.5t47 55.5l344 248q16 -9 26.5 -19t16.5 -24.5t8.5 -35t2.5 -50.5l-367 -228z" />
<glyph unicode="=" horiz-adv-x="587" d="M67 631q-8 11 -12.5 26.5t-5.5 32.5t3.5 33.5t14.5 30.5h453q12 -14 17 -30.5t4 -33.5t-6.5 -32.5t-14.5 -26.5h-453zM67 303q-8 12 -12.5 27.5t-5.5 32t3.5 33t14.5 30.5h453q12 -14 17 -30.5t4 -33t-6.5 -32t-14.5 -27.5h-453z" />
<glyph unicode="&#x3e;" horiz-adv-x="587" d="M516 518q0 -29 -9.5 -56.5t-48.5 -53.5l-344 -240q-28 20 -43.5 57t-9.5 74l367 225l-367 228q-1 18 1 36.5t7 37.5q11 39 45 55l344 -248q37 -27 47.5 -55.5t10.5 -59.5z" />
<glyph unicode="?" horiz-adv-x="935" d="M751 905q0 -99 -55 -179q-54 -81 -125 -146q-61 -55 -104 -114q-44 -61 -38 -144q-17 -29 -46 -29t-40 29q-14 71 12 155q27 85 103 152q26 25 50.5 52.5t46.5 59.5q44 65 44 156q0 53 -14.5 91t-38.5 62t-54.5 35t-62.5 11q-44 0 -75.5 -15.5t-52.5 -40.5t-31.5 -57.5 t-12.5 -67.5t4.5 -69t20.5 -62q-25 -16 -48.5 -17.5t-43 6t-33.5 22t-20 30.5q-15 39 -14.5 81.5t15 84t42 79t66.5 66t88 45.5t108 17q145 0 227 -82t82 -211zM489 84q0 -21 -8 -40t-22 -33.5t-33 -22.5t-40 -8t-40 8t-33.5 22.5t-22.5 33.5t-8 40t8 40t22.5 32.5 t33.5 21.5t40 8t40 -8t33 -21.5t22 -32.5t8 -40z" />
<glyph unicode="@" horiz-adv-x="1987" d="M1793 722q0 -238 -118 -377q-102 -121 -242 -121q-91 0 -138 27q-54 31 -101 122q-34 -90 -87 -123t-170 -33q-140 0 -221 99t-81 264q0 433 413 433q163 0 254 -20q43 -10 43 -33v-560q0 -86 90 -86q93 0 145.5 92.5t52.5 261.5q0 352 -179 495q-146 116 -454 116 q-341 0 -480 -148q-144 -153 -144 -533q0 -345 162 -501q147 -140 444 -140q318 0 524 109q35 18 35 -15v-63q0 -29 -33 -49q-208 -125 -501 -125q-802 0 -802 773q0 825 825 825q324 0 517 -138q246 -174 246 -552zM1194 487v410q0 14 -25 17q-45 6 -89 6q-128 0 -180 -33 q-108 -69 -108 -294q0 -146 45.5 -210t151.5 -64q75 0 135 40q70 48 70 128z" />
<glyph unicode="A" horiz-adv-x="1212" d="M1156 52q17 -52 -21 -52h-94q-39 0 -51 37l-101 295h-561l-99 -289q-14 -43 -52 -43h-94q-28 0 -28 20q0 10 9 38l400 1211q15 43 58 43h172q43 0 57 -43zM844 473l-224 690h-24l-227 -690h475z" />
<glyph unicode="B" horiz-adv-x="1252" d="M1133 334q0 -334 -421 -334h-503q-41 0 -41 38v1237q0 37 41 37h501q162 0 239 -63q90 -74 90 -246v-42q0 -106 -44.5 -164.5t-151.5 -91.5q152 -9 216 -75q74 -76 74 -266v-30zM875 956q0 112 -39 160q-43 52 -146 52h-356v-420h354q108 0 150 52q37 45 37 156zM959 376 q0 121 -40 175q-43 60 -144 60h-441v-465h441q106 0 147 59q37 51 37 171z" />
<glyph unicode="C" horiz-adv-x="1184" d="M1065 78q0 -38 -50 -50q-150 -35 -327 -35q-301 0 -416 122q-77 82 -109 191q-37 125 -37 349q0 275 44 395q37 101 146 178q132 93 372 93q144 0 319 -34q58 -11 58 -56v-48q0 -35 -67 -30q-117 10 -361 10q-169 0 -246 -70q-82 -75 -82 -248v-374q0 -173 80 -249 q77 -73 247 -73q295 0 368 4q36 2 43 0q18 -5 18 -33v-42z" />
<glyph unicode="D" horiz-adv-x="1335" d="M1195 655q0 -223 -36 -340q-30 -100 -108 -183q-124 -132 -406 -132h-436q-41 0 -41 50v1219q0 43 44 43h420q246 0 373 -90q109 -77 146 -174q44 -119 44 -393zM1012 456v389q0 321 -355 321h-314v-1016h326q175 0 255 65q88 72 88 241z" />
<glyph unicode="E" horiz-adv-x="1129" d="M1013 41q0 -15 -3 -24q-6 -17 -38 -17h-763q-41 0 -41 38v1237q0 38 41 38h763q33 0 39 -19q2 -7 2 -22v-63q0 -44 -41 -44h-632v-417h557q33 0 39 -19q2 -7 2 -22v-62q0 -44 -41 -44h-557v-449h632q41 0 41 -44v-67z" />
<glyph unicode="F" horiz-adv-x="1050" d="M952 1209q0 -44 -41 -44h-572v-417h497q33 0 39 -19q2 -7 2 -22v-62q0 -44 -41 -44h-497v-560q0 -41 -39 -41h-91q-41 0 -41 38v1237q0 38 41 38h702q33 0 39 -19q2 -7 2 -22v-63z" />
<glyph unicode="G" horiz-adv-x="1337" d="M1178 81q0 -30 -67 -46q-191 -46 -411 -46q-190 0 -292 29q-97 28 -160 96q-108 116 -108 345v355q0 252 108 369q124 134 422 134q256 0 425 -32q38 -7 38 -39v-50q0 -41 -50 -38q-91 4 -427 4t-336 -229v-534q0 -140 73 -201q77 -64 264 -64q225 0 356 10v424 q0 9 -15 9h-329q-50 0 -50 41v72q0 41 47 41h448q55 0 62 -36q2 -13 2 -37v-577z" />
<glyph unicode="H" horiz-adv-x="1357" d="M1189 50q0 -50 -44 -50h-90q-40 0 -40 50v551h-672v-551q0 -50 -44 -50h-90q-41 0 -41 50v1219q0 43 44 43h90q41 0 41 -46v-518h672v521q0 43 43 43h90q41 0 41 -46v-1216z" />
<glyph unicode="I" horiz-adv-x="454" d="M315 50q0 -50 -44 -50h-90q-41 0 -41 50v1219q0 43 44 43h90q41 0 41 -46v-1216z" />
<glyph unicode="J" horiz-adv-x="550" d="M409 157q0 -442 -368 -442q-57 0 -116 18q-25 7 -25 52v55q0 29 50 26q45 -2 56 -2q232 0 232 240v1165q0 44 41 44h89q41 0 41 -38v-1118z" />
<glyph unicode="K" horiz-adv-x="1241" d="M1188 47q11 -11 11 -23q0 -24 -30 -24h-136q-38 0 -67 30l-580 597q-18 19 -18 39t20 43l517 574q27 29 68 29h114q26 0 26 -25q0 -15 -10 -26l-533 -588zM343 50q0 -50 -44 -50h-90q-41 0 -41 50v1219q0 43 44 43h90q41 0 41 -46v-1216z" />
<glyph unicode="L" horiz-adv-x="1042" d="M965 41q0 -15 -2 -24q-6 -17 -39 -17h-715q-41 0 -41 38v1237q0 38 41 38h89q42 0 42 -43v-1118h584q41 0 41 -44v-67z" />
<glyph unicode="M" horiz-adv-x="1615" d="M1447 50q0 -50 -43 -50h-85q-41 0 -41 50v895l13 210h-9l-368 -1110q-15 -44 -58 -44h-111q-44 0 -58 44l-354 1110h-8l12 -210v-895q0 -50 -44 -50h-84q-41 0 -41 50v1219q0 43 56 43h176q44 0 59 -48l345 -1094l352 1094q16 48 59 48h180q52 0 52 -46v-1216z" />
<glyph unicode="N" horiz-adv-x="1357" d="M1189 50q0 -50 -44 -50h-98q-37 0 -69 52l-642 1026l-9 -2l10 -175v-851q0 -50 -44 -50h-84q-41 0 -41 50v1219q0 43 44 43h119q34 0 65 -48l624 -1005l9 4l-12 182v824q0 43 44 43h87q41 0 41 -46v-1216z" />
<glyph unicode="O" horiz-adv-x="1420" d="M1287 678q0 -341 -116 -500q-77 -106 -175 -151q-106 -47 -284 -47h-3q-182 0 -284 39q-112 42 -188 151q-105 151 -105 482q0 326 84 464q74 121 184.5 170.5t308.5 49.5h3q202 0 310.5 -46.5t179.5 -161.5q85 -137 85 -450zM1110 520v276q0 214 -86 301q-75 77 -245 77 h-157q-159 0 -232 -80q-78 -86 -78 -286v-263q0 -406 334 -406h133q331 0 331 381z" />
<glyph unicode="P" horiz-adv-x="1183" d="M1077 895q0 -353 -436 -353h-150q-51 0 -148 26v-518q0 -50 -44 -50h-90q-41 0 -41 50v1219q0 43 44 43h511q160 0 252 -79q102 -89 102 -262v-76zM913 928q0 237 -185 237h-385v-479h383q108 0 150 59q37 54 37 183z" />
<glyph unicode="Q" horiz-adv-x="1436" d="M1362 -110q14 -16 14 -30q0 -18 -23 -18h-130q-33 0 -60 32l-151 182q-121 -76 -300 -76h-3q-339 0 -472 190q-105 151 -105 482q0 326 84 464q74 121 184.5 170.5t308.5 49.5h3q197 0 311 -50q106 -47 179 -158q85 -127 85 -450q0 -199 -31 -312q-34 -121 -121 -209z M1110 534v276q0 212 -86 294q-73 70 -245 70h-157q-161 0 -232 -73q-78 -81 -78 -279v-277q0 -406 334 -406h77q115 0 192 43l-176 210q-12 14 -12 28q0 24 27 24h98q36 0 63 -33l116 -139q79 84 79 262z" />
<glyph unicode="R" horiz-adv-x="1217" d="M1147 47q12 -15 12 -28q0 -19 -24 -19h-128q-30 0 -51 27l-403 520q-125 0 -213 21v-518q0 -50 -44 -50h-87q-41 0 -41 50v1219q0 43 44 43h511q160 0 252 -79q102 -89 102 -262v-56q0 -317 -338 -362zM913 928q0 132 -40 184.5t-145 52.5h-388v-465h386q108 0 150 57 q37 50 37 171z" />
<glyph unicode="S" horiz-adv-x="1192" d="M1066 369q0 -216 -163 -314q-111 -67 -357 -67q-189 0 -327 27q-59 12 -59 56v50q0 34 68 29q159 -12 332 -12q190 0 253 31q69 35 69 146v95q0 140 -56 179q-45 30 -204 30h-141q-190 0 -271 85q-77 80 -77 254q0 203 133 297q65 46 153 60q56 9 179 9q175 0 308 -26 q58 -11 58 -47v-53q0 -22 -17 -27q-9 -2 -50 -2h-148q-124 1 -179 1q-163 0 -211.5 -33t-48.5 -138v-40q0 -123 28 -154q39 -43 196 -43h79q261 0 357 -91.5t96 -301.5z" />
<glyph unicode="T" horiz-adv-x="1106" d="M1032 1206q0 -44 -41 -44h-348v-1124q0 -38 -41 -38h-90q-41 0 -41 44v1118h-353q-41 0 -41 44v66q0 16 3 25q6 16 38 16h873q33 0 39 -19q2 -7 2 -22v-66z" />
<glyph unicode="U" horiz-adv-x="1356" d="M1188 415q0 -204 -100 -304q-120 -121 -405 -121q-294 0 -413 113q-102 98 -102 312v849q0 49 41 49h90q44 0 44 -49v-877q0 -122 58 -177q76 -72 277 -72q204 0 279 72q56 54 56 177v877q0 49 44 49h90q41 0 41 -49v-849z" />
<glyph unicode="V" horiz-adv-x="1305" d="M1231 1261l-441 -1216q-16 -44 -57 -44h-164q-42 0 -57 44l-439 1222q-17 46 27 46h106q22 0 28.5 -4.5t16.5 -33.5l390 -1116h23l385 1114q14 40 58 40h98q45 0 26 -52z" />
<glyph unicode="W" horiz-adv-x="1987" d="M1912 1263l-354 -1218q-12 -44 -57 -44h-158q-45 0 -57 44l-286 1048h-9l-286 -1048q-12 -44 -57 -44h-162q-44 0 -57 44l-354 1216q-15 52 28 52h106q34 0 46 -42l314 -1111h12l296 1070q13 49 59 49h121q46 0 60 -49l296 -1070h12l306 1109q12 44 47 44h106 q43 0 28 -50z" />
<glyph unicode="X" horiz-adv-x="1334" d="M1235 100q47 -54 47 -76q0 -24 -30 -24h-115q-41 0 -75 45l-396 515l-400 -515q-35 -45 -75 -45h-110q-30 0 -30 24q0 17 38 66l463 592l-427 579q-13 17 -13 31q0 21 27 21h129q35 0 58 -32l341 -477l340 475q25 34 62 34h132q26 0 26 -20q0 -14 -14 -32l-430 -575z" />
<glyph unicode="Y" horiz-adv-x="1208" d="M1075 1227l-377 -597v-580q0 -50 -44 -50h-90q-41 0 -41 50v580l-419 597q-34 43 -34 61q0 25 32 25h126q22 0 27.5 -3.5t24.5 -32.5l330 -490l282 482q26 44 62 44h123q31 0 31 -21q0 -16 -33 -65z" />
<glyph unicode="Z" horiz-adv-x="1105" d="M1049 44q0 -44 -41 -44h-927q-18 0 -20.5 12.5t-3.5 25.5q-4 24 10 46l59 93l618 985h-592q-41 0 -41 44v66q0 16 3 26q6 15 38 15h814q35 0 35 -40q0 -25 -10 -40l-74 -116l-611 -965h702q41 0 41 -41v-67z" />
<glyph unicode="[" horiz-adv-x="659" d="M215 -410q-43 0 -62.5 28t-19.5 89v1698q0 119 82 119h371q22 -16 22 -48q0 -30 -22 -46h-277q-22 0 -22 -39v-1667q0 -39 22 -39h277q22 -16 22 -47q0 -32 -22 -48h-371z" />
<glyph unicode="\" horiz-adv-x="768" d="M738 -26q7 -17 7 -30q0 -33 -39 -33h-52q-44 0 -65 51l-556 1360q-8 18 -8 31q0 30 37 30h54q44 0 61 -41z" />
<glyph unicode="]" horiz-adv-x="659" d="M526 -293q0 -61 -19.5 -89t-62.5 -28h-370q-23 17 -23 48q0 30 23 47h276q23 0 23 39v1667q0 39 -23 39h-276q-23 17 -23 46q0 31 23 48h370q82 0 82 -119v-1698z" />
<glyph unicode="^" horiz-adv-x="1071" d="M989 646h-162l-282 567h-15l-286 -567h-162l379 692h153z" />
<glyph unicode="_" horiz-adv-x="884" d="M865 -101q0 -41 -52 -41h-739q-50 0 -50 41v60q0 41 50 41h739q52 0 52 -41v-60z" />
<glyph unicode="a" horiz-adv-x="965" d="M940 66q0 -30 -39 -41l-47 -12q-73 -19 -75 -19q-71 0 -112 112q-34 -35 -82 -69q-69 -48 -177 -48h-40q-291 0 -291 283v43q0 285 297 285h90q129 0 199 -82l10 168q5 98 -53 136q-52 34 -180 34t-246 -20q-34 -6 -34 31v60q0 27 40 37q124 34 284 34q154 0 232 -60 q107 -82 107 -295v-432q0 -81 46 -81h39q32 0 32 -31v-33zM665 213v174q0 46 -25 63q-31 22 -126 22h-150q-79 0 -109 -37q-25 -31 -25 -108v-59q0 -139 156 -139h76q126 0 178 36q25 17 25 48z" />
<glyph unicode="b" horiz-adv-x="1013" d="M908 343q0 -170 -111 -266q-102 -87 -262 -87h-93q-193 0 -269 38q-39 20 -39 56v1308q0 34 29 34h105q29 0 29 -34v-504q75 106 222 106h44q159 0 251 -82q94 -86 94 -241v-328zM749 331v338q0 74 -39 125q-49 65 -143 65h-123q-79 0 -115.5 -25.5t-36.5 -81.5v-589 q0 -30 124 -30h162q171 0 171 198z" />
<glyph unicode="c" horiz-adv-x="877" d="M784 65q0 -23 -34 -34q-118 -39 -250 -39q-207 0 -302 101q-102 109 -102 401q0 188 36 290q33 90 106 142q101 72 262 72q117 0 244 -36q40 -12 40 -38v-76q0 -28 -45 -19q-120 23 -221 23q-126 0 -184 -36q-72 -44 -72 -156v-327q0 -112 62 -155q52 -37 174 -37 q90 0 244 16q42 4 42 -22v-70z" />
<glyph unicode="d" horiz-adv-x="1017" d="M991 69q0 -27 -41 -41l-48 -15q-59 -20 -81 -20q-60 0 -103 99q-79 -97 -199 -97h-72q-347 0 -347 358v304q0 165 98 255q89 82 235 82h96q128 0 183 -79v477q0 34 29 34h105q28 0 28 -34v-1181q0 -78 46 -78h40q31 0 31 -31v-33zM716 226v550q0 40 -25 58q-36 25 -87 25 h-188q-82 0 -123 -73q-33 -56 -33 -133v-313q0 -202 170 -202h116q87 0 145 33q25 14 25 55z" />
<glyph unicode="e" horiz-adv-x="959" d="M855 447q0 -33 -40 -33h-549v-80q0 -113 63 -157q54 -39 177 -39q93 0 257 21q42 5 42 -30v-57q0 -22 -34 -34q-128 -46 -277 -46q-194 0 -288 101q-106 112 -106 401q0 341 144 443q87 61 234 61q156 0 240 -59q73 -52 103 -121q34 -78 34 -218v-153zM693 702 q0 85 -50 120t-165 35q-120 0 -166 -37.5t-46 -131.5v-148h427v162z" />
<glyph unicode="f" horiz-adv-x="618" d="M586 1306q0 -20 -34 -18q-31 1 -101 1q-133 0 -133 -125q0 -13 1 -26l15 -154h212q27 0 27 -26v-80q0 -30 -28 -30h-208v-818q0 -30 -28 -30h-103q-27 0 -27 26v822h-120q-28 0 -28 30v49q0 19 21 25l63 16q36 9 43 16q12 13 12 56v88q0 157 85 236q68 62 168 62 q71 0 139 -22q24 -8 24 -36v-62z" />
<glyph unicode="g" horiz-adv-x="1003" d="M874 -18q0 -179 -111 -294q-89 -91 -270 -91q-162 0 -295 46q-40 13 -40 37v58q0 36 46 24q114 -30 274 -30q250 0 241 212l-7 153q-46 -54 -83 -75q-55 -31 -141 -31h-55q-159 0 -246 88.5t-87 248.5v298q0 181 105 281q99 94 266 94h122q220 0 258 -28 q20 -14 21.5 -17.5t1.5 -28.5v-945zM716 233v580q0 34 -11 38q-32 9 -140 9h-115q-190 0 -190 -202v-342q0 -190 170 -190h100q113 0 161 48q25 26 25 59z" />
<glyph unicode="h" horiz-adv-x="1042" d="M914 34q0 -34 -29 -34h-96q-29 0 -29 34v647q0 178 -167 178h-167q-55 0 -91.5 -25.5t-36.5 -57.5v-742q0 -34 -29 -34h-100q-29 0 -29 34v1358q0 34 29 34h105q28 0 28 -34v-498q67 100 211 100h90q143 0 224 -78q87 -84 87 -245v-637z" />
<glyph unicode="i" horiz-adv-x="427" d="M293 1153q0 -30 -28 -30h-103q-27 0 -27 26v108q0 30 28 30h103q27 0 27 -26v-108zM293 30q0 -30 -28 -30h-103q-28 0 -28 26v927q0 30 28 30h103q28 0 28 -26v-927z" />
<glyph unicode="j" horiz-adv-x="464" d="M330 1153q0 -30 -28 -30h-103q-28 0 -28 26v108q0 30 28 30h103q28 0 28 -26v-108zM330 60q0 -158 -79 -236q-63 -62 -160 -62q-58 0 -126 22q-23 8 -23 36v64q0 20 33 18q31 -2 60 -2q136 0 136 140v913q0 30 28 30h103q28 0 28 -26v-897z" />
<glyph unicode="k" horiz-adv-x="977" d="M947 32q10 -12 6 -22t-19 -10h-130q-28 0 -52 27l-411 462q-42 38 0 75l383 397q21 22 54 22h115q15 0 18 -15q4 -14 -6 -24l-404 -417zM299 30q0 -30 -28 -30h-103q-28 0 -28 26v1370q0 30 28 30h103q28 0 28 -26v-1370z" />
<glyph unicode="l" horiz-adv-x="480" d="M440 46q0 -36 -41 -42l-47 -6q-44 -6 -82 -6q-130 -1 -130 152v1248q0 34 29 34h104q29 0 29 -34v-1204q0 -58 48 -60l49 -2q41 -2 41 -31v-49z" />
<glyph unicode="m" horiz-adv-x="1546" d="M1418 34q0 -34 -29 -34h-107q-29 0 -29 34v670q0 87 -43 121q-38 31 -126 31h-82q-91 0 -136 -33q-18 -12 -18 -131v-658q0 -34 -28 -34h-108q-29 0 -29 34v668q0 95 -42 128q-35 26 -128 26h-62q-106 0 -140 -9q-12 -4 -12 -38v-775q0 -34 -29 -34h-107q-29 0 -29 34 v885q0 25 1.5 28.5t21.5 17.5q16 12 91 24q84 13 168 13h111q182 0 261 -137q85 137 220 137h116q294 0 294 -296v-672z" />
<glyph unicode="n" horiz-adv-x="1056" d="M928 34q0 -34 -29 -34h-108q-28 0 -28 34v656q0 90 -47.5 128t-153.5 38h-112q-98 0 -138 -11q-13 -3 -13 -38v-773q0 -34 -28 -34h-108q-29 0 -29 34v885q0 26 1.5 29t21.5 17q15 11 106 24q97 13 183 13h139q343 0 343 -324v-644z" />
<glyph unicode="o" horiz-adv-x="1051" d="M961 510q0 -247 -90 -371q-111 -153 -342 -153h-2q-248 0 -351 148q-83 119 -83 358q0 234 69 347q103 167 365 167h2q264 0 363 -159q69 -112 69 -337zM795 412v169q0 279 -225 279h-97q-211 0 -211 -271v-179q0 -279 227 -279h81q225 0 225 281z" />
<glyph unicode="p" horiz-adv-x="1014" d="M914 346q0 -156 -105 -255q-101 -96 -254 -96h-44q-91 0 -134 21q-36 18 -75 73v-469q0 -33 -28 -33h-105q-29 0 -29 33v1308q0 28 29 38q87 32 296 32h88q160 0 254 -81q107 -92 107 -272v-299zM754 347v299q0 209 -195 209h-137q-124 0 -124 -33v-597q0 -41 25 -59 q53 -36 127 -36h109q108 0 159 78q36 57 36 139z" />
<glyph unicode="q" horiz-adv-x="1009" d="M874 -380q0 -33 -28 -33h-105q-29 0 -29 33v479q-67 -94 -180 -94h-87q-149 0 -241 79q-104 89 -104 257v304q0 174 103 268q98 88 264 88h116q230 0 268 -22q20 -11 21.5 -15t1.5 -31v-1313zM716 223v592q0 36 -11 38q-52 7 -140 7h-135q-170 0 -170 -202v-327 q0 -192 184 -192h160q51 0 87 25q25 18 25 59z" />
<glyph unicode="r" horiz-adv-x="676" d="M624 841q0 -39 -34 -22q-66 34 -131 34q-124 0 -149 -24q-16 -15 -16 -56v-739q0 -34 -29 -34h-108q-29 0 -29 34v663q0 151 91 226q98 81 286 81q56 0 94 -20q25 -12 25 -38v-105z" />
<glyph unicode="s" horiz-adv-x="863" d="M769 282q0 -144 -96 -221q-88 -72 -264 -72q-157 0 -255 37q-39 14 -39 37v62q0 32 45 23q88 -18 233 -18q115 0 143 8q70 20 70 101v97q0 76 -46 98q-28 14 -111 14h-88q-136 0 -202 68q-59 61 -59 204q0 135 103 219q73 59 225 59q113 0 234 -27q40 -8 40 -37v-58 q0 -30 -46 -23q-58 9 -247 9q-90 0 -123 -24q-28 -21 -28 -74v-80q0 -59 20 -80q27 -28 113 -28l60 1q173 0 245.5 -70t72.5 -225z" />
<glyph unicode="t" horiz-adv-x="625" d="M567 55q0 -22 -24 -33q-76 -36 -149 -36q-215 0 -215 258v604h-110q-28 0 -28 30v53q0 20 21 25l53 12q36 8 47 20q17 18 17 63v140q0 26 27 26h103q28 0 28 -30v-203h180q28 0 28 -30v-80q0 -26 -27 -26h-181v-602q0 -67 19 -94q23 -34 87 -34q51 0 90 14q11 3 18 3 q16 -1 16 -21v-59z" />
<glyph unicode="u" horiz-adv-x="1037" d="M1012 69q0 -27 -41 -41l-48 -15q-59 -20 -71 -20q-70 0 -113 99q-75 -104 -221 -104h-67q-329 0 -329 340v620q0 33 29 33h108q29 0 29 -33v-621q0 -113 47 -155q42 -37 151 -37h53q126 0 173 39q18 14 18 44v730q0 33 29 33h107q29 0 29 -33v-737q0 -78 46 -78h39 q32 0 32 -31v-33z" />
<glyph unicode="v" horiz-adv-x="995" d="M944 935l-342 -890q-18 -48 -67 -48h-86q-49 0 -67 48l-345 892q-18 46 19 46h112q28 0 37 -26l279 -785h16l280 787q8 24 45 24h103q34 0 16 -48z" />
<glyph unicode="w" horiz-adv-x="1532" d="M1481 939l-270 -894q-15 -48 -67 -48h-108q-47 0 -61 48l-207 723h-15l-207 -723q-14 -48 -61 -48h-108q-52 0 -67 48l-267 892q-14 46 23 46h110q29 0 38 -36l203 -780h15l218 758q8 29 21 35q5 3 34 3h112q29 0 35 -3q12 -6 21 -35l216 -758h15l204 778q10 38 37 38 h110q39 0 26 -44z" />
<glyph unicode="x" horiz-adv-x="916" d="M877 67q17 -21 17 -38q0 -29 -30 -29h-103q-34 0 -48 20l-256 378l-254 -378q-14 -20 -48 -20h-100q-30 0 -30 28q0 17 16 39l316 442l-284 408q-22 31 -22 45q0 21 29 21h114q25 0 41 -24l222 -337l220 331q20 30 44 30h114q31 0 31 -20q0 -13 -24 -46l-286 -409z" />
<glyph unicode="y" horiz-adv-x="966" d="M912 935l-344 -1060q-95 -295 -320 -295q-48 0 -109 21q-15 6 -15 32v63q0 21 39 18q83 -5 64 -5q134 0 188 171l46 149h-63q-38 0 -53 44l-302 862q-17 48 24 48h114q26 0 36 -30l265 -810h14l247 812q8 28 43 28h101q40 0 25 -48z" />
<glyph unicode="z" horiz-adv-x="840" d="M789 30q0 -30 -28 -30h-687q-22 0 -28 20q-6 19 5 37l53 86l432 699h-427q-28 0 -28 30v81q0 11 2 17q4 11 26 11h624q30 0 30 -28q0 -13 -8 -27l-490 -785h496q23 0 26 -13q2 -5 2 -15v-83z" />
<glyph unicode="{" horiz-adv-x="661" d="M409 -412q-103 0 -175 32.5t-111 91.5t-44.5 141t23.5 180l72 252q10 36 8 77t-15.5 79.5t-39 70t-62.5 49.5q37 17 62.5 48.5t39 69.5t15.5 78.5t-8 76.5l-72 243q-29 95 -25 176t42 140.5t110.5 93t179.5 33.5h178q24 -17 22 -46q-1 -28 -22 -44h-137 q-73 0 -119.5 -28.5t-70.5 -75t-26.5 -105.5t13.5 -119l68 -271q8 -34 -1.5 -75t-30.5 -79.5t-51 -70t-63 -45.5q33 -12 63 -48t51 -81t30.5 -91t1.5 -79l-68 -262q-16 -59 -14 -116.5t25.5 -103t70.5 -74t121 -28.5h137q10 -6 15.5 -19t5.5 -26.5t-5.5 -26t-15.5 -18.5 h-178z" />
<glyph unicode="|" horiz-adv-x="389" d="M256 -389q-6 -11 -22 -16.5t-34.5 -5.5t-37 5.5t-29.5 16.5v1888q13 12 30 18.5t33.5 7.5t32 -5t27.5 -21v-1888z" />
<glyph unicode="}" horiz-adv-x="661" d="M596 561q-37 -18 -62.5 -49.5t-39 -70t-15.5 -79.5t8 -77l70 -252q27 -98 21 -180t-44 -141t-109 -91.5t-173 -32.5h-180q-11 6 -16 18.5t-5 26.5t5 26.5t16 18.5h137q76 0 123 28.5t69.5 74t24.5 103t-12 116.5l-68 262q-10 33 -1 79t30.5 91t51.5 81t62 48 q-32 14 -62 45t-51.5 69.5t-30.5 80t1 75.5l68 271q14 60 11.5 119t-25.5 105.5t-69.5 75t-121.5 28.5h-137q-20 17 -21 44q-2 29 21 46h180q109 0 180.5 -33.5t108 -93t40 -140.5t-23.5 -176l-70 -243q-10 -36 -8.5 -77t15 -78.5t39 -69t63.5 -48.5z" />
<glyph unicode="~" horiz-adv-x="1241" d="M172 422q-13 11 -16 40q-3 30 8 50q51 92 95 130q59 50 144 50q57 0 106 -21q23 -10 87 -40l126 -59q63 -30 118 -30q142 0 229 154q21 -15 21 -39q0 -18 -13 -47q-78 -174 -239 -174q-67 0 -234 86q-125 64 -188 64q-158 0 -244 -164z" />
<glyph unicode="&#xa2;" horiz-adv-x="874" d="M769 299q-79 -319 -330 -319q-67 0 -137 30l-121 -334h-61l133 365q-143 135 -143 346q0 216 133 334q103 88 233 88q10 0 23 -0.5t30 -1.5l119 328h62l-123 -344q157 -72 157 -175q0 -71 -79 -71q-49 0 -74 33q-12 17 -21 59q-10 55 -16 65l-195 -538q79 -53 140 -53 q110 0 174 73q25 33 69 125zM507 739q-27 11 -51 11q-109 0 -164 -97q-45 -80 -45 -196q0 -117 67 -244z" />
<glyph unicode="&#xa3;" horiz-adv-x="874" d="M836 258q-15 -113 -72 -188q-68 -90 -174 -90q-72 0 -150 45q-15 9 -47 32t-82 60q-68 -137 -159 -137q-46 0 -73.5 31t-27.5 79q0 30 10.5 54.5t29.5 42t45 27t57 9.5q27 0 71 -6q1 6 2 15t2 22v29q0 74 -18 280h-166v82h166q-12 127 -12 170q0 225 159 324 q72 45 158 45q82 0 145 -45q72 -50 72 -129q0 -14 -5.5 -26.5t-15 -23t-21.5 -16.5t-25 -6q-33 0 -54 33q-9 12 -14 69q-4 51 -28.5 74t-73.5 23q-156 0 -156 -240q0 -29 2.5 -68.5t7.5 -91.5l8 -92h221v-82h-221q1 -20 1.5 -34t0.5 -23q0 -148 -53 -307q162 -54 191 -60 q43 -10 88 -10q141 0 180 137zM254 147q-38 23 -72 23q-82 0 -82 -74q0 -67 56 -67q70 0 98 118z" />
<glyph unicode="&#xa7;" horiz-adv-x="874" d="M741 412q0 -179 -188 -293q104 -116 104 -217q0 -103 -69 -173q-68 -71 -172 -71q-83 0 -150 56q-65 56 -65 136q0 15 5.5 28.5t14.5 24t21 17t26 6.5q64 0 64 -76q0 -14 -8 -46q-7 -29 -7 -46q0 -32 37 -51q31 -16 66 -16q58 0 104 43q47 44 47 98q0 109 -176 240 q-122 91 -174 153q-88 100 -88 205q0 175 189 291q-105 117 -105 221q0 101 69 172q70 70 173 70q86 0 151 -54q66 -53 66 -135q0 -77 -68 -77q-67 0 -67 67q0 11 6 40q6 28 6 42q0 80 -94 80q-62 0 -105 -43t-43 -107q0 -55 23 -90q38 -60 129 -125q125 -92 184 -157 q94 -104 94 -213zM655 332q0 119 -192 268q-37 29 -65 52t-48 42q-129 -78 -129 -190q0 -80 66 -158q20 -23 53.5 -51.5t79.5 -63.5q31 -23 56.5 -44.5t47.5 -41.5q131 78 131 187z" />
<glyph unicode="&#xa9;" horiz-adv-x="1335" d="M1274 580q0 -163 -82 -306q-83 -143 -226 -222q-142 -79 -298 -79q-163 0 -306 82q-143 83 -222 224q-79 142 -79 301q0 163 84 307q84 146 226 222q143 77 297 77q161 0 304 -81q144 -81 222 -220q80 -146 80 -305zM1223 580q0 150 -76 280q-77 132 -208 203 q-132 72 -271 72q-148 0 -278 -75t-202 -202q-73 -133 -73 -278q0 -148 74 -279q76 -132 205 -203q131 -71 274 -71q148 0 279 74q129 74 203 205q73 130 73 274zM999 369q-119 -174 -327 -174q-165 0 -281 107q-115 108 -115 273q0 175 127 287q121 109 299 109 q60 0 158 -33q21 -6 31 -6q27 0 43 37h35l16 -238h-33q-62 201 -260 201q-138 0 -215 -107q-59 -85 -59 -225q0 -354 282 -354q169 0 269 139z" />
<glyph unicode="&#xab;" horiz-adv-x="1024" d="M961 -8h-60l-393 473l393 469h60l-244 -469zM508 -8h-57l-388 473l388 469h57l-244 -469z" />
<glyph unicode="&#xad;" horiz-adv-x="587" d="M67 467q-8 11 -12.5 26.5t-5.5 32.5t3.5 33.5t14.5 30.5h453q12 -14 17 -30.5t4 -33.5t-6.5 -32.5t-14.5 -26.5h-453z" />
<glyph unicode="&#xb6;" horiz-adv-x="792" d="M797 1112h-115v-1491h-61v1491h-160v-1491h-62v893q-137 6 -209 31q-108 34 -159 125q-43 74 -43 170q0 189 170 278q84 41 215 41h424v-47z" />
<glyph unicode="&#xb7;" horiz-adv-x="512" d="M367 678q0 -48 -31.5 -79.5t-79.5 -31.5q-45 0 -78 33t-33 78q0 48 31.5 79t79.5 31t79.5 -31t31.5 -79z" />
<glyph unicode="&#xbb;" horiz-adv-x="1024" d="M961 463l-388 -471h-57l244 471l-244 471h57zM516 463l-393 -471h-60l244 471l-244 471h60z" />
<glyph unicode="&#xbc;" horiz-adv-x="1312" d="M1283 123h-92v-158h-100v158h-293v61l319 398h74v-389h92v-70zM1103 1184l-799 -1231h-76l799 1231h76zM405 567h-277v29q74 0 82 18q4 9 4 64v319q0 87 -12 101q-5 4 -17 4q-17 0 -57 -17l-14 23l176 76h28v-506q0 -51 7 -64q10 -18 80 -18v-29zM1091 193v268l-224 -268 h224z" />
<glyph unicode="&#xbd;" horiz-adv-x="1312" d="M1277 96l-53 -131h-422v27q323 251 323 389q0 55 -35.5 89t-89.5 34q-103 0 -141 -101h-39q27 179 207 179q78 0 137 -41q68 -45 68 -119q0 -134 -293 -373h160q110 0 139 47h39zM1082 1184l-798 -1231h-76l799 1231h75zM405 567h-277v29q74 0 82 18q4 9 4 64v319 q0 87 -12 101q-5 4 -17 4q-17 0 -57 -17l-14 23l176 76h28v-506q0 -51 7 -64q10 -18 80 -18v-29z" />
<glyph unicode="&#xbe;" horiz-adv-x="1312" d="M1283 123h-92v-158h-100v158h-293v61l319 398h74v-389h92v-70zM1091 1184l-797 -1231h-76l799 1231h74zM445 770q0 -107 -92 -166q-79 -49 -192 -49q-125 0 -125 53q0 39 49 39q23 0 71 -21q49 -20 76 -20q47 0 82 33t35 80q0 145 -198 141v25q59 0 107 36q48 37 48 97 q0 94 -104 94q-73 0 -125 -76l-33 15q66 133 197 133q63 0 112 -31q58 -37 58 -96q0 -58 -90 -131q124 -45 124 -156zM1091 193v268l-222 -268h222z" />
<glyph unicode="&#xd7;" horiz-adv-x="987" d="M844 281l-49 -50l-303 304l-302 -304l-49 50l301 301l-301 301l52 49l299 -299l301 299l49 -47l-301 -301z" />
<glyph unicode="&#xf7;" horiz-adv-x="1124" d="M648 987q0 -18 -7 -33.5t-19 -27t-28 -18.5t-34 -7t-34 7t-28 18.5t-19 27t-7 33.5q0 37 25.5 62.5t62.5 25.5q39 0 63.5 -24.5t24.5 -63.5zM1101 641h-1079v82h1079v-82zM648 367q0 -37 -25.5 -62.5t-62.5 -25.5q-18 0 -34 7t-28 19t-19 28t-7 34t7 34t19 28t28 19t34 7 q39 0 63.5 -26t24.5 -62z" />
<glyph unicode="&#x591;" d="M657 770q0 -119 -83 -202t-203 -83q-118 0 -200 84q-83 85 -83 201q0 118 83 203q82 84 200 84q120 0 203 -84q83 -85 83 -203zM578 770q0 88 -60 148q-58 61 -147 61q-86 0 -146 -61q-59 -61 -59 -148q0 -84 59 -146q60 -61 146 -61q89 0 147 61q60 61 60 146z" />
<glyph unicode="&#x592;" d="M657 770q0 -119 -83 -202t-203 -83q-118 0 -200 84q-83 85 -83 201q0 118 83 203q82 84 200 84q120 0 203 -84q83 -85 83 -203zM578 770q0 88 -60 148q-58 61 -147 61q-86 0 -146 -61q-59 -61 -59 -148q0 -84 59 -146q60 -61 146 -61q89 0 147 61q60 61 60 146z" />
<glyph unicode="&#x593;" d="M657 770q0 -119 -83 -202t-203 -83q-118 0 -200 84q-83 85 -83 201q0 118 83 203q82 84 200 84q120 0 203 -84q83 -85 83 -203zM578 770q0 88 -60 148q-58 61 -147 61q-86 0 -146 -61q-59 -61 -59 -148q0 -84 59 -146q60 -61 146 -61q89 0 147 61q60 61 60 146z" />
<glyph unicode="&#x594;" d="M657 770q0 -119 -83 -202t-203 -83q-118 0 -200 84q-83 85 -83 201q0 118 83 203q82 84 200 84q120 0 203 -84q83 -85 83 -203zM578 770q0 88 -60 148q-58 61 -147 61q-86 0 -146 -61q-59 -61 -59 -148q0 -84 59 -146q60 -61 146 -61q89 0 147 61q60 61 60 146z" />
<glyph unicode="&#x595;" d="M657 770q0 -119 -83 -202t-203 -83q-118 0 -200 84q-83 85 -83 201q0 118 83 203q82 84 200 84q120 0 203 -84q83 -85 83 -203zM578 770q0 88 -60 148q-58 61 -147 61q-86 0 -146 -61q-59 -61 -59 -148q0 -84 59 -146q60 -61 146 -61q89 0 147 61q60 61 60 146z" />
<glyph unicode="&#x596;" d="M657 770q0 -119 -83 -202t-203 -83q-118 0 -200 84q-83 85 -83 201q0 118 83 203q82 84 200 84q120 0 203 -84q83 -85 83 -203zM578 770q0 88 -60 148q-58 61 -147 61q-86 0 -146 -61q-59 -61 -59 -148q0 -84 59 -146q60 -61 146 -61q89 0 147 61q60 61 60 146z" />
<glyph unicode="&#x597;" d="M657 770q0 -119 -83 -202t-203 -83q-118 0 -200 84q-83 85 -83 201q0 118 83 203q82 84 200 84q120 0 203 -84q83 -85 83 -203zM578 770q0 88 -60 148q-58 61 -147 61q-86 0 -146 -61q-59 -61 -59 -148q0 -84 59 -146q60 -61 146 -61q89 0 147 61q60 61 60 146z" />
<glyph unicode="&#x598;" d="M657 770q0 -119 -83 -202t-203 -83q-118 0 -200 84q-83 85 -83 201q0 118 83 203q82 84 200 84q120 0 203 -84q83 -85 83 -203zM578 770q0 88 -60 148q-58 61 -147 61q-86 0 -146 -61q-59 -61 -59 -148q0 -84 59 -146q60 -61 146 -61q89 0 147 61q60 61 60 146z" />
<glyph unicode="&#x599;" d="M657 770q0 -119 -83 -202t-203 -83q-118 0 -200 84q-83 85 -83 201q0 118 83 203q82 84 200 84q120 0 203 -84q83 -85 83 -203zM578 770q0 88 -60 148q-58 61 -147 61q-86 0 -146 -61q-59 -61 -59 -148q0 -84 59 -146q60 -61 146 -61q89 0 147 61q60 61 60 146z" />
<glyph unicode="&#x59a;" d="M657 770q0 -119 -83 -202t-203 -83q-118 0 -200 84q-83 85 -83 201q0 118 83 203q82 84 200 84q120 0 203 -84q83 -85 83 -203zM578 770q0 88 -60 148q-58 61 -147 61q-86 0 -146 -61q-59 -61 -59 -148q0 -84 59 -146q60 -61 146 -61q89 0 147 61q60 61 60 146z" />
<glyph unicode="&#x59b;" d="M657 770q0 -119 -83 -202t-203 -83q-118 0 -200 84q-83 85 -83 201q0 118 83 203q82 84 200 84q120 0 203 -84q83 -85 83 -203zM578 770q0 88 -60 148q-58 61 -147 61q-86 0 -146 -61q-59 -61 -59 -148q0 -84 59 -146q60 -61 146 -61q89 0 147 61q60 61 60 146z" />
<glyph unicode="&#x59c;" d="M657 770q0 -119 -83 -202t-203 -83q-118 0 -200 84q-83 85 -83 201q0 118 83 203q82 84 200 84q120 0 203 -84q83 -85 83 -203zM578 770q0 88 -60 148q-58 61 -147 61q-86 0 -146 -61q-59 -61 -59 -148q0 -84 59 -146q60 -61 146 -61q89 0 147 61q60 61 60 146z" />
<glyph unicode="&#x59d;" d="M657 770q0 -119 -83 -202t-203 -83q-118 0 -200 84q-83 85 -83 201q0 118 83 203q82 84 200 84q120 0 203 -84q83 -85 83 -203zM578 770q0 88 -60 148q-58 61 -147 61q-86 0 -146 -61q-59 -61 -59 -148q0 -84 59 -146q60 -61 146 -61q89 0 147 61q60 61 60 146z" />
<glyph unicode="&#x59e;" d="M657 770q0 -119 -83 -202t-203 -83q-118 0 -200 84q-83 85 -83 201q0 118 83 203q82 84 200 84q120 0 203 -84q83 -85 83 -203zM578 770q0 88 -60 148q-58 61 -147 61q-86 0 -146 -61q-59 -61 -59 -148q0 -84 59 -146q60 -61 146 -61q89 0 147 61q60 61 60 146z" />
<glyph unicode="&#x59f;" d="M657 770q0 -119 -83 -202t-203 -83q-118 0 -200 84q-83 85 -83 201q0 118 83 203q82 84 200 84q120 0 203 -84q83 -85 83 -203zM578 770q0 88 -60 148q-58 61 -147 61q-86 0 -146 -61q-59 -61 -59 -148q0 -84 59 -146q60 -61 146 -61q89 0 147 61q60 61 60 146z" />
<glyph unicode="&#x5a0;" d="M657 770q0 -119 -83 -202t-203 -83q-118 0 -200 84q-83 85 -83 201q0 118 83 203q82 84 200 84q120 0 203 -84q83 -85 83 -203zM578 770q0 88 -60 148q-58 61 -147 61q-86 0 -146 -61q-59 -61 -59 -148q0 -84 59 -146q60 -61 146 -61q89 0 147 61q60 61 60 146z" />
<glyph unicode="&#x5a1;" d="M657 770q0 -119 -83 -202t-203 -83q-118 0 -200 84q-83 85 -83 201q0 118 83 203q82 84 200 84q120 0 203 -84q83 -85 83 -203zM578 770q0 88 -60 148q-58 61 -147 61q-86 0 -146 -61q-59 -61 -59 -148q0 -84 59 -146q60 -61 146 -61q89 0 147 61q60 61 60 146z" />
<glyph unicode="&#x5a3;" d="M657 770q0 -119 -83 -202t-203 -83q-118 0 -200 84q-83 85 -83 201q0 118 83 203q82 84 200 84q120 0 203 -84q83 -85 83 -203zM578 770q0 88 -60 148q-58 61 -147 61q-86 0 -146 -61q-59 -61 -59 -148q0 -84 59 -146q60 -61 146 -61q89 0 147 61q60 61 60 146z" />
<glyph unicode="&#x5a4;" d="M657 770q0 -119 -83 -202t-203 -83q-118 0 -200 84q-83 85 -83 201q0 118 83 203q82 84 200 84q120 0 203 -84q83 -85 83 -203zM578 770q0 88 -60 148q-58 61 -147 61q-86 0 -146 -61q-59 -61 -59 -148q0 -84 59 -146q60 -61 146 -61q89 0 147 61q60 61 60 146z" />
<glyph unicode="&#x5a5;" d="M657 770q0 -119 -83 -202t-203 -83q-118 0 -200 84q-83 85 -83 201q0 118 83 203q82 84 200 84q120 0 203 -84q83 -85 83 -203zM578 770q0 88 -60 148q-58 61 -147 61q-86 0 -146 -61q-59 -61 -59 -148q0 -84 59 -146q60 -61 146 -61q89 0 147 61q60 61 60 146z" />
<glyph unicode="&#x5a6;" d="M657 770q0 -119 -83 -202t-203 -83q-118 0 -200 84q-83 85 -83 201q0 118 83 203q82 84 200 84q120 0 203 -84q83 -85 83 -203zM578 770q0 88 -60 148q-58 61 -147 61q-86 0 -146 -61q-59 -61 -59 -148q0 -84 59 -146q60 -61 146 -61q89 0 147 61q60 61 60 146z" />
<glyph unicode="&#x5a7;" d="M657 770q0 -119 -83 -202t-203 -83q-118 0 -200 84q-83 85 -83 201q0 118 83 203q82 84 200 84q120 0 203 -84q83 -85 83 -203zM578 770q0 88 -60 148q-58 61 -147 61q-86 0 -146 -61q-59 -61 -59 -148q0 -84 59 -146q60 -61 146 -61q89 0 147 61q60 61 60 146z" />
<glyph unicode="&#x5a8;" d="M657 770q0 -119 -83 -202t-203 -83q-118 0 -200 84q-83 85 -83 201q0 118 83 203q82 84 200 84q120 0 203 -84q83 -85 83 -203zM578 770q0 88 -60 148q-58 61 -147 61q-86 0 -146 -61q-59 -61 -59 -148q0 -84 59 -146q60 -61 146 -61q89 0 147 61q60 61 60 146z" />
<glyph unicode="&#x5a9;" d="M657 770q0 -119 -83 -202t-203 -83q-118 0 -200 84q-83 85 -83 201q0 118 83 203q82 84 200 84q120 0 203 -84q83 -85 83 -203zM578 770q0 88 -60 148q-58 61 -147 61q-86 0 -146 -61q-59 -61 -59 -148q0 -84 59 -146q60 -61 146 -61q89 0 147 61q60 61 60 146z" />
<glyph unicode="&#x5aa;" d="M657 770q0 -119 -83 -202t-203 -83q-118 0 -200 84q-83 85 -83 201q0 118 83 203q82 84 200 84q120 0 203 -84q83 -85 83 -203zM578 770q0 88 -60 148q-58 61 -147 61q-86 0 -146 -61q-59 -61 -59 -148q0 -84 59 -146q60 -61 146 -61q89 0 147 61q60 61 60 146z" />
<glyph unicode="&#x5ab;" d="M657 770q0 -119 -83 -202t-203 -83q-118 0 -200 84q-83 85 -83 201q0 118 83 203q82 84 200 84q120 0 203 -84q83 -85 83 -203zM578 770q0 88 -60 148q-58 61 -147 61q-86 0 -146 -61q-59 -61 -59 -148q0 -84 59 -146q60 -61 146 -61q89 0 147 61q60 61 60 146z" />
<glyph unicode="&#x5ac;" d="M657 770q0 -119 -83 -202t-203 -83q-118 0 -200 84q-83 85 -83 201q0 118 83 203q82 84 200 84q120 0 203 -84q83 -85 83 -203zM578 770q0 88 -60 148q-58 61 -147 61q-86 0 -146 -61q-59 -61 -59 -148q0 -84 59 -146q60 -61 146 -61q89 0 147 61q60 61 60 146z" />
<glyph unicode="&#x5ad;" d="M657 770q0 -119 -83 -202t-203 -83q-118 0 -200 84q-83 85 -83 201q0 118 83 203q82 84 200 84q120 0 203 -84q83 -85 83 -203zM578 770q0 88 -60 148q-58 61 -147 61q-86 0 -146 -61q-59 -61 -59 -148q0 -84 59 -146q60 -61 146 -61q89 0 147 61q60 61 60 146z" />
<glyph unicode="&#x5ae;" d="M657 770q0 -119 -83 -202t-203 -83q-118 0 -200 84q-83 85 -83 201q0 118 83 203q82 84 200 84q120 0 203 -84q83 -85 83 -203zM578 770q0 88 -60 148q-58 61 -147 61q-86 0 -146 -61q-59 -61 -59 -148q0 -84 59 -146q60 -61 146 -61q89 0 147 61q60 61 60 146z" />
<glyph unicode="&#x5af;" d="M657 770q0 -119 -83 -202t-203 -83q-118 0 -200 84q-83 85 -83 201q0 118 83 203q82 84 200 84q120 0 203 -84q83 -85 83 -203zM578 770q0 88 -60 148q-58 61 -147 61q-86 0 -146 -61q-59 -61 -59 -148q0 -84 59 -146q60 -61 146 -61q89 0 147 61q60 61 60 146z" />
<glyph unicode="&#x5b0;" horiz-adv-x="2" d="M88 -243q0 -18 -7 -33.5t-18.5 -27t-27 -18.5t-33.5 -7t-34 7t-28 18.5t-19 27t-7 33.5t7.5 33t19.5 26.5t28 18t33 6.5q37 0 61.5 -24.5t24.5 -59.5zM88 -512q0 -17 -7 -32.5t-18.5 -27.5t-27 -19t-33.5 -7t-34 7t-28 19t-19 27.5t-7 32.5q0 18 7.5 33t19.5 26.5t28 18 t33 6.5q37 0 61.5 -24.5t24.5 -59.5z" />
<glyph unicode="&#x5b1;" horiz-adv-x="2" d="M-137 -243q0 -18 -7 -33.5t-18.5 -27t-27 -18.5t-33.5 -7q-17 0 -32.5 6.5t-27.5 18t-19 27.5t-7 34q0 16 7 31.5t18.5 27t27 18.5t33.5 7q37 0 61.5 -24.5t24.5 -59.5zM98 -243q0 -18 -7 -33.5t-18.5 -27t-27 -18.5t-33.5 -7q-17 0 -32.5 7t-27.5 18.5t-19.5 27 t-7.5 33.5q0 34 28 59q26 25 59 25q37 0 61.5 -23.5t24.5 -60.5zM-10 -450q0 -18 -7 -33.5t-18.5 -27t-27 -18.5t-33.5 -7q-17 0 -32.5 6.5t-27.5 18t-19 27.5t-7 34q0 35 25.5 59.5t60.5 24.5t60.5 -24.5t25.5 -59.5zM311 -243q0 -15 -6 -27.5t-16.5 -22t-23.5 -15 t-27 -5.5q-70 0 -70 70q0 74 70 74q73 0 73 -74zM311 -458q0 -29 -21.5 -50.5t-51.5 -21.5q-70 0 -70 72q0 30 20.5 50.5t49.5 20.5q73 0 73 -71z" />
<glyph unicode="&#x5b2;" horiz-adv-x="2" d="M287 -243q0 -29 -22.5 -49.5t-51.5 -20.5q-70 0 -70 70q0 74 70 74q74 0 74 -74zM287 -458q0 -29 -21.5 -50.5t-52.5 -21.5q-70 0 -70 72q0 71 70 71q74 0 74 -71zM-258 -305q-26 0 -26 31v66q0 30 26 30h301q27 0 27 -30v-66q0 -31 -27 -31h-301z" />
<glyph unicode="&#x5b3;" horiz-adv-x="2" d="M287 -243q0 -29 -22.5 -49.5t-51.5 -20.5q-70 0 -70 70q0 74 70 74q33 0 53.5 -20.5t20.5 -53.5zM287 -458q0 -29 -21.5 -50.5t-52.5 -21.5q-70 0 -70 72q0 71 70 71q74 0 74 -71zM43 -178q27 0 27 -30v-66q0 -31 -27 -31h-118q0 -42 20 -88l23 -51q8 -18 8 -35 t-6.5 -31.5t-18 -26t-26.5 -18t-33 -6.5t-33 6.5t-26.5 18t-18 26t-6.5 31.5t8 35l23 51q22 48 22 88h-119q-26 0 -26 31v66q0 30 26 30h301z" />
<glyph unicode="&#x5b4;" horiz-adv-x="2" d="M92 -243q0 -35 -28 -62q-27 -28 -62 -28q-36 0 -64 28q-28 27 -28 62q0 18 7.5 34t20.5 28t29.5 19t34.5 7q39 0 64.5 -25.5t25.5 -62.5z" />
<glyph unicode="&#x5b5;" horiz-adv-x="2" d="M-45 -243q0 -18 -7 -33.5t-18.5 -27t-27 -18.5t-33.5 -7q-17 0 -32.5 7t-27.5 18.5t-19 27t-7 33.5t7 33t19 26.5t27.5 18t32.5 6.5q86 0 86 -84zM219 -243q0 -18 -7 -33.5t-18.5 -27t-27 -18.5t-33.5 -7t-33.5 7t-27 18.5t-18.5 27t-7 33.5q0 35 25.5 59.5t60.5 24.5 q37 0 61.5 -24.5t24.5 -59.5z" />
<glyph unicode="&#x5b6;" horiz-adv-x="2" d="M-45 -243q0 -18 -7 -33.5t-18.5 -27t-27 -18.5t-33.5 -7q-17 0 -32.5 7t-27.5 18.5t-19 27t-7 33.5t7 33t19 26.5t27.5 18t32.5 6.5q86 0 86 -84zM219 -243q0 -18 -7 -33.5t-18.5 -27t-27 -18.5t-33.5 -7t-33.5 7t-27 18.5t-18.5 27t-7 33.5q0 35 25.5 59.5t60.5 24.5 q37 0 61.5 -24.5t24.5 -59.5zM94 -468q0 -18 -7 -33.5t-18.5 -27.5t-27 -19t-33.5 -7q-17 0 -32.5 7t-27 19t-18.5 27.5t-7 33.5q0 34 25.5 58.5t59.5 24.5q37 0 61.5 -24.5t24.5 -58.5z" />
<glyph unicode="&#x5b7;" horiz-adv-x="2" d="M-190 -305q-27 0 -27 31v66q0 30 27 30h383q26 0 26 -30v-66q0 -31 -26 -31h-383z" />
<glyph unicode="&#x5b8;" horiz-adv-x="2" d="M193 -178q26 0 26 -30v-66q0 -31 -26 -31h-158q0 -48 18 -88l23 -51q8 -18 8 -35q0 -35 -24.5 -58.5t-57.5 -23.5q-17 0 -32 6.5t-26.5 18t-18 26t-6.5 31.5t8 35l22 51q21 45 21 88h-160q-27 0 -27 31v66q0 30 27 30h383z" />
<glyph unicode="&#x5b9;" horiz-adv-x="2" d="M86 1270q0 -18 -7 -33.5t-18.5 -27t-27 -18.5t-33.5 -7q-17 0 -32.5 7t-27.5 18.5t-19 27t-7 33.5q0 16 7 31.5t19 27t27.5 18.5t32.5 7q39 0 62.5 -23.5t23.5 -60.5z" />
<glyph unicode="&#x5bb;" horiz-adv-x="2" d="M92 -243q0 -18 -7 -33.5t-18.5 -27t-27 -18.5t-33.5 -7t-33.5 7t-27 18.5t-18.5 27t-7 33.5q0 35 25.5 59.5t60.5 24.5q86 0 86 -84zM235 -417q0 -18 -7 -33.5t-18.5 -27t-27 -18.5t-33.5 -7q-17 0 -32.5 7t-27 18.5t-18.5 27t-7 33.5t7 33t18.5 26.5t27 18t32.5 6.5 q37 0 61.5 -23.5t24.5 -60.5zM376 -589q0 -18 -7 -33.5t-18.5 -27t-27 -18.5t-33.5 -7q-17 0 -32.5 7t-27.5 18.5t-19 27t-7 33.5q0 32 26 58t60 26q86 0 86 -84z" />
<glyph unicode="&#x5bc;" horiz-adv-x="2" d="M86 457q0 -18 -7 -33.5t-18.5 -27t-27 -18.5t-33.5 -7q-17 0 -32.5 7t-27.5 18.5t-19 27t-7 33.5q0 32 27 58q28 26 59 26q37 0 61.5 -23.5t24.5 -60.5z" />
<glyph unicode="&#x5bd;" horiz-adv-x="2" d="M67 -587q0 -27 -31 -27h-65q-31 0 -31 27v383q0 26 31 26h65q31 0 31 -26v-383z" />
<glyph unicode="&#x5be;" horiz-adv-x="479" d="M63 947q-14 26 -14 64q0 36 14 59h340q15 -24 15 -60q0 -38 -15 -63h-340z" />
<glyph unicode="&#x5bf;" horiz-adv-x="479" d="M63 947q-14 26 -14 64q0 36 14 59h340q15 -24 15 -60q0 -38 -15 -63h-340z" />
<glyph unicode="&#x5c0;" horiz-adv-x="389" d="M256 -389q-6 -11 -22 -16.5t-34.5 -5.5t-37 5.5t-29.5 16.5v1888q13 12 30 18.5t33.5 7.5t32 -5t27.5 -21v-1888z" />
<glyph unicode="&#x5c1;" horiz-adv-x="2" d="M1256 1270q0 -18 -7 -33.5t-18.5 -27t-27 -18.5t-33.5 -7q-17 0 -32.5 7t-27.5 18.5t-19 27t-7 33.5q0 16 7 31.5t19 27t27.5 18.5t32.5 7q39 0 62.5 -23.5t23.5 -60.5z" />
<glyph unicode="&#x5c2;" horiz-adv-x="2" d="M296 1270q0 -18 -7 -33.5t-18.5 -27t-27 -18.5t-33.5 -7q-17 0 -32.5 7t-27.5 18.5t-19 27t-7 33.5q0 16 7 31.5t19 27t27.5 18.5t32.5 7q39 0 62.5 -23.5t23.5 -60.5z" />
<glyph unicode="&#x5c3;" horiz-adv-x="354" d="M241 727q0 -21 -8 -40t-22 -32.5t-33 -21.5t-40 -8t-40 8t-33.5 21.5t-22.5 32.5t-8 40t8 40t22.5 33.5t33.5 22.5t40 8t40 -8t33 -22.5t22 -33.5t8 -40zM241 84q0 -21 -8 -40t-22 -33.5t-33 -22.5t-40 -8t-40 8t-33.5 22.5t-22.5 33.5t-8 40t8 40t22.5 32.5t33.5 21.5 t40 8t40 -8t33 -21.5t22 -32.5t8 -40z" />
<glyph unicode="&#x5c4;" horiz-adv-x="2" d="M86 1270q0 -18 -7 -33.5t-18.5 -27t-27 -18.5t-33.5 -7q-17 0 -32.5 7t-27.5 18.5t-19 27t-7 33.5q0 16 7 31.5t19 27t27.5 18.5t32.5 7q39 0 62.5 -23.5t23.5 -60.5z" />
<glyph unicode="&#x5d0;" horiz-adv-x="1126" d="M1038 52l14 -17q13 -17 -4 -25q-11 -4 -28 -8t-36 -4q-29 0 -59.5 6t-46.5 16l-475 619q-66 -53 -95 -107q-28 -51 -43 -129q-14 -73 -13 -169t1 -214q-12 -10 -34.5 -15t-46.5 -5t-45 5t-30 15q0 67 2 132t6 128q9 125 62 236q29 59 74 103.5t102 91.5l-233 296l-29 37 q10 11 31.5 17t48 7t54.5 -5t50 -19l424 -538q31 30 53.5 54t38 48.5t25.5 51t18 61.5q17 63 16 143t-1 180q34 23 79 23q46 0 78 -23q0 -72 -1 -141t-13 -127q-12 -56 -31 -101t-48 -85.5t-69 -77.5t-94 -76z" />
<glyph unicode="&#x5d1;" horiz-adv-x="1060" d="M81 0q-8 12 -11.5 28t-3.5 31.5t4 30t11 25.5h676q-20 35 -21 81t-1 91v329q0 75 -17.5 138.5t-56.5 110.5t-101 73.5t-151 26.5q-83 0 -168 -20q-83 -20 -129 -48q-15 15 -20 54q-4 37 20 71q66 33 159 45t183 12q217 0 326.5 -120.5t109.5 -342.5v-399q0 -54 7.5 -78 t35.5 -24h74q16 -22 16 -59t-16 -56h-926z" />
<glyph unicode="&#x5d2;" horiz-adv-x="845" d="M712 20q-29 -20 -76 -20t-79 20v416h-33q-74 0 -126 -22.5t-85 -62t-48.5 -93t-15.5 -115.5v-123q-14 -10 -34.5 -15t-42 -5t-41 4.5t-29.5 15.5v103q0 187 107 294q109 107 294 107h54v183q0 123 -57 190.5t-171 67.5q-52 0 -98 -23q-45 -23 -70 -43q-22 25 -21 60.5 t19 62.5q42 29 100.5 44t112.5 15q82 0 145.5 -28.5t106.5 -78.5t65.5 -120t22.5 -152v-682z" />
<glyph unicode="&#x5d3;" horiz-adv-x="1083" d="M837 948q-21 0 -34 -24q-13 -22 -13 -109v-795q-14 -10 -35.5 -15t-43.5 -5t-42 5t-32 15v762q0 48 15 93t40 73h-613q-16 22 -18 58q-1 36 18 61h875q16 -22 16 -60q0 -37 -16 -59h-117z" />
<glyph unicode="&#x5d4;" horiz-adv-x="1116" d="M993 20q-11 -10 -32.5 -15t-45 -5t-45 5t-33.5 15v611q0 187 -93 267q-92 79 -261 79q-113 0 -203 -28q-92 -27 -145 -62q-20 23 -21 59q-2 37 21 66q54 30 149 52.5t242 22.5q231 0 349 -108.5t118 -343.5v-615zM284 20q-12 -11 -33 -15.5t-44 -4.5t-44 5.5t-33 14.5 v619q14 13 34 20.5t41.5 8t42.5 -6.5t36 -22v-619z" />
<glyph unicode="&#x5d5;" horiz-adv-x="409" d="M276 20q-11 -10 -32 -15t-44 -5t-44.5 5t-33.5 15v1024q28 22 76 23q51 2 78 -23v-1024z" />
<glyph unicode="&#x5d6;" horiz-adv-x="710" d="M454 948q-29 0 -40 -40.5t-11 -112.5v-775q-14 -11 -34.5 -16t-42.5 -5t-43 5t-36 16v701q0 55 15 120q17 68 49 107h-215q-21 20 -22 58q-2 37 22 61h495q23 -27 21 -61.5t-21 -57.5h-137z" />
<glyph unicode="&#x5d7;" horiz-adv-x="1107" d="M984 20q-10 -10 -30.5 -15t-44 -5t-45 5t-33.5 15v676q0 116 -52 183q-51 69 -178 69h-305q-20 0 -20 -22v-906q-11 -10 -32.5 -15t-45 -5t-45 5t-31.5 15v984q0 38 15.5 50.5t35.5 12.5h461q180 0 265 -95t85 -276v-676z" />
<glyph unicode="&#x5d8;" horiz-adv-x="1189" d="M1056 498q0 -122 -32 -220t-93 -167t-150.5 -106.5t-203.5 -37.5q-455 0 -455 486v591q12 11 32.5 17t43.5 6.5t44.5 -5.5t33.5 -18v-595q0 -103 17 -173.5t53.5 -114t93.5 -62.5t137 -19q86 0 147.5 27.5t101 80t58 130t18.5 178.5v352q0 51 -18.5 74.5t-44.5 23.5 q-15 0 -28.5 -5t-26 -16.5t-26.5 -31t-30 -49.5l-141 -258q-32 -17 -71 -8q-40 10 -50 38l160 283q52 90 106 129q53 37 131 37q34 0 68 -11.5t62 -41t45.5 -80.5t17.5 -129v-305z" />
<glyph unicode="&#x5d9;" horiz-adv-x="409" d="M276 461q-12 -14 -34 -20.5t-45.5 -5.5t-44 7.5t-30.5 18.5v583q32 23 79 23t75 -23v-583z" />
<glyph unicode="&#x5da;" horiz-adv-x="962" d="M839 -338q-21 -15 -42 -20.5t-41.5 -4.5t-39 8t-33.5 17v946q0 74 -24.5 139t-69.5 113.5t-109 76.5t-143 28q-87 0 -157.5 -20.5t-118.5 -49.5q-9 7 -15.5 22t-8 32.5t3.5 36t20 34.5q60 33 142 46t179 13t180.5 -32.5t145 -93t96.5 -148t35 -197.5v-946z" />
<glyph unicode="&#x5db;" horiz-adv-x="1003" d="M922 526q0 -87 -22.5 -162t-60.5 -136t-89.5 -108.5t-110 -79.5t-121.5 -48.5t-125 -16.5q-97 0 -164 16.5t-116 41.5q-25 32 -22 70q3 39 22 55q24 -15 48 -28t51 -22.5t59 -15.5t71 -6q78 0 152.5 30t132.5 86t93.5 137.5t35.5 184.5t-35.5 185t-93.5 139.5t-132.5 88 t-152.5 30.5t-133 -22.5t-96 -49.5q-12 10 -18 25t-6 32t6 35t18 33q27 15 56.5 26t63 18.5t73 11t87.5 3.5q63 0 126.5 -16.5t122 -48.5t110 -79.5t89 -109t59.5 -136.5t22 -163z" />
<glyph unicode="&#x5dc;" horiz-adv-x="970" d="M837 530q0 -100 -28 -195t-88.5 -169.5t-157 -120t-234.5 -45.5h-39q-20 17 -20 52t20 52h37q98 0 165.5 32.5t109 88.5t59.5 130.5t18 158.5v387q0 17 -5 32t-19 15h-531q-63 0 -63 84v389q29 29 76 29q46 0 78 -29v-323q0 -31 26 -31h494q102 0 102 -119v-418z" />
<glyph unicode="&#x5dd;" horiz-adv-x="1148" d="M1025 119q0 -64 -19.5 -91.5t-62.5 -27.5h-739q-43 0 -62.5 27.5t-19.5 91.5v891q0 57 51 57h502q180 0 265 -91t85 -271v-586zM872 705q0 57 -13 102t-41 76.5t-72.5 48t-107.5 16.5h-346q-16 0 -16 -20v-774q0 -39 24 -39h549q23 0 23 39v551z" />
<glyph unicode="&#x5de;" horiz-adv-x="1183" d="M1060 356q0 -105 -32 -177.5t-85 -117t-121.5 -64.5t-142.5 -20q-16 0 -38.5 2t-46 6t-44.5 8.5t-33 10.5q-9 12 -12.5 27t-2.5 30.5t6 30.5t13 27q29 -15 65 -24t71 -9q37 0 80.5 14t80.5 45.5t61.5 81t24.5 121.5v410q0 53 -12 91t-34 62t-53 35.5t-69 11.5 q-65 0 -101 -30q-18 -14 -34.5 -38.5t-32.5 -58.5l-362 -811q-14 -12 -38.5 -17.5t-50 -5t-46 6t-25.5 16.5l266 586q-24 4 -48.5 23.5t-37.5 42.5l-190 372q6 9 25 15.5t44 8t52 -4t49 -19.5l172 -350l68 160q56 128 125 175q70 48 188 48q61 0 115.5 -18.5t95.5 -57 t65.5 -98.5t24.5 -143v-404z" />
<glyph unicode="&#x5df;" horiz-adv-x="409" d="M276 -338q-11 -10 -32 -15t-44 -5t-44.5 5t-33.5 15v1382q28 22 76 23q51 2 78 -23v-1382z" />
<glyph unicode="&#x5e0;" horiz-adv-x="722" d="M589 119q0 -64 -18 -91.5t-61 -27.5h-428q-11 8 -17 23.5t-6 33t6 33.5t17 25h331q23 0 23 39v559q0 71 -19 121.5t-49 82t-67.5 46t-75.5 14.5q-31 0 -59.5 -9.5t-45.5 -23.5q-22 13 -22 48q0 34 22 59q9 5 23 9.5t30.5 8.5t34 6t33.5 2q74 0 137.5 -20.5t110.5 -66.5 t73.5 -119.5t26.5 -178.5v-573z" />
<glyph unicode="&#x5e1;" horiz-adv-x="1228" d="M1126 528q0 -126 -38 -230t-106.5 -178.5t-163.5 -115.5t-208 -41q-114 0 -209 41t-163.5 115.5t-107 178.5t-38.5 230t38.5 229.5t107 178t163.5 115.5t209 41q113 0 208 -41t163.5 -115.5t106.5 -178t38 -229.5zM964 524q0 98 -24 181.5t-69 144t-111 95t-150 34.5 q-85 0 -151 -33t-111.5 -92.5t-69.5 -142t-24 -181.5q0 -98 24 -181.5t69.5 -144t111.5 -94.5t151 -34q84 0 150 33t111 92.5t69 142t24 180.5z" />
<glyph unicode="&#x5e2;" horiz-adv-x="1101" d="M968 606q0 -142 -42 -254.5t-130 -199.5q-68 -65 -174 -109q-102 -43 -225 -43h-313q-23 20 -23 55q0 34 23 60h313q39 0 62.5 3t40 7t29.5 9t30 9q-9 0 -26 9t-35 23.5t-33 32t-21 34.5l-350 802q10 11 30.5 17t45 6.5t49.5 -5.5t43 -18l364 -866q63 37 100 79.5 t56 91.5t24 103t5 113v479q12 11 33.5 17t44.5 6.5t44.5 -5.5t34.5 -18v-438z" />
<glyph unicode="&#x5e3;" horiz-adv-x="1099" d="M977 -338q-35 -18 -77 -20t-77 20v1008q0 64 -21.5 120.5t-60.5 98.5t-93 66t-120 24q-60 0 -112 -21.5t-89.5 -58.5t-59 -86t-21.5 -104q0 -66 21.5 -113t57 -77t79.5 -44t89 -14q37 0 75 10t65 21q10 -9 15.5 -22t5.5 -28t-5 -30.5t-16 -28.5q-13 -5 -31.5 -10.5 t-43.5 -11.5q-52 -11 -87 -11q-74 0 -142.5 23.5t-121 67.5t-84 107t-31.5 142q0 76 27.5 148.5t84 128t141.5 89.5t200 34q107 0 188 -33.5t135 -93t81.5 -140t27.5 -174.5v-987z" />
<glyph unicode="&#x5e4;" horiz-adv-x="1189" d="M1098 541q0 -122 -40.5 -226t-113 -180t-172.5 -119t-219 -43q-68 0 -127.5 8.5t-110 23t-91 33.5t-69.5 40q-17 25 -19 66q-2 40 24 63q60 -55 149 -90t191 -35t183 34.5t137 96t86 145.5t30 183q0 93 -24.5 173.5t-71.5 139t-114.5 92t-154.5 33.5q-77 0 -137.5 -21.5 t-102 -58.5t-63.5 -86t-22 -104q0 -58 23.5 -100t60 -69.5t82 -41t90.5 -13.5q34 0 82 14q23 8 42.5 15.5t34.5 15.5q10 -9 16 -22t7 -27.5t-4 -29.5t-17 -27q-30 -22 -83 -35q-56 -14 -101 -14q-74 0 -143.5 20.5t-123.5 61.5t-87 101t-33 140q0 78 28.5 149t88 125 t149.5 86t213 32q119 0 216.5 -40t166.5 -112t106.5 -173t37.5 -224z" />
<glyph unicode="&#x5e5;" horiz-adv-x="1044" d="M907 -338q-29 -25 -77 -26q-48 -3 -89 26l-680 1382q10 12 32 17.5t47 5.5t48.5 -5.5t36.5 -17.5l282 -563q69 40 119.5 86.5t84 111t49.5 153t16 212.5q13 12 35 18.5t46 6.5t46 -6t37 -19q0 -260 -103 -417q-102 -156 -287 -240z" />
<glyph unicode="&#x5e6;" horiz-adv-x="1069" d="M964 1044q0 -120 -21 -212t-59.5 -162.5t-93 -122t-121.5 -90.5l256 -346q29 -38 13 -74q-15 -37 -56 -37h-784q-25 16 -25 55t25 60h641l-643 895l-25 34q11 12 36.5 18.5t54.5 6.5t56 -6t41 -19l357 -512q53 46 89 88t57.5 97t30.5 132.5t9 194.5q12 13 34.5 19.5t47 6 t47 -7t33.5 -18.5z" />
<glyph unicode="&#x5e7;" horiz-adv-x="1157" d="M1068 610q0 -126 -48 -235t-132 -192.5t-197.5 -136t-244.5 -66.5q-21 16 -21 51t21 55q97 12 182 52.5t148 105.5t99 153t36 195q0 162 -85 259t-239 97h-448q-14 6 -20.5 22.5t-6.5 35t6.5 36t20.5 25.5h497q92 0 171 -28t137 -84.5t91 -142.5t33 -202zM300 -338 q-14 -17 -35 -24.5t-43 -7t-42.5 8.5t-32.5 23v1071q29 32 76 33q49 1 77 -33v-1071z" />
<glyph unicode="&#x5e8;" horiz-adv-x="974" d="M852 20q-10 -10 -31.5 -15.5t-45.5 -6.5t-45.5 4.5t-31.5 17.5v588q0 74 -24.5 139t-69.5 113.5t-109 76.5t-143 28q-87 0 -154.5 -20.5t-121.5 -49.5q-26 20 -24 61q2 42 24 64q57 27 140.5 43t180.5 16t180.5 -32.5t144.5 -93t95.5 -148t34.5 -197.5v-588z" />
<glyph unicode="&#x5e9;" horiz-adv-x="1386" d="M755 201q-12 -13 -32.5 -20t-41.5 -7q-18 0 -38.5 5t-35.5 22v841q9 13 29.5 19t44 6t44.5 -6.5t30 -18.5v-841zM1252 547q0 -130 -39.5 -237t-113.5 -183t-180.5 -118t-239.5 -42q-287 0 -422 137.5t-135 401.5v536q7 13 30 19t48.5 6t48 -6t29.5 -19v-540 q0 -207 90 -315q90 -107 311 -107q105 0 183.5 31t130.5 90t78 144.5t26 195.5v503q6 13 28.5 19t49 6t49 -6t28.5 -19v-497z" />
<glyph unicode="&#x5ea;" horiz-adv-x="1230" d="M1107 20q-10 -10 -31 -15t-45 -5t-45.5 5t-31.5 15v676q0 57 -11.5 103.5t-38 79.5t-69.5 51t-106 18h-258q-15 0 -23 -13t-11 -32.5t-3 -41v-38.5v-532q0 -160 -76 -230q-77 -69 -209 -69q-25 0 -56.5 6t-47.5 18q-23 29 -14 65t26 50q16 -12 37.5 -21.5t42.5 -9.5 q71 0 107 44t36 145v467q0 16 1 40.5t6 51t16 53t32 47.5h-182q-11 9 -17 24t-6 32t5.5 34t17.5 29h610q166 0 255 -85t89 -265v-697z" />
<glyph unicode="&#x5f0;" horiz-adv-x="700" d="M609 712q0 -110 -77 -187q-76 -76 -187 -76q-108 0 -185 77t-77 186q0 110 77 187t185 77q110 0 187 -77t77 -187zM536 712q0 81 -56 137q-55 55 -135 55t-135 -55t-55 -137q0 -79 55 -135q56 -56 135 -56t135 56q56 58 56 135z" />
<glyph unicode="&#x5f1;" horiz-adv-x="700" d="M609 712q0 -110 -77 -187q-76 -76 -187 -76q-108 0 -185 77t-77 186q0 110 77 187t185 77q110 0 187 -77t77 -187zM536 712q0 81 -56 137q-55 55 -135 55t-135 -55t-55 -137q0 -79 55 -135q56 -56 135 -56t135 56q56 58 56 135z" />
<glyph unicode="&#x5f2;" horiz-adv-x="700" d="M609 712q0 -110 -77 -187q-76 -76 -187 -76q-108 0 -185 77t-77 186q0 110 77 187t185 77q110 0 187 -77t77 -187zM536 712q0 81 -56 137q-55 55 -135 55t-135 -55t-55 -137q0 -79 55 -135q56 -56 135 -56t135 56q56 58 56 135z" />
<glyph unicode="&#x5f3;" horiz-adv-x="364" d="M313 1145q-17 -50 -44.5 -97t-58 -87t-60.5 -71.5t-52 -49.5q-9 6 -15 20t-9 31.5t-4 34t1 26.5q18 23 38.5 61t39 82.5t33 92t20.5 90.5q39 -4 73 -46q33 -41 38 -87z" />
<glyph unicode="&#x5f4;" horiz-adv-x="622" d="M561 1145q-17 -49 -44.5 -96.5t-58.5 -88t-61 -71.5t-52 -49q-8 6 -13.5 20.5t-9 31.5t-4.5 33.5t1 26.5q18 23 38.5 61t39 82.5t33 92t20.5 90.5q42 -5 73 -46q34 -43 38 -87zM313 1145q-17 -50 -44.5 -97t-58 -87t-60.5 -71.5t-52 -49.5q-9 6 -15 20t-9 31.5t-4 34 t1 26.5q18 23 38.5 61t39 82.5t33 92t20.5 90.5q39 -4 73 -46q33 -41 38 -87z" />
<glyph unicode="&#x2000;" horiz-adv-x="762" />
<glyph unicode="&#x2001;" horiz-adv-x="1525" />
<glyph unicode="&#x2002;" horiz-adv-x="762" />
<glyph unicode="&#x2003;" horiz-adv-x="1525" />
<glyph unicode="&#x2004;" horiz-adv-x="508" />
<glyph unicode="&#x2005;" horiz-adv-x="381" />
<glyph unicode="&#x2006;" horiz-adv-x="254" />
<glyph unicode="&#x2007;" horiz-adv-x="254" />
<glyph unicode="&#x2008;" horiz-adv-x="190" />
<glyph unicode="&#x2009;" horiz-adv-x="305" />
<glyph unicode="&#x200a;" horiz-adv-x="84" />
<glyph unicode="&#x200c;" d="M657 770q0 -119 -83 -202t-203 -83q-118 0 -200 84q-83 85 -83 201q0 118 83 203q82 84 200 84q120 0 203 -84q83 -85 83 -203zM578 770q0 88 -60 148q-58 61 -147 61q-86 0 -146 -61q-59 -61 -59 -148q0 -84 59 -146q60 -61 146 -61q89 0 147 61q60 61 60 146z" />
<glyph unicode="&#x200d;" d="M657 770q0 -119 -83 -202t-203 -83q-118 0 -200 84q-83 85 -83 201q0 118 83 203q82 84 200 84q120 0 203 -84q83 -85 83 -203zM578 770q0 88 -60 148q-58 61 -147 61q-86 0 -146 -61q-59 -61 -59 -148q0 -84 59 -146q60 -61 146 -61q89 0 147 61q60 61 60 146z" />
<glyph unicode="&#x200e;" d="M657 770q0 -119 -83 -202t-203 -83q-118 0 -200 84q-83 85 -83 201q0 118 83 203q82 84 200 84q120 0 203 -84q83 -85 83 -203zM578 770q0 88 -60 148q-58 61 -147 61q-86 0 -146 -61q-59 -61 -59 -148q0 -84 59 -146q60 -61 146 -61q89 0 147 61q60 61 60 146z" />
<glyph unicode="&#x200f;" d="M657 770q0 -119 -83 -202t-203 -83q-118 0 -200 84q-83 85 -83 201q0 118 83 203q82 84 200 84q120 0 203 -84q83 -85 83 -203zM578 770q0 88 -60 148q-58 61 -147 61q-86 0 -146 -61q-59 -61 -59 -148q0 -84 59 -146q60 -61 146 -61q89 0 147 61q60 61 60 146z" />
<glyph unicode="&#x2010;" horiz-adv-x="587" d="M67 467q-8 11 -12.5 26.5t-5.5 32.5t3.5 33.5t14.5 30.5h453q12 -14 17 -30.5t4 -33.5t-6.5 -32.5t-14.5 -26.5h-453z" />
<glyph unicode="&#x2011;" horiz-adv-x="587" d="M67 467q-8 11 -12.5 26.5t-5.5 32.5t3.5 33.5t14.5 30.5h453q12 -14 17 -30.5t4 -33.5t-6.5 -32.5t-14.5 -26.5h-453z" />
<glyph unicode="&#x2012;" horiz-adv-x="587" d="M67 467q-8 11 -12.5 26.5t-5.5 32.5t3.5 33.5t14.5 30.5h453q12 -14 17 -30.5t4 -33.5t-6.5 -32.5t-14.5 -26.5h-453z" />
<glyph unicode="&#x2013;" horiz-adv-x="587" d="M67 467q-8 11 -12.5 26.5t-5.5 32.5t3.5 33.5t14.5 30.5h453q12 -14 17 -30.5t4 -33.5t-6.5 -32.5t-14.5 -26.5h-453z" />
<glyph unicode="&#x2014;" horiz-adv-x="825" d="M76 467q-27 25 -27 64q0 36 27 59h652q29 -24 29 -60q0 -37 -29 -63h-652z" />
<glyph unicode="&#x2018;" horiz-adv-x="364" d="M70 973q17 49 44.5 96.5t58 87.5t60.5 71.5t52 49.5q9 -6 15 -20t9 -31.5t4 -34t-1 -26.5q-18 -23 -38.5 -61t-39 -82.5t-33 -92t-20.5 -90.5q-39 4 -73 46q-33 41 -38 87z" />
<glyph unicode="&#x2019;" horiz-adv-x="364" d="M313 1145q-17 -50 -44.5 -97t-58 -87t-60.5 -71.5t-52 -49.5q-9 6 -15 20t-9 31.5t-4 34t1 26.5q18 23 38.5 61t39 82.5t33 92t20.5 90.5q39 -4 73 -46q33 -41 38 -87z" />
<glyph unicode="&#x201c;" horiz-adv-x="622" d="M70 973q17 49 44.5 96t58.5 87.5t61 72t52 49.5q8 -6 13.5 -20.5t9 -31.5t4.5 -33.5t-1 -26.5q-18 -23 -38.5 -61t-39 -82.5t-33 -92t-20.5 -90.5q-41 5 -74 46q-33 44 -37 87zM318 973q17 49 44.5 96.5t58 87.5t60.5 71.5t52 49.5q9 -6 15 -20t9 -31.5t4 -34t-1 -26.5 q-18 -23 -38.5 -61t-39 -82.5t-33 -92t-20.5 -90.5q-39 4 -73 46q-33 41 -38 87z" />
<glyph unicode="&#x201d;" horiz-adv-x="622" d="M561 1145q-17 -49 -44.5 -96.5t-58.5 -88t-61 -71.5t-52 -49q-8 6 -13.5 20.5t-9 31.5t-4.5 33.5t1 26.5q18 23 38.5 61t39 82.5t33 92t20.5 90.5q42 -5 73 -46q34 -43 38 -87zM313 1145q-17 -50 -44.5 -97t-58 -87t-60.5 -71.5t-52 -49.5q-9 6 -15 20t-9 31.5t-4 34 t1 26.5q18 23 38.5 61t39 82.5t33 92t20.5 90.5q39 -4 73 -46q33 -41 38 -87z" />
<glyph unicode="&#x2022;" horiz-adv-x="717" d="M109 718q0 106 73.5 179.5t179.5 73.5q107 0 180.5 -73t73.5 -180t-73.5 -180.5t-180.5 -73.5q-106 0 -179.5 74t-73.5 180z" />
<glyph unicode="&#x202f;" horiz-adv-x="305" />
<glyph unicode="&#x2039;" horiz-adv-x="681" d="M562 -8h-57l-387 473l387 469h57l-244 -469z" />
<glyph unicode="&#x203a;" horiz-adv-x="681" d="M566 463l-395 -471h-57l243 471l-243 471h57z" />
<glyph unicode="&#x205f;" horiz-adv-x="381" />
<glyph unicode="&#x20aa;" horiz-adv-x="1150" d="M1048 317q0 -317 -287 -317h-280q-43 0 -66 29q-20 24 -24 67l-33 479q33 23 67.5 21t59.5 -21l33 -473h243q39 0 68.5 13.5t49.5 37t30 56.5t10 72v550q27 20 67 21t62 -21v-514zM774 270q-31 -22 -67 -19t-62 19v324q0 66 -35.5 107.5t-104.5 41.5h-276v-725 q-33 -20 -67.5 -18t-59.5 18v730q0 53 31 77q22 21 75 21h297q63 0 113 -16t84.5 -49t53 -84t18.5 -122v-305z" />
<glyph unicode="&#x22c5;" horiz-adv-x="662" d="M565 627q0 -98 -68 -166q-68 -66 -161 -66q-99 0 -166 66q-68 68 -68 166t67 164q67 67 167 67q96 0 162 -67q67 -66 67 -164z" />
<glyph unicode="&#x25a0;" d="M657 770q0 -119 -83 -202t-203 -83q-118 0 -200 84q-83 85 -83 201q0 118 83 203q82 84 200 84q120 0 203 -84q83 -85 83 -203zM578 770q0 88 -60 148q-58 61 -147 61q-86 0 -146 -61q-59 -61 -59 -148q0 -84 59 -146q60 -61 146 -61q89 0 147 61q60 61 60 146z" />
<glyph unicode="&#x25a1;" d="M657 770q0 -119 -83 -202t-203 -83q-118 0 -200 84q-83 85 -83 201q0 118 83 203q82 84 200 84q120 0 203 -84q83 -85 83 -203zM578 770q0 88 -60 148q-58 61 -147 61q-86 0 -146 -61q-59 -61 -59 -148q0 -84 59 -146q60 -61 146 -61q89 0 147 61q60 61 60 146z" />
<glyph unicode="&#x25c6;" d="M657 770q0 -119 -83 -202t-203 -83q-118 0 -200 84q-83 85 -83 201q0 118 83 203q82 84 200 84q120 0 203 -84q83 -85 83 -203zM578 770q0 88 -60 148q-58 61 -147 61q-86 0 -146 -61q-59 -61 -59 -148q0 -84 59 -146q60 -61 146 -61q89 0 147 61q60 61 60 146z" />
<glyph unicode="&#x25c7;" d="M657 770q0 -119 -83 -202t-203 -83q-118 0 -200 84q-83 85 -83 201q0 118 83 203q82 84 200 84q120 0 203 -84q83 -85 83 -203zM578 770q0 88 -60 148q-58 61 -147 61q-86 0 -146 -61q-59 -61 -59 -148q0 -84 59 -146q60 -61 146 -61q89 0 147 61q60 61 60 146z" />
<glyph unicode="&#x25cb;" d="M657 770q0 -119 -83 -202t-203 -83q-118 0 -200 84q-83 85 -83 201q0 118 83 203q82 84 200 84q120 0 203 -84q83 -85 83 -203zM578 770q0 88 -60 148q-58 61 -147 61q-86 0 -146 -61q-59 -61 -59 -148q0 -84 59 -146q60 -61 146 -61q89 0 147 61q60 61 60 146z" />
<glyph unicode="&#x25cc;" d="M657 770q0 -119 -83 -202t-203 -83q-118 0 -200 84q-83 85 -83 201q0 118 83 203q82 84 200 84q120 0 203 -84q83 -85 83 -203zM578 770q0 88 -60 148q-58 61 -147 61q-86 0 -146 -61q-59 -61 -59 -148q0 -84 59 -146q60 -61 146 -61q89 0 147 61q60 61 60 146z" />
<glyph unicode="&#x25fc;" horiz-adv-x="985" d="M0 985h985v-985h-985v985z" />
<glyph unicode="&#x2605;" d="M657 770q0 -119 -83 -202t-203 -83q-118 0 -200 84q-83 85 -83 201q0 118 83 203q82 84 200 84q120 0 203 -84q83 -85 83 -203zM578 770q0 88 -60 148q-58 61 -147 61q-86 0 -146 -61q-59 -61 -59 -148q0 -84 59 -146q60 -61 146 -61q89 0 147 61q60 61 60 146z" />
<glyph unicode="&#x274f;" d="M657 770q0 -119 -83 -202t-203 -83q-118 0 -200 84q-83 85 -83 201q0 118 83 203q82 84 200 84q120 0 203 -84q83 -85 83 -203zM578 770q0 88 -60 148q-58 61 -147 61q-86 0 -146 -61q-59 -61 -59 -148q0 -84 59 -146q60 -61 146 -61q89 0 147 61q60 61 60 146z" />
<glyph unicode="&#xe802;" horiz-adv-x="962" d="M839 -338q-21 -15 -42 -20.5t-41.5 -4.5t-39 8t-33.5 17v946q0 74 -24.5 139t-69.5 113.5t-109 76.5t-143 28q-87 0 -157.5 -20.5t-118.5 -49.5q-9 7 -15.5 22t-8 32.5t3.5 36t20 34.5q60 33 142 46t179 13t180.5 -32.5t145 -93t96.5 -148t35 -197.5v-946zM412 327 q0 -18 -7 -33.5t-18.5 -27t-27 -18.5t-33.5 -7t-34 7t-28 18.5t-19 27t-7 33.5t7.5 33t19.5 26.5t28 18t33 6.5q37 0 61.5 -24.5t24.5 -59.5zM412 58q0 -17 -7 -32.5t-18.5 -27.5t-27 -19t-33.5 -7t-34 7t-28 19t-19 27.5t-7 32.5q0 18 7.5 33t19.5 26.5t28 18t33 6.5 q37 0 61.5 -24.5t24.5 -59.5z" />
<glyph unicode="&#xe803;" horiz-adv-x="962" d="M839 -338q-21 -15 -42 -20.5t-41.5 -4.5t-39 8t-33.5 17v946q0 74 -24.5 139t-69.5 113.5t-109 76.5t-143 28q-87 0 -157.5 -20.5t-118.5 -49.5q-9 7 -15.5 22t-8 32.5t3.5 36t20 34.5q60 33 142 46t179 13t180.5 -32.5t145 -93t96.5 -148t35 -197.5v-946zM514 355 q26 0 26 -30v-66q0 -31 -26 -31h-158q0 -48 18 -88l23 -51q8 -18 8 -35q0 -35 -24.5 -58.5t-57.5 -23.5q-17 0 -32 6.5t-26.5 18t-18 26t-6.5 31.5t8 35l22 51q21 45 21 88h-160q-27 0 -27 31v66q0 30 27 30h383z" />
<glyph unicode="&#xe804;" horiz-adv-x="970" d="M837 530q0 -100 -28 -195t-88.5 -169.5t-157 -120t-234.5 -45.5h-39q-20 17 -20 52t20 52h37q98 0 165.5 32.5t109 88.5t59.5 130.5t18 158.5v387q0 17 -5 32t-19 15h-531q-63 0 -63 84v389q29 29 76 29q46 0 78 -29v-323q0 -31 26 -31h494q102 0 102 -119v-418zM26 1270 q0 -18 -7 -33.5t-18.5 -27t-27 -18.5t-33.5 -7q-17 0 -32.5 7t-27.5 18.5t-19 27t-7 33.5q0 16 7 31.5t19 27t27.5 18.5t32.5 7q39 0 62.5 -23.5t23.5 -60.5z" />
<glyph unicode="&#xe805;" horiz-adv-x="970" d="M837 530q0 -100 -28 -195t-88.5 -169.5t-157 -120t-234.5 -45.5h-39q-20 17 -20 52t20 52h37q98 0 165.5 32.5t109 88.5t59.5 130.5t18 158.5v387q0 17 -5 32t-19 15h-531q-63 0 -63 84v389q29 29 76 29q46 0 78 -29v-323q0 -31 26 -31h494q102 0 102 -119v-418zM409 545 q0 -18 -7 -33.5t-18.5 -27t-27 -18.5t-33.5 -7t-33.5 7t-27 18.5t-18.5 27t-7 33.5q0 32 27 58q28 26 59 26q37 0 61.5 -23.5t24.5 -60.5zM26 1270q0 -18 -7 -33.5t-18.5 -27t-27 -18.5t-33.5 -7q-17 0 -32.5 7t-27.5 18.5t-19 27t-7 33.5q0 16 7 31.5t19 27t27.5 18.5 t32.5 7q39 0 62.5 -23.5t23.5 -60.5z" />
<glyph unicode="&#xfb1d;" horiz-adv-x="700" d="M609 712q0 -110 -77 -187q-76 -76 -187 -76q-108 0 -185 77t-77 186q0 110 77 187t185 77q110 0 187 -77t77 -187zM536 712q0 81 -56 137q-55 55 -135 55t-135 -55t-55 -137q0 -79 55 -135q56 -56 135 -56t135 56q56 58 56 135z" />
<glyph unicode="&#xfb1e;" horiz-adv-x="700" d="M609 712q0 -110 -77 -187q-76 -76 -187 -76q-108 0 -185 77t-77 186q0 110 77 187t185 77q110 0 187 -77t77 -187zM536 712q0 81 -56 137q-55 55 -135 55t-135 -55t-55 -137q0 -79 55 -135q56 -56 135 -56t135 56q56 58 56 135z" />
<glyph unicode="&#xfb1f;" horiz-adv-x="700" d="M609 712q0 -110 -77 -187q-76 -76 -187 -76q-108 0 -185 77t-77 186q0 110 77 187t185 77q110 0 187 -77t77 -187zM536 712q0 81 -56 137q-55 55 -135 55t-135 -55t-55 -137q0 -79 55 -135q56 -56 135 -56t135 56q56 58 56 135z" />
<glyph unicode="&#xfb20;" horiz-adv-x="700" d="M609 712q0 -110 -77 -187q-76 -76 -187 -76q-108 0 -185 77t-77 186q0 110 77 187t185 77q110 0 187 -77t77 -187zM536 712q0 81 -56 137q-55 55 -135 55t-135 -55t-55 -137q0 -79 55 -135q56 -56 135 -56t135 56q56 58 56 135z" />
<glyph unicode="&#xfb21;" horiz-adv-x="700" d="M609 712q0 -110 -77 -187q-76 -76 -187 -76q-108 0 -185 77t-77 186q0 110 77 187t185 77q110 0 187 -77t77 -187zM536 712q0 81 -56 137q-55 55 -135 55t-135 -55t-55 -137q0 -79 55 -135q56 -56 135 -56t135 56q56 58 56 135z" />
<glyph unicode="&#xfb22;" horiz-adv-x="700" d="M609 712q0 -110 -77 -187q-76 -76 -187 -76q-108 0 -185 77t-77 186q0 110 77 187t185 77q110 0 187 -77t77 -187zM536 712q0 81 -56 137q-55 55 -135 55t-135 -55t-55 -137q0 -79 55 -135q56 -56 135 -56t135 56q56 58 56 135z" />
<glyph unicode="&#xfb23;" horiz-adv-x="700" d="M609 712q0 -110 -77 -187q-76 -76 -187 -76q-108 0 -185 77t-77 186q0 110 77 187t185 77q110 0 187 -77t77 -187zM536 712q0 81 -56 137q-55 55 -135 55t-135 -55t-55 -137q0 -79 55 -135q56 -56 135 -56t135 56q56 58 56 135z" />
<glyph unicode="&#xfb24;" horiz-adv-x="700" d="M609 712q0 -110 -77 -187q-76 -76 -187 -76q-108 0 -185 77t-77 186q0 110 77 187t185 77q110 0 187 -77t77 -187zM536 712q0 81 -56 137q-55 55 -135 55t-135 -55t-55 -137q0 -79 55 -135q56 -56 135 -56t135 56q56 58 56 135z" />
<glyph unicode="&#xfb25;" horiz-adv-x="700" d="M609 712q0 -110 -77 -187q-76 -76 -187 -76q-108 0 -185 77t-77 186q0 110 77 187t185 77q110 0 187 -77t77 -187zM536 712q0 81 -56 137q-55 55 -135 55t-135 -55t-55 -137q0 -79 55 -135q56 -56 135 -56t135 56q56 58 56 135z" />
<glyph unicode="&#xfb26;" horiz-adv-x="700" d="M609 712q0 -110 -77 -187q-76 -76 -187 -76q-108 0 -185 77t-77 186q0 110 77 187t185 77q110 0 187 -77t77 -187zM536 712q0 81 -56 137q-55 55 -135 55t-135 -55t-55 -137q0 -79 55 -135q56 -56 135 -56t135 56q56 58 56 135z" />
<glyph unicode="&#xfb27;" horiz-adv-x="700" d="M609 712q0 -110 -77 -187q-76 -76 -187 -76q-108 0 -185 77t-77 186q0 110 77 187t185 77q110 0 187 -77t77 -187zM536 712q0 81 -56 137q-55 55 -135 55t-135 -55t-55 -137q0 -79 55 -135q56 -56 135 -56t135 56q56 58 56 135z" />
<glyph unicode="&#xfb28;" horiz-adv-x="700" d="M609 712q0 -110 -77 -187q-76 -76 -187 -76q-108 0 -185 77t-77 186q0 110 77 187t185 77q110 0 187 -77t77 -187zM536 712q0 81 -56 137q-55 55 -135 55t-135 -55t-55 -137q0 -79 55 -135q56 -56 135 -56t135 56q56 58 56 135z" />
<glyph unicode="&#xfb29;" horiz-adv-x="588" d="M66 473q-38 57 0 111h174v184q22 18 53 18q29 0 55 -18v-184h170q18 -24 18 -55t-18 -56h-452z" />
<glyph unicode="&#xfb2a;" horiz-adv-x="1386" d="M755 201q-12 -13 -32.5 -20t-41.5 -7q-18 0 -38.5 5t-35.5 22v841q9 13 29.5 19t44 6t44.5 -6.5t30 -18.5v-841zM1252 547q0 -130 -39.5 -237t-113.5 -183t-180.5 -118t-239.5 -42q-287 0 -422 137.5t-135 401.5v536q7 13 30 19t48.5 6t48 -6t29.5 -19v-540 q0 -207 90 -315q90 -107 311 -107q105 0 183.5 31t130.5 90t78 144.5t26 195.5v503q6 13 28.5 19t49 6t49 -6t28.5 -19v-497zM1206 1270q0 -18 -7 -33.5t-18.5 -27t-27 -18.5t-33.5 -7q-17 0 -32.5 7t-27.5 18.5t-19 27t-7 33.5q0 16 7 31.5t19 27t27.5 18.5t32.5 7 q39 0 62.5 -23.5t23.5 -60.5z" />
<glyph unicode="&#xfb2b;" horiz-adv-x="1386" d="M755 201q-12 -13 -32.5 -20t-41.5 -7q-18 0 -38.5 5t-35.5 22v841q9 13 29.5 19t44 6t44.5 -6.5t30 -18.5v-841zM1252 547q0 -130 -39.5 -237t-113.5 -183t-180.5 -118t-239.5 -42q-287 0 -422 137.5t-135 401.5v536q7 13 30 19t48.5 6t48 -6t29.5 -19v-540 q0 -207 90 -315q90 -107 311 -107q105 0 183.5 31t130.5 90t78 144.5t26 195.5v503q6 13 28.5 19t49 6t49 -6t28.5 -19v-497zM296 1270q0 -18 -7 -33.5t-18.5 -27t-27 -18.5t-33.5 -7q-17 0 -32.5 7t-27.5 18.5t-19 27t-7 33.5q0 16 7 31.5t19 27t27.5 18.5t32.5 7 q39 0 62.5 -23.5t23.5 -60.5z" />
<glyph unicode="&#xfb2c;" horiz-adv-x="1386" d="M755 201q-12 -13 -32.5 -20t-41.5 -7q-18 0 -38.5 5t-35.5 22v841q9 13 29.5 19t44 6t44.5 -6.5t30 -18.5v-841zM1252 547q0 -130 -39.5 -237t-113.5 -183t-180.5 -118t-239.5 -42q-287 0 -422 137.5t-135 401.5v536q7 13 30 19t48.5 6t48 -6t29.5 -19v-540 q0 -207 90 -315q90 -107 311 -107q105 0 183.5 31t130.5 90t78 144.5t26 195.5v503q6 13 28.5 19t49 6t49 -6t28.5 -19v-497zM1013 605q0 -18 -7 -33.5t-18.5 -27t-27 -18.5t-33.5 -7t-33.5 7t-27 18.5t-18.5 27t-7 33.5q0 32 27 58q28 26 59 26q37 0 61.5 -23.5t24.5 -60.5 zM1206 1270q0 -18 -7 -33.5t-18.5 -27t-27 -18.5t-33.5 -7q-17 0 -32.5 7t-27.5 18.5t-19 27t-7 33.5q0 16 7 31.5t19 27t27.5 18.5t32.5 7q39 0 62.5 -23.5t23.5 -60.5z" />
<glyph unicode="&#xfb2d;" horiz-adv-x="1386" d="M755 201q-12 -13 -32.5 -20t-41.5 -7q-18 0 -38.5 5t-35.5 22v841q9 13 29.5 19t44 6t44.5 -6.5t30 -18.5v-841zM1252 547q0 -130 -39.5 -237t-113.5 -183t-180.5 -118t-239.5 -42q-287 0 -422 137.5t-135 401.5v536q7 13 30 19t48.5 6t48 -6t29.5 -19v-540 q0 -207 90 -315q90 -107 311 -107q105 0 183.5 31t130.5 90t78 144.5t26 195.5v503q6 13 28.5 19t49 6t49 -6t28.5 -19v-497zM296 1270q0 -18 -7 -33.5t-18.5 -27t-27 -18.5t-33.5 -7q-17 0 -32.5 7t-27.5 18.5t-19 27t-7 33.5q0 16 7 31.5t19 27t27.5 18.5t32.5 7 q39 0 62.5 -23.5t23.5 -60.5zM1013 605q0 -18 -7 -33.5t-18.5 -27t-27 -18.5t-33.5 -7t-33.5 7t-27 18.5t-18.5 27t-7 33.5q0 32 27 58q28 26 59 26q37 0 61.5 -23.5t24.5 -60.5z" />
<glyph unicode="&#xfb31;" horiz-adv-x="1060" d="M81 0q-8 12 -11.5 28t-3.5 31.5t4 30t11 25.5h676q-20 35 -21 81t-1 91v329q0 75 -17.5 138.5t-56.5 110.5t-101 73.5t-151 26.5q-83 0 -168 -20q-83 -20 -129 -48q-15 15 -20 54q-4 37 20 71q66 33 159 45t183 12q217 0 326.5 -120.5t109.5 -342.5v-399q0 -54 7.5 -78 t35.5 -24h74q16 -22 16 -59t-16 -56h-926zM460 493q0 -18 -7 -33.5t-18.5 -27t-27 -18.5t-33.5 -7t-33.5 7t-27 18.5t-18.5 27t-7 33.5q0 32 27 58q28 26 59 26q37 0 61.5 -23.5t24.5 -60.5z" />
<glyph unicode="&#xfb32;" horiz-adv-x="845" d="M712 20q-29 -20 -76 -20t-79 20v416h-33q-74 0 -126 -22.5t-85 -62t-48.5 -93t-15.5 -115.5v-123q-14 -10 -34.5 -15t-42 -5t-41 4.5t-29.5 15.5v103q0 187 107 294q109 107 294 107h54v183q0 123 -57 190.5t-171 67.5q-52 0 -98 -23q-45 -23 -70 -43q-22 25 -21 60.5 t19 62.5q42 29 100.5 44t112.5 15q82 0 145.5 -28.5t106.5 -78.5t65.5 -120t22.5 -152v-682zM392 698q0 -18 -7 -33.5t-18.5 -27t-27 -18.5t-33.5 -7t-33.5 7t-27 18.5t-18.5 27t-7 33.5q0 32 27 58q28 26 59 26q37 0 61.5 -23.5t24.5 -60.5z" />
<glyph unicode="&#xfb33;" horiz-adv-x="1083" d="M837 948q-21 0 -34 -24q-13 -22 -13 -109v-795q-14 -10 -35.5 -15t-43.5 -5t-42 5t-32 15v762q0 48 15 93t40 73h-613q-16 22 -18 58q-1 36 18 61h875q16 -22 16 -60q0 -37 -16 -59h-117zM406 556q0 -18 -7 -33.5t-18.5 -27t-27 -18.5t-33.5 -7t-33.5 7t-27 18.5 t-18.5 27t-7 33.5q0 32 27 58q28 26 59 26q37 0 61.5 -23.5t24.5 -60.5z" />
<glyph unicode="&#xfb34;" horiz-adv-x="1116" d="M993 20q-11 -10 -32.5 -15t-45 -5t-45 5t-33.5 15v611q0 187 -93 267q-92 79 -261 79q-113 0 -203 -28q-92 -27 -145 -62q-20 23 -21 59q-2 37 21 66q54 30 149 52.5t242 22.5q231 0 349 -108.5t118 -343.5v-615zM284 20q-12 -11 -33 -15.5t-44 -4.5t-44 5.5t-33 14.5 v619q14 13 34 20.5t41.5 8t42.5 -6.5t36 -22v-619zM642 516q0 -18 -7 -33.5t-18.5 -27t-27 -18.5t-33.5 -7t-33.5 7t-27 18.5t-18.5 27t-7 33.5q0 32 27 58q28 26 59 26q37 0 61.5 -23.5t24.5 -60.5z" />
<glyph unicode="&#xfb35;" horiz-adv-x="409" d="M276 20q-11 -10 -32 -15t-44 -5t-44.5 5t-33.5 15v1024q28 22 76 23q51 2 78 -23v-1024zM80 553q0 -18 -7 -33.5t-18.5 -27t-27 -18.5t-33.5 -7t-33.5 7t-27 18.5t-18.5 27t-7 33.5q0 32 27 58q28 26 59 26q37 0 61.5 -23.5t24.5 -60.5z" />
<glyph unicode="&#xfb36;" horiz-adv-x="710" d="M454 948q-29 0 -40 -40.5t-11 -112.5v-775q-14 -11 -34.5 -16t-42.5 -5t-43 5t-36 16v701q0 55 15 120q17 68 49 107h-215q-21 20 -22 58q-2 37 22 61h495q23 -27 21 -61.5t-21 -57.5h-137zM190 523q0 -18 -7 -33.5t-18.5 -27t-27 -18.5t-33.5 -7t-33.5 7t-27 18.5 t-18.5 27t-7 33.5q0 32 27 58q28 26 59 26q37 0 61.5 -23.5t24.5 -60.5z" />
<glyph unicode="&#xfb38;" horiz-adv-x="1189" d="M1056 498q0 -122 -32 -220t-93 -167t-150.5 -106.5t-203.5 -37.5q-455 0 -455 486v591q12 11 32.5 17t43.5 6.5t44.5 -5.5t33.5 -18v-595q0 -103 17 -173.5t53.5 -114t93.5 -62.5t137 -19q86 0 147.5 27.5t101 80t58 130t18.5 178.5v352q0 51 -18.5 74.5t-44.5 23.5 q-15 0 -28.5 -5t-26 -16.5t-26.5 -31t-30 -49.5l-141 -258q-32 -17 -71 -8q-40 10 -50 38l160 283q52 90 106 129q53 37 131 37q34 0 68 -11.5t62 -41t45.5 -80.5t17.5 -129v-305zM671 370q0 -18 -7 -33.5t-18.5 -27t-27 -18.5t-33.5 -7t-33.5 7t-27 18.5t-18.5 27t-7 33.5 q0 32 27 58q28 26 59 26q37 0 61.5 -23.5t24.5 -60.5z" />
<glyph unicode="&#xfb39;" horiz-adv-x="409" d="M276 461q-12 -14 -34 -20.5t-45.5 -5.5t-44 7.5t-30.5 18.5v583q32 23 79 23t75 -23v-583zM90 753q0 -18 -7 -33.5t-18.5 -27t-27 -18.5t-33.5 -7t-33.5 7t-27 18.5t-18.5 27t-7 33.5q0 32 27 58q28 26 59 26q37 0 61.5 -23.5t24.5 -60.5z" />
<glyph unicode="&#xfb3a;" horiz-adv-x="962" d="M839 -338q-21 -15 -42 -20.5t-41.5 -4.5t-39 8t-33.5 17v946q0 74 -24.5 139t-69.5 113.5t-109 76.5t-143 28q-87 0 -157.5 -20.5t-118.5 -49.5q-9 7 -15.5 22t-8 32.5t3.5 36t20 34.5q60 33 142 46t179 13t180.5 -32.5t145 -93t96.5 -148t35 -197.5v-946zM403 529 q0 -18 -7 -33.5t-18.5 -27t-27 -18.5t-33.5 -7t-33.5 7t-27 18.5t-18.5 27t-7 33.5q0 32 27 58q28 26 59 26q37 0 61.5 -23.5t24.5 -60.5z" />
<glyph unicode="&#xfb3b;" horiz-adv-x="1003" d="M922 526q0 -87 -22.5 -162t-60.5 -136t-89.5 -108.5t-110 -79.5t-121.5 -48.5t-125 -16.5q-97 0 -164 16.5t-116 41.5q-25 32 -22 70q3 39 22 55q24 -15 48 -28t51 -22.5t59 -15.5t71 -6q78 0 152.5 30t132.5 86t93.5 137.5t35.5 184.5t-35.5 185t-93.5 139.5t-132.5 88 t-152.5 30.5t-133 -22.5t-96 -49.5q-12 10 -18 25t-6 32t6 35t18 33q27 15 56.5 26t63 18.5t73 11t87.5 3.5q63 0 126.5 -16.5t122 -48.5t110 -79.5t89 -109t59.5 -136.5t22 -163zM415 507q0 -18 -7 -33.5t-18.5 -27t-27 -18.5t-33.5 -7t-33.5 7t-27 18.5t-18.5 27t-7 33.5 q0 32 27 58q28 26 59 26q37 0 61.5 -23.5t24.5 -60.5z" />
<glyph unicode="&#xfb3c;" horiz-adv-x="970" d="M837 530q0 -100 -28 -195t-88.5 -169.5t-157 -120t-234.5 -45.5h-39q-20 17 -20 52t20 52h37q98 0 165.5 32.5t109 88.5t59.5 130.5t18 158.5v387q0 17 -5 32t-19 15h-531q-63 0 -63 84v389q29 29 76 29q46 0 78 -29v-323q0 -31 26 -31h494q102 0 102 -119v-418zM409 545 q0 -18 -7 -33.5t-18.5 -27t-27 -18.5t-33.5 -7t-33.5 7t-27 18.5t-18.5 27t-7 33.5q0 32 27 58q28 26 59 26q37 0 61.5 -23.5t24.5 -60.5z" />
<glyph unicode="&#xfb3e;" horiz-adv-x="1183" d="M1060 356q0 -105 -32 -177.5t-85 -117t-121.5 -64.5t-142.5 -20q-16 0 -38.5 2t-46 6t-44.5 8.5t-33 10.5q-9 12 -12.5 27t-2.5 30.5t6 30.5t13 27q29 -15 65 -24t71 -9q37 0 80.5 14t80.5 45.5t61.5 81t24.5 121.5v410q0 53 -12 91t-34 62t-53 35.5t-69 11.5 q-65 0 -101 -30q-18 -14 -34.5 -38.5t-32.5 -58.5l-362 -811q-14 -12 -38.5 -17.5t-50 -5t-46 6t-25.5 16.5l266 586q-24 4 -48.5 23.5t-37.5 42.5l-190 372q6 9 25 15.5t44 8t52 -4t49 -19.5l172 -350l68 160q56 128 125 175q70 48 188 48q61 0 115.5 -18.5t95.5 -57 t65.5 -98.5t24.5 -143v-404zM745 487q0 -18 -7 -33.5t-18.5 -27t-27 -18.5t-33.5 -7t-33.5 7t-27 18.5t-18.5 27t-7 33.5q0 32 27 58q28 26 59 26q37 0 61.5 -23.5t24.5 -60.5z" />
<glyph unicode="&#xfb40;" horiz-adv-x="722" d="M589 119q0 -64 -18 -91.5t-61 -27.5h-428q-11 8 -17 23.5t-6 33t6 33.5t17 25h331q23 0 23 39v559q0 71 -19 121.5t-49 82t-67.5 46t-75.5 14.5q-31 0 -59.5 -9.5t-45.5 -23.5q-22 13 -22 48q0 34 22 59q9 5 23 9.5t30.5 8.5t34 6t33.5 2q74 0 137.5 -20.5t110.5 -66.5 t73.5 -119.5t26.5 -178.5v-573zM320 516q0 -18 -7 -33.5t-18.5 -27t-27 -18.5t-33.5 -7t-33.5 7t-27 18.5t-18.5 27t-7 33.5q0 32 27 58q28 26 59 26q37 0 61.5 -23.5t24.5 -60.5z" />
<glyph unicode="&#xfb41;" horiz-adv-x="1228" d="M1126 528q0 -126 -38 -230t-106.5 -178.5t-163.5 -115.5t-208 -41q-114 0 -209 41t-163.5 115.5t-107 178.5t-38.5 230t38.5 229.5t107 178t163.5 115.5t209 41q113 0 208 -41t163.5 -115.5t106.5 -178t38 -229.5zM964 524q0 98 -24 181.5t-69 144t-111 95t-150 34.5 q-85 0 -151 -33t-111.5 -92.5t-69.5 -142t-24 -181.5q0 -98 24 -181.5t69.5 -144t111.5 -94.5t151 -34q84 0 150 33t111 92.5t69 142t24 180.5zM690 513q0 -18 -7 -33.5t-18.5 -27t-27 -18.5t-33.5 -7t-33.5 7t-27 18.5t-18.5 27t-7 33.5q0 32 27 58q28 26 59 26 q37 0 61.5 -23.5t24.5 -60.5z" />
<glyph unicode="&#xfb43;" horiz-adv-x="1099" d="M977 -338q-35 -18 -77 -20t-77 20v1008q0 64 -21.5 120.5t-60.5 98.5t-93 66t-120 24q-60 0 -112 -21.5t-89.5 -58.5t-59 -86t-21.5 -104q0 -66 21.5 -113t57 -77t79.5 -44t89 -14q37 0 75 10t65 21q10 -9 15.5 -22t5.5 -28t-5 -30.5t-16 -28.5q-13 -5 -31.5 -10.5 t-43.5 -11.5q-52 -11 -87 -11q-74 0 -142.5 23.5t-121 67.5t-84 107t-31.5 142q0 76 27.5 148.5t84 128t141.5 89.5t200 34q107 0 188 -33.5t135 -93t81.5 -140t27.5 -174.5v-987zM610 710q0 -18 -7 -33.5t-18.5 -27t-27 -18.5t-33.5 -7t-33.5 7t-27 18.5t-18.5 27t-7 33.5 q0 32 27 58q28 26 59 26q37 0 61.5 -23.5t24.5 -60.5z" />
<glyph unicode="&#xfb44;" horiz-adv-x="1189" d="M1098 541q0 -122 -40.5 -226t-113 -180t-172.5 -119t-219 -43q-68 0 -127.5 8.5t-110 23t-91 33.5t-69.5 40q-17 25 -19 66q-2 40 24 63q60 -55 149 -90t191 -35t183 34.5t137 96t86 145.5t30 183q0 93 -24.5 173.5t-71.5 139t-114.5 92t-154.5 33.5q-77 0 -137.5 -21.5 t-102 -58.5t-63.5 -86t-22 -104q0 -58 23.5 -100t60 -69.5t82 -41t90.5 -13.5q34 0 82 14q23 8 42.5 15.5t34.5 15.5q10 -9 16 -22t7 -27.5t-4 -29.5t-17 -27q-30 -22 -83 -35q-56 -14 -101 -14q-74 0 -143.5 20.5t-123.5 61.5t-87 101t-33 140q0 78 28.5 149t88 125 t149.5 86t213 32q119 0 216.5 -40t166.5 -112t106.5 -173t37.5 -224zM639 732q0 -18 -7 -33.5t-18.5 -27t-27 -18.5t-33.5 -7t-33.5 7t-27 18.5t-18.5 27t-7 33.5q0 32 27 58q28 26 59 26q37 0 61.5 -23.5t24.5 -60.5z" />
<glyph unicode="&#xfb46;" horiz-adv-x="1069" d="M964 1044q0 -120 -21 -212t-59.5 -162.5t-93 -122t-121.5 -90.5l256 -346q29 -38 13 -74q-15 -37 -56 -37h-784q-25 16 -25 55t25 60h641l-668 929q11 12 36.5 18.5t54.5 6.5t56 -6t41 -19l357 -512q53 46 89 88t57.5 97t30.5 132.5t9 194.5q12 13 34.5 19.5t47 6t47 -7 t33.5 -18.5zM280 459q0 -18 -7 -33.5t-18.5 -27t-27 -18.5t-33.5 -7t-33.5 7t-27 18.5t-18.5 27t-7 33.5q0 32 27 58q28 26 59 26q37 0 61.5 -23.5t24.5 -60.5z" />
<glyph unicode="&#xfb47;" horiz-adv-x="1157" d="M1068 610q0 -126 -48 -235t-132 -192.5t-197.5 -136t-244.5 -66.5q-21 16 -21 51t21 55q97 12 182 52.5t148 105.5t99 153t36 195q0 162 -85 259t-239 97h-448q-14 6 -20.5 22.5t-6.5 35t6.5 36t20.5 25.5h497q92 0 171 -28t137 -84.5t91 -142.5t33 -202zM300 -338 q-14 -17 -35 -24.5t-43 -7t-42.5 8.5t-32.5 23v1071q29 32 76 33q49 1 77 -33v-1071zM685 564q0 -18 -7 -33.5t-18.5 -27t-27 -18.5t-33.5 -7t-33.5 7t-27 18.5t-18.5 27t-7 33.5q0 32 27 58q28 26 59 26q37 0 61.5 -23.5t24.5 -60.5z" />
<glyph unicode="&#xfb48;" horiz-adv-x="974" d="M852 20q-10 -10 -31.5 -15.5t-45.5 -6.5t-45.5 4.5t-31.5 17.5v588q0 74 -24.5 139t-69.5 113.5t-109 76.5t-143 28q-87 0 -154.5 -20.5t-121.5 -49.5q-26 20 -24 61q2 42 24 64q57 27 140.5 43t180.5 16t180.5 -32.5t144.5 -93t95.5 -148t34.5 -197.5v-588zM427 518 q0 -18 -7 -33.5t-18.5 -27t-27 -18.5t-33.5 -7t-33.5 7t-27 18.5t-18.5 27t-7 33.5q0 32 27 58q28 26 59 26q37 0 61.5 -23.5t24.5 -60.5z" />
<glyph unicode="&#xfb49;" horiz-adv-x="1386" d="M755 201q-12 -13 -32.5 -20t-41.5 -7q-18 0 -38.5 5t-35.5 22v841q9 13 29.5 19t44 6t44.5 -6.5t30 -18.5v-841zM1252 547q0 -130 -39.5 -237t-113.5 -183t-180.5 -118t-239.5 -42q-287 0 -422 137.5t-135 401.5v536q7 13 30 19t48.5 6t48 -6t29.5 -19v-540 q0 -207 90 -315q90 -107 311 -107q105 0 183.5 31t130.5 90t78 144.5t26 195.5v503q6 13 28.5 19t49 6t49 -6t28.5 -19v-497zM1013 605q0 -18 -7 -33.5t-18.5 -27t-27 -18.5t-33.5 -7t-33.5 7t-27 18.5t-18.5 27t-7 33.5q0 32 27 58q28 26 59 26q37 0 61.5 -23.5t24.5 -60.5 z" />
<glyph unicode="&#xfb4a;" horiz-adv-x="1230" d="M1107 20q-10 -10 -31 -15t-45 -5t-45.5 5t-31.5 15v676q0 57 -11.5 103.5t-38 79.5t-69.5 51t-106 18h-258q-15 0 -23 -13t-11 -32.5t-3 -41v-38.5v-532q0 -160 -76 -230q-77 -69 -209 -69q-25 0 -56.5 6t-47.5 18q-23 29 -14 65t26 50q16 -12 37.5 -21.5t42.5 -9.5 q71 0 107 44t36 145v467q0 16 1 40.5t6 51t16 53t32 47.5h-182q-11 9 -17 24t-6 32t5.5 34t17.5 29h610q166 0 255 -85t89 -265v-697zM770 593q0 -18 -7 -33.5t-18.5 -27t-27 -18.5t-33.5 -7t-33.5 7t-27 18.5t-18.5 27t-7 33.5q0 32 27 58q28 26 59 26q37 0 61.5 -23.5 t24.5 -60.5z" />
<glyph unicode="&#xfb4b;" horiz-adv-x="409" d="M276 20q-11 -10 -32 -15t-44 -5t-44.5 5t-33.5 15v1024q28 22 76 23q51 2 78 -23v-1024zM286 1270q0 -18 -7 -33.5t-18.5 -27t-27 -18.5t-33.5 -7q-17 0 -32.5 7t-27.5 18.5t-19 27t-7 33.5q0 16 7 31.5t19 27t27.5 18.5t32.5 7q39 0 62.5 -23.5t23.5 -60.5z" />
<glyph horiz-adv-x="0" />
<glyph horiz-adv-x="700" d="M609 712q0 -110 -77 -187q-76 -76 -187 -76q-108 0 -185 77t-77 186q0 110 77 187t185 77q110 0 187 -77t77 -187zM536 712q0 81 -56 137q-55 55 -135 55t-135 -55t-55 -137q0 -79 55 -135q56 -56 135 -56t135 56q56 58 56 135z" />
<glyph horiz-adv-x="700" d="M609 712q0 -110 -77 -187q-76 -76 -187 -76q-108 0 -185 77t-77 186q0 110 77 187t185 77q110 0 187 -77t77 -187zM536 712q0 81 -56 137q-55 55 -135 55t-135 -55t-55 -137q0 -79 55 -135q56 -56 135 -56t135 56q56 58 56 135z" />
<glyph horiz-adv-x="700" d="M609 712q0 -110 -77 -187q-76 -76 -187 -76q-108 0 -185 77t-77 186q0 110 77 187t185 77q110 0 187 -77t77 -187zM536 712q0 81 -56 137q-55 55 -135 55t-135 -55t-55 -137q0 -79 55 -135q56 -56 135 -56t135 56q56 58 56 135z" />
<glyph horiz-adv-x="700" d="M609 712q0 -110 -77 -187q-76 -76 -187 -76q-108 0 -185 77t-77 186q0 110 77 187t185 77q110 0 187 -77t77 -187zM536 712q0 81 -56 137q-55 55 -135 55t-135 -55t-55 -137q0 -79 55 -135q56 -56 135 -56t135 56q56 58 56 135z" />
<glyph d="M657 770q0 -119 -83 -202t-203 -83q-118 0 -200 84q-83 85 -83 201q0 118 83 203q82 84 200 84q120 0 203 -84q83 -85 83 -203zM578 770q0 88 -60 148q-58 61 -147 61q-86 0 -146 -61q-59 -61 -59 -148q0 -84 59 -146q60 -61 146 -61q89 0 147 61q60 61 60 146z" />
<glyph d="M657 770q0 -119 -83 -202t-203 -83q-118 0 -200 84q-83 85 -83 201q0 118 83 203q82 84 200 84q120 0 203 -84q83 -85 83 -203zM578 770q0 88 -60 148q-58 61 -147 61q-86 0 -146 -61q-59 -61 -59 -148q0 -84 59 -146q60 -61 146 -61q89 0 147 61q60 61 60 146z" />
<glyph d="M657 770q0 -119 -83 -202t-203 -83q-118 0 -200 84q-83 85 -83 201q0 118 83 203q82 84 200 84q120 0 203 -84q83 -85 83 -203zM578 770q0 88 -60 148q-58 61 -147 61q-86 0 -146 -61q-59 -61 -59 -148q0 -84 59 -146q60 -61 146 -61q89 0 147 61q60 61 60 146z" />
<glyph horiz-adv-x="0" d="M934 -299q0 -39 -26 -66.5t-68 -27.5q-39 0 -65.5 27.5t-26.5 66.5t26.5 64.5t65.5 25.5t66.5 -25.5t27.5 -64.5zM934 -600q0 -42 -26 -68t-68 -26q-39 0 -65.5 26t-26.5 68q0 18 7.5 35t20 29.5t29.5 20t35 7.5q42 0 68 -26.5t26 -65.5zM639 -672h-94v445h94v-445z M418 -346h-170l-6 -100q0 -23 29 -67q30 -44 30 -65q0 -40 -26.5 -67t-65.5 -27q-20 0 -36.5 7.5t-29 20.5t-19.5 30t-7 36q0 25 30 67q31 41 31 67l-8 98h-170v119h418v-119z" />
<glyph d="M657 770q0 -119 -83 -202t-203 -83q-118 0 -200 84q-83 85 -83 201q0 118 83 203q82 84 200 84q120 0 203 -84q83 -85 83 -203zM578 770q0 88 -60 148q-58 61 -147 61q-86 0 -146 -61q-59 -61 -59 -148q0 -84 59 -146q60 -61 146 -61q89 0 147 61q60 61 60 146z" />
<glyph d="M657 770q0 -119 -83 -202t-203 -83q-118 0 -200 84q-83 85 -83 201q0 118 83 203q82 84 200 84q120 0 203 -84q83 -85 83 -203zM578 770q0 88 -60 148q-58 61 -147 61q-86 0 -146 -61q-59 -61 -59 -148q0 -84 59 -146q60 -61 146 -61q89 0 147 61q60 61 60 146z" />
<glyph d="M657 770q0 -119 -83 -202t-203 -83q-118 0 -200 84q-83 85 -83 201q0 118 83 203q82 84 200 84q120 0 203 -84q83 -85 83 -203zM578 770q0 88 -60 148q-58 61 -147 61q-86 0 -146 -61q-59 -61 -59 -148q0 -84 59 -146q60 -61 146 -61q89 0 147 61q60 61 60 146z" />
<glyph d="M657 770q0 -119 -83 -202t-203 -83q-118 0 -200 84q-83 85 -83 201q0 118 83 203q82 84 200 84q120 0 203 -84q83 -85 83 -203zM578 770q0 88 -60 148q-58 61 -147 61q-86 0 -146 -61q-59 -61 -59 -148q0 -84 59 -146q60 -61 146 -61q89 0 147 61q60 61 60 146z" />
</font>
</defs>
</svg>
