<?xml version="1.0" standalone="no"?>
<!DOCTYPE svg PUBLIC "-//W3C//DTD SVG 1.1//EN" "http://www.w3.org/Graphics/SVG/1.1/DTD/svg11.dtd" >
<svg xmlns="http://www.w3.org/2000/svg">
<metadata></metadata>
<defs>
<font id="fb_spacerbold" horiz-adv-x="756" >
<font-face units-per-em="2048" ascent="1638" descent="-410" />
<missing-glyph horiz-adv-x="532" />
<glyph unicode="&#xd;" horiz-adv-x="512" />
<glyph unicode=" "  horiz-adv-x="532" />
<glyph unicode="&#x09;" horiz-adv-x="532" />
<glyph unicode="&#xa0;" horiz-adv-x="532" />
<glyph unicode="!" horiz-adv-x="559" d="M288 324q-5 -15 -18.5 -23t-28.5 -8.5t-29.5 7.5t-21.5 24l-109 784q27 45 71 67t90.5 21.5t88 -23t63.5 -65.5zM368 96q0 -54 -37 -91q-38 -38 -90 -38q-53 0 -91 38q-36 37 -36 91q0 27 9.5 50t27 40.5t40.5 27t50 9.5q53 0 90 -37q37 -36 37 -90z" />
<glyph unicode="&#x22;" horiz-adv-x="647" d="M596 1122q-8 -21 -23.5 -48.5t-35 -58.5t-41 -63t-43 -61t-40.5 -53.5t-32 -40.5q-10 6 -19 21.5t-16 35t-10.5 40t-1.5 36.5q12 26 28.5 70t32.5 95.5t29.5 104.5t19.5 96q26 -2 52 -19t48 -42t36 -55t16 -58zM313 1122q-8 -20 -23 -48.5t-33.5 -60t-40 -64.5 t-42.5 -62.5t-41 -53t-35 -36.5q-10 6 -19 21.5t-16 35t-10.5 40t-1.5 36.5q13 26 29.5 70t32.5 95.5t29.5 104.5t19.5 96q25 -2 51 -19t47.5 -42t36 -55t16.5 -58z" />
<glyph unicode="#" horiz-adv-x="937" d="M864 879q8 -14 10 -33.5t-1 -40.5t-10.5 -39.5t-19.5 -30.5h-110l-53 -245h110q9 -13 10.5 -32.5t-2 -41t-11.5 -40.5t-19 -30h-113l-41 -190q-11 -8 -34.5 -13t-49 -5.5t-48.5 4t-32 14.5l41 190h-164l-41 -190q-12 -9 -35 -13.5t-48.5 -5t-48 4t-32.5 14.5l41 190h-94 q-5 11 -7.5 30t0 40.5t9.5 41.5t21 32h96l53 245h-96q-5 12 -7.5 30.5t-0.5 39t8.5 40.5t19.5 34h103l39 180q15 10 38.5 15t48 4.5t46 -5.5t31.5 -14l-39 -180h164l38 180q16 11 40 15.5t48 3.5t44.5 -6t31.5 -13l-39 -180h105zM569 735h-164l-53 -245h164z" />
<glyph unicode="$" horiz-adv-x="968" d="M856 270q0 -47 -19 -95t-58.5 -88t-100.5 -66.5t-146 -30.5v-92q-6 -14 -21 -21t-32.5 -6.5t-33 7.5t-21.5 20v90q-76 0 -151 35q-73 36 -113 96q-11 18 -16 42.5t-1 48t18.5 43t43.5 28.5q37 -63 93.5 -102.5t125.5 -47.5v383q-62 23 -116 54.5t-94 70.5t-62.5 86 t-22.5 102q0 51 16 96.5t51 80t91.5 55t136.5 20.5v92q7 10 22.5 14.5t32.5 4.5t32 -5t21 -14v-102q49 -2 110 -27q63 -25 112 -88q10 -17 16 -41t3 -48t-18 -44t-46 -28q-45 66 -93.5 99.5t-83.5 37.5v-305q70 -29 129.5 -61t102.5 -73.5t67.5 -95t24.5 -125.5zM424 938 q-18 0 -34.5 -11.5t-30 -29.5t-21.5 -41t-8 -45q0 -42 23 -78.5t71 -58.5v264zM637 283q0 78 -32 118q-30 38 -73 66v-336q15 4 33.5 15t34 30t26.5 45.5t11 61.5z" />
<glyph unicode="%" horiz-adv-x="1351" d="M1247 279q0 -76 -21 -139t-69 -105q-31 -27 -71.5 -42.5t-94.5 -15.5t-94.5 15.5t-71.5 42.5q-48 42 -70 105t-22 139q0 75 22 139t70 106q31 25 71.5 40.5t94.5 15.5q96 0 158 -50q54 -42 76 -107.5t22 -143.5zM442 20q-16 -20 -45 -29t-59.5 -8.5t-57 10t-37.5 27.5 l684 1020q16 20 47 29.5t63 9.5t57.5 -10t31.5 -29zM616 750q0 -75 -21 -137.5t-69 -104.5q-65 -60 -166 -60q-105 0 -166 58q-48 42 -70 105.5t-22 138.5t22 139t70 106q62 56 166 56q49 0 89 -12.5t69 -34.5q54 -42 76 -108.5t22 -145.5zM1079 279q0 87 -24 146 q-22 58 -64 58q-40 0 -66 -59q-24 -59 -24 -145q0 -90 25 -147q25 -58 65 -58q42 0 65 62q23 64 23 143zM448 750q0 87 -24 146q-22 58 -64 58q-40 0 -66 -59q-24 -59 -24 -145q0 -90 25 -147q25 -58 65 -58q42 0 65 62q23 64 23 143z" />
<glyph unicode="&#x26;" horiz-adv-x="1247" d="M1248 76q17 -17 17 -41q0 -40 -42 -40h-101q-51 0 -77 29l-90 95q-121 -139 -404 -139h-101q-414 0 -414 319q0 189 138 288q36 26 202 125q-76 86 -102 149q-31 76 -31 198q0 332 320 332h14q161 0 237 -67q84 -74 84 -244q0 -235 -167 -346l-80 -53l287 -292 q18 67 18 145q0 9 1 37v35q0 49 51 49h119q42 0 49 -46q3 -17 3 -64q0 -178 -104 -294zM681 1019v52q0 92 -21 124q-20 29 -79 29h-16q-58 0 -79 -31q-18 -26 -18 -91v-104q0 -103 50 -159q28 -32 25 -32q3 0 6 2q78 53 99 81q33 45 33 129zM852 229l-353 357q-4 4 -5 3 l-158 -93q-56 -34 -56 -125v-65q0 -85 34 -110q48 -35 217 -35q131 0 186 9q83 13 135 59z" />
<glyph unicode="'" horiz-adv-x="354" d="M313 1122q-14 -44 -39 -93t-55.5 -94t-62 -81.5t-58.5 -56.5q-10 6 -19 21.5t-16 35t-10.5 40t-1.5 36.5q13 23 29.5 67t32.5 96t29.5 106t19.5 97q25 -2 51 -19t47.5 -42t36 -55t16.5 -58z" />
<glyph unicode="(" horiz-adv-x="532" d="M480 -137q-8 -14 -25.5 -21.5t-38.5 -8t-42 7t-35 22.5q-61 51 -109 125t-81 161t-50.5 180.5t-17.5 182.5q0 86 19.5 181t54 184t81.5 164.5t101 121.5q41 35 81 29t60 -29q-43 -71 -76.5 -151.5t-56.5 -164t-35 -168.5t-12 -165q0 -76 7 -154.5t26.5 -160.5t55.5 -166 t93 -170z" />
<glyph unicode=")" horiz-adv-x="532" d="M450 512q0 -89 -17.5 -182.5t-50.5 -180.5t-81 -161t-109 -125q-15 -14 -36 -21.5t-42 -7.5t-38 7t-25 22q57 85 92.5 169.5t55.5 166t27 161t7 154.5q0 162 -46 333q-23 87 -56 165.5t-78 150.5q23 23 62 29q40 6 81 -29q55 -46 101.5 -121.5t80.5 -164.5t53 -184 t19 -181z" />
<glyph unicode="*" horiz-adv-x="729" d="M616 1085q28 -36 31 -79t-34 -82l-200 51l149 -160q-20 -47 -59 -64.5t-80 -5.5l-61 203l-70 -207q-29 -2 -49.5 2.5t-36.5 14t-28.5 23.5t-24.5 32l155 162l-198 -45q-29 35 -29 76t27 79l200 -51l-155 162q20 42 56.5 59t84.5 11l68 -207l61 209q55 6 89 -16.5 t50 -57.5l-149 -160z" />
<glyph unicode="+" horiz-adv-x="587" d="M368 453v-181q-11 -11 -31 -15t-42.5 -3t-43.5 5.5t-33 12.5v181h-174q-9 13 -12.5 34t-3.5 43t4 42t12 31h174v184q11 9 31 14t42.5 5t43 -5t33.5 -14v-184h170q9 -11 13.5 -30.5t4.5 -42t-4.5 -43.5t-13.5 -34h-170z" />
<glyph unicode="," horiz-adv-x="344" d="M262 63q-18 -47 -45 -96.5t-57 -94.5t-60 -80.5t-53 -53.5q-10 6 -19 22t-16 35.5t-10.5 40t-1.5 35.5q10 21 26 64.5t32.5 96.5t31 107.5t21.5 98.5q25 -2 51 -18.5t47.5 -41.5t36 -55t16.5 -60z" />
<glyph unicode="-" horiz-adv-x="587" d="M67 446q-7 11 -12 33.5t-5.5 47.5t3 48t14.5 35h453q11 -13 16 -36t4.5 -47.5t-5.5 -46.5t-15 -34h-453z" />
<glyph unicode="." horiz-adv-x="358" d="M286 96q0 -53 -38 -91t-91 -38q-52 0 -90 38q-37 37 -37 91t37 90q37 37 90 37q54 0 91 -37q38 -36 38 -90z" />
<glyph unicode="/" horiz-adv-x="690" d="M176 20q-14 -11 -36.5 -16t-46 -4.5t-44 6t-29.5 14.5l494 1022q13 12 35 18.5t45.5 6.5t44 -6t30.5 -19z" />
<glyph unicode="0" horiz-adv-x="937" d="M855 532q0 -123 -23 -225.5t-70.5 -177t-120.5 -115.5t-173 -41q-99 0 -172 41t-121 115t-71 177.5t-23 228.5q0 119 22.5 221t69.5 177t120 118t175 43q105 0 178.5 -41t120 -115t67.5 -177.5t21 -228.5zM597 535q0 109 -10.5 183.5t-28.5 119.5t-41.5 64.5t-48.5 19.5 q-26 0 -49 -17.5t-41 -61.5t-28.5 -119.5t-10.5 -191.5q0 -122 11.5 -198t30 -118t41.5 -56.5t46 -14.5q24 0 47 17.5t41 61.5t29.5 119.5t11.5 191.5z" />
<glyph unicode="1" horiz-adv-x="937" d="M761 41q-16 -30 -51 -44.5t-75 -14t-76 15.5t-54 43v809q-19 -45 -57 -100t-84 -106t-96 -90.5t-93 -53.5q-20 12 -32.5 35.5t-16 51t2 54.5t22.5 45q29 14 62.5 38t68 53.5t67.5 62.5t62 66t52 63.5t36 54.5q9 17 30.5 29t48.5 18.5t56.5 7t55 -5.5t45 -18t26.5 -31 v-983z" />
<glyph unicode="2" horiz-adv-x="937" d="M837 707q0 -153 -104 -296q-104 -141 -290 -235h355q18 -16 26 -42t7.5 -52t-9 -49t-24.5 -33h-649q-14 0 -25 10t-19 24.5t-12 29.5t-4 26q-2 20 19 48q23 30 47 46q46 29 95.5 59.5t96.5 64t88.5 72t73 85t49 101.5t17.5 122q0 111 -62 167t-145 56q-66 0 -125.5 -31 t-95.5 -94q-29 15 -44 36t-19 44t1 45t16 39q91 133 332 133q101 0 177 -32t126.5 -84.5t75.5 -120.5t25 -139z" />
<glyph unicode="3" horiz-adv-x="937" d="M848 291q0 -74 -29 -131.5t-80.5 -96.5t-122.5 -59t-155 -20q-48 0 -101 6.5t-101.5 20t-88.5 35t-64 52.5q-12 19 -16 42.5t1 46.5t20 42.5t41 30.5q15 -23 37.5 -42.5t51 -34t61.5 -23t69 -8.5q41 0 81.5 10t73 31t52.5 53.5t20 77.5q0 35 -16 63.5t-43.5 49t-63 31.5 t-74.5 11h-77q-21 12 -31.5 33t-10.5 44t10.5 44t31.5 33h77q35 0 69 9.5t60.5 27.5t43 44t16.5 60q0 32 -13.5 59t-39 47t-62.5 31t-84 11q-81 0 -138.5 -35t-90.5 -86q-35 12 -50 33t-17 44.5t5 46t17 38.5q22 30 61 53.5t86 39t98.5 23.5t98.5 8q186 0 284 -74 q99 -74 99 -188q0 -53 -20.5 -99t-53.5 -81t-74.5 -58.5t-83.5 -31.5q38 -10 80 -29t76.5 -50.5t57 -77t22.5 -107.5z" />
<glyph unicode="4" horiz-adv-x="937" d="M782 188v-159q-17 -24 -52 -35.5t-73 -11.5t-71 12t-45 35v159h-424q-31 0 -48 19t-21 46.5t3.5 57.5t26.5 51q43 50 92.5 124t96.5 162.5t86.5 185.5t62.5 194q9 19 31 31t50 18t58.5 5.5t56.5 -7t43.5 -18.5t20.5 -29q-8 -55 -30 -117.5t-53.5 -126t-70 -126 t-80.5 -119t-84.5 -103.5t-81.5 -80h265v199q18 30 51.5 43.5t69.5 12.5t69 -15t51 -41v-199h70q19 -15 29 -38t10 -47t-10 -46.5t-29 -36.5h-70z" />
<glyph unicode="5" horiz-adv-x="937" d="M850 348q0 -95 -34.5 -164t-92 -113.5t-132.5 -65.5t-155 -21q-48 0 -96.5 6.5t-92.5 20t-80.5 35t-60.5 52.5q-10 17 -14 40.5t0 47t18 44t41 30.5q46 -63 107 -85.5t127 -22.5q41 0 80 12t69 36.5t48 61t18 86.5q0 85 -63 141q-62 56 -160 56q-52 0 -113 -23 q-59 -23 -90 -55q-16 -16 -38 -11t-17 31l68 413l22 132q4 17 10 26t29 9h510q22 -11 32.5 -36t10 -52.5t-11 -53.5t-31.5 -38h-320l-35 -205q33 14 82 14q68 0 133.5 -22t117 -65.5t83 -109t31.5 -151.5z" />
<glyph unicode="6" horiz-adv-x="937" d="M855 352q0 -174 -103 -276q-103 -101 -274 -101q-78 0 -149 22.5t-126 70t-87.5 121.5t-32.5 178v266q0 109 34.5 194t91.5 142.5t129.5 87.5t147.5 30q117 0 192 -30.5t122 -93.5q28 -40 20 -91q-7 -48 -65 -71q-42 54 -94.5 84t-124.5 30q-91 0 -152 -72 q-61 -70 -61 -194v-45q16 21 38.5 38t49 29.5t55.5 19.5t59 7q64 0 123.5 -20.5t105.5 -62.5t73.5 -107.5t27.5 -155.5zM620 334q0 94 -40 148.5t-106 54.5q-59 0 -105 -55q-46 -53 -46 -148q0 -93 46 -142t105 -49t103 53q43 53 43 138z" />
<glyph unicode="7" horiz-adv-x="937" d="M860 909q-45 -53 -88 -120t-80.5 -141.5t-68.5 -155t-53 -160.5t-34 -157.5t-12 -145.5q-14 -25 -51 -37.5t-78.5 -12.5t-77 12.5t-47.5 37.5q0 85 27 204q14 60 33 120t44 121t54 119t61 113q66 111 139 181h-530q-21 13 -32 39t-11.5 54t10.5 52.5t33 34.5h684 q40 0 62.5 -18.5t30.5 -44t3.5 -52t-18.5 -43.5z" />
<glyph unicode="8" horiz-adv-x="937" d="M874 293q0 -81 -31.5 -140t-85.5 -98q-55 -42 -128 -60t-158 -18q-87 0 -162.5 21t-132.5 63q-54 39 -83.5 96.5t-29.5 135.5q0 62 31 118q31 57 82 93q58 43 129 57q-78 21 -131 68q-42 35 -67.5 76.5t-25.5 95.5q0 69 24 119.5t64 85.5q57 48 132.5 66t169.5 18 q85 0 156.5 -16t125.5 -58q48 -35 75.5 -87t27.5 -128q0 -60 -26 -103t-71 -77q-51 -44 -121 -60q43 -10 78 -27.5t64 -39.5q42 -35 68 -88t26 -113zM622 788q0 28 -18 69q-16 40 -58 63q-16 10 -34.5 15t-42.5 5q-25 0 -43.5 -5t-34.5 -15q-42 -26 -59 -64q-17 -40 -17 -68 q0 -29 16 -70t60 -67q16 -10 34.5 -15t43.5 -5q40 0 75 20q45 25 61 67q17 43 17 70zM628 305q0 19 -3.5 42t-12 46.5t-23.5 45t-39 38.5q-35 23 -81 23q-54 0 -82 -21q-24 -15 -39 -37.5t-24 -46.5t-12 -47.5t-3 -42.5q0 -35 15 -83t58 -79q33 -24 87 -24q53 0 88 24 q44 32 57 79q14 50 14 83z" />
<glyph unicode="9" horiz-adv-x="937" d="M855 428q0 -111 -35 -195.5t-92 -142.5t-129 -87.5t-147 -29.5q-119 0 -193 31t-121 94q-30 40 -22 90q7 49 67 72q39 -54 93 -84.5t126 -30.5q89 0 151 72q62 73 62 195v45q-17 -21 -40 -38t-49.5 -30t-55.5 -20t-57 -7q-64 0 -123.5 20t-105.5 62.5t-73.5 108 t-27.5 156.5q0 174 101 275q103 101 276 101q76 0 147.5 -22.5t126.5 -70t88 -121.5t33 -177v-266zM615 727q0 92 -46 141q-47 50 -105 50q-62 0 -104 -54q-41 -53 -41 -137q0 -94 39.5 -148.5t105.5 -54.5q57 0 104 54q47 56 47 149z" />
<glyph unicode=":" horiz-adv-x="399" d="M296 725q0 -52 -38 -90q-37 -37 -91 -37q-53 0 -90 37t-37 90t37 90t90 37q54 0 91 -37q38 -38 38 -90zM296 96q0 -53 -38 -91t-91 -38q-52 0 -90 38q-37 37 -37 91t37 90q37 37 90 37q54 0 91 -37q38 -36 38 -90z" />
<glyph unicode=";" horiz-adv-x="415" d="M312 725q0 -53 -37 -90q-36 -37 -90 -37q-53 0 -90 37t-37 90t37 90t90 37q54 0 90 -37q37 -37 37 -90zM302 63q-18 -47 -45 -96.5t-57 -94.5t-60 -80.5t-53 -53.5q-10 6 -19 22t-16 35.5t-10.5 40t-1.5 35.5q10 21 26 64.5t32.5 96.5t31 107.5t21.5 98.5q25 -2 51 -18.5 t47.5 -41.5t36 -55t16.5 -60z" />
<glyph unicode="&#x3c;" horiz-adv-x="587" d="M512 319q6 -24 3.5 -50.5t-10.5 -50t-20.5 -42.5t-26.5 -29l-344 240q-39 27 -48 64t-9 67q0 33 10 70q11 40 47 65l344 248q33 -17 48 -67q17 -50 6 -103l-346 -207z" />
<glyph unicode="=" horiz-adv-x="587" d="M67 610q-7 11 -12 33.5t-5.5 47.5t3 48t14.5 35h453q11 -13 16 -36t4.5 -47.5t-5.5 -46.5t-15 -34h-453zM67 283q-7 11 -12 33t-5.5 47t3.5 48.5t14 35.5h453q11 -13 16 -36t4.5 -48t-5.5 -47t-15 -33h-453z" />
<glyph unicode="&#x3e;" horiz-adv-x="587" d="M524 518q0 -30 -9 -67t-48 -64l-344 -240q-29 21 -50 71q-20 51 -4 101l346 205l-346 207q-6 18 -5 44t8 51.5t20 46t31 28.5l344 -248q36 -25 47 -65q10 -37 10 -70z" />
<glyph unicode="?" horiz-adv-x="933" d="M790 905q0 -111 -45 -184q-45 -74 -133 -141q-31 -25 -64 -52.5t-60 -58.5t-44 -67.5t-17 -79.5q-16 -27 -52 -28q-35 -1 -54 28q-6 34 -4.5 76t12.5 84.5t33 82t57 68.5q55 48 87 108.5t32 135.5q0 28 -7 56t-21.5 50.5t-37 36.5t-53.5 14q-34 0 -57.5 -14.5 t-37.5 -38.5t-20.5 -54t-5.5 -60t7.5 -57.5t17.5 -45.5q-41 -29 -79.5 -29t-70 14.5t-52.5 37t-27 38.5q-23 64 -7.5 130.5t62.5 120.5t122 88t171 34q71 0 134.5 -21t111 -59.5t75 -92.5t27.5 -120zM503 96q0 -54 -37 -91q-38 -38 -90 -38q-53 0 -91 38t-38 91q0 54 38 90 q37 37 91 37q53 0 90 -37q37 -36 37 -90z" />
<glyph unicode="@" horiz-adv-x="1987" d="M1793 739q0 -240 -119 -390q-108 -135 -252 -135q-177 0 -250 121q-36 -74 -80 -99q-49 -29 -153 -29q-147 0 -232 105q-83 102 -83 268q0 443 423 443q160 0 251 -20q58 -13 58 -51v-547q0 -64 68 -64q154 0 154 325q0 335 -157 463q-128 105 -421 105q-322 0 -444 -134 q-125 -137 -125 -502q0 -327 152 -469q135 -127 420 -127q303 0 481 95q20 10 40 3q23 -8 23 -36v-61q0 -39 -41 -64q-208 -125 -499 -125q-802 0 -802 773q0 424 203 627q198 198 601 198q331 0 526 -128q258 -168 258 -545zM1150 490v400q-1 -2 -7 -2q-43 5 -65 5 q-99 0 -145 -29q-97 -62 -97 -270q0 -142 31 -194q32 -55 122 -55q65 0 111 37q50 40 50 108z" />
<glyph unicode="A" horiz-adv-x="1187" d="M1163 51q7 -20 7 -29q0 -22 -41 -22h-154q-50 0 -66 55l-75 243h-474l-74 -243q-16 -55 -66 -55h-157q-41 0 -41 22q0 9 7 29l396 1212q16 49 64 49h212q48 0 65 -49zM780 489l-184 601l-186 -601h370z" />
<glyph unicode="B" horiz-adv-x="1226" d="M1136 345q0 -345 -414 -345h-536q-49 0 -49 47v1220q0 45 49 45h535q325 0 325 -321v-41q0 -174 -165 -241q129 -15 188 -84q67 -79 67 -250v-30zM816 945q0 106 -22 134q-25 31 -119 31h-305v-328h303q98 0 122 32q21 27 21 131zM896 386q0 114 -29 157q-33 46 -124 46 h-373v-385h373q103 0 132 45q21 32 21 137z" />
<glyph unicode="C" horiz-adv-x="1159" d="M1070 81q0 -44 -55 -58q-145 -34 -356 -34q-303 0 -427 132q-73 79 -104 192q-32 121 -32 342q0 271 42 395q37 113 142 187q121 87 379 87q165 0 347 -36q64 -13 64 -63v-96q0 -44 -75 -38q-128 11 -291 11q-186 0 -258 -37q-98 -50 -98 -200v-401q0 -152 84 -206 q68 -44 244 -44q231 0 325 5q38 3 49 -1q20 -7 20 -40v-97z" />
<glyph unicode="D" horiz-adv-x="1307" d="M1197 655q0 -219 -33 -339q-30 -109 -104 -188q-120 -128 -400 -128h-474q-49 0 -49 58v1202q0 52 52 52h445q274 0 379 -74.5t143 -187.5q41 -124 41 -395zM944 464v388q0 157 -72 212q-62 47 -229 47h-265v-906h278q164 0 222 47q66 54 66 212z" />
<glyph unicode="E" horiz-adv-x="1148" d="M1062 50q0 -50 -49 -50h-827q-49 0 -49 47v1220q0 46 49 46h827q49 0 49 -49v-102q0 -52 -49 -52h-638v-328h579q50 0 50 -50v-100q0 -52 -50 -52h-579v-373h638q49 0 49 -53v-104z" />
<glyph unicode="F" horiz-adv-x="1071" d="M1002 1162q0 -52 -49 -52h-579v-328h521q49 0 49 -50v-100q0 -52 -49 -52h-521v-530q0 -50 -47 -50h-141q-49 0 -49 47v1220q0 46 49 46h767q49 0 49 -49v-102z" />
<glyph unicode="G" horiz-adv-x="1309" d="M1181 88q0 -37 -72 -55q-202 -48 -438 -48q-337 0 -455 127q-106 116 -106 340v370q0 245 113 364q128 134 420 134q265 0 471 -39q50 -10 50 -48v-96q0 -48 -58 -46q-257 9 -477 9q-168 0 -226 -55q-44 -43 -44 -149v-475q0 -133 42 -175q48 -48 202 -48q266 0 345 5 v340h-4h-276q-58 0 -58 49v110q0 49 55 49h445q45 0 58 -17.5t13 -62.5v-583z" />
<glyph unicode="H" horiz-adv-x="1329" d="M1192 58q0 -58 -52 -58h-140q-50 0 -50 58v522h-572v-522q0 -58 -52 -58h-140q-49 0 -49 58v1202q0 52 52 52h140q49 0 49 -55v-475h572v478q0 52 52 52h140q50 0 50 -55v-1199z" />
<glyph unicode="I" horiz-adv-x="514" d="M377 49q0 -49 -43 -49h-157q-40 0 -40 49v1220q0 43 43 43h157q40 0 40 -45v-1218z" />
<glyph unicode="J" horiz-adv-x="521" d="M384 131q0 -230 -135 -340q-106 -88 -277 -88q-155 0 -168 59q-1 9 -1 23v93q0 39 57 36q43 -3 79 -3q112 0 159 42q51 47 51 164v1143q0 53 49 53h137q49 0 49 -46v-1136z" />
<glyph unicode="K" horiz-adv-x="1216" d="M1137 113l52 -61q13 -15 13 -27q0 -25 -38 -25h-193q-43 0 -81 46l-481 576q-18 22 -18 43q0 23 20 49l450 569q23 29 79 29h165q41 0 41 -29q0 -12 -9 -23l-479 -586zM378 58q0 -58 -52 -58h-140q-49 0 -49 58v1202q0 52 52 52h140q49 0 49 -55v-1199z" />
<glyph unicode="L" horiz-adv-x="1020" d="M972 50q0 -50 -49 -50h-737q-49 0 -49 47v1220q0 46 49 46h139q49 0 49 -52v-1054h549q49 0 49 -53v-104z" />
<glyph unicode="M" horiz-adv-x="1646" d="M1509 58q0 -58 -52 -58h-135q-50 0 -50 58v867l12 194l-342 -1068q-15 -50 -65 -50h-112q-49 0 -65 50l-337 1066l11 -203v-856q0 -58 -52 -58h-136q-49 0 -49 58v1202q0 52 52 52h273q50 0 66 -54l293 -961l297 961q17 54 67 54h275q49 0 49 -55v-1199z" />
<glyph unicode="N" horiz-adv-x="1329" d="M1192 58q0 -58 -52 -58h-159q-44 0 -75 54l-541 949l13 -145v-800q0 -58 -52 -58h-140q-49 0 -49 58v1202q0 52 52 52h179q41 0 70 -50l525 -916l-13 155v759q0 52 52 52h140q50 0 50 -55v-1199z" />
<glyph unicode="O" horiz-adv-x="1390" d="M1287 678q0 -346 -113 -503q-141 -195 -477 -195h-3q-182 0 -291 38q-125 44 -199 150q-103 148 -103 484q0 331 83 467q72 116 195 167q118 49 315 49h3q200 0 316 -45q122 -48 191 -160q83 -134 83 -452zM1043 538v240q0 202 -73 276q-63 65 -222 65h-124 q-149 0 -210 -67q-66 -73 -66 -263v-254q0 -185 68 -263t230 -78h102q154 0 222 75q73 80 73 269z" />
<glyph unicode="P" horiz-adv-x="1158" d="M1082 886q0 -364 -414 -364h-184q-23 0 -106 23v-487q0 -58 -52 -58h-140q-49 0 -49 58v1202q0 52 52 52h544q153 0 248 -93q101 -99 101 -273v-60zM842 918q0 103 -19 138q-29 54 -126 54h-319v-389h317q98 0 124 40q23 34 23 157z" />
<glyph unicode="Q" horiz-adv-x="1406" d="M1373 -98q11 -14 11 -27q0 -26 -37 -24h-180q-45 2 -84 58l-96 139q-113 -69 -289 -69h-3q-182 0 -291 38q-125 44 -199 150q-104 148 -104 484q0 332 84 468q71 116 194 167q119 49 316 49h3q200 0 316 -45q122 -48 192 -160q83 -135 83 -453q0 -177 -17 -265 q-28 -143 -116 -234zM1044 524v267q0 200 -72 269q-61 58 -223 58h-124q-152 0 -210 -60q-66 -68 -66 -256v-281q0 -184 67 -256t231 -72h88q109 0 139 10l-139 194q-16 22 -16 39q0 22 29 22l159 -1q41 0 66 -34l49 -66q22 70 22 167z" />
<glyph unicode="R" horiz-adv-x="1192" d="M1155 51q11 -14 11 -27q0 -24 -37 -24h-190q-49 0 -81 46l-340 481q-95 0 -109.5 3t-30.5 11v-483q0 -58 -52 -58h-140q-49 0 -49 58v1202q0 52 52 52h545q155 0 248 -86q101 -93 101 -267v-73q0 -301 -310 -349zM843 918q0 103 -19 138q-29 54 -126 54h-320v-375h318 q96 0 125 42q22 33 22 141z" />
<glyph unicode="S" horiz-adv-x="1167" d="M1071 379q0 -220 -128 -312q-115 -83 -426 -83q-115 0 -324 41q-64 13 -64 64v89q0 44 75 38q187 -15 345 -15q180 0 222 23q47 24 47 124v71q0 123 -61 151q-29 14 -168 14h-115q-207 0 -295 91q-76 80 -76 272q0 89 16 143q29 101 116 163q99 71 341 71q205 0 334 -25 q64 -13 64 -64v-93q0 -36 -46 -38h-29q-27 0 -141 2q-119 1 -173 1q-160 0 -197.5 -21t-37.5 -113v-25q0 -68 4.5 -94.5t17.5 -39.5q32 -33 179 -32h71q254 0 354 -97q95 -92 95 -306z" />
<glyph unicode="T" horiz-adv-x="1083" d="M1037 1159q0 -52 -49 -52h-328v-1060q0 -47 -49 -47h-139q-50 0 -50 52v1055h-325q-49 0 -49 52v105q0 49 49 49h891q49 0 49 -49v-105z" />
<glyph unicode="U" horiz-adv-x="1328" d="M1191 410q0 -214 -113 -312q-123 -108 -409 -108q-292 0 -417 107q-115 99 -115 313v845q0 58 49 58h140q52 0 52 -58v-858q0 -110 39 -143q55 -48 247 -48q194 0 248 47q37 33 37 144v858q0 58 52 58h140q50 0 50 -58v-845z" />
<glyph unicode="V" horiz-adv-x="1219" d="M1178 1257l-393 -1207q-16 -49 -65 -49h-228q-49 0 -65 49l-384 1207q-6 18 -6 28q0 28 43 28h147q59 0 73 -49l309 -1079l314 1086q12 42 69 42h147q44 0 44 -30q0 -10 -5 -26z" />
<glyph unicode="W" horiz-adv-x="1880" d="M1839 1257l-279 -1206q-11 -50 -65 -50h-233q-52 0 -65 50l-255 982l-255 -982q-13 -50 -65 -50h-237q-54 0 -65 50l-279 1208q-14 61 39 61h151q52 0 62 -47l229 -1078l277 1069q9 35 26 47q12 9 34 9h166q45 0 61 -61l279 -1063l221 1077q10 47 73 47h141q53 0 39 -63z " />
<glyph unicode="X" horiz-adv-x="1306" d="M1265 63q17 -23 17 -38q0 -25 -38 -25h-179q-43 0 -81 52l-332 455l-330 -455q-37 -52 -81 -52h-180q-38 0 -38 25q0 15 17 38l469 628l-377 512q-46 62 -46 78q0 32 45 32h166q49 0 79 -42l278 -390l273 387q32 45 82 45h166q40 0 40 -36q0 -20 -41 -74l-375 -508z" />
<glyph unicode="Y" horiz-adv-x="1080" d="M1005 1209l-345 -588v-563q0 -58 -52 -58h-139q-50 0 -50 58v566l-344 585q-35 56 -35 72q0 32 41 32h173q51 0 72 -42l213 -421l217 423q21 40 70 40h173q43 0 43 -30q0 -15 -37 -74z" />
<glyph unicode="Z" horiz-adv-x="1082" d="M1054 52q0 -52 -49 -52h-924q-53 0 -53 54q0 24 18 50l78 124l550 879h-545q-49 0 -49 52v105q0 49 49 49h836q53 0 53 -49q0 -23 -14 -45l-636 -1005h637q49 0 49 -50v-112z" />
<glyph unicode="[" horiz-adv-x="720" d="M194 -410q-43 0 -62.5 28t-19.5 89v1698q0 119 82 119h453q11 -9 16.5 -31t5.5 -47t-5.5 -47.5t-16.5 -30.5h-277q-22 0 -22 -39v-1544q0 -39 22 -39h277q12 -8 17.5 -30.5t5 -47.5t-6.5 -47.5t-16 -30.5h-453z" />
<glyph unicode="\" horiz-adv-x="871" d="M827 -105q8 -19 8 -34q0 -37 -44 -37h-110q-51 0 -74 59l-579 1491q-8 21 -8 35q0 34 41 34h112q51 0 69 -46z" />
<glyph unicode="]" horiz-adv-x="720" d="M608 -293q0 -61 -19.5 -89t-62.5 -28h-452q-11 8 -17 30.5t-6.5 48t5.5 47.5t18 30h276q23 0 23 39v1544q0 39 -23 39h-276q-12 8 -17.5 30.5t-5.5 47.5t5.5 47t17.5 31h452q82 0 82 -119v-1698z" />
<glyph unicode="^" horiz-adv-x="1071" d="M1010 646h-244l-211 485h-35l-215 -485h-244l318 692h317z" />
<glyph unicode="_" horiz-adv-x="884" d="M865 -101q0 -41 -52 -41h-739q-50 0 -50 41v60q0 41 50 41h739q52 0 52 -41v-60z" />
<glyph unicode="a" horiz-adv-x="993" d="M968 69q0 -28 -39 -41l-57 -18q-50 -16 -83 -16q-57 0 -123 107q-37 -65 -65 -85q-40 -28 -132 -28h-100q-288 0 -288 294v32q0 297 300 297h92q102 0 153 -69h13v122q0 80 -42 111t-158 31q-39 0 -235 -16q-48 -4 -48 21v118q0 31 42 40q156 30 274 30q193 0 270 -63 q120 -98 120 -286v-379q0 -73 53 -91l22 -7q31 -10 31 -36v-68zM638 264v88q0 85 -132 85h-79q-70 0 -99 -23t-29 -85v-41q0 -63 28 -86q25 -23 90 -23h86q135 0 135 85z" />
<glyph unicode="b" horiz-adv-x="1024" d="M928 345q0 -355 -376 -355h-102q-213 0 -292 40q-41 21 -41 58v1289q0 36 30 36h169q30 0 30 -36v-469q46 54 69 66q39 20 130 20h61q322 0 322 -355v-294zM702 332v320q0 157 -147 157h-92q-75 0 -95 -14q-26 -18 -26 -61v-520q0 -31 129 -31h84q147 0 147 149z" />
<glyph unicode="c" horiz-adv-x="881" d="M801 55q0 -27 -35 -35q-119 -28 -262 -28q-231 0 -319 93q-105 112 -105 410q0 197 35 298q32 90 108 144q88 62 281 62q121 0 255 -26q42 -8 42 -39v-123q0 -25 -48 -21q-143 12 -221 12q-123 0 -163 -28q-56 -37 -56 -159v-237q0 -123 44 -158q35 -28 155 -28 q166 0 245 4q44 3 44 -23v-118z" />
<glyph unicode="d" horiz-adv-x="1035" d="M1015 69q0 -28 -39 -41l-57 -18q-50 -16 -83 -16q-54 0 -119 107q-72 -101 -237 -101h-43q-342 0 -342 345v309q0 340 347 340h36q125 0 199 -86v469q0 36 30 36h169q30 0 30 -36v-1106q0 -72 57 -91l21 -7q31 -10 31 -36v-68zM681 283v451q0 43 -26 61q-20 14 -76 14 h-111q-147 0 -147 -167v-261q0 -187 161 -187h70q65 0 103 20q26 13 26 69z" />
<glyph unicode="e" horiz-adv-x="983" d="M886 431q0 -35 -41 -35h-517v-53q0 -92 38 -123t155 -31q118 0 284 9q43 3 43 -31v-104q0 -27 -35 -35q-152 -36 -304 -36q-227 0 -314 93q-98 104 -98 410q0 200 32 300q29 94 104 146q83 60 260 60q179 0 263 -60q73 -51 101.5 -129t28.5 -229v-152zM658 684 q0 76 -31 100.5t-134 24.5q-109 0 -140 -33q-25 -25 -25 -106v-105h330v119z" />
<glyph unicode="f" horiz-adv-x="650" d="M625 1252q0 -21 -35 -19q-32 2 -114 2q-101 0 -101 -106q0 -13 2 -29l15 -126h186q29 0 29 -27v-127q0 -32 -29 -32h-178v-757q0 -31 -30 -31h-166q-29 0 -29 27v761h-101q-29 0 -29 27v108q0 19 30 31l48 20q46 19 46 60v81q0 298 258 298q102 0 173 -23q25 -8 25 -37 v-101z" />
<glyph unicode="g" horiz-adv-x="1030" d="M913 -41q0 -189 -114 -283q-99 -80 -299 -80q-188 0 -296 36q-41 14 -41 40v94q0 37 48 30q146 -20 264 -20q222 0 222 164q0 16 -2 33l-11 116q-40 -47 -78 -64q-43 -19 -121 -19h-50q-332 0 -332 348v240q0 405 372 405h107q150 0 263 -13q68 -8 68 -66v-961zM689 283 v488q0 32 -54 37q1 0 -75 0h-75q-157 0 -157 -178v-255q0 -94 28 -136q33 -51 119 -51h62q152 0 152 95z" />
<glyph unicode="h" horiz-adv-x="1079" d="M963 35q0 -35 -31 -35h-171q-30 0 -30 35v617q0 81 -19 110q-29 47 -127 47h-67q-66 0 -93 -9q-49 -17 -49 -71v-694q0 -35 -30 -35h-164q-30 0 -30 35v1342q0 36 30 36h169q30 0 30 -36v-453q60 70 184 70h104q294 0 294 -323v-636z" />
<glyph unicode="i" horiz-adv-x="460" d="M343 1178q0 -31 -30 -31h-166q-29 0 -29 27v157q0 31 29 31h166q30 0 30 -27v-157zM342 31q0 -31 -29 -31h-167q-29 0 -29 27v924q0 32 30 32h166q29 0 29 -27v-925z" />
<glyph unicode="j" horiz-adv-x="494" d="M377 1178q0 -31 -29 -31h-167q-29 0 -29 27v157q0 31 30 31h166q29 0 29 -27v-157zM377 19q0 -163 -93 -239q-71 -58 -179 -58q-72 0 -143 22q-25 8 -25 38v101q0 21 35 19q32 -2 50 -2q74 0 102 27t28 107v917q0 32 30 32h166q29 0 29 -27v-937z" />
<glyph unicode="k" horiz-adv-x="970" d="M916 104l55 -71q26 -33 -13 -33h-221q-24 0 -48 33l-329 452q-25 33 1 68l304 404q19 26 54 26h192q15 0 18 -16q3 -15 -6 -27l-331 -414zM342 31q0 -31 -29 -31h-167q-29 0 -29 27v1354q0 32 30 32h166q29 0 29 -27v-1355z" />
<glyph unicode="l" horiz-adv-x="482" d="M462 59q0 -30 -39 -41l-58 -15q-49 -13 -92 -13q-78 0 -120 61q-36 53 -36 136v1190q0 36 30 36h169q30 0 30 -36v-1134q0 -58 53 -70l31 -7q32 -7 32 -39v-68z" />
<glyph unicode="m" horiz-adv-x="1579" d="M1461 35q0 -35 -30 -35h-172q-30 0 -30 35v600q0 101 -41 139q-35 33 -117 33h-49q-80 0 -98.5 -19.5t-18.5 -86.5v-666q0 -35 -30 -35h-171q-31 0 -31 35v600q0 100 -44 139q-37 33 -123 33h-35q-122 0 -122 -35v-737q0 -35 -31 -35h-171q-30 0 -30 35v880q0 47 41 57 q133 34 274 34h54q125 0 190 -27t118 -102q60 69 96 92q56 35 145 35h97q329 0 329 -324v-645z" />
<glyph unicode="n" horiz-adv-x="1052" d="M952 35q0 -35 -30 -35h-171q-31 0 -31 35v585q0 106 -39 146.5t-137 40.5h-82q-112 0 -112 -35v-737q0 -35 -31 -35h-171q-30 0 -30 35v874q0 53 44 64q125 32 338 32h64q388 0 388 -339v-631z" />
<glyph unicode="o" horiz-adv-x="1015" d="M935 511q0 -272 -82 -385q-102 -140 -346 -140h-2q-261 0 -355 135q-75 107 -75 372q0 261 60 359q96 156 370 156h2q276 0 368 -148q60 -97 60 -349zM702 407v164q0 156 -37 199q-33 40 -150 40h-33q-109 0 -140.5 -42t-31.5 -188v-175q0 -141 33 -181q35 -43 156 -43 h16q116 0 151.5 41.5t35.5 184.5z" />
<glyph unicode="p" horiz-adv-x="1024" d="M928 370q0 -179 -95 -277.5t-262 -98.5h-51q-107 0 -174 79v-470q0 -36 -30 -36h-169q-30 0 -30 36v1298q0 37 41 58q79 40 292 40h101q168 0 265 -79q112 -89 112 -266v-284zM702 371v242q0 192 -172 192h-89q-100 0 -100 -31v-489q0 -46 37 -77q33 -28 76 -28h86 q162 0 162 191z" />
<glyph unicode="q" horiz-adv-x="1033" d="M906 918v-1315q0 -36 -30 -36h-169q-30 0 -30 36v488q-74 -86 -179 -86h-95q-145 0 -226.5 90.5t-81.5 255.5v253q0 395 383 395h117q123 0 243 -15q68 -8 68 -66zM682 771q0 32 -48 38q4 -1 -71 -1h-75q-167 0 -167 -178v-263q0 -177 137 -177h101q122 0 122 95z" />
<glyph unicode="r" horiz-adv-x="699" d="M666 946l-4 -155q-1 -36 -30 -22q-86 44 -141 44q-108 0 -130 -21q-16 -15 -16 -56v-702q0 -34 -29 -34h-173q-29 0 -29 34v663q0 151 82 219q106 88 275 88q132 0 170 -20q25 -12 25 -38z" />
<glyph unicode="s" horiz-adv-x="885" d="M804 292q0 -164 -111 -244q-83 -59 -296 -59q-94 0 -248 30q-42 8 -42 39v101q0 35 48 31q101 -8 221 -8q108 0 129 5q70 16 70 87v36q0 88 -43 102q-26 9 -87 9h-80q-143 0 -212 72q-59 61 -59 226q0 154 101 226q77 54 248 54q153 0 248 -18q41 -8 41 -40v-97 q0 -31 -47 -31h-125h-147q-68 0 -88 -26q-13 -18 -13 -73v-32q0 -50 27 -67q20 -14 73 -14h47q195 0 267 -69q78 -75 78 -240z" />
<glyph unicode="t" horiz-adv-x="660" d="M175 1212q0 27 29 27h166q30 0 30 -31v-234h173q30 0 30 -31v-128q0 -27 -29 -27h-174v-491q0 -69 11 -94q18 -40 75 -40t89 2q35 2 35 -23v-97q0 -29 -25 -37q-71 -23 -158 -23q-252 0 -252 273v530h-101q-29 0 -29 27v108q0 24 30 31l48 12q52 13 52 60v186z" />
<glyph unicode="u" horiz-adv-x="1072" d="M1040 69q0 -28 -39 -41l-57 -18q-51 -16 -83 -16q-57 0 -123 107q-47 -65 -80 -87q-43 -27 -117 -27h-121q-137 0 -215 81q-88 90 -88 268v610q0 36 30 36h172q30 0 30 -36v-594q0 -101 33 -137q29 -30 108 -30h91q122 0 122 85v676q0 36 31 36h171q30 0 30 -36v-668 q0 -81 52 -98l21 -7q32 -10 32 -36v-68z" />
<glyph unicode="v" horiz-adv-x="1023" d="M985 949l-314 -902q-15 -46 -56 -46h-213q-40 0 -56 46l-312 904q-15 42 30 42h163q30 0 39 -30l235 -770h21l233 766q10 34 39 34h166q40 0 25 -44z" />
<glyph unicode="w" horiz-adv-x="1574" d="M1534 944l-218 -897q-11 -46 -58 -46h-232q-41 0 -53 46l-188 705l-188 -705q-13 -46 -55 -46h-234q-44 0 -55 46l-219 895q-12 51 27 51h160q36 0 44 -37l168 -765h16l191 743q10 39 48 39h196q38 0 48 -39l191 -743h17l162 765q8 37 45 37h159q40 0 28 -49z" />
<glyph unicode="x" horiz-adv-x="956" d="M940 40q10 -15 7 -27q-3 -13 -16 -13h-194q-36 0 -64 45l-196 312l-189 -312q-28 -45 -64 -45h-194q-14 0 -17 13q-3 12 7 27l328 477l-302 429q-8 11 -4 28q4 19 18 19h186q26 0 52 -40l182 -286l177 282q27 44 57 44h185q17 0 22 -15q5 -14 -7 -32l-304 -429z" />
<glyph unicode="y" horiz-adv-x="979" d="M939 951l-330 -1086q-55 -181 -150 -247q-72 -51 -207 -51q-75 0 -139 23q-16 6 -16 33v105q0 22 42 19q1 0 33 -3q27 -3 43 -3q79 0 108 15q44 23 66 103l53 188h-85q-42 0 -56 46l-261 854q-14 46 19 46h187q31 0 40 -36l191 -764h17l203 768q8 32 41 32h172 q42 0 29 -42z" />
<glyph unicode="z" horiz-adv-x="839" d="M795 31q0 -31 -29 -31h-698q-24 0 -30 21q-5 19 6 39l71 127l342 608h-368q-29 0 -29 32v125q0 11 2 18q4 11 27 11h662q32 0 32 -29q0 -14 -9 -29l-427 -732h419q24 0 28 -13q1 -6 1 -16v-131z" />
<glyph unicode="{" horiz-adv-x="759" d="M426 -412q-84 0 -149 23.5t-110 66.5t-68.5 101.5t-23.5 129.5q1 34 6 70t17 74l72 232q5 15 6.5 31t1.5 33q0 31 -7.5 63t-22 60.5t-36.5 51.5t-51 37q29 13 51 36t36.5 51t22 60t7.5 63q0 17 -1.5 32.5t-6.5 30.5l-72 223q-13 39 -19.5 76t-6.5 73q0 67 23 124.5 t68 99.5t111 66t152 24h260q10 -9 15 -31t5 -46t-5 -45.5t-15 -29.5h-138q-115 0 -165.5 -50.5t-50.5 -139.5q0 -43 14 -97l67 -250q3 -15 3 -32q0 -33 -12.5 -70t-33 -70t-47 -59.5t-55.5 -38.5q29 -12 56 -41.5t47.5 -67t33 -78.5t12.5 -76q0 -21 -4 -36l-67 -242 q-15 -51 -15 -97q0 -40 12.5 -73.5t38.5 -58t67.5 -38t98.5 -13.5h138q10 -6 15 -27.5t5 -47.5t-5 -48.5t-15 -28.5h-260z" />
<glyph unicode="|" horiz-adv-x="430" d="M317 -389q-4 -7 -19 -12t-35 -7.5t-43 -2.5t-44.5 2t-38.5 7t-25 13v1888q12 12 41.5 19t62.5 7.5t62 -6t39 -20.5v-1888z" />
<glyph unicode="}" horiz-adv-x="759" d="M698 561q-30 -14 -52 -36.5t-36.5 -50.5t-22 -59t-7.5 -62q0 -38 10 -68l69 -232q11 -39 17.5 -74.5t6.5 -70.5q0 -70 -24 -129t-69 -101.5t-109.5 -66t-146.5 -23.5h-263q-10 6 -15 28.5t-5 48.5t5 47.5t15 27.5h138q58 0 99.5 13.5t68 38t39 58t12.5 73.5q1 23 -3.5 47 t-11.5 50l-67 242q-3 8 -4 17.5t-1 20.5q0 35 12.5 75.5t33.5 78t47.5 66.5t54.5 41q-28 12 -54.5 37t-47.5 57.5t-33.5 68.5t-12.5 69q0 10 1 19.5t4 18.5l67 250q7 27 11 52.5t4 48.5q0 42 -13 76t-39.5 58.5t-68 38t-98.5 13.5h-138q-10 8 -15 29.5t-5 45.5t5 46t15 31 h263q85 0 150.5 -23.5t110 -65.5t67.5 -99.5t23 -125.5q0 -35 -7 -72.5t-19 -76.5l-69 -223q-12 -32 -12 -68q0 -31 8 -62t23.5 -59t38 -50t50.5 -34z" />
<glyph unicode="~" horiz-adv-x="1107" d="M1076 641q-41 -172 -119 -246q-69 -65 -161 -65q-88 0 -278.5 75.5t-250.5 75.5q-127 0 -192 -186q-13 -37 -33 -37t-14 37q14 100 73 190q74 113 197 113q82 0 272.5 -72.5t259.5 -72.5q74 0 125 61q39 45 70 127q16 41 37 41q16 0 16 -27q0 -6 -2 -14z" />
<glyph unicode="&#xa2;" horiz-adv-x="874" d="M769 299q-79 -319 -330 -319q-67 0 -137 30l-121 -334h-61l133 365q-143 135 -143 346q0 216 133 334q103 88 233 88q10 0 23 -0.5t30 -1.5l119 328h62l-123 -344q157 -72 157 -175q0 -71 -79 -71q-49 0 -74 33q-12 17 -21 59q-10 55 -16 65l-195 -538q79 -53 140 -53 q110 0 174 73q25 33 69 125zM507 739q-27 11 -51 11q-109 0 -164 -97q-45 -80 -45 -196q0 -117 67 -244z" />
<glyph unicode="&#xa3;" horiz-adv-x="874" d="M836 258q-15 -113 -72 -188q-68 -90 -174 -90q-72 0 -150 45q-15 9 -47 32t-82 60q-68 -137 -159 -137q-46 0 -73.5 31t-27.5 79q0 30 10.5 54.5t29.5 42t45 27t57 9.5q27 0 71 -6q1 6 2 15t2 22v29q0 74 -18 280h-166v82h166q-12 127 -12 170q0 225 159 324 q72 45 158 45q82 0 145 -45q72 -50 72 -129q0 -14 -5.5 -26.5t-15 -23t-21.5 -16.5t-25 -6q-33 0 -54 33q-9 12 -14 69q-4 51 -28.5 74t-73.5 23q-156 0 -156 -240q0 -29 2.5 -68.5t7.5 -91.5l8 -92h221v-82h-221q1 -20 1.5 -34t0.5 -23q0 -148 -53 -307q162 -54 191 -60 q43 -10 88 -10q141 0 180 137zM254 147q-38 23 -72 23q-82 0 -82 -74q0 -67 56 -67q70 0 98 118z" />
<glyph unicode="&#xa7;" horiz-adv-x="874" d="M741 412q0 -179 -188 -293q104 -116 104 -217q0 -103 -69 -173q-68 -71 -172 -71q-83 0 -150 56q-65 56 -65 136q0 15 5.5 28.5t14.5 24t21 17t26 6.5q64 0 64 -76q0 -14 -8 -46q-7 -29 -7 -46q0 -32 37 -51q31 -16 66 -16q58 0 104 43q47 44 47 98q0 109 -176 240 q-122 91 -174 153q-88 100 -88 205q0 175 189 291q-105 117 -105 221q0 101 69 172q70 70 173 70q86 0 151 -54q66 -53 66 -135q0 -77 -68 -77q-67 0 -67 67q0 11 6 40q6 28 6 42q0 80 -94 80q-62 0 -105 -43t-43 -107q0 -55 23 -90q38 -60 129 -125q125 -92 184 -157 q94 -104 94 -213zM655 332q0 119 -192 268q-37 29 -65 52t-48 42q-129 -78 -129 -190q0 -80 66 -158q20 -23 53.5 -51.5t79.5 -63.5q31 -23 56.5 -44.5t47.5 -41.5q131 78 131 187z" />
<glyph unicode="&#xa9;" horiz-adv-x="1335" d="M1274 580q0 -163 -82 -306q-83 -143 -226 -222q-142 -79 -298 -79q-163 0 -306 82q-143 83 -222 224q-79 142 -79 301q0 163 84 307q84 146 226 222q143 77 297 77q161 0 304 -81q144 -81 222 -220q80 -146 80 -305zM1223 580q0 150 -76 280q-77 132 -208 203 q-132 72 -271 72q-148 0 -278 -75t-202 -202q-73 -133 -73 -278q0 -148 74 -279q76 -132 205 -203q131 -71 274 -71q148 0 279 74q129 74 203 205q73 130 73 274zM999 369q-119 -174 -327 -174q-165 0 -281 107q-115 108 -115 273q0 175 127 287q121 109 299 109 q60 0 158 -33q21 -6 31 -6q27 0 43 37h35l16 -238h-33q-62 201 -260 201q-138 0 -215 -107q-59 -85 -59 -225q0 -354 282 -354q169 0 269 139z" />
<glyph unicode="&#xab;" horiz-adv-x="1024" d="M961 -8h-60l-393 473l393 469h60l-244 -469zM508 -8h-57l-388 473l388 469h57l-244 -469z" />
<glyph unicode="&#xad;" horiz-adv-x="587" d="M67 446q-7 11 -12 33.5t-5.5 47.5t3 48t14.5 35h453q11 -13 16 -36t4.5 -47.5t-5.5 -46.5t-15 -34h-453z" />
<glyph unicode="&#xb6;" horiz-adv-x="792" d="M797 1112h-115v-1491h-61v1491h-160v-1491h-62v893q-137 6 -209 31q-108 34 -159 125q-43 74 -43 170q0 189 170 278q84 41 215 41h424v-47z" />
<glyph unicode="&#xb7;" horiz-adv-x="512" d="M367 678q0 -48 -31.5 -79.5t-79.5 -31.5q-45 0 -78 33t-33 78q0 48 31.5 79t79.5 31t79.5 -31t31.5 -79z" />
<glyph unicode="&#xbb;" horiz-adv-x="1024" d="M961 463l-388 -471h-57l244 471l-244 471h57zM516 463l-393 -471h-60l244 471l-244 471h60z" />
<glyph unicode="&#xbc;" horiz-adv-x="1312" d="M1283 123h-92v-158h-100v158h-293v61l319 398h74v-389h92v-70zM1103 1184l-799 -1231h-76l799 1231h76zM405 567h-277v29q74 0 82 18q4 9 4 64v319q0 87 -12 101q-5 4 -17 4q-17 0 -57 -17l-14 23l176 76h28v-506q0 -51 7 -64q10 -18 80 -18v-29zM1091 193v268l-224 -268 h224z" />
<glyph unicode="&#xbd;" horiz-adv-x="1312" d="M1277 96l-53 -131h-422v27q323 251 323 389q0 55 -35.5 89t-89.5 34q-103 0 -141 -101h-39q27 179 207 179q78 0 137 -41q68 -45 68 -119q0 -134 -293 -373h160q110 0 139 47h39zM1082 1184l-798 -1231h-76l799 1231h75zM405 567h-277v29q74 0 82 18q4 9 4 64v319 q0 87 -12 101q-5 4 -17 4q-17 0 -57 -17l-14 23l176 76h28v-506q0 -51 7 -64q10 -18 80 -18v-29z" />
<glyph unicode="&#xbe;" horiz-adv-x="1312" d="M1283 123h-92v-158h-100v158h-293v61l319 398h74v-389h92v-70zM1091 1184l-797 -1231h-76l799 1231h74zM445 770q0 -107 -92 -166q-79 -49 -192 -49q-125 0 -125 53q0 39 49 39q23 0 71 -21q49 -20 76 -20q47 0 82 33t35 80q0 145 -198 141v25q59 0 107 36q48 37 48 97 q0 94 -104 94q-73 0 -125 -76l-33 15q66 133 197 133q63 0 112 -31q58 -37 58 -96q0 -58 -90 -131q124 -45 124 -156zM1091 193v268l-222 -268h222z" />
<glyph unicode="&#xd7;" horiz-adv-x="987" d="M844 281l-49 -50l-303 304l-302 -304l-49 50l301 301l-301 301l52 49l299 -299l301 299l49 -47l-301 -301z" />
<glyph unicode="&#xf7;" horiz-adv-x="1124" d="M648 987q0 -18 -7 -33.5t-19 -27t-28 -18.5t-34 -7t-34 7t-28 18.5t-19 27t-7 33.5q0 37 25.5 62.5t62.5 25.5q39 0 63.5 -24.5t24.5 -63.5zM1101 641h-1079v82h1079v-82zM648 367q0 -37 -25.5 -62.5t-62.5 -25.5q-18 0 -34 7t-28 19t-19 28t-7 34t7 34t19 28t28 19t34 7 q39 0 63.5 -26t24.5 -62z" />
<glyph unicode="&#x591;" d="M657 770q0 -119 -83 -202t-203 -83q-118 0 -200 84q-83 85 -83 201q0 118 83 203q82 84 200 84q120 0 203 -84q83 -85 83 -203zM578 770q0 88 -60 148q-58 61 -147 61q-86 0 -146 -61q-59 -61 -59 -148q0 -84 59 -146q60 -61 146 -61q89 0 147 61q60 61 60 146z" />
<glyph unicode="&#x592;" d="M657 770q0 -119 -83 -202t-203 -83q-118 0 -200 84q-83 85 -83 201q0 118 83 203q82 84 200 84q120 0 203 -84q83 -85 83 -203zM578 770q0 88 -60 148q-58 61 -147 61q-86 0 -146 -61q-59 -61 -59 -148q0 -84 59 -146q60 -61 146 -61q89 0 147 61q60 61 60 146z" />
<glyph unicode="&#x593;" d="M657 770q0 -119 -83 -202t-203 -83q-118 0 -200 84q-83 85 -83 201q0 118 83 203q82 84 200 84q120 0 203 -84q83 -85 83 -203zM578 770q0 88 -60 148q-58 61 -147 61q-86 0 -146 -61q-59 -61 -59 -148q0 -84 59 -146q60 -61 146 -61q89 0 147 61q60 61 60 146z" />
<glyph unicode="&#x594;" d="M657 770q0 -119 -83 -202t-203 -83q-118 0 -200 84q-83 85 -83 201q0 118 83 203q82 84 200 84q120 0 203 -84q83 -85 83 -203zM578 770q0 88 -60 148q-58 61 -147 61q-86 0 -146 -61q-59 -61 -59 -148q0 -84 59 -146q60 -61 146 -61q89 0 147 61q60 61 60 146z" />
<glyph unicode="&#x595;" d="M657 770q0 -119 -83 -202t-203 -83q-118 0 -200 84q-83 85 -83 201q0 118 83 203q82 84 200 84q120 0 203 -84q83 -85 83 -203zM578 770q0 88 -60 148q-58 61 -147 61q-86 0 -146 -61q-59 -61 -59 -148q0 -84 59 -146q60 -61 146 -61q89 0 147 61q60 61 60 146z" />
<glyph unicode="&#x596;" d="M657 770q0 -119 -83 -202t-203 -83q-118 0 -200 84q-83 85 -83 201q0 118 83 203q82 84 200 84q120 0 203 -84q83 -85 83 -203zM578 770q0 88 -60 148q-58 61 -147 61q-86 0 -146 -61q-59 -61 -59 -148q0 -84 59 -146q60 -61 146 -61q89 0 147 61q60 61 60 146z" />
<glyph unicode="&#x597;" d="M657 770q0 -119 -83 -202t-203 -83q-118 0 -200 84q-83 85 -83 201q0 118 83 203q82 84 200 84q120 0 203 -84q83 -85 83 -203zM578 770q0 88 -60 148q-58 61 -147 61q-86 0 -146 -61q-59 -61 -59 -148q0 -84 59 -146q60 -61 146 -61q89 0 147 61q60 61 60 146z" />
<glyph unicode="&#x598;" d="M657 770q0 -119 -83 -202t-203 -83q-118 0 -200 84q-83 85 -83 201q0 118 83 203q82 84 200 84q120 0 203 -84q83 -85 83 -203zM578 770q0 88 -60 148q-58 61 -147 61q-86 0 -146 -61q-59 -61 -59 -148q0 -84 59 -146q60 -61 146 -61q89 0 147 61q60 61 60 146z" />
<glyph unicode="&#x599;" d="M657 770q0 -119 -83 -202t-203 -83q-118 0 -200 84q-83 85 -83 201q0 118 83 203q82 84 200 84q120 0 203 -84q83 -85 83 -203zM578 770q0 88 -60 148q-58 61 -147 61q-86 0 -146 -61q-59 -61 -59 -148q0 -84 59 -146q60 -61 146 -61q89 0 147 61q60 61 60 146z" />
<glyph unicode="&#x59a;" d="M657 770q0 -119 -83 -202t-203 -83q-118 0 -200 84q-83 85 -83 201q0 118 83 203q82 84 200 84q120 0 203 -84q83 -85 83 -203zM578 770q0 88 -60 148q-58 61 -147 61q-86 0 -146 -61q-59 -61 -59 -148q0 -84 59 -146q60 -61 146 -61q89 0 147 61q60 61 60 146z" />
<glyph unicode="&#x59b;" d="M657 770q0 -119 -83 -202t-203 -83q-118 0 -200 84q-83 85 -83 201q0 118 83 203q82 84 200 84q120 0 203 -84q83 -85 83 -203zM578 770q0 88 -60 148q-58 61 -147 61q-86 0 -146 -61q-59 -61 -59 -148q0 -84 59 -146q60 -61 146 -61q89 0 147 61q60 61 60 146z" />
<glyph unicode="&#x59c;" d="M657 770q0 -119 -83 -202t-203 -83q-118 0 -200 84q-83 85 -83 201q0 118 83 203q82 84 200 84q120 0 203 -84q83 -85 83 -203zM578 770q0 88 -60 148q-58 61 -147 61q-86 0 -146 -61q-59 -61 -59 -148q0 -84 59 -146q60 -61 146 -61q89 0 147 61q60 61 60 146z" />
<glyph unicode="&#x59d;" d="M657 770q0 -119 -83 -202t-203 -83q-118 0 -200 84q-83 85 -83 201q0 118 83 203q82 84 200 84q120 0 203 -84q83 -85 83 -203zM578 770q0 88 -60 148q-58 61 -147 61q-86 0 -146 -61q-59 -61 -59 -148q0 -84 59 -146q60 -61 146 -61q89 0 147 61q60 61 60 146z" />
<glyph unicode="&#x59e;" d="M657 770q0 -119 -83 -202t-203 -83q-118 0 -200 84q-83 85 -83 201q0 118 83 203q82 84 200 84q120 0 203 -84q83 -85 83 -203zM578 770q0 88 -60 148q-58 61 -147 61q-86 0 -146 -61q-59 -61 -59 -148q0 -84 59 -146q60 -61 146 -61q89 0 147 61q60 61 60 146z" />
<glyph unicode="&#x59f;" d="M657 770q0 -119 -83 -202t-203 -83q-118 0 -200 84q-83 85 -83 201q0 118 83 203q82 84 200 84q120 0 203 -84q83 -85 83 -203zM578 770q0 88 -60 148q-58 61 -147 61q-86 0 -146 -61q-59 -61 -59 -148q0 -84 59 -146q60 -61 146 -61q89 0 147 61q60 61 60 146z" />
<glyph unicode="&#x5a0;" d="M657 770q0 -119 -83 -202t-203 -83q-118 0 -200 84q-83 85 -83 201q0 118 83 203q82 84 200 84q120 0 203 -84q83 -85 83 -203zM578 770q0 88 -60 148q-58 61 -147 61q-86 0 -146 -61q-59 -61 -59 -148q0 -84 59 -146q60 -61 146 -61q89 0 147 61q60 61 60 146z" />
<glyph unicode="&#x5a1;" d="M657 770q0 -119 -83 -202t-203 -83q-118 0 -200 84q-83 85 -83 201q0 118 83 203q82 84 200 84q120 0 203 -84q83 -85 83 -203zM578 770q0 88 -60 148q-58 61 -147 61q-86 0 -146 -61q-59 -61 -59 -148q0 -84 59 -146q60 -61 146 -61q89 0 147 61q60 61 60 146z" />
<glyph unicode="&#x5a3;" d="M657 770q0 -119 -83 -202t-203 -83q-118 0 -200 84q-83 85 -83 201q0 118 83 203q82 84 200 84q120 0 203 -84q83 -85 83 -203zM578 770q0 88 -60 148q-58 61 -147 61q-86 0 -146 -61q-59 -61 -59 -148q0 -84 59 -146q60 -61 146 -61q89 0 147 61q60 61 60 146z" />
<glyph unicode="&#x5a4;" d="M657 770q0 -119 -83 -202t-203 -83q-118 0 -200 84q-83 85 -83 201q0 118 83 203q82 84 200 84q120 0 203 -84q83 -85 83 -203zM578 770q0 88 -60 148q-58 61 -147 61q-86 0 -146 -61q-59 -61 -59 -148q0 -84 59 -146q60 -61 146 -61q89 0 147 61q60 61 60 146z" />
<glyph unicode="&#x5a5;" d="M657 770q0 -119 -83 -202t-203 -83q-118 0 -200 84q-83 85 -83 201q0 118 83 203q82 84 200 84q120 0 203 -84q83 -85 83 -203zM578 770q0 88 -60 148q-58 61 -147 61q-86 0 -146 -61q-59 -61 -59 -148q0 -84 59 -146q60 -61 146 -61q89 0 147 61q60 61 60 146z" />
<glyph unicode="&#x5a6;" d="M657 770q0 -119 -83 -202t-203 -83q-118 0 -200 84q-83 85 -83 201q0 118 83 203q82 84 200 84q120 0 203 -84q83 -85 83 -203zM578 770q0 88 -60 148q-58 61 -147 61q-86 0 -146 -61q-59 -61 -59 -148q0 -84 59 -146q60 -61 146 -61q89 0 147 61q60 61 60 146z" />
<glyph unicode="&#x5a7;" d="M657 770q0 -119 -83 -202t-203 -83q-118 0 -200 84q-83 85 -83 201q0 118 83 203q82 84 200 84q120 0 203 -84q83 -85 83 -203zM578 770q0 88 -60 148q-58 61 -147 61q-86 0 -146 -61q-59 -61 -59 -148q0 -84 59 -146q60 -61 146 -61q89 0 147 61q60 61 60 146z" />
<glyph unicode="&#x5a8;" d="M657 770q0 -119 -83 -202t-203 -83q-118 0 -200 84q-83 85 -83 201q0 118 83 203q82 84 200 84q120 0 203 -84q83 -85 83 -203zM578 770q0 88 -60 148q-58 61 -147 61q-86 0 -146 -61q-59 -61 -59 -148q0 -84 59 -146q60 -61 146 -61q89 0 147 61q60 61 60 146z" />
<glyph unicode="&#x5a9;" d="M657 770q0 -119 -83 -202t-203 -83q-118 0 -200 84q-83 85 -83 201q0 118 83 203q82 84 200 84q120 0 203 -84q83 -85 83 -203zM578 770q0 88 -60 148q-58 61 -147 61q-86 0 -146 -61q-59 -61 -59 -148q0 -84 59 -146q60 -61 146 -61q89 0 147 61q60 61 60 146z" />
<glyph unicode="&#x5aa;" d="M657 770q0 -119 -83 -202t-203 -83q-118 0 -200 84q-83 85 -83 201q0 118 83 203q82 84 200 84q120 0 203 -84q83 -85 83 -203zM578 770q0 88 -60 148q-58 61 -147 61q-86 0 -146 -61q-59 -61 -59 -148q0 -84 59 -146q60 -61 146 -61q89 0 147 61q60 61 60 146z" />
<glyph unicode="&#x5ab;" d="M657 770q0 -119 -83 -202t-203 -83q-118 0 -200 84q-83 85 -83 201q0 118 83 203q82 84 200 84q120 0 203 -84q83 -85 83 -203zM578 770q0 88 -60 148q-58 61 -147 61q-86 0 -146 -61q-59 -61 -59 -148q0 -84 59 -146q60 -61 146 -61q89 0 147 61q60 61 60 146z" />
<glyph unicode="&#x5ac;" d="M657 770q0 -119 -83 -202t-203 -83q-118 0 -200 84q-83 85 -83 201q0 118 83 203q82 84 200 84q120 0 203 -84q83 -85 83 -203zM578 770q0 88 -60 148q-58 61 -147 61q-86 0 -146 -61q-59 -61 -59 -148q0 -84 59 -146q60 -61 146 -61q89 0 147 61q60 61 60 146z" />
<glyph unicode="&#x5ad;" d="M657 770q0 -119 -83 -202t-203 -83q-118 0 -200 84q-83 85 -83 201q0 118 83 203q82 84 200 84q120 0 203 -84q83 -85 83 -203zM578 770q0 88 -60 148q-58 61 -147 61q-86 0 -146 -61q-59 -61 -59 -148q0 -84 59 -146q60 -61 146 -61q89 0 147 61q60 61 60 146z" />
<glyph unicode="&#x5ae;" d="M657 770q0 -119 -83 -202t-203 -83q-118 0 -200 84q-83 85 -83 201q0 118 83 203q82 84 200 84q120 0 203 -84q83 -85 83 -203zM578 770q0 88 -60 148q-58 61 -147 61q-86 0 -146 -61q-59 -61 -59 -148q0 -84 59 -146q60 -61 146 -61q89 0 147 61q60 61 60 146z" />
<glyph unicode="&#x5af;" d="M657 770q0 -119 -83 -202t-203 -83q-118 0 -200 84q-83 85 -83 201q0 118 83 203q82 84 200 84q120 0 203 -84q83 -85 83 -203zM578 770q0 88 -60 148q-58 61 -147 61q-86 0 -146 -61q-59 -61 -59 -148q0 -84 59 -146q60 -61 146 -61q89 0 147 61q60 61 60 146z" />
<glyph unicode="&#x5b0;" horiz-adv-x="2" d="M88 -243q0 -18 -7 -33.5t-18.5 -27t-27 -18.5t-33.5 -7t-34 7t-28 18.5t-19 27t-7 33.5t7.5 33t19.5 26.5t28 18t33 6.5q37 0 61.5 -24.5t24.5 -59.5zM88 -512q0 -17 -7 -32.5t-18.5 -27.5t-27 -19t-33.5 -7t-34 7t-28 19t-19 27.5t-7 32.5q0 18 7.5 33t19.5 26.5t28 18 t33 6.5q37 0 61.5 -24.5t24.5 -59.5z" />
<glyph unicode="&#x5b1;" horiz-adv-x="2" d="M-137 -243q0 -18 -7 -33.5t-18.5 -27t-27 -18.5t-33.5 -7q-17 0 -32.5 6.5t-27.5 18t-19 27.5t-7 34q0 16 7 31.5t18.5 27t27 18.5t33.5 7q37 0 61.5 -24.5t24.5 -59.5zM98 -243q0 -18 -7 -33.5t-18.5 -27t-27 -18.5t-33.5 -7q-17 0 -32.5 7t-27.5 18.5t-19.5 27 t-7.5 33.5q0 34 28 59q26 25 59 25q37 0 61.5 -23.5t24.5 -60.5zM-10 -450q0 -18 -7 -33.5t-18.5 -27t-27 -18.5t-33.5 -7q-17 0 -32.5 6.5t-27.5 18t-19 27.5t-7 34q0 35 25.5 59.5t60.5 24.5t60.5 -24.5t25.5 -59.5zM311 -243q0 -15 -6 -27.5t-16.5 -22t-23.5 -15 t-27 -5.5q-70 0 -70 70q0 74 70 74q73 0 73 -74zM311 -458q0 -29 -21.5 -50.5t-51.5 -21.5q-70 0 -70 72q0 30 20.5 50.5t49.5 20.5q73 0 73 -71z" />
<glyph unicode="&#x5b2;" horiz-adv-x="2" d="M287 -243q0 -29 -22.5 -49.5t-51.5 -20.5q-70 0 -70 70q0 74 70 74q74 0 74 -74zM287 -458q0 -29 -21.5 -50.5t-52.5 -21.5q-70 0 -70 72q0 71 70 71q74 0 74 -71zM-258 -305q-26 0 -26 31v66q0 30 26 30h301q27 0 27 -30v-66q0 -31 -27 -31h-301z" />
<glyph unicode="&#x5b3;" horiz-adv-x="2" d="M287 -243q0 -29 -22.5 -49.5t-51.5 -20.5q-70 0 -70 70q0 74 70 74q33 0 53.5 -20.5t20.5 -53.5zM287 -458q0 -29 -21.5 -50.5t-52.5 -21.5q-70 0 -70 72q0 71 70 71q74 0 74 -71zM43 -178q27 0 27 -30v-66q0 -31 -27 -31h-118q0 -42 20 -88l23 -51q8 -18 8 -35 t-6.5 -31.5t-18 -26t-26.5 -18t-33 -6.5t-33 6.5t-26.5 18t-18 26t-6.5 31.5t8 35l23 51q22 48 22 88h-119q-26 0 -26 31v66q0 30 26 30h301z" />
<glyph unicode="&#x5b4;" horiz-adv-x="2" d="M92 -243q0 -35 -28 -62q-27 -28 -62 -28q-36 0 -64 28q-28 27 -28 62q0 18 7.5 34t20.5 28t29.5 19t34.5 7q39 0 64.5 -25.5t25.5 -62.5z" />
<glyph unicode="&#x5b5;" horiz-adv-x="2" d="M-45 -243q0 -18 -7 -33.5t-18.5 -27t-27 -18.5t-33.5 -7q-17 0 -32.5 7t-27.5 18.5t-19 27t-7 33.5t7 33t19 26.5t27.5 18t32.5 6.5q86 0 86 -84zM219 -243q0 -18 -7 -33.5t-18.5 -27t-27 -18.5t-33.5 -7t-33.5 7t-27 18.5t-18.5 27t-7 33.5q0 35 25.5 59.5t60.5 24.5 q37 0 61.5 -24.5t24.5 -59.5z" />
<glyph unicode="&#x5b6;" horiz-adv-x="2" d="M-45 -243q0 -18 -7 -33.5t-18.5 -27t-27 -18.5t-33.5 -7q-17 0 -32.5 7t-27.5 18.5t-19 27t-7 33.5t7 33t19 26.5t27.5 18t32.5 6.5q86 0 86 -84zM219 -243q0 -18 -7 -33.5t-18.5 -27t-27 -18.5t-33.5 -7t-33.5 7t-27 18.5t-18.5 27t-7 33.5q0 35 25.5 59.5t60.5 24.5 q37 0 61.5 -24.5t24.5 -59.5zM94 -468q0 -18 -7 -33.5t-18.5 -27.5t-27 -19t-33.5 -7q-17 0 -32.5 7t-27 19t-18.5 27.5t-7 33.5q0 34 25.5 58.5t59.5 24.5q37 0 61.5 -24.5t24.5 -58.5z" />
<glyph unicode="&#x5b7;" horiz-adv-x="2" d="M-190 -305q-27 0 -27 31v66q0 30 27 30h383q26 0 26 -30v-66q0 -31 -26 -31h-383z" />
<glyph unicode="&#x5b8;" horiz-adv-x="2" d="M193 -178q26 0 26 -30v-66q0 -31 -26 -31h-158q0 -48 18 -88l23 -51q8 -18 8 -35q0 -35 -24.5 -58.5t-57.5 -23.5q-17 0 -32 6.5t-26.5 18t-18 26t-6.5 31.5t8 35l22 51q21 45 21 88h-160q-27 0 -27 31v66q0 30 27 30h383z" />
<glyph unicode="&#x5b9;" horiz-adv-x="2" d="M86 1290q0 -18 -7 -33.5t-18.5 -27t-27 -18.5t-33.5 -7q-17 0 -32.5 7t-27.5 18.5t-19 27t-7 33.5q0 16 7 31.5t19 27t27.5 18.5t32.5 7q39 0 62.5 -23.5t23.5 -60.5z" />
<glyph unicode="&#x5bb;" horiz-adv-x="2" d="M92 -243q0 -18 -7 -33.5t-18.5 -27t-27 -18.5t-33.5 -7t-33.5 7t-27 18.5t-18.5 27t-7 33.5q0 35 25.5 59.5t60.5 24.5q86 0 86 -84zM235 -417q0 -18 -7 -33.5t-18.5 -27t-27 -18.5t-33.5 -7q-17 0 -32.5 7t-27 18.5t-18.5 27t-7 33.5t7 33t18.5 26.5t27 18t32.5 6.5 q37 0 61.5 -23.5t24.5 -60.5zM376 -589q0 -18 -7 -33.5t-18.5 -27t-27 -18.5t-33.5 -7q-17 0 -32.5 7t-27.5 18.5t-19 27t-7 33.5q0 32 26 58t60 26q86 0 86 -84z" />
<glyph unicode="&#x5bc;" horiz-adv-x="2" d="M86 457q0 -18 -7 -33.5t-18.5 -27t-27 -18.5t-33.5 -7q-17 0 -32.5 7t-27.5 18.5t-19 27t-7 33.5q0 32 27 58q28 26 59 26q37 0 61.5 -23.5t24.5 -60.5z" />
<glyph unicode="&#x5bd;" horiz-adv-x="2" d="M67 -587q0 -27 -31 -27h-65q-31 0 -31 27v383q0 26 31 26h65q31 0 31 -26v-383z" />
<glyph unicode="&#x5be;" horiz-adv-x="471" d="M63 888q-14 30 -14 91q0 56 14 81h333q15 -26 15 -83q0 -64 -15 -89h-333z" />
<glyph unicode="&#x5bf;" horiz-adv-x="471" d="M63 888q-14 30 -14 91q0 56 14 81h333q15 -26 15 -83q0 -64 -15 -89h-333z" />
<glyph unicode="&#x5c0;" horiz-adv-x="430" d="M317 -389q-4 -7 -19 -12t-35 -7.5t-43 -2.5t-44.5 2t-38.5 7t-25 13v1888q12 12 41.5 19t62.5 7.5t62 -6t39 -20.5v-1888z" />
<glyph unicode="&#x5c1;" horiz-adv-x="2" d="M1256 1290q0 -18 -7 -33.5t-18.5 -27t-27 -18.5t-33.5 -7q-17 0 -32.5 7t-27.5 18.5t-19 27t-7 33.5q0 16 7 31.5t19 27t27.5 18.5t32.5 7q39 0 62.5 -23.5t23.5 -60.5z" />
<glyph unicode="&#x5c2;" horiz-adv-x="2" d="M316 1290q0 -18 -7 -33.5t-18.5 -27t-27 -18.5t-33.5 -7q-17 0 -32.5 7t-27.5 18.5t-19 27t-7 33.5q0 16 7 31.5t19 27t27.5 18.5t32.5 7q39 0 62.5 -23.5t23.5 -60.5z" />
<glyph unicode="&#x5c3;" horiz-adv-x="399" d="M296 725q0 -52 -38 -90q-37 -37 -91 -37q-53 0 -90 37t-37 90t37 90t90 37q54 0 91 -37q38 -38 38 -90zM296 96q0 -53 -38 -91t-91 -38q-52 0 -90 38q-37 37 -37 91t37 90q37 37 90 37q54 0 91 -37q38 -36 38 -90z" />
<glyph unicode="&#x5c4;" horiz-adv-x="2" d="M86 1290q0 -18 -7 -33.5t-18.5 -27t-27 -18.5t-33.5 -7q-17 0 -32.5 7t-27.5 18.5t-19 27t-7 33.5q0 16 7 31.5t19 27t27.5 18.5t32.5 7q39 0 62.5 -23.5t23.5 -60.5z" />
<glyph unicode="&#x5d0;" horiz-adv-x="1163" d="M1122 29q-14 -23 -52 -35t-84.5 -12.5t-93.5 11.5t-79 36l-414 551q-36 -44 -54.5 -102.5t-26 -128.5t-7.5 -151v-169q-24 -25 -57 -36.5t-68.5 -10.5t-69 13t-57.5 34q0 114 9.5 212t36.5 181.5t75 152.5t125 125l-254 338q14 19 51 30.5t81.5 12.5t89.5 -9t75 -34 l373 -487q22 30 37 55t25 52t15.5 59t8 76t2.5 103.5v141.5q21 22 56 32.5t73 10t73 -11t56 -31.5q0 -104 -8.5 -186t-35 -152.5t-76.5 -135t-134 -134.5z" />
<glyph unicode="&#x5d1;" horiz-adv-x="1085" d="M1003 176q16 -11 24.5 -35t9 -51t-8.5 -52t-27 -38h-917q-17 15 -25 40t-8 51.5t8 49.5t25 35h612q-16 14 -24.5 37.5t-12 51.5t-4 57t-0.5 53v235q0 128 -69 211q-67 82 -216 82q-88 0 -152.5 -24.5t-111.5 -53.5q-28 28 -34 83q-5 56 34 102q76 43 158 56t178 13 q218 0 345 -116q126 -116 126 -351v-317q0 -64 7.5 -91.5t29.5 -27.5h53z" />
<glyph unicode="&#x5d2;" horiz-adv-x="862" d="M759 29q-18 -25 -53 -36t-73.5 -10.5t-74.5 13t-55 33.5v407h-10q-83 0 -139 -74q-54 -74 -54 -198v-135q-19 -24 -51.5 -35.5t-66.5 -11t-64.5 12t-46.5 34.5v135q0 187 107 294q109 107 294 107h31v121q0 98 -48 161q-48 64 -146 64q-57 0 -97.5 -22.5t-64.5 -50.5 q-19 18 -28.5 42.5t-10.5 50t7.5 49.5t25.5 42q42 27 104 43t129 16q82 0 152.5 -22t122.5 -71.5t81 -129.5t29 -196v-633z" />
<glyph unicode="&#x5d3;" horiz-adv-x="1079" d="M839 887q-21 0 -28 -36.5t-7 -96.5v-725q-23 -27 -60 -38.5t-75.5 -10t-72.5 14.5t-50 34v651q0 24 3 53.5t12 58t25 53.5t42 42h-555q-17 18 -25 44.5t-8 53.5t8 49.5t25 32.5h887q30 -38 28 -91q-1 -50 -28 -89h-121z" />
<glyph unicode="&#x5d4;" horiz-adv-x="1126" d="M1023 29q-22 -23 -57 -34t-72 -11t-72 11.5t-57 33.5v569q0 154 -77.5 235.5t-241.5 81.5q-118 0 -195 -28q-76 -26 -141 -68q-16 12 -26.5 33.5t-12.5 47.5t7 53.5t32 52.5q26 15 62.5 28.5t82.5 26.5q95 26 254 26q117 0 212 -27t162 -84t103.5 -144.5t36.5 -208.5 v-594zM360 29q-24 -22 -59.5 -33.5t-72.5 -11.5t-70.5 11t-53.5 34v589q21 28 54 41.5t69.5 13.5t71.5 -13.5t61 -41.5v-589z" />
<glyph unicode="&#x5d5;" horiz-adv-x="471" d="M358 29q-20 -24 -56 -36t-74 -11.5t-73 12.5t-53 35v1009q16 21 51.5 31t75.5 10t76 -10.5t53 -30.5v-1009z" />
<glyph unicode="&#x5d6;" horiz-adv-x="731" d="M522 887q-14 0 -23.5 -16.5t-15.5 -44t-9 -62.5t-3 -72v-663q-16 -23 -52 -35t-76.5 -12t-77 11.5t-52.5 35.5v651q0 25 5.5 55.5t17.5 60t31 53.5t46 38h-231q-19 12 -29 36t-10 51t9.5 52.5t29.5 40.5h557q15 -17 22.5 -41.5t8 -50.5t-7 -50t-23.5 -38h-117z" />
<glyph unicode="&#x5d7;" horiz-adv-x="1136" d="M1034 29q-17 -23 -52 -34.5t-74 -12t-75 11t-55 35.5v667q0 98 -53 145q-52 46 -119 46h-217q-21 0 -26 -6.5t-5 -26.5v-825q-22 -24 -58 -35.5t-74.5 -11t-72 12t-51.5 34.5v882q0 98 31 126q31 30 88 30h446q87 0 155 -18.5t115.5 -62t72 -114.5t24.5 -176v-667z" />
<glyph unicode="&#x5d8;" horiz-adv-x="1220" d="M1118 485q0 -126 -39 -222.5t-107.5 -162.5t-162.5 -99.5t-203 -33.5q-125 0 -219.5 28t-157.5 87t-95 150t-32 217v589q21 20 57 30t75 10t73 -10t51 -30v-620q0 -66 13.5 -118t43 -87t76.5 -53.5t115 -18.5q69 0 117.5 23.5t79 64.5t45 95t14.5 116v367q0 29 -12.5 47 t-30.5 18q-19 0 -35 -13t-33 -48l-92 -195q-38 -45 -92 -51q-55 -6 -103 41l125 273q52 112 111 156t156 44q41 1 87 -12t85 -47.5t64.5 -95t25.5 -154.5v-285z" />
<glyph unicode="&#x5d9;" horiz-adv-x="471" d="M358 481q-20 -24 -56 -35.5t-74 -11t-73 12t-53 34.5v557q16 21 51.5 31t75.5 10t76 -10.5t53 -30.5v-557z" />
<glyph unicode="&#x5da;" horiz-adv-x="972" d="M870 -338q-18 -23 -55.5 -35.5t-77.5 -13t-75 11t-50 37.5v924q0 60 -18 116.5t-53.5 101t-88 71t-121.5 26.5q-87 0 -152.5 -23.5t-107.5 -50.5q-20 13 -31 37t-12 51.5t9.5 54.5t33.5 46q52 28 144 45q91 18 190 18q219 0 342 -128t123 -363v-926z" />
<glyph unicode="&#x5db;" horiz-adv-x="1026" d="M954 526q0 -139 -45 -242.5t-119.5 -172t-170 -102.5t-196.5 -34q-99 0 -180 14.5t-141 47.5q-21 17 -31.5 44t-10 55t11 52t30.5 35q40 -31 102 -53q66 -23 125 -23q73 0 138 25t113 73t76 118t28 161q0 93 -28 164t-76 119.5t-113 73t-138 24.5q-61 0 -125 -21 q-62 -19 -102 -50q-23 15 -32.5 41t-8 53.5t12 52.5t28.5 39q60 33 147 46t187 13q102 0 195.5 -33t165 -101t114.5 -172.5t43 -246.5z" />
<glyph unicode="&#x5dc;" horiz-adv-x="960" d="M848 535q0 -103 -34 -199.5t-101 -171t-165.5 -119.5t-228.5 -45h-59q-19 14 -29 37.5t-10.5 49t8.5 50t27 39.5h57q146 0 210.5 79t64.5 230v371q0 31 -25 31h-422q-90 0 -90 104v410q20 29 55 42.5t73 12.5t73 -15t55 -40v-307q0 -17 3 -22t17 -5h418q103 0 103 -115 v-417z" />
<glyph unicode="&#x5dd;" horiz-adv-x="1191" d="M1089 106q0 -106 -90 -106h-807q-90 0 -90 106v805q0 97 33 126q33 30 86 30h491q93 0 163.5 -18.5t118 -62t71.5 -114.5t24 -176v-590zM833 696q0 49 -14.5 85t-38.5 59.5t-55 35t-64 11.5h-272q-21 0 -25 -10.5t-4 -30.5v-637q0 -33 23 -33h428q22 0 22 33v487z" />
<glyph unicode="&#x5de;" horiz-adv-x="1251" d="M1152 381q0 -114 -34 -191.5t-89 -124.5t-125.5 -67.5t-142.5 -20.5q-16 0 -40 2.5t-49 7t-48 12t-37 17.5q-18 24 -23.5 49t-2.5 47.5t12.5 41t21.5 28.5q23 -16 50.5 -26.5t56.5 -10.5q37 0 72 11.5t62 38t43.5 68.5t16.5 102v380q0 39 -14 68t-35.5 47.5t-46 27.5 t-45.5 9q-49 0 -89 -30.5t-69 -110.5l-254 -727q-21 -24 -62 -35.5t-83.5 -11.5t-78.5 12t-48 35l13 33l222 579q-32 -4 -74 13q-40 18 -53 46l-139 338q12 21 48.5 32t81.5 11q22 0 44.5 -3t42 -8t35 -13.5t24.5 -18.5l107 -266l27 74q22 61 52.5 105.5t71.5 72.5t94 41.5 t120 13.5q77 0 143.5 -20t115.5 -62.5t77 -108.5t28 -157v-350z" />
<glyph unicode="&#x5df;" horiz-adv-x="471" d="M358 -338q-20 -24 -56 -35.5t-74 -11t-73 12t-53 34.5v1376q16 21 51.5 31t75.5 10t76 -10.5t53 -30.5v-1376z" />
<glyph unicode="&#x5e0;" horiz-adv-x="782" d="M679 106q0 -106 -90 -106h-481q-19 10 -28 35.5t-9 53.5t9.5 53t27.5 34h291q22 0 22 33v504q0 43 -12.5 78t-34.5 59.5t-53 37.5t-68 13q-32 0 -63 -12t-43 -27q-23 17 -33 44.5t-9 55t12 50.5t30 32q18 11 61 22t103 11q71 0 137.5 -18.5t117.5 -63t82 -118.5t31 -185 v-586z" />
<glyph unicode="&#x5e1;" horiz-adv-x="1218" d="M1146 528q0 -145 -44 -251.5t-117.5 -176t-171 -103.5t-203.5 -34q-105 0 -202 34.5t-172 104.5t-120 176.5t-45 249.5q0 142 45 248t120 176.5t172 105t202 34.5q106 0 203.5 -33.5t171 -102.5t117.5 -175.5t44 -252.5zM882 524q0 177 -71 287q-70 109 -201 109 t-203 -106q-72 -105 -72 -284q0 -89 20 -162t56 -124.5t86.5 -80t112.5 -28.5q124 0 198 104q74 106 74 285z" />
<glyph unicode="&#x5e2;" horiz-adv-x="1122" d="M1014 561q0 -130 -41 -234t-113 -176.5t-170.5 -111.5t-214.5 -39h-381q-21 10 -31 34.5t-10 52t10.5 52.5t30.5 37h342q23 0 35 4t22 8q-17 7 -41 23t-47.5 37.5t-43 46t-27.5 47.5l-265 657l-16 39q17 19 53 30t78 12t82 -9t66 -33l305 -817q63 41 89 97q27 57 27 165 v555q18 22 55.5 32.5t78 10t76.5 -11.5t51 -31v-477z" />
<glyph unicode="&#x5e3;" horiz-adv-x="1173" d="M1070 -338q-11 -18 -31.5 -29.5t-46 -17.5t-53 -6t-52.5 6t-45 17.5t-30 29.5v981q0 54 -15 103.5t-46 88t-77 61t-107 22.5q-112 0 -177 -62q-63 -62 -63 -151q0 -40 16.5 -74.5t44 -60t62.5 -40t72 -14.5q38 0 83 13q46 13 76 32q35 -29 28 -74q-8 -46 -42 -77 q-11 -12 -32 -24t-46 -21t-52.5 -15t-51.5 -6q-74 0 -147.5 20.5t-133 63.5t-96.5 108.5t-37 155.5q0 76 32 147.5t95 127t156.5 89.5t216.5 34q241 0 370 -117t129 -330v-981z" />
<glyph unicode="&#x5e4;" horiz-adv-x="1189" d="M1118 541q0 -129 -46 -233.5t-126 -178.5t-187.5 -114t-230.5 -40q-119 0 -205 25t-152 72q-23 21 -32 51t-7 61t13.5 57.5t29.5 41.5q57 -58 134.5 -92.5t164.5 -34.5q76 0 144.5 25.5t120.5 74.5t83 121t31 164q0 88 -25 158t-65.5 119t-91.5 74.5t-104 25.5 q-112 0 -177 -62q-63 -62 -63 -151q0 -40 16.5 -74.5t44 -60t62.5 -40t72 -14.5q38 0 83 13q46 13 76 32q35 -29 28 -74q-8 -46 -42 -77q-11 -12 -32 -24t-46 -21t-52.5 -15t-51.5 -6q-74 0 -147.5 20.5t-133 63.5t-96.5 108.5t-37 155.5q0 76 32 147.5t95 127t156.5 89.5 t216.5 34t224 -40t173 -112t111 -173t39 -224z" />
<glyph unicode="&#x5e5;" horiz-adv-x="1071" d="M923 -338q-19 -18 -49.5 -28t-66 -10.5t-74 9t-74.5 29.5l-629 1376q15 21 50.5 32t76.5 11t79.5 -11t59.5 -32l244 -546q71 33 109 88.5t55.5 126.5t20.5 155t3 176q17 21 53 33t75.5 12.5t76 -10.5t55.5 -35q0 -141 -21 -246t-68.5 -184.5t-122.5 -139t-183 -108.5z " />
<glyph unicode="&#x5e6;" horiz-adv-x="1099" d="M1009 1038q0 -95 -6.5 -165.5t-20.5 -123.5t-36 -92.5t-53.5 -73.5t-73 -65.5t-93.5 -68.5l213 -295q27 -36 32 -65t-3 -48.5t-26.5 -30t-39.5 -10.5h-776q-24 10 -35 35t-11 53t11.5 53t34.5 35h512l-578 823l-28 39q11 14 32.5 23t48.5 13.5t57.5 4.5t59.5 -4.5 t54.5 -13.5t42.5 -23l319 -463q39 42 60 78.5t30.5 86t11 119.5t1.5 179q21 22 56 32t73 9.5t74 -11.5t57 -30z" />
<glyph unicode="&#x5e7;" horiz-adv-x="1171" d="M1103 623q0 -92 -24.5 -174.5t-68.5 -152t-104 -125.5t-131 -96.5t-150.5 -63.5t-160.5 -27q-14 12 -22 35t-8.5 48t6.5 47t22 31q204 39 289 157q86 119 86 294q0 57 -16.5 109.5t-48 93t-78 64.5t-105.5 24h-475q-18 15 -28 39.5t-10.5 50.5t9 50.5t29.5 39.5h539 q201 0 326 -111q124 -109 124 -333zM364 -338q-19 -22 -55 -33.5t-75 -11.5t-74.5 11t-53.5 34v1059q20 27 53.5 40.5t71 12.5t73 -15t60.5 -42v-1055z" />
<glyph unicode="&#x5e8;" horiz-adv-x="972" d="M870 29q-18 -24 -55 -36t-77 -11.5t-75.5 12.5t-50.5 35v557q0 60 -18.5 116.5t-54 101t-88.5 71t-122 26.5q-87 0 -151.5 -23.5t-106.5 -50.5q-20 13 -31 37t-12 51.5t9.5 54.5t33.5 46q52 28 144 45q91 18 188 18q218 0 343 -128q124 -127 124 -363v-559z" />
<glyph unicode="&#x5e9;" horiz-adv-x="1417" d="M831 287q-16 -17 -48.5 -31t-74.5 -14q-48 0 -79 14t-48 31v751q21 21 55 31t70.5 10t70.5 -10t54 -31v-751zM1314 567q0 -138 -42.5 -249t-122 -189t-192 -120t-253.5 -42q-289 0 -446 147q-156 148 -156 425v499q20 24 58.5 34t79 8.5t74.5 -12.5t46 -30v-536 q0 -185 91 -273t253 -88q168 0 260 97.5t92 306.5v493q24 20 61.5 30.5t75.5 10.5t71.5 -10t49.5 -31v-471z" />
<glyph unicode="&#x5ea;" horiz-adv-x="1259" d="M1156 29q-17 -24 -53.5 -35.5t-76.5 -11.5t-75.5 12t-50.5 35v676q0 84 -40.5 133t-110.5 49h-213q-15 0 -23 -13t-11.5 -34t-4 -47t-0.5 -52v-419q0 -187 -80 -267t-225 -80q-42 0 -73.5 11.5t-45.5 21.5q-20 15 -31.5 38.5t-12.5 49.5t8.5 51t31.5 43q10 -12 28.5 -24 t41.5 -12q54 0 78 37t24 106v377q0 17 1 45.5t7 59.5t18 60.5t33 47.5h-157q-18 11 -28 35.5t-10.5 52t8.5 53t30 39.5h676q176 0 256.5 -95t80.5 -276v-667z" />
<glyph unicode="&#x5f0;" horiz-adv-x="700" d="M609 712q0 -110 -77 -187q-76 -76 -187 -76q-108 0 -185 77t-77 186q0 110 77 187t185 77q110 0 187 -77t77 -187zM536 712q0 81 -56 137q-55 55 -135 55t-135 -55t-55 -137q0 -79 55 -135q56 -56 135 -56t135 56q56 58 56 135z" />
<glyph unicode="&#x5f1;" horiz-adv-x="700" d="M609 712q0 -110 -77 -187q-76 -76 -187 -76q-108 0 -185 77t-77 186q0 110 77 187t185 77q110 0 187 -77t77 -187zM536 712q0 81 -56 137q-55 55 -135 55t-135 -55t-55 -137q0 -79 55 -135q56 -56 135 -56t135 56q56 58 56 135z" />
<glyph unicode="&#x5f2;" horiz-adv-x="700" d="M609 712q0 -110 -77 -187q-76 -76 -187 -76q-108 0 -185 77t-77 186q0 110 77 187t185 77q110 0 187 -77t77 -187zM536 712q0 81 -56 137q-55 55 -135 55t-135 -55t-55 -137q0 -79 55 -135q56 -56 135 -56t135 56q56 58 56 135z" />
<glyph unicode="&#x5f3;" horiz-adv-x="354" d="M313 1122q-14 -44 -39 -93t-55.5 -94t-62 -81.5t-58.5 -56.5q-10 6 -19 21.5t-16 35t-10.5 40t-1.5 36.5q13 23 29.5 67t32.5 96t29.5 106t19.5 97q25 -2 51 -19t47.5 -42t36 -55t16.5 -58z" />
<glyph unicode="&#x5f4;" horiz-adv-x="647" d="M596 1122q-8 -21 -23.5 -48.5t-35 -58.5t-41 -63t-43 -61t-40.5 -53.5t-32 -40.5q-10 6 -19 21.5t-16 35t-10.5 40t-1.5 36.5q12 26 28.5 70t32.5 95.5t29.5 104.5t19.5 96q26 -2 52 -19t48 -42t36 -55t16 -58zM313 1122q-8 -20 -23 -48.5t-33.5 -60t-40 -64.5 t-42.5 -62.5t-41 -53t-35 -36.5q-10 6 -19 21.5t-16 35t-10.5 40t-1.5 36.5q13 26 29.5 70t32.5 95.5t29.5 104.5t19.5 96q25 -2 51 -19t47.5 -42t36 -55t16.5 -58z" />
<glyph unicode="&#x2000;" horiz-adv-x="762" />
<glyph unicode="&#x2001;" horiz-adv-x="1525" />
<glyph unicode="&#x2002;" horiz-adv-x="762" />
<glyph unicode="&#x2003;" horiz-adv-x="1525" />
<glyph unicode="&#x2004;" horiz-adv-x="508" />
<glyph unicode="&#x2005;" horiz-adv-x="381" />
<glyph unicode="&#x2006;" horiz-adv-x="254" />
<glyph unicode="&#x2007;" horiz-adv-x="254" />
<glyph unicode="&#x2008;" horiz-adv-x="190" />
<glyph unicode="&#x2009;" horiz-adv-x="305" />
<glyph unicode="&#x200a;" horiz-adv-x="84" />
<glyph unicode="&#x200c;" d="M657 770q0 -119 -83 -202t-203 -83q-118 0 -200 84q-83 85 -83 201q0 118 83 203q82 84 200 84q120 0 203 -84q83 -85 83 -203zM578 770q0 88 -60 148q-58 61 -147 61q-86 0 -146 -61q-59 -61 -59 -148q0 -84 59 -146q60 -61 146 -61q89 0 147 61q60 61 60 146z" />
<glyph unicode="&#x200d;" d="M657 770q0 -119 -83 -202t-203 -83q-118 0 -200 84q-83 85 -83 201q0 118 83 203q82 84 200 84q120 0 203 -84q83 -85 83 -203zM578 770q0 88 -60 148q-58 61 -147 61q-86 0 -146 -61q-59 -61 -59 -148q0 -84 59 -146q60 -61 146 -61q89 0 147 61q60 61 60 146z" />
<glyph unicode="&#x200e;" d="M657 770q0 -119 -83 -202t-203 -83q-118 0 -200 84q-83 85 -83 201q0 118 83 203q82 84 200 84q120 0 203 -84q83 -85 83 -203zM578 770q0 88 -60 148q-58 61 -147 61q-86 0 -146 -61q-59 -61 -59 -148q0 -84 59 -146q60 -61 146 -61q89 0 147 61q60 61 60 146z" />
<glyph unicode="&#x200f;" d="M657 770q0 -119 -83 -202t-203 -83q-118 0 -200 84q-83 85 -83 201q0 118 83 203q82 84 200 84q120 0 203 -84q83 -85 83 -203zM578 770q0 88 -60 148q-58 61 -147 61q-86 0 -146 -61q-59 -61 -59 -148q0 -84 59 -146q60 -61 146 -61q89 0 147 61q60 61 60 146z" />
<glyph unicode="&#x2010;" horiz-adv-x="587" d="M67 446q-7 11 -12 33.5t-5.5 47.5t3 48t14.5 35h453q11 -13 16 -36t4.5 -47.5t-5.5 -46.5t-15 -34h-453z" />
<glyph unicode="&#x2011;" horiz-adv-x="587" d="M67 446q-7 11 -12 33.5t-5.5 47.5t3 48t14.5 35h453q11 -13 16 -36t4.5 -47.5t-5.5 -46.5t-15 -34h-453z" />
<glyph unicode="&#x2012;" horiz-adv-x="587" d="M67 446q-7 11 -12 33.5t-5.5 47.5t3 48t14.5 35h453q11 -13 16 -36t4.5 -47.5t-5.5 -46.5t-15 -34h-453z" />
<glyph unicode="&#x2013;" horiz-adv-x="587" d="M67 446q-7 11 -12 33.5t-5.5 47.5t3 48t14.5 35h453q11 -13 16 -36t4.5 -47.5t-5.5 -46.5t-15 -34h-453z" />
<glyph unicode="&#x2014;" horiz-adv-x="802" d="M76 446q-27 27 -27 87q0 54 27 77h648q29 -24 29 -79q0 -59 -29 -85h-648z" />
<glyph unicode="&#x2018;" horiz-adv-x="354" d="M50 971q13 44 38.5 92.5t56 93.5t62 82t58.5 57q10 -6 19 -21.5t16 -35t10.5 -40t1.5 -36.5q-13 -23 -29.5 -67t-32.5 -96t-29.5 -106t-19.5 -97q-25 2 -51 19t-47.5 42t-36 55t-16.5 58z" />
<glyph unicode="&#x2019;" horiz-adv-x="354" d="M313 1122q-14 -44 -39 -93t-55.5 -94t-62 -81.5t-58.5 -56.5q-10 6 -19 21.5t-16 35t-10.5 40t-1.5 36.5q13 23 29.5 67t32.5 96t29.5 106t19.5 97q25 -2 51 -19t47.5 -42t36 -55t16.5 -58z" />
<glyph unicode="&#x201c;" horiz-adv-x="647" d="M50 971q8 21 23.5 48.5t35 58.5t41 63t43 61t40 53.5t32.5 40.5q10 -6 19 -21.5t16 -35t10.5 -40t1.5 -36.5q-12 -26 -28.5 -70t-32.5 -95.5t-29.5 -104.5t-19.5 -96q-26 2 -52 19t-48 42t-36 55t-16 58zM333 971q8 20 23 48.5t33.5 60t40 64.5t42.5 62.5t41 53t35 36.5 q10 -6 19 -21.5t16 -35t10.5 -40t1.5 -36.5q-13 -26 -29.5 -70t-32.5 -95.5t-29.5 -104.5t-19.5 -96q-25 2 -51 19t-47.5 42t-36 55t-16.5 58z" />
<glyph unicode="&#x201d;" horiz-adv-x="647" d="M596 1122q-8 -21 -23.5 -48.5t-35 -58.5t-41 -63t-43 -61t-40.5 -53.5t-32 -40.5q-10 6 -19 21.5t-16 35t-10.5 40t-1.5 36.5q12 26 28.5 70t32.5 95.5t29.5 104.5t19.5 96q26 -2 52 -19t48 -42t36 -55t16 -58zM313 1122q-8 -20 -23 -48.5t-33.5 -60t-40 -64.5 t-42.5 -62.5t-41 -53t-35 -36.5q-10 6 -19 21.5t-16 35t-10.5 40t-1.5 36.5q13 26 29.5 70t32.5 95.5t29.5 104.5t19.5 96q25 -2 51 -19t47.5 -42t36 -55t16.5 -58z" />
<glyph unicode="&#x2022;" horiz-adv-x="612" d="M524 580q0 -91 -62.5 -153t-150.5 -62q-90 0 -152.5 62t-62.5 153q0 90 61.5 151.5t153.5 61.5q90 0 151.5 -61.5t61.5 -151.5z" />
<glyph unicode="&#x202f;" horiz-adv-x="305" />
<glyph unicode="&#x2039;" horiz-adv-x="681" d="M562 -8h-57l-387 473l387 469h57l-244 -469z" />
<glyph unicode="&#x203a;" horiz-adv-x="681" d="M566 463l-395 -471h-57l243 471l-243 471h57z" />
<glyph unicode="&#x205f;" horiz-adv-x="381" />
<glyph unicode="&#x20aa;" horiz-adv-x="1294" d="M1181 317q0 -157 -81 -237t-226 -80h-363q-42 0 -65 29q-20 23 -25 67l-33 479q17 11 44 16t55 4.5t52.5 -5.5t38.5 -15l32 -431h243q78 0 108 39.5t30 117.5v530q13 10 40 15t56.5 5.5t55.5 -4.5t38 -16v-514zM886 270q-15 -11 -42 -15.5t-56 -3.5t-54.5 6t-37.5 13v303 q0 66 -26 97.5t-93 31.5h-275v-684q-17 -10 -44.5 -14t-56 -3.5t-53.5 5t-36 12.5v730q0 53 31 77q22 21 75 21h400q127 0 197.5 -64.5t70.5 -206.5v-305z" />
<glyph unicode="&#x22c5;" horiz-adv-x="662" d="M565 627q0 -98 -68 -166q-68 -66 -161 -66q-99 0 -166 66q-68 68 -68 166t67 164q67 67 167 67q96 0 162 -67q67 -66 67 -164z" />
<glyph unicode="&#x25a0;" d="M657 770q0 -119 -83 -202t-203 -83q-118 0 -200 84q-83 85 -83 201q0 118 83 203q82 84 200 84q120 0 203 -84q83 -85 83 -203zM578 770q0 88 -60 148q-58 61 -147 61q-86 0 -146 -61q-59 -61 -59 -148q0 -84 59 -146q60 -61 146 -61q89 0 147 61q60 61 60 146z" />
<glyph unicode="&#x25a1;" d="M657 770q0 -119 -83 -202t-203 -83q-118 0 -200 84q-83 85 -83 201q0 118 83 203q82 84 200 84q120 0 203 -84q83 -85 83 -203zM578 770q0 88 -60 148q-58 61 -147 61q-86 0 -146 -61q-59 -61 -59 -148q0 -84 59 -146q60 -61 146 -61q89 0 147 61q60 61 60 146z" />
<glyph unicode="&#x25c6;" d="M657 770q0 -119 -83 -202t-203 -83q-118 0 -200 84q-83 85 -83 201q0 118 83 203q82 84 200 84q120 0 203 -84q83 -85 83 -203zM578 770q0 88 -60 148q-58 61 -147 61q-86 0 -146 -61q-59 -61 -59 -148q0 -84 59 -146q60 -61 146 -61q89 0 147 61q60 61 60 146z" />
<glyph unicode="&#x25c7;" d="M657 770q0 -119 -83 -202t-203 -83q-118 0 -200 84q-83 85 -83 201q0 118 83 203q82 84 200 84q120 0 203 -84q83 -85 83 -203zM578 770q0 88 -60 148q-58 61 -147 61q-86 0 -146 -61q-59 -61 -59 -148q0 -84 59 -146q60 -61 146 -61q89 0 147 61q60 61 60 146z" />
<glyph unicode="&#x25cb;" d="M657 770q0 -119 -83 -202t-203 -83q-118 0 -200 84q-83 85 -83 201q0 118 83 203q82 84 200 84q120 0 203 -84q83 -85 83 -203zM578 770q0 88 -60 148q-58 61 -147 61q-86 0 -146 -61q-59 -61 -59 -148q0 -84 59 -146q60 -61 146 -61q89 0 147 61q60 61 60 146z" />
<glyph unicode="&#x25cc;" d="M657 770q0 -119 -83 -202t-203 -83q-118 0 -200 84q-83 85 -83 201q0 118 83 203q82 84 200 84q120 0 203 -84q83 -85 83 -203zM578 770q0 88 -60 148q-58 61 -147 61q-86 0 -146 -61q-59 -61 -59 -148q0 -84 59 -146q60 -61 146 -61q89 0 147 61q60 61 60 146z" />
<glyph unicode="&#x25fc;" horiz-adv-x="995" d="M0 995h995v-995h-995v995z" />
<glyph unicode="&#x2605;" d="M657 770q0 -119 -83 -202t-203 -83q-118 0 -200 84q-83 85 -83 201q0 118 83 203q82 84 200 84q120 0 203 -84q83 -85 83 -203zM578 770q0 88 -60 148q-58 61 -147 61q-86 0 -146 -61q-59 -61 -59 -148q0 -84 59 -146q60 -61 146 -61q89 0 147 61q60 61 60 146z" />
<glyph unicode="&#x274f;" d="M657 770q0 -119 -83 -202t-203 -83q-118 0 -200 84q-83 85 -83 201q0 118 83 203q82 84 200 84q120 0 203 -84q83 -85 83 -203zM578 770q0 88 -60 148q-58 61 -147 61q-86 0 -146 -61q-59 -61 -59 -148q0 -84 59 -146q60 -61 146 -61q89 0 147 61q60 61 60 146z" />
<glyph unicode="&#xe802;" horiz-adv-x="972" d="M870 -338q-18 -23 -55.5 -35.5t-77.5 -13t-75 11t-50 37.5v924q0 60 -18 116.5t-53.5 101t-88 71t-121.5 26.5q-87 0 -152.5 -23.5t-107.5 -50.5q-20 13 -31 37t-12 51.5t9.5 54.5t33.5 46q52 28 144 45q91 18 190 18q219 0 342 -128t123 -363v-926zM390 328 q0 -18 -7 -33.5t-18.5 -27t-27 -18.5t-33.5 -7t-34 7t-28 18.5t-19 27t-7 33.5t7.5 33t19.5 26.5t28 18t33 6.5q37 0 61.5 -24.5t24.5 -59.5zM390 59q0 -17 -7 -32.5t-18.5 -27.5t-27 -19t-33.5 -7t-34 7t-28 19t-19 27.5t-7 32.5q0 18 7.5 33t19.5 26.5t28 18t33 6.5 q37 0 61.5 -24.5t24.5 -59.5z" />
<glyph unicode="&#xe803;" horiz-adv-x="972" d="M870 -338q-18 -23 -55.5 -35.5t-77.5 -13t-75 11t-50 37.5v924q0 60 -18 116.5t-53.5 101t-88 71t-121.5 26.5q-87 0 -152.5 -23.5t-107.5 -50.5q-20 13 -31 37t-12 51.5t9.5 54.5t33.5 46q52 28 144 45q91 18 190 18q219 0 342 -128t123 -363v-926zM493 357q26 0 26 -30 v-66q0 -31 -26 -31h-158q0 -48 18 -88l23 -51q8 -18 8 -35q0 -35 -24.5 -58.5t-57.5 -23.5q-17 0 -32 6.5t-26.5 18t-18 26t-6.5 31.5t8 35l22 51q21 45 21 88h-160q-27 0 -27 31v66q0 30 27 30h383z" />
<glyph unicode="&#xe804;" horiz-adv-x="960" d="M848 535q0 -103 -34 -199.5t-101 -171t-165.5 -119.5t-228.5 -45h-59q-19 14 -29 37.5t-10.5 49t8.5 50t27 39.5h57q146 0 210.5 79t64.5 230v371q0 31 -25 31h-422q-90 0 -90 104v410q20 29 55 42.5t73 12.5t73 -15t55 -40v-307q0 -17 3 -22t17 -5h418q103 0 103 -115 v-417zM6 1290q0 -18 -7 -33.5t-18.5 -27t-27 -18.5t-33.5 -7q-17 0 -32.5 7t-27.5 18.5t-19 27t-7 33.5q0 16 7 31.5t19 27t27.5 18.5t32.5 7q39 0 62.5 -23.5t23.5 -60.5z" />
<glyph unicode="&#xe805;" horiz-adv-x="960" d="M848 535q0 -103 -34 -199.5t-101 -171t-165.5 -119.5t-228.5 -45h-59q-19 14 -29 37.5t-10.5 49t8.5 50t27 39.5h57q146 0 210.5 79t64.5 230v371q0 31 -25 31h-422q-90 0 -90 104v410q20 29 55 42.5t73 12.5t73 -15t55 -40v-307q0 -17 3 -22t17 -5h418q103 0 103 -115 v-417zM373 543q0 -18 -7 -33.5t-18.5 -27t-27 -18.5t-33.5 -7t-33.5 7t-27 18.5t-18.5 27t-7 33.5q0 32 27 58q28 26 59 26q37 0 61.5 -23.5t24.5 -60.5zM6 1290q0 -18 -7 -33.5t-18.5 -27t-27 -18.5t-33.5 -7q-17 0 -32.5 7t-27.5 18.5t-19 27t-7 33.5q0 16 7 31.5t19 27 t27.5 18.5t32.5 7q39 0 62.5 -23.5t23.5 -60.5z" />
<glyph unicode="&#xfb1d;" horiz-adv-x="700" d="M609 712q0 -110 -77 -187q-76 -76 -187 -76q-108 0 -185 77t-77 186q0 110 77 187t185 77q110 0 187 -77t77 -187zM536 712q0 81 -56 137q-55 55 -135 55t-135 -55t-55 -137q0 -79 55 -135q56 -56 135 -56t135 56q56 58 56 135z" />
<glyph unicode="&#xfb1e;" horiz-adv-x="700" d="M609 712q0 -110 -77 -187q-76 -76 -187 -76q-108 0 -185 77t-77 186q0 110 77 187t185 77q110 0 187 -77t77 -187zM536 712q0 81 -56 137q-55 55 -135 55t-135 -55t-55 -137q0 -79 55 -135q56 -56 135 -56t135 56q56 58 56 135z" />
<glyph unicode="&#xfb1f;" horiz-adv-x="700" d="M609 712q0 -110 -77 -187q-76 -76 -187 -76q-108 0 -185 77t-77 186q0 110 77 187t185 77q110 0 187 -77t77 -187zM536 712q0 81 -56 137q-55 55 -135 55t-135 -55t-55 -137q0 -79 55 -135q56 -56 135 -56t135 56q56 58 56 135z" />
<glyph unicode="&#xfb20;" horiz-adv-x="700" d="M609 712q0 -110 -77 -187q-76 -76 -187 -76q-108 0 -185 77t-77 186q0 110 77 187t185 77q110 0 187 -77t77 -187zM536 712q0 81 -56 137q-55 55 -135 55t-135 -55t-55 -137q0 -79 55 -135q56 -56 135 -56t135 56q56 58 56 135z" />
<glyph unicode="&#xfb21;" horiz-adv-x="700" d="M609 712q0 -110 -77 -187q-76 -76 -187 -76q-108 0 -185 77t-77 186q0 110 77 187t185 77q110 0 187 -77t77 -187zM536 712q0 81 -56 137q-55 55 -135 55t-135 -55t-55 -137q0 -79 55 -135q56 -56 135 -56t135 56q56 58 56 135z" />
<glyph unicode="&#xfb22;" horiz-adv-x="700" d="M609 712q0 -110 -77 -187q-76 -76 -187 -76q-108 0 -185 77t-77 186q0 110 77 187t185 77q110 0 187 -77t77 -187zM536 712q0 81 -56 137q-55 55 -135 55t-135 -55t-55 -137q0 -79 55 -135q56 -56 135 -56t135 56q56 58 56 135z" />
<glyph unicode="&#xfb23;" horiz-adv-x="700" d="M609 712q0 -110 -77 -187q-76 -76 -187 -76q-108 0 -185 77t-77 186q0 110 77 187t185 77q110 0 187 -77t77 -187zM536 712q0 81 -56 137q-55 55 -135 55t-135 -55t-55 -137q0 -79 55 -135q56 -56 135 -56t135 56q56 58 56 135z" />
<glyph unicode="&#xfb24;" horiz-adv-x="700" d="M609 712q0 -110 -77 -187q-76 -76 -187 -76q-108 0 -185 77t-77 186q0 110 77 187t185 77q110 0 187 -77t77 -187zM536 712q0 81 -56 137q-55 55 -135 55t-135 -55t-55 -137q0 -79 55 -135q56 -56 135 -56t135 56q56 58 56 135z" />
<glyph unicode="&#xfb25;" horiz-adv-x="700" d="M609 712q0 -110 -77 -187q-76 -76 -187 -76q-108 0 -185 77t-77 186q0 110 77 187t185 77q110 0 187 -77t77 -187zM536 712q0 81 -56 137q-55 55 -135 55t-135 -55t-55 -137q0 -79 55 -135q56 -56 135 -56t135 56q56 58 56 135z" />
<glyph unicode="&#xfb26;" horiz-adv-x="700" d="M609 712q0 -110 -77 -187q-76 -76 -187 -76q-108 0 -185 77t-77 186q0 110 77 187t185 77q110 0 187 -77t77 -187zM536 712q0 81 -56 137q-55 55 -135 55t-135 -55t-55 -137q0 -79 55 -135q56 -56 135 -56t135 56q56 58 56 135z" />
<glyph unicode="&#xfb27;" horiz-adv-x="700" d="M609 712q0 -110 -77 -187q-76 -76 -187 -76q-108 0 -185 77t-77 186q0 110 77 187t185 77q110 0 187 -77t77 -187zM536 712q0 81 -56 137q-55 55 -135 55t-135 -55t-55 -137q0 -79 55 -135q56 -56 135 -56t135 56q56 58 56 135z" />
<glyph unicode="&#xfb28;" horiz-adv-x="700" d="M609 712q0 -110 -77 -187q-76 -76 -187 -76q-108 0 -185 77t-77 186q0 110 77 187t185 77q110 0 187 -77t77 -187zM536 712q0 81 -56 137q-55 55 -135 55t-135 -55t-55 -137q0 -79 55 -135q56 -56 135 -56t135 56q56 58 56 135z" />
<glyph unicode="&#xfb29;" horiz-adv-x="587" d="M44 453q-9 13 -12.5 34t-3.5 43t4 42.5t12 31.5h174v184q11 9 31 14t42.5 5t43 -5t33.5 -14v-184h170q9 -11 13.5 -31t4.5 -42.5t-4.5 -43.5t-13.5 -34h-494z" />
<glyph unicode="&#xfb2a;" horiz-adv-x="1417" d="M831 287q-16 -17 -48.5 -31t-74.5 -14q-48 0 -79 14t-48 31v751q21 21 55 31t70.5 10t70.5 -10t54 -31v-751zM1314 567q0 -138 -42.5 -249t-122 -189t-192 -120t-253.5 -42q-289 0 -446 147q-156 148 -156 425v499q20 24 58.5 34t79 8.5t74.5 -12.5t46 -30v-536 q0 -185 91 -273t253 -88q168 0 260 97.5t92 306.5v493q24 20 61.5 30.5t75.5 10.5t71.5 -10t49.5 -31v-471zM1216 1290q0 -18 -7 -33.5t-18.5 -27t-27 -18.5t-33.5 -7q-17 0 -32.5 7t-27.5 18.5t-19 27t-7 33.5q0 16 7 31.5t19 27t27.5 18.5t32.5 7q39 0 62.5 -23.5 t23.5 -60.5z" />
<glyph unicode="&#xfb2b;" horiz-adv-x="1417" d="M831 287q-16 -17 -48.5 -31t-74.5 -14q-48 0 -79 14t-48 31v751q21 21 55 31t70.5 10t70.5 -10t54 -31v-751zM1314 567q0 -138 -42.5 -249t-122 -189t-192 -120t-253.5 -42q-289 0 -446 147q-156 148 -156 425v499q20 24 58.5 34t79 8.5t74.5 -12.5t46 -30v-536 q0 -185 91 -273t253 -88q168 0 260 97.5t92 306.5v493q24 20 61.5 30.5t75.5 10.5t71.5 -10t49.5 -31v-471zM316 1290q0 -18 -7 -33.5t-18.5 -27t-27 -18.5t-33.5 -7q-17 0 -32.5 7t-27.5 18.5t-19 27t-7 33.5q0 16 7 31.5t19 27t27.5 18.5t32.5 7q39 0 62.5 -23.5 t23.5 -60.5z" />
<glyph unicode="&#xfb2c;" horiz-adv-x="1417" d="M831 287q-16 -17 -48.5 -31t-74.5 -14q-48 0 -79 14t-48 31v751q21 21 55 31t70.5 10t70.5 -10t54 -31v-751zM1314 567q0 -138 -42.5 -249t-122 -189t-192 -120t-253.5 -42q-289 0 -446 147q-156 148 -156 425v499q20 24 58.5 34t79 8.5t74.5 -12.5t46 -30v-536 q0 -185 91 -273t253 -88q168 0 260 97.5t92 306.5v493q24 20 61.5 30.5t75.5 10.5t71.5 -10t49.5 -31v-471zM1029 623q0 -18 -7 -33.5t-18.5 -27t-27 -18.5t-33.5 -7t-33.5 7t-27 18.5t-18.5 27t-7 33.5q0 32 27 58q28 26 59 26q37 0 61.5 -23.5t24.5 -60.5zM1216 1290 q0 -18 -7 -33.5t-18.5 -27t-27 -18.5t-33.5 -7q-17 0 -32.5 7t-27.5 18.5t-19 27t-7 33.5q0 16 7 31.5t19 27t27.5 18.5t32.5 7q39 0 62.5 -23.5t23.5 -60.5z" />
<glyph unicode="&#xfb2d;" horiz-adv-x="1417" d="M831 287q-16 -17 -48.5 -31t-74.5 -14q-48 0 -79 14t-48 31v751q21 21 55 31t70.5 10t70.5 -10t54 -31v-751zM1314 567q0 -138 -42.5 -249t-122 -189t-192 -120t-253.5 -42q-289 0 -446 147q-156 148 -156 425v499q20 24 58.5 34t79 8.5t74.5 -12.5t46 -30v-536 q0 -185 91 -273t253 -88q168 0 260 97.5t92 306.5v493q24 20 61.5 30.5t75.5 10.5t71.5 -10t49.5 -31v-471zM316 1290q0 -18 -7 -33.5t-18.5 -27t-27 -18.5t-33.5 -7q-17 0 -32.5 7t-27.5 18.5t-19 27t-7 33.5q0 16 7 31.5t19 27t27.5 18.5t32.5 7q39 0 62.5 -23.5 t23.5 -60.5zM1029 623q0 -18 -7 -33.5t-18.5 -27t-27 -18.5t-33.5 -7t-33.5 7t-27 18.5t-18.5 27t-7 33.5q0 32 27 58q28 26 59 26q37 0 61.5 -23.5t24.5 -60.5z" />
<glyph unicode="&#xfb31;" horiz-adv-x="1085" d="M1003 176q16 -11 24.5 -35t9 -51t-8.5 -52t-27 -38h-917q-17 15 -25 40t-8 51.5t8 49.5t25 35h612q-16 14 -24.5 37.5t-12 51.5t-4 57t-0.5 53v235q0 128 -69 211q-67 82 -216 82q-88 0 -152.5 -24.5t-111.5 -53.5q-28 28 -34 83q-5 56 34 102q76 43 158 56t178 13 q218 0 345 -116q126 -116 126 -351v-317q0 -64 7.5 -91.5t29.5 -27.5h53zM421 489q0 -18 -7 -33.5t-18.5 -27t-27 -18.5t-33.5 -7t-33.5 7t-27 18.5t-18.5 27t-7 33.5q0 32 27 58q28 26 59 26q37 0 61.5 -23.5t24.5 -60.5z" />
<glyph unicode="&#xfb32;" horiz-adv-x="862" d="M759 29q-18 -25 -53 -36t-73.5 -10.5t-74.5 13t-55 33.5v407h-10q-83 0 -139 -74q-54 -74 -54 -198v-135q-19 -24 -51.5 -35.5t-66.5 -11t-64.5 12t-46.5 34.5v135q0 187 107 294q109 107 294 107h31v121q0 98 -48 161q-48 64 -146 64q-57 0 -97.5 -22.5t-64.5 -50.5 q-19 18 -28.5 42.5t-10.5 50t7.5 49.5t25.5 42q42 27 104 43t129 16q82 0 152.5 -22t122.5 -71.5t81 -129.5t29 -196v-633zM364 707q0 -18 -7 -33.5t-18.5 -27t-27 -18.5t-33.5 -7t-33.5 7t-27 18.5t-18.5 27t-7 33.5q0 32 27 58q28 26 59 26q37 0 61.5 -23.5t24.5 -60.5z " />
<glyph unicode="&#xfb33;" horiz-adv-x="1079" d="M839 887q-21 0 -28 -36.5t-7 -96.5v-725q-23 -27 -60 -38.5t-75.5 -10t-72.5 14.5t-50 34v651q0 24 3 53.5t12 58t25 53.5t42 42h-555q-17 18 -25 44.5t-8 53.5t8 49.5t25 32.5h887q30 -38 28 -91q-1 -50 -28 -89h-121zM366 493q0 -18 -7 -33.5t-18.5 -27t-27 -18.5 t-33.5 -7t-33.5 7t-27 18.5t-18.5 27t-7 33.5q0 32 27 58q28 26 59 26q37 0 61.5 -23.5t24.5 -60.5z" />
<glyph unicode="&#xfb34;" horiz-adv-x="1126" d="M1023 29q-22 -23 -57 -34t-72 -11t-72 11.5t-57 33.5v569q0 154 -77.5 235.5t-241.5 81.5q-118 0 -195 -28q-76 -26 -141 -68q-16 12 -26.5 33.5t-12.5 47.5t7 53.5t32 52.5q26 15 62.5 28.5t82.5 26.5q95 26 254 26q117 0 212 -27t162 -84t103.5 -144.5t36.5 -208.5 v-594zM360 29q-24 -22 -59.5 -33.5t-72.5 -11.5t-70.5 11t-53.5 34v589q21 28 54 41.5t69.5 13.5t71.5 -13.5t61 -41.5v-589zM651 489q0 -18 -7 -33.5t-18.5 -27t-27 -18.5t-33.5 -7t-33.5 7t-27 18.5t-18.5 27t-7 33.5q0 32 27 58q28 26 59 26q37 0 61.5 -23.5t24.5 -60.5z " />
<glyph unicode="&#xfb35;" horiz-adv-x="471" d="M358 29q-20 -24 -56 -36t-74 -11.5t-73 12.5t-53 35v1009q16 21 51.5 31t75.5 10t76 -10.5t53 -30.5v-1009zM81 547q0 -31 -22.5 -54t-53.5 -23t-53.5 23t-22.5 54q0 15 6.5 28.5t17.5 24t24.5 17t27.5 6.5q33 0 54.5 -21t21.5 -55z" />
<glyph unicode="&#xfb36;" horiz-adv-x="731" d="M522 887q-14 0 -23.5 -16.5t-15.5 -44t-9 -62.5t-3 -72v-663q-16 -23 -52 -35t-76.5 -12t-77 11.5t-52.5 35.5v651q0 25 5.5 55.5t17.5 60t31 53.5t46 38h-231q-19 12 -29 36t-10 51t9.5 52.5t29.5 40.5h557q15 -17 22.5 -41.5t8 -50.5t-7 -50t-23.5 -38h-117zM181 509 q0 -18 -7 -33.5t-18.5 -27t-27 -18.5t-33.5 -7t-33.5 7t-27 18.5t-18.5 27t-7 33.5q0 32 27 58q28 26 59 26q37 0 61.5 -23.5t24.5 -60.5z" />
<glyph unicode="&#xfb38;" horiz-adv-x="1220" d="M1118 485q0 -126 -39 -222.5t-107.5 -162.5t-162.5 -99.5t-203 -33.5q-125 0 -219.5 28t-157.5 87t-95 150t-32 217v589q21 20 57 30t75 10t73 -10t51 -30v-620q0 -66 13.5 -118t43 -87t76.5 -53.5t115 -18.5q69 0 117.5 23.5t79 64.5t45 95t14.5 116v367q0 29 -12.5 47 t-30.5 18q-19 0 -35 -13t-33 -48l-92 -195q-38 -45 -92 -51q-55 -6 -103 41l125 273q52 112 111 156t156 44q41 1 87 -12t85 -47.5t64.5 -95t25.5 -154.5v-285zM698 401q0 -18 -7 -33.5t-18.5 -27t-27 -18.5t-33.5 -7t-33.5 7t-27 18.5t-18.5 27t-7 33.5q0 32 27 58 q28 26 59 26q37 0 61.5 -23.5t24.5 -60.5z" />
<glyph unicode="&#xfb39;" horiz-adv-x="471" d="M358 481q-20 -24 -56 -35.5t-74 -11t-73 12t-53 34.5v557q16 21 51.5 31t75.5 10t76 -10.5t53 -30.5v-557zM81 757q0 -31 -22.5 -54t-53.5 -23t-53.5 23t-22.5 54q0 15 6.5 28.5t17.5 24t24.5 17t27.5 6.5q33 0 54.5 -21t21.5 -55z" />
<glyph unicode="&#xfb3a;" horiz-adv-x="972" d="M870 -338q-18 -23 -55.5 -35.5t-77.5 -13t-75 11t-50 37.5v924q0 60 -18 116.5t-53.5 101t-88 71t-121.5 26.5q-87 0 -152.5 -23.5t-107.5 -50.5q-20 13 -31 37t-12 51.5t9.5 54.5t33.5 46q52 28 144 45q91 18 190 18q219 0 342 -128t123 -363v-926zM382 535 q0 -18 -7 -33.5t-18.5 -27t-27 -18.5t-33.5 -7t-33.5 7t-27 18.5t-18.5 27t-7 33.5q0 32 27 58q28 26 59 26q37 0 61.5 -23.5t24.5 -60.5z" />
<glyph unicode="&#xfb3b;" horiz-adv-x="1026" d="M954 526q0 -139 -45 -242.5t-119.5 -172t-170 -102.5t-196.5 -34q-99 0 -180 14.5t-141 47.5q-21 17 -31.5 44t-10 55t11 52t30.5 35q40 -31 102 -53q66 -23 125 -23q73 0 138 25t113 73t76 118t28 161q0 93 -28 164t-76 119.5t-113 73t-138 24.5q-61 0 -125 -21 q-62 -19 -102 -50q-23 15 -32.5 41t-8 53.5t12 52.5t28.5 39q60 33 147 46t187 13q102 0 195.5 -33t165 -101t114.5 -172.5t43 -246.5zM407 512q0 -18 -7 -33.5t-18.5 -27t-27 -18.5t-33.5 -7t-33.5 7t-27 18.5t-18.5 27t-7 33.5q0 32 27 58q28 26 59 26q37 0 61.5 -23.5 t24.5 -60.5z" />
<glyph unicode="&#xfb3c;" horiz-adv-x="960" d="M848 535q0 -103 -34 -199.5t-101 -171t-165.5 -119.5t-228.5 -45h-59q-19 14 -29 37.5t-10.5 49t8.5 50t27 39.5h57q146 0 210.5 79t64.5 230v371q0 31 -25 31h-422q-90 0 -90 104v410q20 29 55 42.5t73 12.5t73 -15t55 -40v-307q0 -17 3 -22t17 -5h418q103 0 103 -115 v-417zM373 543q0 -18 -7 -33.5t-18.5 -27t-27 -18.5t-33.5 -7t-33.5 7t-27 18.5t-18.5 27t-7 33.5q0 32 27 58q28 26 59 26q37 0 61.5 -23.5t24.5 -60.5z" />
<glyph unicode="&#xfb3e;" horiz-adv-x="1251" d="M1152 381q0 -114 -34 -191.5t-89 -124.5t-125.5 -67.5t-142.5 -20.5q-16 0 -40 2.5t-49 7t-48 12t-37 17.5q-18 24 -23.5 49t-2.5 47.5t12.5 41t21.5 28.5q23 -16 50.5 -26.5t56.5 -10.5q37 0 72 11.5t62 38t43.5 68.5t16.5 102v380q0 39 -14 68t-35.5 47.5t-46 27.5 t-45.5 9q-49 0 -89 -30.5t-69 -110.5l-254 -727q-21 -24 -62 -35.5t-83.5 -11.5t-78.5 12t-48 35l235 612q-32 -4 -74 13q-40 18 -53 46l-139 338q12 21 48.5 32t81.5 11q22 0 44.5 -3t42 -8t35 -13.5t24.5 -18.5l107 -266l27 74q22 61 52.5 105.5t71.5 72.5t94 41.5 t120 13.5q77 0 143.5 -20t115.5 -62.5t77 -108.5t28 -157v-350zM787 478q0 -18 -7 -33.5t-18.5 -27t-27 -18.5t-33.5 -7t-33.5 7t-27 18.5t-18.5 27t-7 33.5q0 32 27 58q28 26 59 26q37 0 61.5 -23.5t24.5 -60.5z" />
<glyph unicode="&#xfb40;" horiz-adv-x="782" d="M679 106q0 -106 -90 -106h-481q-19 10 -28 35.5t-9 53.5t9.5 53t27.5 34h291q22 0 22 33v504q0 43 -12.5 78t-34.5 59.5t-53 37.5t-68 13q-32 0 -63 -12t-43 -27q-23 17 -33 44.5t-9 55t12 50.5t30 32q18 11 61 22t103 11q71 0 137.5 -18.5t117.5 -63t82 -118.5t31 -185 v-586zM338 501q0 -18 -7 -33.5t-18.5 -27t-27 -18.5t-33.5 -7t-33.5 7t-27 18.5t-18.5 27t-7 33.5q0 32 27 58q28 26 59 26q37 0 61.5 -23.5t24.5 -60.5z" />
<glyph unicode="&#xfb41;" horiz-adv-x="1218" d="M1146 528q0 -145 -44 -251.5t-117.5 -176t-171 -103.5t-203.5 -34q-105 0 -202 34.5t-172 104.5t-120 176.5t-45 249.5q0 142 45 248t120 176.5t172 105t202 34.5q106 0 203.5 -33.5t171 -102.5t117.5 -175.5t44 -252.5zM882 524q0 177 -71 287q-70 109 -201 109 t-203 -106q-72 -105 -72 -284q0 -89 20 -162t56 -124.5t86.5 -80t112.5 -28.5q124 0 198 104q74 106 74 285zM696 517q0 -18 -7 -33.5t-18.5 -27t-27 -18.5t-33.5 -7t-33.5 7t-27 18.5t-18.5 27t-7 33.5q0 32 27 58q28 26 59 26q37 0 61.5 -23.5t24.5 -60.5z" />
<glyph unicode="&#xfb43;" horiz-adv-x="1173" d="M1070 -338q-11 -18 -31.5 -29.5t-46 -17.5t-53 -6t-52.5 6t-45 17.5t-30 29.5v981q0 54 -15 103.5t-46 88t-77 61t-107 22.5q-112 0 -177 -62q-63 -62 -63 -151q0 -40 16.5 -74.5t44 -60t62.5 -40t72 -14.5q38 0 83 13q46 13 76 32q35 -29 28 -74q-8 -46 -42 -77 q-11 -12 -32 -24t-46 -21t-52.5 -15t-51.5 -6q-74 0 -147.5 20.5t-133 63.5t-96.5 108.5t-37 155.5q0 76 32 147.5t95 127t156.5 89.5t216.5 34q241 0 370 -117t129 -330v-981zM641 719q0 -18 -7 -33.5t-18.5 -27t-27 -18.5t-33.5 -7t-33.5 7t-27 18.5t-18.5 27t-7 33.5 q0 32 27 58q28 26 59 26q37 0 61.5 -23.5t24.5 -60.5z" />
<glyph unicode="&#xfb44;" horiz-adv-x="1189" d="M1118 541q0 -129 -46 -233.5t-126 -178.5t-187.5 -114t-230.5 -40q-119 0 -205 25t-152 72q-23 21 -32 51t-7 61t13.5 57.5t29.5 41.5q57 -58 134.5 -92.5t164.5 -34.5q76 0 144.5 25.5t120.5 74.5t83 121t31 164q0 88 -25 158t-65.5 119t-91.5 74.5t-104 25.5 q-112 0 -177 -62q-63 -62 -63 -151q0 -40 16.5 -74.5t44 -60t62.5 -40t72 -14.5q38 0 83 13q46 13 76 32q35 -29 28 -74q-8 -46 -42 -77q-11 -12 -32 -24t-46 -21t-52.5 -15t-51.5 -6q-74 0 -147.5 20.5t-133 63.5t-96.5 108.5t-37 155.5q0 76 32 147.5t95 127t156.5 89.5 t216.5 34t224 -40t173 -112t111 -173t39 -224zM642 716q0 -18 -7 -33.5t-18.5 -27t-27 -18.5t-33.5 -7t-33.5 7t-27 18.5t-18.5 27t-7 33.5q0 32 27 58q28 26 59 26q37 0 61.5 -23.5t24.5 -60.5z" />
<glyph unicode="&#xfb46;" horiz-adv-x="1099" d="M1009 1038q0 -95 -6.5 -165.5t-20.5 -123.5t-36 -92.5t-53.5 -73.5t-73 -65.5t-93.5 -68.5l213 -295q27 -36 32 -65t-3 -48.5t-26.5 -30t-39.5 -10.5h-776q-24 10 -35 35t-11 53t11.5 53t34.5 35h512l-606 862q11 14 32.5 23t48.5 13.5t57.5 4.5t59.5 -4.5t54.5 -13.5 t42.5 -23l319 -463q39 42 60 78.5t30.5 86t11 119.5t1.5 179q21 22 56 32t73 9.5t74 -11.5t57 -30zM272 498q0 -18 -7 -33.5t-18.5 -27t-27 -18.5t-33.5 -7t-33.5 7t-27 18.5t-18.5 27t-7 33.5q0 32 27 58q28 26 59 26q37 0 61.5 -23.5t24.5 -60.5z" />
<glyph unicode="&#xfb47;" horiz-adv-x="1171" d="M1103 623q0 -92 -24.5 -174.5t-68.5 -152t-104 -125.5t-131 -96.5t-150.5 -63.5t-160.5 -27q-14 12 -22 35t-8.5 48t6.5 47t22 31q204 39 289 157q86 119 86 294q0 57 -16.5 109.5t-48 93t-78 64.5t-105.5 24h-475q-18 15 -28 39.5t-10.5 50.5t9 50.5t29.5 39.5h539 q201 0 326 -111q124 -109 124 -333zM364 -338q-19 -22 -55 -33.5t-75 -11.5t-74.5 11t-53.5 34v1059q20 27 53.5 40.5t71 12.5t73 -15t60.5 -42v-1055zM686 546q0 -18 -7 -33.5t-18.5 -27t-27 -18.5t-33.5 -7t-33.5 7t-27 18.5t-18.5 27t-7 33.5q0 32 27 58q28 26 59 26 q37 0 61.5 -23.5t24.5 -60.5z" />
<glyph unicode="&#xfb48;" horiz-adv-x="972" d="M870 29q-18 -24 -55 -36t-77 -11.5t-75.5 12.5t-50.5 35v557q0 60 -18.5 116.5t-54 101t-88.5 71t-122 26.5q-87 0 -151.5 -23.5t-106.5 -50.5q-20 13 -31 37t-12 51.5t9.5 54.5t33.5 46q52 28 144 45q91 18 188 18q218 0 343 -128q124 -127 124 -363v-559zM389 500 q0 -18 -7 -33.5t-18.5 -27t-27 -18.5t-33.5 -7t-33.5 7t-27 18.5t-18.5 27t-7 33.5q0 32 27 58q28 26 59 26q37 0 61.5 -23.5t24.5 -60.5z" />
<glyph unicode="&#xfb49;" horiz-adv-x="1417" d="M831 287q-16 -17 -48.5 -31t-74.5 -14q-48 0 -79 14t-48 31v751q21 21 55 31t70.5 10t70.5 -10t54 -31v-751zM1314 567q0 -138 -42.5 -249t-122 -189t-192 -120t-253.5 -42q-289 0 -446 147q-156 148 -156 425v499q20 24 58.5 34t79 8.5t74.5 -12.5t46 -30v-536 q0 -185 91 -273t253 -88q168 0 260 97.5t92 306.5v493q24 20 61.5 30.5t75.5 10.5t71.5 -10t49.5 -31v-471zM1029 623q0 -18 -7 -33.5t-18.5 -27t-27 -18.5t-33.5 -7t-33.5 7t-27 18.5t-18.5 27t-7 33.5q0 32 27 58q28 26 59 26q37 0 61.5 -23.5t24.5 -60.5z" />
<glyph unicode="&#xfb4a;" horiz-adv-x="1259" d="M1156 29q-17 -24 -53.5 -35.5t-76.5 -11.5t-75.5 12t-50.5 35v676q0 84 -40.5 133t-110.5 49h-213q-15 0 -23 -13t-11.5 -34t-4 -47t-0.5 -52v-419q0 -187 -80 -267t-225 -80q-42 0 -73.5 11.5t-45.5 21.5q-20 15 -31.5 38.5t-12.5 49.5t8.5 51t31.5 43q10 -12 28.5 -24 t41.5 -12q54 0 78 37t24 106v377q0 17 1 45.5t7 59.5t18 60.5t33 47.5h-157q-18 11 -28 35.5t-10.5 52t8.5 53t30 39.5h676q176 0 256.5 -95t80.5 -276v-667zM785 574q0 -18 -7 -33.5t-18.5 -27t-27 -18.5t-33.5 -7t-33.5 7t-27 18.5t-18.5 27t-7 33.5q0 32 27 58 q28 26 59 26q37 0 61.5 -23.5t24.5 -60.5z" />
<glyph unicode="&#xfb4b;" horiz-adv-x="471" d="M358 29q-20 -24 -56 -36t-74 -11.5t-73 12.5t-53 35v1009q16 21 51.5 31t75.5 10t76 -10.5t53 -30.5v-1009zM316 1290q0 -18 -7 -33.5t-18.5 -27t-27 -18.5t-33.5 -7q-17 0 -32.5 7t-27.5 18.5t-19 27t-7 33.5q0 16 7 31.5t19 27t27.5 18.5t32.5 7q39 0 62.5 -23.5 t23.5 -60.5z" />
<glyph horiz-adv-x="0" />
<glyph horiz-adv-x="700" d="M609 712q0 -110 -77 -187q-76 -76 -187 -76q-108 0 -185 77t-77 186q0 110 77 187t185 77q110 0 187 -77t77 -187zM536 712q0 81 -56 137q-55 55 -135 55t-135 -55t-55 -137q0 -79 55 -135q56 -56 135 -56t135 56q56 58 56 135z" />
<glyph horiz-adv-x="700" d="M609 712q0 -110 -77 -187q-76 -76 -187 -76q-108 0 -185 77t-77 186q0 110 77 187t185 77q110 0 187 -77t77 -187zM536 712q0 81 -56 137q-55 55 -135 55t-135 -55t-55 -137q0 -79 55 -135q56 -56 135 -56t135 56q56 58 56 135z" />
<glyph horiz-adv-x="700" d="M609 712q0 -110 -77 -187q-76 -76 -187 -76q-108 0 -185 77t-77 186q0 110 77 187t185 77q110 0 187 -77t77 -187zM536 712q0 81 -56 137q-55 55 -135 55t-135 -55t-55 -137q0 -79 55 -135q56 -56 135 -56t135 56q56 58 56 135z" />
<glyph horiz-adv-x="700" d="M609 712q0 -110 -77 -187q-76 -76 -187 -76q-108 0 -185 77t-77 186q0 110 77 187t185 77q110 0 187 -77t77 -187zM536 712q0 81 -56 137q-55 55 -135 55t-135 -55t-55 -137q0 -79 55 -135q56 -56 135 -56t135 56q56 58 56 135z" />
<glyph d="M657 770q0 -119 -83 -202t-203 -83q-118 0 -200 84q-83 85 -83 201q0 118 83 203q82 84 200 84q120 0 203 -84q83 -85 83 -203zM578 770q0 88 -60 148q-58 61 -147 61q-86 0 -146 -61q-59 -61 -59 -148q0 -84 59 -146q60 -61 146 -61q89 0 147 61q60 61 60 146z" />
<glyph d="M657 770q0 -119 -83 -202t-203 -83q-118 0 -200 84q-83 85 -83 201q0 118 83 203q82 84 200 84q120 0 203 -84q83 -85 83 -203zM578 770q0 88 -60 148q-58 61 -147 61q-86 0 -146 -61q-59 -61 -59 -148q0 -84 59 -146q60 -61 146 -61q89 0 147 61q60 61 60 146z" />
<glyph d="M657 770q0 -119 -83 -202t-203 -83q-118 0 -200 84q-83 85 -83 201q0 118 83 203q82 84 200 84q120 0 203 -84q83 -85 83 -203zM578 770q0 88 -60 148q-58 61 -147 61q-86 0 -146 -61q-59 -61 -59 -148q0 -84 59 -146q60 -61 146 -61q89 0 147 61q60 61 60 146z" />
<glyph horiz-adv-x="0" d="M934 -299q0 -39 -26 -66.5t-68 -27.5q-39 0 -65.5 27.5t-26.5 66.5t26.5 64.5t65.5 25.5t66.5 -25.5t27.5 -64.5zM934 -600q0 -42 -26 -68t-68 -26q-39 0 -65.5 26t-26.5 68q0 18 7.5 35t20 29.5t29.5 20t35 7.5q42 0 68 -26.5t26 -65.5zM639 -672h-94v445h94v-445z M418 -346h-170l-6 -100q0 -23 29 -67q30 -44 30 -65q0 -40 -26.5 -67t-65.5 -27q-20 0 -36.5 7.5t-29 20.5t-19.5 30t-7 36q0 25 30 67q31 41 31 67l-8 98h-170v119h418v-119z" />
<glyph d="M657 770q0 -119 -83 -202t-203 -83q-118 0 -200 84q-83 85 -83 201q0 118 83 203q82 84 200 84q120 0 203 -84q83 -85 83 -203zM578 770q0 88 -60 148q-58 61 -147 61q-86 0 -146 -61q-59 -61 -59 -148q0 -84 59 -146q60 -61 146 -61q89 0 147 61q60 61 60 146z" />
<glyph d="M657 770q0 -119 -83 -202t-203 -83q-118 0 -200 84q-83 85 -83 201q0 118 83 203q82 84 200 84q120 0 203 -84q83 -85 83 -203zM578 770q0 88 -60 148q-58 61 -147 61q-86 0 -146 -61q-59 -61 -59 -148q0 -84 59 -146q60 -61 146 -61q89 0 147 61q60 61 60 146z" />
<glyph d="M657 770q0 -119 -83 -202t-203 -83q-118 0 -200 84q-83 85 -83 201q0 118 83 203q82 84 200 84q120 0 203 -84q83 -85 83 -203zM578 770q0 88 -60 148q-58 61 -147 61q-86 0 -146 -61q-59 -61 -59 -148q0 -84 59 -146q60 -61 146 -61q89 0 147 61q60 61 60 146z" />
<glyph d="M657 770q0 -119 -83 -202t-203 -83q-118 0 -200 84q-83 85 -83 201q0 118 83 203q82 84 200 84q120 0 203 -84q83 -85 83 -203zM578 770q0 88 -60 148q-58 61 -147 61q-86 0 -146 -61q-59 -61 -59 -148q0 -84 59 -146q60 -61 146 -61q89 0 147 61q60 61 60 146z" />
</font>
</defs>
</svg>
