<?xml version="1.0" standalone="no"?>
<!DOCTYPE svg PUBLIC "-//W3C//DTD SVG 1.1//EN" "http://www.w3.org/Graphics/SVG/1.1/DTD/svg11.dtd" >
<svg xmlns="http://www.w3.org/2000/svg">
<metadata></metadata>
<defs>
<font id="fb_tipografregular" horiz-adv-x="756" >
<font-face units-per-em="2048" ascent="1638" descent="-410" />
<missing-glyph horiz-adv-x="563" />
<glyph unicode="&#xd;" horiz-adv-x="512" />
<glyph unicode=" "  horiz-adv-x="563" />
<glyph unicode="&#x09;" horiz-adv-x="563" />
<glyph unicode="&#xa0;" horiz-adv-x="563" />
<glyph unicode="!" horiz-adv-x="512" d="M294 326h-100l-66 776q-8 96 119 96q125 0 115 -96zM333 2h-180v182h180v-182z" />
<glyph unicode="&#x22;" horiz-adv-x="632" d="M592 1118q-94 -207 -226 -330q-26 23 -67 82q32 56 50.5 91t25.5 49q25 49 44.5 104.5t34.5 118.5v2q73 -41 138 -117zM344 1118q-95 -209 -225 -330q-13 11 -29.5 32t-38.5 50q32 56 50.5 91t25.5 49q25 49 45 104.5t37 118.5l-2 2q72 -39 137 -117z" />
<glyph unicode="#" horiz-adv-x="991" d="M913 840q0 -81 -16 -129h-152l-59 -394h150q0 -45 -15 -127h-155l-29 -190q-10 -1 -23 -1.5t-30 -0.5q-23 0 -40 0.5t-28 1.5l29 190h-234l-28 -190q-8 -1 -21.5 -1.5t-30.5 -0.5q-23 0 -40 0.5t-29 1.5l28 190h-145q0 22 6 54q1 12 3 30t5 43h152l59 394h-147 q0 43 12 129h156l28 190q11 1 27.5 1.5t36.5 0.5h2q39 0 55 -4l-28 -188h233l29 190q11 1 27 1.5t36 0.5q41 0 58 -4l-29 -188h147zM625 711h-234l-59 -394h233z" />
<glyph unicode="$" horiz-adv-x="952" d="M860 272q0 -130 -127 -209q-103 -64 -211 -65v-88h-94l2 90q-84 0 -174 43q-126 58 -160 162q49 50 147 61q28 -118 185 -147v350q-297 106 -297 297q0 120 98 197q88 67 199 67v109h94v-109q170 0 297 -166q-62 -64 -137 -71q-27 55 -82 88q-46 26 -78 26v-297 q338 -119 338 -338zM428 907q-135 -12 -135 -127q0 -78 135 -133v260zM682 258q0 109 -160 182v-321q160 16 160 139z" />
<glyph unicode="%" horiz-adv-x="1253" d="M1171 238q0 -102 -77 -179q-77 -75 -179 -75q-112 0 -188 69q-75 70 -75 180q0 111 75 180q76 70 188 70q111 0 184 -68q72 -68 72 -177zM1029 1028l-647 -1028h-172l647 1028h172zM591 803q0 -103 -76 -179q-75 -75 -178 -75q-113 0 -189 69q-77 71 -77 181 q0 108 78 179q79 71 188 71q111 0 182 -68q72 -68 72 -178zM1011 234q0 153 -100 153q-99 0 -99 -158q0 -149 99 -149q100 0 100 154zM431 801q0 152 -100 152t-100 -156q0 -152 100 -152t100 156z" />
<glyph unicode="&#x26;" horiz-adv-x="1247" d="M1253 48q13 -13 13 -27q0 -25 -26 -25h-74q-33 0 -67 34l-114 116q-163 -166 -436 -166h-105q-408 0 -408 309q0 137 68 220q39 48 140 108l164 97q6 4 -4 15l-40 43q-68 74 -89 140q-16 52 -16 156q0 148 54 224q71 99 248 99h13q158 0 228 -64q75 -70 75 -237 q0 -238 -153 -340l-95 -62q-5 -4 4 -13l341 -346q29 62 29 201q0 9 1 38v36q0 33 34 33h102q29 0 33 -32q3 -17 3 -64q0 -188 -113 -301zM710 1027v84q0 99 -25 132t-95 33h-38q-117 0 -117 -143v-117q0 -132 51 -189l29 -32q10 -12 26 -1l76 52q93 63 93 181zM903 228 l-375 380q-13 14 -26 6l-204 -118q-76 -45 -76 -123v-97q0 -91 60.5 -123.5t244.5 -32.5q145 0 209 14q101 22 167 94z" />
<glyph unicode="'" horiz-adv-x="385" d="M344 1118q-110 -243 -225 -350q-13 11 -29.5 32t-38.5 50q94 175 147 383l9 2q72 -39 137 -117z" />
<glyph unicode="(" horiz-adv-x="501" d="M272 -205q-43 62 -80 149.5t-68 202.5q-59 215 -59 369t57 363q61 226 150 354h131q-57 -116 -111 -352q-53 -238 -53 -363v-4q0 -143 43 -348q50 -236 121 -371h-131z" />
<glyph unicode=")" horiz-adv-x="501" d="M436 516q0 -158 -57 -366q-61 -226 -150 -355h-131q71 135 121 371q43 205 43 348v4q0 127 -54 363q-26 119 -53.5 206.5t-56.5 145.5h131q88 -116 150 -348q57 -213 57 -369z" />
<glyph unicode="*" horiz-adv-x="874" d="M735 877q-27 -73 -78 -140l-186 164l45 -256h-80h-2h-25q-7 -1 -12.5 -1.5t-9.5 -0.5q-6 0 -12 0.5t-11 1.5l54 256l-203 -164q-23 27 -36 54l-40 83l254 76l-254 80q28 76 74 144l205 -173l-58 261q33 6 82 6q16 0 36 -1t46 -3l-53 -263l186 181q11 -14 21 -26.5 t18 -25.5q11 -29 37 -86l-238 -94z" />
<glyph unicode="+" horiz-adv-x="874" d="M792 514q0 -61 -4 -84h-275v-276q-10 -1 -27.5 -1.5t-42.5 -0.5q-26 0 -46.5 0.5t-34.5 1.5v276h-279v74v71h279v283q12 2 30 3t43 1q27 0 46.5 -1t31.5 -3v-283h275q2 -13 3 -28.5t1 -32.5z" />
<glyph unicode="," horiz-adv-x="313" d="M253 113q-47 -95 -119 -193q-73 -98 -115 -129q-10 10 -24.5 28t-34.5 46q88 126 154 360q42 -23 76.5 -51.5t62.5 -60.5z" />
<glyph unicode="-" horiz-adv-x="874" d="M741 492q0 -41 -4 -64h-602v53v103h602q2 -14 3 -37t1 -55z" />
<glyph unicode="." horiz-adv-x="311" d="M229 0h-178v186h178v-186z" />
<glyph unicode="/" horiz-adv-x="835" d="M756 1028l-547 -1028h-160l547 1028h160z" />
<glyph unicode="0" horiz-adv-x="952" d="M856 434q0 -217 -103 -338q-102 -121 -274 -121t-278 121q-105 121 -105 338v156q0 216 105 338q106 121 278 121t274 -121q103 -121 103 -338v-156zM657 580q0 335 -180 335t-180 -335v-136q0 -335 180 -335t180 335v136z" />
<glyph unicode="1" horiz-adv-x="952" d="M708 0h-195v842q-100 -115 -311 -205q-1 10 -1.5 32.5t-0.5 57.5q0 25 0.5 41.5t1.5 26.5q200 68 352 233h154v-1028z" />
<glyph unicode="2" horiz-adv-x="952" d="M856 72q0 -29 -6 -72h-713q-45 0 -45 78q0 69 98 162l305 284q127 118 127 207q0 187 -204 187q-108 0 -209 -89q-55 55 -68 111q130 107 303 107q165 0 269 -78t104 -221q0 -164 -213 -351l-301 -264h547q6 -57 6 -61z" />
<glyph unicode="3" horiz-adv-x="952" d="M865 289q0 -137 -114 -227q-113 -89 -285 -89q-252 0 -387 117q13 59 68 111q134 -97 276 -97q101 0 169 49q69 49 69 132q0 42 -16.5 76.5t-48 59.5t-76 38.5t-101.5 13.5h-102q-11 30 -11 72q0 37 11 67h100q203 0 203 146q0 34 -15.5 63t-45 50t-71 32.5t-92.5 11.5 q-113 0 -219 -75q-54 54 -67 110q124 97 344 97q166 0 264 -78q92 -72 92 -189q0 -68 -43 -129q-47 -69 -129 -96q99 -19 163 -95q64 -74 64 -171z" />
<glyph unicode="4" horiz-adv-x="952" d="M895 279q0 -14 -1 -29.5t-3 -34.5h-117v-215h-184v215h-500q-29 0 -35 12.5t-6 46.5q0 57 12 74q150 213 219 318q135 201 218 362h186q29 0 16 -22q-69 -137 -208 -340q-138 -202 -236 -320h334v238q85 49 184 63v-301h117q2 -28 3 -44.5t1 -22.5z" />
<glyph unicode="5" horiz-adv-x="952" d="M864 336q0 -167 -129 -264q-116 -88 -289 -88q-211 0 -356 96q17 73 68 121l116 -60q69 -26 150 -26q103 0 168 57t65 162q0 93 -69 149q-60 45 -138 45q-98 0 -153 -75q-72 -1 -172 18l45 512q4 45 33 45h583q6 -35 6 -55q0 -44 -6 -78h-424l-24 -289q86 53 184 53 q138 0 236 -81q106 -91 106 -242z" />
<glyph unicode="6" horiz-adv-x="952" d="M856 344q0 -159 -113 -266q-113 -105 -274 -105q-373 0 -373 430v99q0 270 127 418q115 133 295 133q164 0 274 -90q-5 -32 -67 -111q-104 66 -209 66q-111 0 -174 -109q-58 -97 -49 -240q24 45 91 78t134 33q166 0 256 -98q82 -89 82 -238zM651 328q0 96 -52 163 q-53 68 -126 68q-78 0 -127 -57q-53 -65 -53 -174q0 -54 13.5 -97t37.5 -72.5t57 -45t72 -15.5q73 0 126 66q52 67 52 164z" />
<glyph unicode="7" horiz-adv-x="952" d="M861 963q0 -25 -20 -48q-163 -182 -269 -477q-92 -259 -92 -438h-164q-38 0 -38 37v8q0 148 96 397q102 267 246 453h-531q-6 68 2 133h733q37 0 37 -65z" />
<glyph unicode="8" horiz-adv-x="952" d="M880 270q0 -136 -115 -218q-115 -83 -288 -83q-175 0 -291 83q-115 82 -115 218q0 97 65 174q67 79 162 101q-83 23 -129 85q-47 65 -47 140q0 133 103 211q97 74 252 74q156 0 254 -75t98 -210q0 -73 -47 -138q-47 -63 -129 -87q97 -29 162 -105t65 -170zM638 764 q0 76 -44.5 118t-116.5 42t-117 -42t-45 -118q0 -70 45 -115t117 -45q71 0 116 45t45 115zM677 281q0 99 -67 151q-56 45 -133 45q-76 0 -134 -45q-67 -55 -67 -151q0 -80 65 -134q61 -47 136 -47t137 50q63 51 63 131z" />
<glyph unicode="9" horiz-adv-x="952" d="M856 483q0 -259 -127 -393q-113 -117 -295 -117q-163 0 -272 90q5 32 67 111q104 -65 209 -65q113 0 170 96t51 252q-24 -45 -92 -78t-133 -33q-165 0 -256 103q-82 94 -82 243q0 159 105 260q107 101 262 101q393 0 393 -437v-133zM659 698q0 102 -45 164 q-51 68 -143 68q-42 0 -74 -17t-53 -47.5t-32 -73.5t-11 -94q0 -56 13.5 -99t37.5 -72.5t57 -44.5t72 -15q84 0 131 65q47 67 47 166z" />
<glyph unicode=":" horiz-adv-x="311" d="M229 600h-178v186h178v-186zM229 0h-178v186h178v-186z" />
<glyph unicode=";" horiz-adv-x="313" d="M230 600h-178v186h178v-186zM253 113q-47 -95 -119 -193q-73 -98 -115 -129q-10 10 -24.5 28t-34.5 46q124 216 164 360q65 -38 129 -112z" />
<glyph unicode="&#x3c;" horiz-adv-x="874" d="M766 909q0 -26 -1.5 -48.5t-5.5 -39.5l-516 -309l516 -295l4 -46t3 -46q0 -59 -7 -88l-634 379q-25 13 -25 100q0 84 29 102l630 390q4 -20 5.5 -44.5t1.5 -54.5z" />
<glyph unicode="=" horiz-adv-x="874" d="M761 688q0 -49 -4 -72h-643v72v82h643q2 -14 3 -34t1 -48zM761 330q0 -30 -1 -51t-3 -33h-643v71v82h643q4 -23 4 -69z" />
<glyph unicode="&#x3e;" horiz-adv-x="874" d="M778 516q0 -87 -25 -100l-635 -379q-6 31 -6 88q0 45 6 92l516 295l-516 309q-6 34 -6 88q0 58 6 99l631 -390q29 -18 29 -102z" />
<glyph unicode="?" horiz-adv-x="942" d="M841 897q0 -158 -160 -291q-96 -80 -110 -98q-59 -73 -59 -172v-10h-152v24q0 223 170 355q108 82 108 186q0 167 -174 166q-176 -2 -176 -193h-182q0 164 100 248t271 84q155 0 259 -83q105 -83 105 -216zM528 2h-178v182h178v-182z" />
<glyph unicode="@" horiz-adv-x="1987" d="M1793 722q0 -238 -118 -377q-102 -121 -242 -121q-91 0 -138 27q-54 31 -101 122q-34 -90 -87 -123t-170 -33q-140 0 -221 99t-81 264q0 433 413 433q163 0 254 -20q43 -10 43 -33v-560q0 -86 90 -86q93 0 145.5 92.5t52.5 261.5q0 352 -179 495q-146 116 -454 116 q-341 0 -480 -148q-144 -153 -144 -533q0 -345 162 -501q147 -140 444 -140q318 0 524 109q35 18 35 -15v-63q0 -29 -33 -49q-208 -125 -501 -125q-802 0 -802 773q0 825 825 825q324 0 517 -138q246 -174 246 -552zM1194 487v410q0 14 -25 17q-45 6 -89 6q-128 0 -180 -33 q-108 -69 -108 -294q0 -146 45.5 -210t151.5 -64q75 0 135 40q70 48 70 128z" />
<glyph unicode="A" horiz-adv-x="1212" d="M1156 52q17 -52 -21 -52h-94q-39 0 -51 37l-101 295h-561l-99 -289q-14 -43 -52 -43h-94q-28 0 -28 20q0 10 9 38l400 1211q15 43 58 43h172q43 0 57 -43zM844 473l-224 690h-24l-227 -690h475z" />
<glyph unicode="B" horiz-adv-x="1252" d="M1133 334q0 -334 -421 -334h-503q-41 0 -41 38v1237q0 37 41 37h501q162 0 239 -63q90 -74 90 -246v-42q0 -106 -44.5 -164.5t-151.5 -91.5q152 -9 216 -75q74 -76 74 -266v-30zM875 956q0 112 -39 160q-43 52 -146 52h-356v-420h354q108 0 150 52q37 45 37 156zM959 376 q0 121 -40 175q-43 60 -144 60h-441v-465h441q106 0 147 59q37 51 37 171z" />
<glyph unicode="C" horiz-adv-x="1184" d="M1065 78q0 -38 -50 -50q-150 -35 -327 -35q-301 0 -416 122q-77 82 -109 191q-37 125 -37 349q0 275 44 395q37 101 146 178q132 93 372 93q144 0 319 -34q58 -11 58 -56v-48q0 -35 -67 -30q-117 10 -361 10q-169 0 -246 -70q-82 -75 -82 -248v-374q0 -173 80 -249 q77 -73 247 -73q295 0 368 4q36 2 43 0q18 -5 18 -33v-42z" />
<glyph unicode="D" horiz-adv-x="1335" d="M1195 655q0 -223 -36 -340q-30 -100 -108 -183q-124 -132 -406 -132h-436q-41 0 -41 50v1219q0 43 44 43h420q246 0 373 -90q109 -77 146 -174q44 -119 44 -393zM1012 456v389q0 321 -355 321h-314v-1016h326q175 0 255 65q88 72 88 241z" />
<glyph unicode="E" horiz-adv-x="1129" d="M1013 41q0 -15 -3 -24q-6 -17 -38 -17h-763q-41 0 -41 38v1237q0 38 41 38h763q33 0 39 -19q2 -7 2 -22v-63q0 -44 -41 -44h-632v-417h557q33 0 39 -19q2 -7 2 -22v-62q0 -44 -41 -44h-557v-449h632q41 0 41 -44v-67z" />
<glyph unicode="F" horiz-adv-x="1050" d="M952 1209q0 -44 -41 -44h-572v-417h497q33 0 39 -19q2 -7 2 -22v-62q0 -44 -41 -44h-497v-560q0 -41 -39 -41h-91q-41 0 -41 38v1237q0 38 41 38h702q33 0 39 -19q2 -7 2 -22v-63z" />
<glyph unicode="G" horiz-adv-x="1337" d="M1178 81q0 -30 -67 -46q-191 -46 -411 -46q-190 0 -292 29q-97 28 -160 96q-108 116 -108 345v355q0 252 108 369q124 134 422 134q256 0 425 -32q38 -7 38 -39v-50q0 -41 -50 -38q-91 4 -427 4t-336 -229v-534q0 -140 73 -201q77 -64 264 -64q225 0 356 10v424 q0 9 -15 9h-329q-50 0 -50 41v72q0 41 47 41h448q55 0 62 -36q2 -13 2 -37v-577z" />
<glyph unicode="H" horiz-adv-x="1357" d="M1189 50q0 -50 -44 -50h-90q-40 0 -40 50v551h-672v-551q0 -50 -44 -50h-90q-41 0 -41 50v1219q0 43 44 43h90q41 0 41 -46v-518h672v521q0 43 43 43h90q41 0 41 -46v-1216z" />
<glyph unicode="I" horiz-adv-x="454" d="M315 50q0 -50 -44 -50h-90q-41 0 -41 50v1219q0 43 44 43h90q41 0 41 -46v-1216z" />
<glyph unicode="J" horiz-adv-x="550" d="M409 157q0 -442 -368 -442q-57 0 -116 18q-25 7 -25 52v55q0 29 50 26q45 -2 56 -2q232 0 232 240v1165q0 44 41 44h89q41 0 41 -38v-1118z" />
<glyph unicode="K" horiz-adv-x="1241" d="M1188 47q11 -11 11 -23q0 -24 -30 -24h-136q-38 0 -67 30l-580 597q-18 19 -18 39t20 43l517 574q27 29 68 29h114q26 0 26 -25q0 -15 -10 -26l-533 -588zM343 50q0 -50 -44 -50h-90q-41 0 -41 50v1219q0 43 44 43h90q41 0 41 -46v-1216z" />
<glyph unicode="L" horiz-adv-x="1042" d="M965 41q0 -15 -2 -24q-6 -17 -39 -17h-715q-41 0 -41 38v1237q0 38 41 38h89q42 0 42 -43v-1118h584q41 0 41 -44v-67z" />
<glyph unicode="M" horiz-adv-x="1615" d="M1447 50q0 -50 -43 -50h-85q-41 0 -41 50v895l13 210h-9l-368 -1110q-15 -44 -58 -44h-111q-44 0 -58 44l-354 1110h-8l12 -210v-895q0 -50 -44 -50h-84q-41 0 -41 50v1219q0 43 56 43h176q44 0 59 -48l345 -1094l352 1094q16 48 59 48h180q52 0 52 -46v-1216z" />
<glyph unicode="N" horiz-adv-x="1357" d="M1189 50q0 -50 -44 -50h-98q-37 0 -69 52l-642 1026l-9 -2l10 -175v-851q0 -50 -44 -50h-84q-41 0 -41 50v1219q0 43 44 43h119q34 0 65 -48l624 -1005l9 4l-12 182v824q0 43 44 43h87q41 0 41 -46v-1216z" />
<glyph unicode="O" horiz-adv-x="1420" d="M1287 678q0 -341 -116 -500q-77 -106 -175 -151q-106 -47 -284 -47h-3q-182 0 -284 39q-112 42 -188 151q-105 151 -105 482q0 326 84 464q74 121 184.5 170.5t308.5 49.5h3q202 0 310.5 -46.5t179.5 -161.5q85 -137 85 -450zM1110 520v276q0 214 -86 301q-75 77 -245 77 h-157q-159 0 -232 -80q-78 -86 -78 -286v-263q0 -406 334 -406h133q331 0 331 381z" />
<glyph unicode="P" horiz-adv-x="1183" d="M1077 895q0 -353 -436 -353h-150q-51 0 -148 26v-518q0 -50 -44 -50h-90q-41 0 -41 50v1219q0 43 44 43h511q160 0 252 -79q102 -89 102 -262v-76zM913 928q0 237 -185 237h-385v-479h383q108 0 150 59q37 54 37 183z" />
<glyph unicode="Q" horiz-adv-x="1436" d="M1362 -110q14 -16 14 -30q0 -18 -23 -18h-130q-33 0 -60 32l-151 182q-121 -76 -300 -76h-3q-339 0 -472 190q-105 151 -105 482q0 326 84 464q74 121 184.5 170.5t308.5 49.5h3q197 0 311 -50q106 -47 179 -158q85 -127 85 -450q0 -199 -31 -312q-34 -121 -121 -209z M1110 534v276q0 212 -86 294q-73 70 -245 70h-157q-161 0 -232 -73q-78 -81 -78 -279v-277q0 -406 334 -406h77q115 0 192 43l-176 210q-12 14 -12 28q0 24 27 24h98q36 0 63 -33l116 -139q79 84 79 262z" />
<glyph unicode="R" horiz-adv-x="1217" d="M1147 47q12 -15 12 -28q0 -19 -24 -19h-128q-30 0 -51 27l-403 520q-125 0 -213 21v-518q0 -50 -44 -50h-87q-41 0 -41 50v1219q0 43 44 43h511q160 0 252 -79q102 -89 102 -262v-56q0 -317 -338 -362zM913 928q0 132 -40 184.5t-145 52.5h-388v-465h386q108 0 150 57 q37 50 37 171z" />
<glyph unicode="S" horiz-adv-x="1192" d="M1066 369q0 -216 -163 -314q-111 -67 -357 -67q-189 0 -327 27q-59 12 -59 56v50q0 34 68 29q159 -12 332 -12q190 0 253 31q69 35 69 146v95q0 140 -56 179q-45 30 -204 30h-141q-190 0 -271 85q-77 80 -77 254q0 203 133 297q65 46 153 60q56 9 179 9q175 0 308 -26 q58 -11 58 -47v-53q0 -22 -17 -27q-9 -2 -50 -2h-148q-124 1 -179 1q-163 0 -211.5 -33t-48.5 -138v-40q0 -123 28 -154q39 -43 196 -43h79q261 0 357 -91.5t96 -301.5z" />
<glyph unicode="T" horiz-adv-x="1106" d="M1032 1206q0 -44 -41 -44h-348v-1124q0 -38 -41 -38h-90q-41 0 -41 44v1118h-353q-41 0 -41 44v66q0 16 3 25q6 16 38 16h873q33 0 39 -19q2 -7 2 -22v-66z" />
<glyph unicode="U" horiz-adv-x="1356" d="M1188 415q0 -204 -100 -304q-120 -121 -405 -121q-294 0 -413 113q-102 98 -102 312v849q0 49 41 49h90q44 0 44 -49v-877q0 -122 58 -177q76 -72 277 -72q204 0 279 72q56 54 56 177v877q0 49 44 49h90q41 0 41 -49v-849z" />
<glyph unicode="V" horiz-adv-x="1305" d="M1231 1261l-441 -1216q-16 -44 -57 -44h-164q-42 0 -57 44l-439 1222q-17 46 27 46h106q22 0 28.5 -4.5t16.5 -33.5l390 -1116h23l385 1114q14 40 58 40h98q45 0 26 -52z" />
<glyph unicode="W" horiz-adv-x="1987" d="M1912 1263l-354 -1218q-12 -44 -57 -44h-158q-45 0 -57 44l-286 1048h-9l-286 -1048q-12 -44 -57 -44h-162q-44 0 -57 44l-354 1216q-15 52 28 52h106q34 0 46 -42l314 -1111h12l296 1070q13 49 59 49h121q46 0 60 -49l296 -1070h12l306 1109q12 44 47 44h106 q43 0 28 -50z" />
<glyph unicode="X" horiz-adv-x="1334" d="M1235 100q47 -54 47 -76q0 -24 -30 -24h-115q-41 0 -75 45l-396 515l-400 -515q-35 -45 -75 -45h-110q-30 0 -30 24q0 17 38 66l463 592l-427 579q-13 17 -13 31q0 21 27 21h129q35 0 58 -32l341 -477l340 475q25 34 62 34h132q26 0 26 -20q0 -14 -14 -32l-430 -575z" />
<glyph unicode="Y" horiz-adv-x="1208" d="M1075 1227l-377 -597v-580q0 -50 -44 -50h-90q-41 0 -41 50v580l-419 597q-34 43 -34 61q0 25 32 25h126q22 0 27.5 -3.5t24.5 -32.5l330 -490l282 482q26 44 62 44h123q31 0 31 -21q0 -16 -33 -65z" />
<glyph unicode="Z" horiz-adv-x="1105" d="M1049 44q0 -44 -41 -44h-927q-18 0 -20.5 12.5t-3.5 25.5q-4 24 10 46l59 93l618 985h-592q-41 0 -41 44v66q0 16 3 26q6 15 38 15h814q35 0 35 -40q0 -25 -10 -40l-74 -116l-611 -965h702q41 0 41 -41v-67z" />
<glyph unicode="[" horiz-adv-x="632" d="M530 -256q-387 0 -387 444v695q0 225 94 333.5t293 108.5h59q13 -51 0 -121h-22q-60 0 -105.5 -20t-77 -57.5t-47.5 -90t-16 -118.5v-771q0 -282 246 -282h25q6 -78 0 -121h-62z" />
<glyph unicode="\" horiz-adv-x="768" d="M738 -26q7 -17 7 -30q0 -33 -39 -33h-52q-44 0 -65 51l-556 1360q-8 18 -8 31q0 30 37 30h54q44 0 61 -41z" />
<glyph unicode="]" horiz-adv-x="632" d="M489 188q0 -444 -387 -444h-62q-6 43 0 121h25q246 0 246 282v771q0 66 -16 118.5t-47 90t-77 57.5t-106 20h-21q-13 70 0 121h58q387 0 387 -442v-695z" />
<glyph unicode="^" horiz-adv-x="1071" d="M989 646h-162l-282 567h-15l-286 -567h-162l379 692h153z" />
<glyph unicode="_" horiz-adv-x="884" d="M865 -101q0 -41 -52 -41h-739q-50 0 -50 41v60q0 41 50 41h739q52 0 52 -41v-60z" />
<glyph unicode="a" horiz-adv-x="965" d="M940 66q0 -30 -39 -41l-47 -12q-73 -19 -75 -19q-71 0 -112 112q-34 -35 -82 -69q-69 -48 -177 -48h-40q-291 0 -291 283v43q0 285 297 285h90q129 0 199 -82l10 168q5 98 -53 136q-52 34 -180 34t-246 -20q-34 -6 -34 31v60q0 27 40 37q124 34 284 34q154 0 232 -60 q107 -82 107 -295v-432q0 -81 46 -81h39q32 0 32 -31v-33zM665 213v174q0 46 -25 63q-31 22 -126 22h-150q-79 0 -109 -37q-25 -31 -25 -108v-59q0 -139 156 -139h76q126 0 178 36q25 17 25 48z" />
<glyph unicode="b" horiz-adv-x="1013" d="M908 343q0 -170 -111 -266q-102 -87 -262 -87h-93q-193 0 -269 38q-39 20 -39 56v1308q0 34 29 34h105q29 0 29 -34v-504q75 106 222 106h44q159 0 251 -82q94 -86 94 -241v-328zM749 331v338q0 74 -39 125q-49 65 -143 65h-123q-79 0 -115.5 -25.5t-36.5 -81.5v-589 q0 -30 124 -30h162q171 0 171 198z" />
<glyph unicode="c" horiz-adv-x="877" d="M784 65q0 -23 -34 -34q-118 -39 -250 -39q-207 0 -302 101q-102 109 -102 401q0 188 36 290q33 90 106 142q101 72 262 72q117 0 244 -36q40 -12 40 -38v-76q0 -28 -45 -19q-120 23 -221 23q-126 0 -184 -36q-72 -44 -72 -156v-327q0 -112 62 -155q52 -37 174 -37 q90 0 244 16q42 4 42 -22v-70z" />
<glyph unicode="d" horiz-adv-x="1017" d="M991 69q0 -27 -41 -41l-48 -15q-59 -20 -81 -20q-60 0 -103 99q-79 -97 -199 -97h-72q-347 0 -347 358v304q0 165 98 255q89 82 235 82h96q128 0 183 -79v477q0 34 29 34h105q28 0 28 -34v-1181q0 -78 46 -78h40q31 0 31 -31v-33zM716 226v550q0 40 -25 58q-36 25 -87 25 h-188q-82 0 -123 -73q-33 -56 -33 -133v-313q0 -202 170 -202h116q87 0 145 33q25 14 25 55z" />
<glyph unicode="e" horiz-adv-x="959" d="M855 447q0 -33 -40 -33h-549v-80q0 -113 63 -157q54 -39 177 -39q93 0 257 21q42 5 42 -30v-57q0 -22 -34 -34q-128 -46 -277 -46q-194 0 -288 101q-106 112 -106 401q0 341 144 443q87 61 234 61q156 0 240 -59q73 -52 103 -121q34 -78 34 -218v-153zM693 702 q0 85 -50 120t-165 35q-120 0 -166 -37.5t-46 -131.5v-148h427v162z" />
<glyph unicode="f" horiz-adv-x="618" d="M586 1306q0 -20 -34 -18q-31 1 -101 1q-133 0 -133 -125q0 -13 1 -26l15 -154h212q27 0 27 -26v-80q0 -30 -28 -30h-208v-818q0 -30 -28 -30h-103q-27 0 -27 26v822h-120q-28 0 -28 30v49q0 19 21 25l63 16q36 9 43 16q12 13 12 56v88q0 157 85 236q68 62 168 62 q71 0 139 -22q24 -8 24 -36v-62z" />
<glyph unicode="g" horiz-adv-x="1003" d="M874 -18q0 -179 -111 -294q-89 -91 -270 -91q-162 0 -295 46q-40 13 -40 37v58q0 36 46 24q114 -30 274 -30q250 0 241 212l-7 153q-46 -54 -83 -75q-55 -31 -141 -31h-55q-159 0 -246 88.5t-87 248.5v298q0 181 105 281q99 94 266 94h122q220 0 258 -28 q20 -14 21.5 -17.5t1.5 -28.5v-945zM716 233v580q0 34 -11 38q-32 9 -140 9h-115q-190 0 -190 -202v-342q0 -190 170 -190h100q113 0 161 48q25 26 25 59z" />
<glyph unicode="h" horiz-adv-x="1042" d="M914 34q0 -34 -29 -34h-96q-29 0 -29 34v647q0 178 -167 178h-167q-55 0 -91.5 -25.5t-36.5 -57.5v-742q0 -34 -29 -34h-100q-29 0 -29 34v1358q0 34 29 34h105q28 0 28 -34v-498q67 100 211 100h90q143 0 224 -78q87 -84 87 -245v-637z" />
<glyph unicode="i" horiz-adv-x="427" d="M293 1153q0 -30 -28 -30h-103q-27 0 -27 26v108q0 30 28 30h103q27 0 27 -26v-108zM293 30q0 -30 -28 -30h-103q-28 0 -28 26v927q0 30 28 30h103q28 0 28 -26v-927z" />
<glyph unicode="j" horiz-adv-x="464" d="M330 1153q0 -30 -28 -30h-103q-28 0 -28 26v108q0 30 28 30h103q28 0 28 -26v-108zM330 60q0 -158 -79 -236q-63 -62 -160 -62q-58 0 -126 22q-23 8 -23 36v64q0 20 33 18q31 -2 60 -2q136 0 136 140v913q0 30 28 30h103q28 0 28 -26v-897z" />
<glyph unicode="k" horiz-adv-x="977" d="M947 32q10 -12 6 -22t-19 -10h-130q-28 0 -52 27l-411 462q-42 38 0 75l383 397q21 22 54 22h115q15 0 18 -15q4 -14 -6 -24l-404 -417zM299 30q0 -30 -28 -30h-103q-28 0 -28 26v1370q0 30 28 30h103q28 0 28 -26v-1370z" />
<glyph unicode="l" horiz-adv-x="480" d="M440 46q0 -36 -41 -42l-47 -6q-44 -6 -82 -6q-130 -1 -130 152v1248q0 34 29 34h104q29 0 29 -34v-1204q0 -58 48 -60l49 -2q41 -2 41 -31v-49z" />
<glyph unicode="m" horiz-adv-x="1546" d="M1418 34q0 -34 -29 -34h-107q-29 0 -29 34v670q0 87 -43 121q-38 31 -126 31h-82q-91 0 -136 -33q-18 -12 -18 -131v-658q0 -34 -28 -34h-108q-29 0 -29 34v668q0 95 -42 128q-35 26 -128 26h-62q-106 0 -140 -9q-12 -4 -12 -38v-775q0 -34 -29 -34h-107q-29 0 -29 34 v885q0 25 1.5 28.5t21.5 17.5q16 12 91 24q84 13 168 13h111q182 0 261 -137q85 137 220 137h116q294 0 294 -296v-672z" />
<glyph unicode="n" horiz-adv-x="1056" d="M928 34q0 -34 -29 -34h-108q-28 0 -28 34v656q0 90 -47.5 128t-153.5 38h-112q-98 0 -138 -11q-13 -3 -13 -38v-773q0 -34 -28 -34h-108q-29 0 -29 34v885q0 26 1.5 29t21.5 17q15 11 106 24q97 13 183 13h139q343 0 343 -324v-644z" />
<glyph unicode="o" horiz-adv-x="1051" d="M961 510q0 -247 -90 -371q-111 -153 -342 -153h-2q-248 0 -351 148q-83 119 -83 358q0 234 69 347q103 167 365 167h2q264 0 363 -159q69 -112 69 -337zM795 412v169q0 279 -225 279h-97q-211 0 -211 -271v-179q0 -279 227 -279h81q225 0 225 281z" />
<glyph unicode="p" horiz-adv-x="1014" d="M914 346q0 -156 -105 -255q-101 -96 -254 -96h-44q-91 0 -134 21q-36 18 -75 73v-469q0 -33 -28 -33h-105q-29 0 -29 33v1308q0 28 29 38q87 32 296 32h88q160 0 254 -81q107 -92 107 -272v-299zM754 347v299q0 209 -195 209h-137q-124 0 -124 -33v-597q0 -41 25 -59 q53 -36 127 -36h109q108 0 159 78q36 57 36 139z" />
<glyph unicode="q" horiz-adv-x="1009" d="M874 -380q0 -33 -28 -33h-105q-29 0 -29 33v479q-67 -94 -180 -94h-87q-149 0 -241 79q-104 89 -104 257v304q0 174 103 268q98 88 264 88h116q230 0 268 -22q20 -11 21.5 -15t1.5 -31v-1313zM716 223v592q0 36 -11 38q-52 7 -140 7h-135q-170 0 -170 -202v-327 q0 -192 184 -192h160q51 0 87 25q25 18 25 59z" />
<glyph unicode="r" horiz-adv-x="676" d="M624 841q0 -39 -34 -22q-66 34 -131 34q-124 0 -149 -24q-16 -15 -16 -56v-739q0 -34 -29 -34h-108q-29 0 -29 34v663q0 151 91 226q98 81 286 81q56 0 94 -20q25 -12 25 -38v-105z" />
<glyph unicode="s" horiz-adv-x="863" d="M769 282q0 -144 -96 -221q-88 -72 -264 -72q-157 0 -255 37q-39 14 -39 37v62q0 32 45 23q88 -18 233 -18q115 0 143 8q70 20 70 101v97q0 76 -46 98q-28 14 -111 14h-88q-136 0 -202 68q-59 61 -59 204q0 135 103 219q73 59 225 59q113 0 234 -27q40 -8 40 -37v-58 q0 -30 -46 -23q-58 9 -247 9q-90 0 -123 -24q-28 -21 -28 -74v-80q0 -59 20 -80q27 -28 113 -28l60 1q173 0 245.5 -70t72.5 -225z" />
<glyph unicode="t" horiz-adv-x="625" d="M567 55q0 -22 -24 -33q-76 -36 -149 -36q-215 0 -215 258v604h-110q-28 0 -28 30v53q0 20 21 25l53 12q36 8 47 20q17 18 17 63v140q0 26 27 26h103q28 0 28 -30v-203h180q28 0 28 -30v-80q0 -26 -27 -26h-181v-602q0 -67 19 -94q23 -34 87 -34q51 0 90 14q11 3 18 3 q16 -1 16 -21v-59z" />
<glyph unicode="u" horiz-adv-x="1037" d="M1012 69q0 -27 -41 -41l-48 -15q-59 -20 -71 -20q-70 0 -113 99q-75 -104 -221 -104h-67q-329 0 -329 340v620q0 33 29 33h108q29 0 29 -33v-621q0 -113 47 -155q42 -37 151 -37h53q126 0 173 39q18 14 18 44v730q0 33 29 33h107q29 0 29 -33v-737q0 -78 46 -78h39 q32 0 32 -31v-33z" />
<glyph unicode="v" horiz-adv-x="995" d="M944 935l-342 -890q-18 -48 -67 -48h-86q-49 0 -67 48l-345 892q-18 46 19 46h112q28 0 37 -26l279 -785h16l280 787q8 24 45 24h103q34 0 16 -48z" />
<glyph unicode="w" horiz-adv-x="1532" d="M1481 939l-270 -894q-15 -48 -67 -48h-108q-47 0 -61 48l-207 723h-15l-207 -723q-14 -48 -61 -48h-108q-52 0 -67 48l-267 892q-14 46 23 46h110q29 0 38 -36l203 -780h15l218 758q8 29 21 35q5 3 34 3h112q29 0 35 -3q12 -6 21 -35l216 -758h15l204 778q10 38 37 38 h110q39 0 26 -44z" />
<glyph unicode="x" horiz-adv-x="916" d="M877 67q17 -21 17 -38q0 -29 -30 -29h-103q-34 0 -48 20l-256 378l-254 -378q-14 -20 -48 -20h-100q-30 0 -30 28q0 17 16 39l316 442l-284 408q-22 31 -22 45q0 21 29 21h114q25 0 41 -24l222 -337l220 331q20 30 44 30h114q31 0 31 -20q0 -13 -24 -46l-286 -409z" />
<glyph unicode="y" horiz-adv-x="966" d="M912 935l-344 -1060q-95 -295 -320 -295q-48 0 -109 21q-15 6 -15 32v63q0 21 39 18q83 -5 64 -5q134 0 188 171l46 149h-63q-38 0 -53 44l-302 862q-17 48 24 48h114q26 0 36 -30l265 -810h14l247 812q8 28 43 28h101q40 0 25 -48z" />
<glyph unicode="z" horiz-adv-x="840" d="M789 30q0 -30 -28 -30h-687q-22 0 -28 20q-6 19 5 37l53 86l432 699h-427q-28 0 -28 30v81q0 11 2 17q4 11 26 11h624q30 0 30 -28q0 -13 -8 -27l-490 -785h496q23 0 26 -13q2 -5 2 -15v-83z" />
<glyph unicode="{" horiz-adv-x="583" d="M459 -258q-365 0 -365 305q0 26 12 88l35 180q1 7 1.5 15t0.5 18q0 66 -32 107q-14 17 -41.5 38.5t-69.5 47.5q80 41 109 73q34 40 34 113q0 11 -0.5 19.5t-1.5 15.5l-35 182q-12 66 -12 88q0 293 365 293h80q12 -51 0 -121h-72q-186 0 -186 -205q0 -21 6 -61l35 -209 q2 -10 2 -20q0 -89 -144 -168q53 -28 92 -76q50 -59 50 -121v-20l-35 -189q-6 -41 -6 -82q0 -190 186 -190h76q4 -78 0 -121h-84z" />
<glyph unicode="|" horiz-adv-x="366" d="M249 -256h-133v1581h133v-1581z" />
<glyph unicode="}" horiz-adv-x="624" d="M583 541q-86 -53 -111 -86q-32 -41 -32 -107q0 -10 0.5 -18t1.5 -15l34 -180q13 -59 13 -88q0 -305 -367 -305h-82q-6 43 0 121h74q188 0 188 190q0 39 -8 82l-33 189q-2 10 -2 20q0 62 50 121q40 49 94 76q-144 79 -144 168v20l35 209q8 43 8 61q0 205 -188 205h-70 q-13 70 0 121h78q367 0 367 -293q0 -24 -13 -88l-34 -182q-4 -12 -4 -35q0 -73 36 -113q29 -32 109 -73z" />
<glyph unicode="~" horiz-adv-x="1241" d="M172 422q-13 11 -16 40q-3 30 8 50q51 92 95 130q59 50 144 50q57 0 106 -21q23 -10 87 -40l126 -59q63 -30 118 -30q142 0 229 154q21 -15 21 -39q0 -18 -13 -47q-78 -174 -239 -174q-67 0 -234 86q-125 64 -188 64q-158 0 -244 -164z" />
<glyph unicode="&#xa2;" horiz-adv-x="874" d="M769 299q-79 -319 -330 -319q-67 0 -137 30l-121 -334h-61l133 365q-143 135 -143 346q0 216 133 334q103 88 233 88q10 0 23 -0.5t30 -1.5l119 328h62l-123 -344q157 -72 157 -175q0 -71 -79 -71q-49 0 -74 33q-12 17 -21 59q-10 55 -16 65l-195 -538q79 -53 140 -53 q110 0 174 73q25 33 69 125zM507 739q-27 11 -51 11q-109 0 -164 -97q-45 -80 -45 -196q0 -117 67 -244z" />
<glyph unicode="&#xa3;" horiz-adv-x="874" d="M836 258q-15 -113 -72 -188q-68 -90 -174 -90q-72 0 -150 45q-15 9 -47 32t-82 60q-68 -137 -159 -137q-46 0 -73.5 31t-27.5 79q0 30 10.5 54.5t29.5 42t45 27t57 9.5q27 0 71 -6q1 6 2 15t2 22v29q0 74 -18 280h-166v82h166q-12 127 -12 170q0 225 159 324 q72 45 158 45q82 0 145 -45q72 -50 72 -129q0 -14 -5.5 -26.5t-15 -23t-21.5 -16.5t-25 -6q-33 0 -54 33q-9 12 -14 69q-4 51 -28.5 74t-73.5 23q-156 0 -156 -240q0 -29 2.5 -68.5t7.5 -91.5l8 -92h221v-82h-221q1 -20 1.5 -34t0.5 -23q0 -148 -53 -307q162 -54 191 -60 q43 -10 88 -10q141 0 180 137zM254 147q-38 23 -72 23q-82 0 -82 -74q0 -67 56 -67q70 0 98 118z" />
<glyph unicode="&#xa7;" horiz-adv-x="874" d="M741 412q0 -179 -188 -293q104 -116 104 -217q0 -103 -69 -173q-68 -71 -172 -71q-83 0 -150 56q-65 56 -65 136q0 15 5.5 28.5t14.5 24t21 17t26 6.5q64 0 64 -76q0 -14 -8 -46q-7 -29 -7 -46q0 -32 37 -51q31 -16 66 -16q58 0 104 43q47 44 47 98q0 109 -176 240 q-122 91 -174 153q-88 100 -88 205q0 175 189 291q-105 117 -105 221q0 101 69 172q70 70 173 70q86 0 151 -54q66 -53 66 -135q0 -77 -68 -77q-67 0 -67 67q0 11 6 40q6 28 6 42q0 80 -94 80q-62 0 -105 -43t-43 -107q0 -55 23 -90q38 -60 129 -125q125 -92 184 -157 q94 -104 94 -213zM655 332q0 119 -192 268q-37 29 -65 52t-48 42q-129 -78 -129 -190q0 -80 66 -158q20 -23 53.5 -51.5t79.5 -63.5q31 -23 56.5 -44.5t47.5 -41.5q131 78 131 187z" />
<glyph unicode="&#xa9;" horiz-adv-x="1335" d="M1274 580q0 -163 -82 -306q-83 -143 -226 -222q-142 -79 -298 -79q-163 0 -306 82q-143 83 -222 224q-79 142 -79 301q0 163 84 307q84 146 226 222q143 77 297 77q161 0 304 -81q144 -81 222 -220q80 -146 80 -305zM1223 580q0 150 -76 280q-77 132 -208 203 q-132 72 -271 72q-148 0 -278 -75t-202 -202q-73 -133 -73 -278q0 -148 74 -279q76 -132 205 -203q131 -71 274 -71q148 0 279 74q129 74 203 205q73 130 73 274zM999 369q-119 -174 -327 -174q-165 0 -281 107q-115 108 -115 273q0 175 127 287q121 109 299 109 q60 0 158 -33q21 -6 31 -6q27 0 43 37h35l16 -238h-33q-62 201 -260 201q-138 0 -215 -107q-59 -85 -59 -225q0 -354 282 -354q169 0 269 139z" />
<glyph unicode="&#xab;" horiz-adv-x="1024" d="M961 -8h-60l-393 473l393 469h60l-244 -469zM508 -8h-57l-388 473l388 469h57l-244 -469z" />
<glyph unicode="&#xad;" horiz-adv-x="874" d="M741 492q0 -41 -4 -64h-602v53v103h602q2 -14 3 -37t1 -55z" />
<glyph unicode="&#xb6;" horiz-adv-x="792" d="M797 1112h-115v-1491h-61v1491h-160v-1491h-62v893q-137 6 -209 31q-108 34 -159 125q-43 74 -43 170q0 189 170 278q84 41 215 41h424v-47z" />
<glyph unicode="&#xb7;" horiz-adv-x="512" d="M367 678q0 -48 -31.5 -79.5t-79.5 -31.5q-45 0 -78 33t-33 78q0 48 31.5 79t79.5 31t79.5 -31t31.5 -79z" />
<glyph unicode="&#xbb;" horiz-adv-x="1024" d="M961 463l-388 -471h-57l244 471l-244 471h57zM516 463l-393 -471h-60l244 471l-244 471h60z" />
<glyph unicode="&#xbc;" horiz-adv-x="1312" d="M1283 123h-92v-158h-100v158h-293v61l319 398h74v-389h92v-70zM1103 1184l-799 -1231h-76l799 1231h76zM405 567h-277v29q74 0 82 18q4 9 4 64v319q0 87 -12 101q-5 4 -17 4q-17 0 -57 -17l-14 23l176 76h28v-506q0 -51 7 -64q10 -18 80 -18v-29zM1091 193v268l-224 -268 h224z" />
<glyph unicode="&#xbd;" horiz-adv-x="1312" d="M1277 96l-53 -131h-422v27q323 251 323 389q0 55 -35.5 89t-89.5 34q-103 0 -141 -101h-39q27 179 207 179q78 0 137 -41q68 -45 68 -119q0 -134 -293 -373h160q110 0 139 47h39zM1082 1184l-798 -1231h-76l799 1231h75zM405 567h-277v29q74 0 82 18q4 9 4 64v319 q0 87 -12 101q-5 4 -17 4q-17 0 -57 -17l-14 23l176 76h28v-506q0 -51 7 -64q10 -18 80 -18v-29z" />
<glyph unicode="&#xbe;" horiz-adv-x="1312" d="M1283 123h-92v-158h-100v158h-293v61l319 398h74v-389h92v-70zM1091 1184l-797 -1231h-76l799 1231h74zM445 770q0 -107 -92 -166q-79 -49 -192 -49q-125 0 -125 53q0 39 49 39q23 0 71 -21q49 -20 76 -20q47 0 82 33t35 80q0 145 -198 141v25q59 0 107 36q48 37 48 97 q0 94 -104 94q-73 0 -125 -76l-33 15q66 133 197 133q63 0 112 -31q58 -37 58 -96q0 -58 -90 -131q124 -45 124 -156zM1091 193v268l-222 -268h222z" />
<glyph unicode="&#xd7;" horiz-adv-x="987" d="M844 281l-49 -50l-303 304l-302 -304l-49 50l301 301l-301 301l52 49l299 -299l301 299l49 -47l-301 -301z" />
<glyph unicode="&#xf7;" horiz-adv-x="1124" d="M648 987q0 -18 -7 -33.5t-19 -27t-28 -18.5t-34 -7t-34 7t-28 18.5t-19 27t-7 33.5q0 37 25.5 62.5t62.5 25.5q39 0 63.5 -24.5t24.5 -63.5zM1101 641h-1079v82h1079v-82zM648 367q0 -37 -25.5 -62.5t-62.5 -25.5q-18 0 -34 7t-28 19t-19 28t-7 34t7 34t19 28t28 19t34 7 q39 0 63.5 -26t24.5 -62z" />
<glyph unicode="&#x591;" d="M657 770q0 -119 -83 -202t-203 -83q-118 0 -200 84q-83 85 -83 201q0 118 83 203q82 84 200 84q120 0 203 -84q83 -85 83 -203zM578 770q0 88 -60 148q-58 61 -147 61q-86 0 -146 -61q-59 -61 -59 -148q0 -84 59 -146q60 -61 146 -61q89 0 147 61q60 61 60 146z" />
<glyph unicode="&#x592;" d="M657 770q0 -119 -83 -202t-203 -83q-118 0 -200 84q-83 85 -83 201q0 118 83 203q82 84 200 84q120 0 203 -84q83 -85 83 -203zM578 770q0 88 -60 148q-58 61 -147 61q-86 0 -146 -61q-59 -61 -59 -148q0 -84 59 -146q60 -61 146 -61q89 0 147 61q60 61 60 146z" />
<glyph unicode="&#x593;" d="M657 770q0 -119 -83 -202t-203 -83q-118 0 -200 84q-83 85 -83 201q0 118 83 203q82 84 200 84q120 0 203 -84q83 -85 83 -203zM578 770q0 88 -60 148q-58 61 -147 61q-86 0 -146 -61q-59 -61 -59 -148q0 -84 59 -146q60 -61 146 -61q89 0 147 61q60 61 60 146z" />
<glyph unicode="&#x594;" d="M657 770q0 -119 -83 -202t-203 -83q-118 0 -200 84q-83 85 -83 201q0 118 83 203q82 84 200 84q120 0 203 -84q83 -85 83 -203zM578 770q0 88 -60 148q-58 61 -147 61q-86 0 -146 -61q-59 -61 -59 -148q0 -84 59 -146q60 -61 146 -61q89 0 147 61q60 61 60 146z" />
<glyph unicode="&#x595;" d="M657 770q0 -119 -83 -202t-203 -83q-118 0 -200 84q-83 85 -83 201q0 118 83 203q82 84 200 84q120 0 203 -84q83 -85 83 -203zM578 770q0 88 -60 148q-58 61 -147 61q-86 0 -146 -61q-59 -61 -59 -148q0 -84 59 -146q60 -61 146 -61q89 0 147 61q60 61 60 146z" />
<glyph unicode="&#x596;" d="M657 770q0 -119 -83 -202t-203 -83q-118 0 -200 84q-83 85 -83 201q0 118 83 203q82 84 200 84q120 0 203 -84q83 -85 83 -203zM578 770q0 88 -60 148q-58 61 -147 61q-86 0 -146 -61q-59 -61 -59 -148q0 -84 59 -146q60 -61 146 -61q89 0 147 61q60 61 60 146z" />
<glyph unicode="&#x597;" d="M657 770q0 -119 -83 -202t-203 -83q-118 0 -200 84q-83 85 -83 201q0 118 83 203q82 84 200 84q120 0 203 -84q83 -85 83 -203zM578 770q0 88 -60 148q-58 61 -147 61q-86 0 -146 -61q-59 -61 -59 -148q0 -84 59 -146q60 -61 146 -61q89 0 147 61q60 61 60 146z" />
<glyph unicode="&#x598;" d="M657 770q0 -119 -83 -202t-203 -83q-118 0 -200 84q-83 85 -83 201q0 118 83 203q82 84 200 84q120 0 203 -84q83 -85 83 -203zM578 770q0 88 -60 148q-58 61 -147 61q-86 0 -146 -61q-59 -61 -59 -148q0 -84 59 -146q60 -61 146 -61q89 0 147 61q60 61 60 146z" />
<glyph unicode="&#x599;" d="M657 770q0 -119 -83 -202t-203 -83q-118 0 -200 84q-83 85 -83 201q0 118 83 203q82 84 200 84q120 0 203 -84q83 -85 83 -203zM578 770q0 88 -60 148q-58 61 -147 61q-86 0 -146 -61q-59 -61 -59 -148q0 -84 59 -146q60 -61 146 -61q89 0 147 61q60 61 60 146z" />
<glyph unicode="&#x59a;" d="M657 770q0 -119 -83 -202t-203 -83q-118 0 -200 84q-83 85 -83 201q0 118 83 203q82 84 200 84q120 0 203 -84q83 -85 83 -203zM578 770q0 88 -60 148q-58 61 -147 61q-86 0 -146 -61q-59 -61 -59 -148q0 -84 59 -146q60 -61 146 -61q89 0 147 61q60 61 60 146z" />
<glyph unicode="&#x59b;" d="M657 770q0 -119 -83 -202t-203 -83q-118 0 -200 84q-83 85 -83 201q0 118 83 203q82 84 200 84q120 0 203 -84q83 -85 83 -203zM578 770q0 88 -60 148q-58 61 -147 61q-86 0 -146 -61q-59 -61 -59 -148q0 -84 59 -146q60 -61 146 -61q89 0 147 61q60 61 60 146z" />
<glyph unicode="&#x59c;" d="M657 770q0 -119 -83 -202t-203 -83q-118 0 -200 84q-83 85 -83 201q0 118 83 203q82 84 200 84q120 0 203 -84q83 -85 83 -203zM578 770q0 88 -60 148q-58 61 -147 61q-86 0 -146 -61q-59 -61 -59 -148q0 -84 59 -146q60 -61 146 -61q89 0 147 61q60 61 60 146z" />
<glyph unicode="&#x59d;" d="M657 770q0 -119 -83 -202t-203 -83q-118 0 -200 84q-83 85 -83 201q0 118 83 203q82 84 200 84q120 0 203 -84q83 -85 83 -203zM578 770q0 88 -60 148q-58 61 -147 61q-86 0 -146 -61q-59 -61 -59 -148q0 -84 59 -146q60 -61 146 -61q89 0 147 61q60 61 60 146z" />
<glyph unicode="&#x59e;" d="M657 770q0 -119 -83 -202t-203 -83q-118 0 -200 84q-83 85 -83 201q0 118 83 203q82 84 200 84q120 0 203 -84q83 -85 83 -203zM578 770q0 88 -60 148q-58 61 -147 61q-86 0 -146 -61q-59 -61 -59 -148q0 -84 59 -146q60 -61 146 -61q89 0 147 61q60 61 60 146z" />
<glyph unicode="&#x59f;" d="M657 770q0 -119 -83 -202t-203 -83q-118 0 -200 84q-83 85 -83 201q0 118 83 203q82 84 200 84q120 0 203 -84q83 -85 83 -203zM578 770q0 88 -60 148q-58 61 -147 61q-86 0 -146 -61q-59 -61 -59 -148q0 -84 59 -146q60 -61 146 -61q89 0 147 61q60 61 60 146z" />
<glyph unicode="&#x5a0;" d="M657 770q0 -119 -83 -202t-203 -83q-118 0 -200 84q-83 85 -83 201q0 118 83 203q82 84 200 84q120 0 203 -84q83 -85 83 -203zM578 770q0 88 -60 148q-58 61 -147 61q-86 0 -146 -61q-59 -61 -59 -148q0 -84 59 -146q60 -61 146 -61q89 0 147 61q60 61 60 146z" />
<glyph unicode="&#x5a1;" d="M657 770q0 -119 -83 -202t-203 -83q-118 0 -200 84q-83 85 -83 201q0 118 83 203q82 84 200 84q120 0 203 -84q83 -85 83 -203zM578 770q0 88 -60 148q-58 61 -147 61q-86 0 -146 -61q-59 -61 -59 -148q0 -84 59 -146q60 -61 146 -61q89 0 147 61q60 61 60 146z" />
<glyph unicode="&#x5a3;" d="M657 770q0 -119 -83 -202t-203 -83q-118 0 -200 84q-83 85 -83 201q0 118 83 203q82 84 200 84q120 0 203 -84q83 -85 83 -203zM578 770q0 88 -60 148q-58 61 -147 61q-86 0 -146 -61q-59 -61 -59 -148q0 -84 59 -146q60 -61 146 -61q89 0 147 61q60 61 60 146z" />
<glyph unicode="&#x5a4;" d="M657 770q0 -119 -83 -202t-203 -83q-118 0 -200 84q-83 85 -83 201q0 118 83 203q82 84 200 84q120 0 203 -84q83 -85 83 -203zM578 770q0 88 -60 148q-58 61 -147 61q-86 0 -146 -61q-59 -61 -59 -148q0 -84 59 -146q60 -61 146 -61q89 0 147 61q60 61 60 146z" />
<glyph unicode="&#x5a5;" d="M657 770q0 -119 -83 -202t-203 -83q-118 0 -200 84q-83 85 -83 201q0 118 83 203q82 84 200 84q120 0 203 -84q83 -85 83 -203zM578 770q0 88 -60 148q-58 61 -147 61q-86 0 -146 -61q-59 -61 -59 -148q0 -84 59 -146q60 -61 146 -61q89 0 147 61q60 61 60 146z" />
<glyph unicode="&#x5a6;" d="M657 770q0 -119 -83 -202t-203 -83q-118 0 -200 84q-83 85 -83 201q0 118 83 203q82 84 200 84q120 0 203 -84q83 -85 83 -203zM578 770q0 88 -60 148q-58 61 -147 61q-86 0 -146 -61q-59 -61 -59 -148q0 -84 59 -146q60 -61 146 -61q89 0 147 61q60 61 60 146z" />
<glyph unicode="&#x5a7;" d="M657 770q0 -119 -83 -202t-203 -83q-118 0 -200 84q-83 85 -83 201q0 118 83 203q82 84 200 84q120 0 203 -84q83 -85 83 -203zM578 770q0 88 -60 148q-58 61 -147 61q-86 0 -146 -61q-59 -61 -59 -148q0 -84 59 -146q60 -61 146 -61q89 0 147 61q60 61 60 146z" />
<glyph unicode="&#x5a8;" d="M657 770q0 -119 -83 -202t-203 -83q-118 0 -200 84q-83 85 -83 201q0 118 83 203q82 84 200 84q120 0 203 -84q83 -85 83 -203zM578 770q0 88 -60 148q-58 61 -147 61q-86 0 -146 -61q-59 -61 -59 -148q0 -84 59 -146q60 -61 146 -61q89 0 147 61q60 61 60 146z" />
<glyph unicode="&#x5a9;" d="M657 770q0 -119 -83 -202t-203 -83q-118 0 -200 84q-83 85 -83 201q0 118 83 203q82 84 200 84q120 0 203 -84q83 -85 83 -203zM578 770q0 88 -60 148q-58 61 -147 61q-86 0 -146 -61q-59 -61 -59 -148q0 -84 59 -146q60 -61 146 -61q89 0 147 61q60 61 60 146z" />
<glyph unicode="&#x5aa;" d="M657 770q0 -119 -83 -202t-203 -83q-118 0 -200 84q-83 85 -83 201q0 118 83 203q82 84 200 84q120 0 203 -84q83 -85 83 -203zM578 770q0 88 -60 148q-58 61 -147 61q-86 0 -146 -61q-59 -61 -59 -148q0 -84 59 -146q60 -61 146 -61q89 0 147 61q60 61 60 146z" />
<glyph unicode="&#x5ab;" d="M657 770q0 -119 -83 -202t-203 -83q-118 0 -200 84q-83 85 -83 201q0 118 83 203q82 84 200 84q120 0 203 -84q83 -85 83 -203zM578 770q0 88 -60 148q-58 61 -147 61q-86 0 -146 -61q-59 -61 -59 -148q0 -84 59 -146q60 -61 146 -61q89 0 147 61q60 61 60 146z" />
<glyph unicode="&#x5ac;" d="M657 770q0 -119 -83 -202t-203 -83q-118 0 -200 84q-83 85 -83 201q0 118 83 203q82 84 200 84q120 0 203 -84q83 -85 83 -203zM578 770q0 88 -60 148q-58 61 -147 61q-86 0 -146 -61q-59 -61 -59 -148q0 -84 59 -146q60 -61 146 -61q89 0 147 61q60 61 60 146z" />
<glyph unicode="&#x5ad;" d="M657 770q0 -119 -83 -202t-203 -83q-118 0 -200 84q-83 85 -83 201q0 118 83 203q82 84 200 84q120 0 203 -84q83 -85 83 -203zM578 770q0 88 -60 148q-58 61 -147 61q-86 0 -146 -61q-59 -61 -59 -148q0 -84 59 -146q60 -61 146 -61q89 0 147 61q60 61 60 146z" />
<glyph unicode="&#x5ae;" d="M657 770q0 -119 -83 -202t-203 -83q-118 0 -200 84q-83 85 -83 201q0 118 83 203q82 84 200 84q120 0 203 -84q83 -85 83 -203zM578 770q0 88 -60 148q-58 61 -147 61q-86 0 -146 -61q-59 -61 -59 -148q0 -84 59 -146q60 -61 146 -61q89 0 147 61q60 61 60 146z" />
<glyph unicode="&#x5af;" d="M657 770q0 -119 -83 -202t-203 -83q-118 0 -200 84q-83 85 -83 201q0 118 83 203q82 84 200 84q120 0 203 -84q83 -85 83 -203zM578 770q0 88 -60 148q-58 61 -147 61q-86 0 -146 -61q-59 -61 -59 -148q0 -84 59 -146q60 -61 146 -61q89 0 147 61q60 61 60 146z" />
<glyph unicode="&#x5b0;" horiz-adv-x="2" d="M88 -243q0 -18 -7 -33.5t-18.5 -27t-27 -18.5t-33.5 -7t-34 7t-28 18.5t-19 27t-7 33.5t7.5 33t19.5 26.5t28 18t33 6.5q37 0 61.5 -24.5t24.5 -59.5zM88 -512q0 -17 -7 -32.5t-18.5 -27.5t-27 -19t-33.5 -7t-34 7t-28 19t-19 27.5t-7 32.5q0 18 7.5 33t19.5 26.5t28 18 t33 6.5q37 0 61.5 -24.5t24.5 -59.5z" />
<glyph unicode="&#x5b1;" horiz-adv-x="2" d="M-137 -243q0 -18 -7 -33.5t-18.5 -27t-27 -18.5t-33.5 -7q-17 0 -32.5 6.5t-27.5 18t-19 27.5t-7 34q0 16 7 31.5t18.5 27t27 18.5t33.5 7q37 0 61.5 -24.5t24.5 -59.5zM98 -243q0 -18 -7 -33.5t-18.5 -27t-27 -18.5t-33.5 -7q-17 0 -32.5 7t-27.5 18.5t-19.5 27 t-7.5 33.5q0 34 28 59q26 25 59 25q37 0 61.5 -23.5t24.5 -60.5zM-10 -450q0 -18 -7 -33.5t-18.5 -27t-27 -18.5t-33.5 -7q-17 0 -32.5 6.5t-27.5 18t-19 27.5t-7 34q0 35 25.5 59.5t60.5 24.5t60.5 -24.5t25.5 -59.5zM311 -243q0 -15 -6 -27.5t-16.5 -22t-23.5 -15 t-27 -5.5q-70 0 -70 70q0 74 70 74q73 0 73 -74zM311 -458q0 -29 -21.5 -50.5t-51.5 -21.5q-70 0 -70 72q0 30 20.5 50.5t49.5 20.5q73 0 73 -71z" />
<glyph unicode="&#x5b2;" horiz-adv-x="2" d="M287 -243q0 -29 -22.5 -49.5t-51.5 -20.5q-70 0 -70 70q0 74 70 74q74 0 74 -74zM287 -458q0 -29 -21.5 -50.5t-52.5 -21.5q-70 0 -70 72q0 71 70 71q74 0 74 -71zM-258 -305q-26 0 -26 31v66q0 30 26 30h301q27 0 27 -30v-66q0 -31 -27 -31h-301z" />
<glyph unicode="&#x5b3;" horiz-adv-x="2" d="M287 -243q0 -29 -22.5 -49.5t-51.5 -20.5q-70 0 -70 70q0 74 70 74q33 0 53.5 -20.5t20.5 -53.5zM287 -458q0 -29 -21.5 -50.5t-52.5 -21.5q-70 0 -70 72q0 71 70 71q74 0 74 -71zM43 -178q27 0 27 -30v-66q0 -31 -27 -31h-118q0 -42 20 -88l23 -51q8 -18 8 -35 t-6.5 -31.5t-18 -26t-26.5 -18t-33 -6.5t-33 6.5t-26.5 18t-18 26t-6.5 31.5t8 35l23 51q22 48 22 88h-119q-26 0 -26 31v66q0 30 26 30h301z" />
<glyph unicode="&#x5b4;" horiz-adv-x="2" d="M92 -243q0 -35 -28 -62q-27 -28 -62 -28q-36 0 -64 28q-28 27 -28 62q0 18 7.5 34t20.5 28t29.5 19t34.5 7q39 0 64.5 -25.5t25.5 -62.5z" />
<glyph unicode="&#x5b5;" horiz-adv-x="2" d="M-45 -243q0 -18 -7 -33.5t-18.5 -27t-27 -18.5t-33.5 -7q-17 0 -32.5 7t-27.5 18.5t-19 27t-7 33.5t7 33t19 26.5t27.5 18t32.5 6.5q86 0 86 -84zM219 -243q0 -18 -7 -33.5t-18.5 -27t-27 -18.5t-33.5 -7t-33.5 7t-27 18.5t-18.5 27t-7 33.5q0 35 25.5 59.5t60.5 24.5 q37 0 61.5 -24.5t24.5 -59.5z" />
<glyph unicode="&#x5b6;" horiz-adv-x="2" d="M-45 -243q0 -18 -7 -33.5t-18.5 -27t-27 -18.5t-33.5 -7q-17 0 -32.5 7t-27.5 18.5t-19 27t-7 33.5t7 33t19 26.5t27.5 18t32.5 6.5q86 0 86 -84zM219 -243q0 -18 -7 -33.5t-18.5 -27t-27 -18.5t-33.5 -7t-33.5 7t-27 18.5t-18.5 27t-7 33.5q0 35 25.5 59.5t60.5 24.5 q37 0 61.5 -24.5t24.5 -59.5zM94 -468q0 -18 -7 -33.5t-18.5 -27.5t-27 -19t-33.5 -7q-17 0 -32.5 7t-27 19t-18.5 27.5t-7 33.5q0 34 25.5 58.5t59.5 24.5q37 0 61.5 -24.5t24.5 -58.5z" />
<glyph unicode="&#x5b7;" horiz-adv-x="2" d="M-190 -305q-27 0 -27 31v66q0 30 27 30h383q26 0 26 -30v-66q0 -31 -26 -31h-383z" />
<glyph unicode="&#x5b8;" horiz-adv-x="2" d="M193 -178q26 0 26 -30v-66q0 -31 -26 -31h-158q0 -48 18 -88l23 -51q8 -18 8 -35q0 -35 -24.5 -58.5t-57.5 -23.5q-17 0 -32 6.5t-26.5 18t-18 26t-6.5 31.5t8 35l22 51q21 45 21 88h-160q-27 0 -27 31v66q0 30 27 30h383z" />
<glyph unicode="&#x5b9;" horiz-adv-x="2" d="M85 1290q0 -18 -7 -33.5t-18.5 -27t-27 -18.5t-33.5 -7q-17 0 -32.5 7t-27.5 18.5t-19 27t-7 33.5q0 16 7 31.5t19 27t27.5 18.5t32.5 7q39 0 62.5 -23.5t23.5 -60.5z" />
<glyph unicode="&#x5bb;" horiz-adv-x="2" d="M92 -243q0 -18 -7 -33.5t-18.5 -27t-27 -18.5t-33.5 -7t-33.5 7t-27 18.5t-18.5 27t-7 33.5q0 35 25.5 59.5t60.5 24.5q86 0 86 -84zM235 -417q0 -18 -7 -33.5t-18.5 -27t-27 -18.5t-33.5 -7q-17 0 -32.5 7t-27 18.5t-18.5 27t-7 33.5t7 33t18.5 26.5t27 18t32.5 6.5 q37 0 61.5 -23.5t24.5 -60.5zM376 -589q0 -18 -7 -33.5t-18.5 -27t-27 -18.5t-33.5 -7q-17 0 -32.5 7t-27.5 18.5t-19 27t-7 33.5q0 32 26 58t60 26q86 0 86 -84z" />
<glyph unicode="&#x5bc;" horiz-adv-x="2" d="M86 457q0 -18 -7 -33.5t-18.5 -27t-27 -18.5t-33.5 -7q-17 0 -32.5 7t-27.5 18.5t-19 27t-7 33.5q0 32 27 58q28 26 59 26q37 0 61.5 -23.5t24.5 -60.5z" />
<glyph unicode="&#x5bd;" horiz-adv-x="2" d="M67 -587q0 -27 -31 -27h-65q-31 0 -31 27v383q0 26 31 26h65q31 0 31 -26v-383z" />
<glyph unicode="&#x5be;" horiz-adv-x="618" d="M473 932q0 -20 -0.5 -35.5t-1.5 -28.5h-336v53v103h336q1 -14 1.5 -37t0.5 -55z" />
<glyph unicode="&#x5bf;" horiz-adv-x="618" d="M473 932q0 -20 -0.5 -35.5t-1.5 -28.5h-336v53v103h336q1 -14 1.5 -37t0.5 -55z" />
<glyph unicode="&#x5c0;" horiz-adv-x="366" d="M249 -256h-133v1581h133v-1581z" />
<glyph unicode="&#x5c1;" horiz-adv-x="2" d="M1115 1290q0 -18 -7 -33.5t-18.5 -27t-27 -18.5t-33.5 -7q-17 0 -32.5 7t-27.5 18.5t-19 27t-7 33.5q0 16 7 31.5t19 27t27.5 18.5t32.5 7q39 0 62.5 -23.5t23.5 -60.5z" />
<glyph unicode="&#x5c2;" horiz-adv-x="2" d="M305 1290q0 -18 -7 -33.5t-18.5 -27t-27 -18.5t-33.5 -7q-17 0 -32.5 7t-27.5 18.5t-19 27t-7 33.5q0 16 7 31.5t19 27t27.5 18.5t32.5 7q39 0 62.5 -23.5t23.5 -60.5z" />
<glyph unicode="&#x5c3;" horiz-adv-x="311" d="M229 600h-178v186h178v-186zM229 0h-178v186h178v-186z" />
<glyph unicode="&#x5c4;" horiz-adv-x="2" d="M85 1290q0 -18 -7 -33.5t-18.5 -27t-27 -18.5t-33.5 -7q-17 0 -32.5 7t-27.5 18.5t-19 27t-7 33.5q0 16 7 31.5t19 27t27.5 18.5t32.5 7q39 0 62.5 -23.5t23.5 -60.5z" />
<glyph unicode="&#x5d0;" horiz-adv-x="1136" d="M1063 20q0 -20 -14 -20h-191q-70 100 -163.5 228t-211.5 286q-39 47 -65 47q-44 0 -72 -67q-33 -74 -33 -201v-293h-196v182q0 345 250 484l-269 327q-12 15 -12 23q0 12 20 12h199q70 -91 160.5 -207t204.5 -260q16 -22 30 -22q99 0 99 258v231h196v-192 q0 -269 -237 -396q112 -147 297 -399q8 -13 8 -21z" />
<glyph unicode="&#x5d1;" horiz-adv-x="993" d="M925 74q0 -13 -1 -31t-3 -43h-846q-2 20 -3 36t-1 27q0 7 1 24t3 46h330q142 0 192 107q37 78 37 282q0 186 -55 271q-64 100 -223 100h-265q-6 34 -6 72q0 -17 6 63h336q223 0 324 -125q92 -116 92 -354q0 -310 -156 -416h232q6 -39 6 -59z" />
<glyph unicode="&#x5d2;" horiz-adv-x="782" d="M502 0q-25 73 -48 272q-122 -290 -329 -290q-49 0 -74 18q10 97 27 150q24 -9 41 -9q65 0 141 52q85 56 141 149q39 66 39 133v266q0 152 -149 152h-166q-2 25 -3 43.5t-1 32.5q0 3 1 18t3 41h227q285 0 285 -276v-265q0 -131 13.5 -252t41.5 -235h-190z" />
<glyph unicode="&#x5d3;" horiz-adv-x="997" d="M884 967q0 -8 -1 -26.5t-3 -47.5h-127v-893h-198v893h-488q-6 37 -6 78q0 4 1 18t3 39h817q0 -5 0.5 -12.5t1.5 -18.5v-30z" />
<glyph unicode="&#x5d4;" horiz-adv-x="1073" d="M950 0h-199v651q0 242 -234 242h-399q-2 17 -3 33t-1 32q0 17 1 35t3 35h459q373 0 373 -360v-668zM317 0h-199v594q67 34 199 45v-639z" />
<glyph unicode="&#x5d5;" horiz-adv-x="456" d="M323 0h-201v1028h201v-1028z" />
<glyph unicode="&#x5d6;" horiz-adv-x="704" d="M624 1028q-1 -54 -51 -131q-170 0 -170 -225q0 -26 2 -56t6 -65l58 -551h-203l-47 520q-1 14 -1.5 28t-0.5 27q0 235 153 318h-262q-6 40 -6 76q0 7 1 21.5t3 37.5h518z" />
<glyph unicode="&#x5d7;" horiz-adv-x="1103" d="M980 0h-199v639q0 254 -233 254h-227v-893h-199v979q0 49 45 49h461q352 0 352 -360v-668z" />
<glyph unicode="&#x5d8;" horiz-adv-x="1138" d="M1029 465q0 -237 -127 -364q-128 -128 -358 -128q-422 0 -422 441v614h201v-571q0 -171 45 -250q55 -96 186 -96q155 0 217 98q51 79 51 258v135q0 77 -9 131t-27.5 88.5t-48 50t-70.5 15.5q-66 0 -109 -51q-30 37 -51 118q82 76 221 76q301 0 301 -399v-166z" />
<glyph unicode="&#x5d9;" horiz-adv-x="456" d="M323 496q-77 -44 -201 -64v596h201v-532z" />
<glyph unicode="&#x5da;" horiz-adv-x="903" d="M779 -297h-198v928q0 137 -56.5 199.5t-187.5 62.5h-252q-2 17 -3 33t-1 32q0 17 1 35t3 35h311q383 0 383 -401v-924z" />
<glyph unicode="&#x5db;" horiz-adv-x="946" d="M854 522q0 -255 -127 -388q-128 -134 -344 -134h-277q-2 25 -3 42t-1 28q0 5 1 21t3 42h227q312 0 312 389q0 168 -78 266q-84 105 -242 105h-213q-6 34 -6 72q0 -17 6 63h264q478 0 478 -506z" />
<glyph unicode="&#x5dc;" horiz-adv-x="950" d="M848 676q0 -295 -201 -502q-176 -182 -395 -203q-8 22 -8 64q0 40 8 67q389 113 389 553q0 238 -240 238h-280q-44 0 -60 11q-14 11 -14 69v358h199v-280q0 -23 16 -23h229q357 0 357 -352z" />
<glyph unicode="&#x5dd;" horiz-adv-x="1144" d="M1021 41q0 -41 -41 -41h-827q-31 0 -31 31v958q0 39 45 39h492q166 0 263 -97q99 -98 99 -263v-627zM822 131v508q0 254 -223 254h-278v-762h501z" />
<glyph unicode="&#x5de;" horiz-adv-x="1204" d="M1102 496q0 -242 -119 -376t-338 -134q-91 0 -158 18q2 38 7.5 70.5t15.5 58.5q43 -18 117 -18q268 0 268 381q0 403 -260 403q-131 0 -193 -86q-61 -85 -94 -324l-63 -489h-197l66 473q22 175 66 273q43 97 128 147h-242q-2 26 -3 41.5t-1 19.5q0 13 1 31t3 43h566 q202 0 316 -135t114 -397z" />
<glyph unicode="&#x5df;" horiz-adv-x="456" d="M323 -299h-201v1327h201v-1327z" />
<glyph unicode="&#x5e0;" horiz-adv-x="702" d="M579 45q0 -45 -37 -45h-459q-1 14 -1.5 29t-0.5 32q0 52 4 72h295v608q0 152 -127 152h-125q-2 25 -3 43.5t-1 32.5q0 3 1 18t3 41h207q108 0 174 -67q70 -73 70 -209v-707z" />
<glyph unicode="&#x5e1;" horiz-adv-x="1165" d="M1077 512q0 -251 -137 -396q-137 -143 -353 -143q-457 0 -457 512q0 141 53 253q54 112 136 155h-201q-6 43 -6 63q0 16 1 34t3 38h526q219 0 332 -143q103 -133 103 -373zM868 508q0 391 -281 391q-256 0 -256 -401q0 -387 258 -387q279 0 279 397z" />
<glyph unicode="&#x5e2;" horiz-adv-x="1105" d="M972 500q0 -120 -31 -213t-92 -157t-151.5 -97t-208.5 -33h-418q-4 42 -3.5 75t5.5 58h242l-199 881q-5 14 8 14h201q42 -218 84.5 -439.5t87.5 -451.5q277 0 277 293v598h198v-528z" />
<glyph unicode="&#x5e3;" horiz-adv-x="1087" d="M964 -297h-201v950q0 246 -225 246q-229 0 -229 -219q0 -127 96 -199q-79 -83 -162 -121q-129 103 -129 261q0 174 146 272h-148q-6 34 -6 72q0 -17 6 63h455q397 0 397 -389v-936z" />
<glyph unicode="&#x5e4;" horiz-adv-x="1136" d="M1028 516q0 -231 -111 -369q-119 -147 -340 -147h-440q-2 25 -3 42t-1 28q0 5 1 21t3 42h422q260 0 260 383t-277 383q-219 0 -219 -201q0 -118 98 -192q-79 -84 -161 -121q-55 32 -95 99q-41 70 -41 145q0 73 48 151q50 79 116 113h-176q-6 34 -6 72q0 -17 6 63h479 q437 0 437 -512z" />
<glyph unicode="&#x5e5;" horiz-adv-x="1058" d="M934 862q0 -148 -86 -264q-77 -103 -199 -152q31 -51 57 -116t46 -146q53 -201 53 -422v-57h-187v76q0 213 -47 377q-28 94 -76 191t-118 198l-299 430q-43 52 0 51h198l299 -442q19 -27 43 -27q49 0 83 76q36 76 36 180v213h197v-166z" />
<glyph unicode="&#x5e6;" horiz-adv-x="1046" d="M923 872q0 -120 -66 -229q-71 -118 -198 -176l147 -170l72 -83q43 -49 43 -103q0 -62 -45 -93q-26 -18 -82 -18h-680q-2 23 -3 40t-1 28q0 18 1 34.5t3 30.5h606q25 0 4 21q-42 42 -101.5 105.5t-140.5 148.5q-284 313 -419 569q-35 51 2 51h209q57 -119 126.5 -227 t153.5 -207q21 -23 43 -23q42 0 80 60q49 76 49 215v182h197v-156z" />
<glyph unicode="&#x5e7;" horiz-adv-x="1116" d="M1019 635q0 -265 -153 -452q-151 -187 -369 -199q-8 30 0 125q159 31 244 184q75 135 75 334q0 266 -262 266h-434q-6 40 -6 63q0 39 6 72h500q399 0 399 -393zM335 -299h-201v897q100 67 201 66v-963z" />
<glyph unicode="&#x5e8;" horiz-adv-x="923" d="M800 0h-199v631q0 69 -13.5 118.5t-42.5 81.5t-75.5 47t-112.5 15h-272q-2 17 -3 33t-1 32q0 17 1 35t3 35h322q196 0 290 -82q103 -91 103 -299v-647z" />
<glyph unicode="&#x5e9;" horiz-adv-x="1329" d="M1205 510q0 -352 -272 -469q-117 -51 -307 -51q-216 0 -334 78q-170 108 -170 391v569h201v-616q0 -35 39 -27q198 43 198 291v352h197v-305q0 -161 -64 -256q-103 -160 -344 -186q31 -76 68 -101q83 -55 205 -55q146 0 233 41q150 73 150 319v543h200v-518z" />
<glyph unicode="&#x5ea;" horiz-adv-x="1161" d="M1038 0h-201v659q0 234 -213 234h-235v-641q0 -139 -86 -211q-72 -57 -183 -57q-62 0 -96 24q0 80 10 123q34 -14 56 -14q40 0 69 33t29 96v743q0 39 45 39h463q342 0 342 -340v-688z" />
<glyph unicode="&#x5f0;" horiz-adv-x="700" d="M609 712q0 -110 -77 -187q-76 -76 -187 -76q-108 0 -185 77t-77 186q0 110 77 187t185 77q110 0 187 -77t77 -187zM536 712q0 81 -56 137q-55 55 -135 55t-135 -55t-55 -137q0 -79 55 -135q56 -56 135 -56t135 56q56 58 56 135z" />
<glyph unicode="&#x5f1;" horiz-adv-x="700" d="M609 712q0 -110 -77 -187q-76 -76 -187 -76q-108 0 -185 77t-77 186q0 110 77 187t185 77q110 0 187 -77t77 -187zM536 712q0 81 -56 137q-55 55 -135 55t-135 -55t-55 -137q0 -79 55 -135q56 -56 135 -56t135 56q56 58 56 135z" />
<glyph unicode="&#x5f2;" horiz-adv-x="700" d="M609 712q0 -110 -77 -187q-76 -76 -187 -76q-108 0 -185 77t-77 186q0 110 77 187t185 77q110 0 187 -77t77 -187zM536 712q0 81 -56 137q-55 55 -135 55t-135 -55t-55 -137q0 -79 55 -135q56 -56 135 -56t135 56q56 58 56 135z" />
<glyph unicode="&#x5f3;" horiz-adv-x="385" d="M344 1118q-110 -243 -225 -350q-13 11 -29.5 32t-38.5 50q94 175 147 383l9 2q72 -39 137 -117z" />
<glyph unicode="&#x5f4;" horiz-adv-x="632" d="M592 1118q-94 -207 -226 -330q-26 23 -67 82q32 56 50.5 91t25.5 49q25 49 44.5 104.5t34.5 118.5v2q73 -41 138 -117zM344 1118q-95 -209 -225 -330q-13 11 -29.5 32t-38.5 50q32 56 50.5 91t25.5 49q25 49 45 104.5t37 118.5l-2 2q72 -39 137 -117z" />
<glyph unicode="&#x2000;" horiz-adv-x="713" />
<glyph unicode="&#x2001;" horiz-adv-x="1426" />
<glyph unicode="&#x2002;" horiz-adv-x="713" />
<glyph unicode="&#x2003;" horiz-adv-x="1426" />
<glyph unicode="&#x2004;" horiz-adv-x="475" />
<glyph unicode="&#x2005;" horiz-adv-x="356" />
<glyph unicode="&#x2006;" horiz-adv-x="237" />
<glyph unicode="&#x2007;" horiz-adv-x="237" />
<glyph unicode="&#x2008;" horiz-adv-x="178" />
<glyph unicode="&#x2009;" horiz-adv-x="285" />
<glyph unicode="&#x200a;" horiz-adv-x="79" />
<glyph unicode="&#x200c;" d="M657 770q0 -119 -83 -202t-203 -83q-118 0 -200 84q-83 85 -83 201q0 118 83 203q82 84 200 84q120 0 203 -84q83 -85 83 -203zM578 770q0 88 -60 148q-58 61 -147 61q-86 0 -146 -61q-59 -61 -59 -148q0 -84 59 -146q60 -61 146 -61q89 0 147 61q60 61 60 146z" />
<glyph unicode="&#x200d;" d="M657 770q0 -119 -83 -202t-203 -83q-118 0 -200 84q-83 85 -83 201q0 118 83 203q82 84 200 84q120 0 203 -84q83 -85 83 -203zM578 770q0 88 -60 148q-58 61 -147 61q-86 0 -146 -61q-59 -61 -59 -148q0 -84 59 -146q60 -61 146 -61q89 0 147 61q60 61 60 146z" />
<glyph unicode="&#x200e;" d="M657 770q0 -119 -83 -202t-203 -83q-118 0 -200 84q-83 85 -83 201q0 118 83 203q82 84 200 84q120 0 203 -84q83 -85 83 -203zM578 770q0 88 -60 148q-58 61 -147 61q-86 0 -146 -61q-59 -61 -59 -148q0 -84 59 -146q60 -61 146 -61q89 0 147 61q60 61 60 146z" />
<glyph unicode="&#x200f;" d="M657 770q0 -119 -83 -202t-203 -83q-118 0 -200 84q-83 85 -83 201q0 118 83 203q82 84 200 84q120 0 203 -84q83 -85 83 -203zM578 770q0 88 -60 148q-58 61 -147 61q-86 0 -146 -61q-59 -61 -59 -148q0 -84 59 -146q60 -61 146 -61q89 0 147 61q60 61 60 146z" />
<glyph unicode="&#x2010;" horiz-adv-x="874" d="M741 492q0 -41 -4 -64h-602v53v103h602q2 -14 3 -37t1 -55z" />
<glyph unicode="&#x2011;" horiz-adv-x="874" d="M741 492q0 -41 -4 -64h-602v53v103h602q2 -14 3 -37t1 -55z" />
<glyph unicode="&#x2012;" horiz-adv-x="874" d="M741 492q0 -41 -4 -64h-602v53v103h602q2 -14 3 -37t1 -55z" />
<glyph unicode="&#x2013;" horiz-adv-x="874" d="M741 492q0 -41 -4 -64h-602v53v103h602q2 -14 3 -37t1 -55z" />
<glyph unicode="&#x2014;" horiz-adv-x="1209" d="M1071 492q0 -41 -4 -64h-932v53v103h932q2 -14 3 -37t1 -55z" />
<glyph unicode="&#x2018;" horiz-adv-x="385" d="M51 885q111 244 225 350q13 -11 29.5 -32t38.5 -50q-48 -88 -84.5 -183.5t-63.5 -199.5l-8 -2q-74 41 -137 117z" />
<glyph unicode="&#x2019;" horiz-adv-x="385" d="M344 1118q-110 -243 -225 -350q-13 11 -29.5 32t-38.5 50q94 175 147 383l9 2q72 -39 137 -117z" />
<glyph unicode="&#x201c;" horiz-adv-x="632" d="M51 905q94 208 225 330q27 -22 68 -82q-63 -109 -76 -139q-25 -50 -44.5 -105t-35.5 -118v-3q-74 41 -137 117zM299 905q94 208 225 330q13 -11 29.5 -32t38.5 -50q-63 -109 -76 -139q-49 -97 -82 -223l2 -3q-74 41 -137 117z" />
<glyph unicode="&#x201d;" horiz-adv-x="632" d="M592 1118q-94 -207 -226 -330q-26 23 -67 82q32 56 50.5 91t25.5 49q25 49 44.5 104.5t34.5 118.5v2q73 -41 138 -117zM344 1118q-95 -209 -225 -330q-13 11 -29.5 32t-38.5 50q32 56 50.5 91t25.5 49q25 49 45 104.5t37 118.5l-2 2q72 -39 137 -117z" />
<glyph unicode="&#x2022;" horiz-adv-x="717" d="M109 718q0 106 73.5 179.5t179.5 73.5q107 0 180.5 -73t73.5 -180t-73.5 -180.5t-180.5 -73.5q-106 0 -179.5 74t-73.5 180z" />
<glyph unicode="&#x202f;" horiz-adv-x="285" />
<glyph unicode="&#x2039;" horiz-adv-x="681" d="M562 -8h-57l-387 473l387 469h57l-244 -469z" />
<glyph unicode="&#x203a;" horiz-adv-x="681" d="M566 463l-395 -471h-57l243 471l-243 471h57z" />
<glyph unicode="&#x205f;" horiz-adv-x="356" />
<glyph unicode="&#x20aa;" horiz-adv-x="1296" d="M1173 342q0 -160 -109 -254q-100 -88 -254 -88h-334q-24 0 -30 66l-56 532h162l49 -457q1 -22 8 -22h191q213 0 213 219v534h160v-530zM857 268h-162v320q0 166 -141 166h-270v-754h-162l2 831q0 41 37 41h422q274 0 274 -278v-326z" />
<glyph unicode="&#x22c5;" horiz-adv-x="662" d="M565 627q0 -98 -68 -166q-68 -66 -161 -66q-99 0 -166 66q-68 68 -68 166t67 164q67 67 167 67q96 0 162 -67q67 -66 67 -164z" />
<glyph unicode="&#x25a0;" d="M657 770q0 -119 -83 -202t-203 -83q-118 0 -200 84q-83 85 -83 201q0 118 83 203q82 84 200 84q120 0 203 -84q83 -85 83 -203zM578 770q0 88 -60 148q-58 61 -147 61q-86 0 -146 -61q-59 -61 -59 -148q0 -84 59 -146q60 -61 146 -61q89 0 147 61q60 61 60 146z" />
<glyph unicode="&#x25a1;" d="M657 770q0 -119 -83 -202t-203 -83q-118 0 -200 84q-83 85 -83 201q0 118 83 203q82 84 200 84q120 0 203 -84q83 -85 83 -203zM578 770q0 88 -60 148q-58 61 -147 61q-86 0 -146 -61q-59 -61 -59 -148q0 -84 59 -146q60 -61 146 -61q89 0 147 61q60 61 60 146z" />
<glyph unicode="&#x25c6;" d="M657 770q0 -119 -83 -202t-203 -83q-118 0 -200 84q-83 85 -83 201q0 118 83 203q82 84 200 84q120 0 203 -84q83 -85 83 -203zM578 770q0 88 -60 148q-58 61 -147 61q-86 0 -146 -61q-59 -61 -59 -148q0 -84 59 -146q60 -61 146 -61q89 0 147 61q60 61 60 146z" />
<glyph unicode="&#x25c7;" d="M657 770q0 -119 -83 -202t-203 -83q-118 0 -200 84q-83 85 -83 201q0 118 83 203q82 84 200 84q120 0 203 -84q83 -85 83 -203zM578 770q0 88 -60 148q-58 61 -147 61q-86 0 -146 -61q-59 -61 -59 -148q0 -84 59 -146q60 -61 146 -61q89 0 147 61q60 61 60 146z" />
<glyph unicode="&#x25cb;" d="M657 770q0 -119 -83 -202t-203 -83q-118 0 -200 84q-83 85 -83 201q0 118 83 203q82 84 200 84q120 0 203 -84q83 -85 83 -203zM578 770q0 88 -60 148q-58 61 -147 61q-86 0 -146 -61q-59 -61 -59 -148q0 -84 59 -146q60 -61 146 -61q89 0 147 61q60 61 60 146z" />
<glyph unicode="&#x25cc;" d="M657 770q0 -119 -83 -202t-203 -83q-118 0 -200 84q-83 85 -83 201q0 118 83 203q82 84 200 84q120 0 203 -84q83 -85 83 -203zM578 770q0 88 -60 148q-58 61 -147 61q-86 0 -146 -61q-59 -61 -59 -148q0 -84 59 -146q60 -61 146 -61q89 0 147 61q60 61 60 146z" />
<glyph unicode="&#x25fc;" horiz-adv-x="985" d="M0 985h985v-985h-985v985z" />
<glyph unicode="&#x2605;" d="M657 770q0 -119 -83 -202t-203 -83q-118 0 -200 84q-83 85 -83 201q0 118 83 203q82 84 200 84q120 0 203 -84q83 -85 83 -203zM578 770q0 88 -60 148q-58 61 -147 61q-86 0 -146 -61q-59 -61 -59 -148q0 -84 59 -146q60 -61 146 -61q89 0 147 61q60 61 60 146z" />
<glyph unicode="&#x274f;" d="M657 770q0 -119 -83 -202t-203 -83q-118 0 -200 84q-83 85 -83 201q0 118 83 203q82 84 200 84q120 0 203 -84q83 -85 83 -203zM578 770q0 88 -60 148q-58 61 -147 61q-86 0 -146 -61q-59 -61 -59 -148q0 -84 59 -146q60 -61 146 -61q89 0 147 61q60 61 60 146z" />
<glyph unicode="&#xe802;" horiz-adv-x="903" d="M779 -297h-198v928q0 137 -56.5 199.5t-187.5 62.5h-252q-2 17 -3 33t-1 32q0 17 1 35t3 35h311q383 0 383 -401v-924zM377 354q0 -18 -7 -33.5t-18.5 -27t-27 -18.5t-33.5 -7t-34 7t-28 18.5t-19 27t-7 33.5t7.5 33t19.5 26.5t28 18t33 6.5q37 0 61.5 -24.5t24.5 -59.5z M377 85q0 -17 -7 -32.5t-18.5 -27.5t-27 -19t-33.5 -7t-34 7t-28 19t-19 27.5t-7 32.5q0 18 7.5 33t19.5 26.5t28 18t33 6.5q37 0 61.5 -24.5t24.5 -59.5z" />
<glyph unicode="&#xe803;" horiz-adv-x="903" d="M779 -297h-198v928q0 137 -56.5 199.5t-187.5 62.5h-252q-2 17 -3 33t-1 32q0 17 1 35t3 35h311q383 0 383 -401v-924zM481 387q26 0 26 -30v-66q0 -31 -26 -31h-158q0 -48 18 -88l23 -51q8 -18 8 -35q0 -35 -24.5 -58.5t-57.5 -23.5q-17 0 -32 6.5t-26.5 18t-18 26 t-6.5 31.5t8 35l22 51q21 45 21 88h-160q-27 0 -27 31v66q0 30 27 30h383z" />
<glyph unicode="&#xe804;" horiz-adv-x="950" d="M848 676q0 -295 -201 -502q-176 -182 -395 -203q-8 22 -8 64q0 40 8 67q389 113 389 553q0 238 -240 238h-280q-44 0 -60 11q-14 11 -14 69v358h199v-280q0 -23 16 -23h230q356 0 356 -352zM-5 1290q0 -18 -7 -33.5t-18.5 -27t-27 -18.5t-33.5 -7q-17 0 -32.5 7 t-27.5 18.5t-19 27t-7 33.5q0 16 7 31.5t19 27t27.5 18.5t32.5 7q39 0 62.5 -23.5t23.5 -60.5z" />
<glyph unicode="&#xe805;" horiz-adv-x="950" d="M848 676q0 -295 -201 -502q-176 -182 -395 -203q-8 22 -8 64q0 40 8 67q389 113 389 553q0 238 -240 238h-280q-44 0 -60 11q-14 11 -14 69v358h199v-280q0 -23 16 -23h230q356 0 356 -352zM347 519q0 -18 -7 -33.5t-18.5 -27t-27 -18.5t-33.5 -7t-33.5 7t-27 18.5 t-18.5 27t-7 33.5q0 32 27 58q28 26 59 26q37 0 61.5 -23.5t24.5 -60.5zM-5 1290q0 -18 -7 -33.5t-18.5 -27t-27 -18.5t-33.5 -7q-17 0 -32.5 7t-27.5 18.5t-19 27t-7 33.5q0 16 7 31.5t19 27t27.5 18.5t32.5 7q39 0 62.5 -23.5t23.5 -60.5z" />
<glyph unicode="&#xfb1d;" horiz-adv-x="700" d="M609 712q0 -110 -77 -187q-76 -76 -187 -76q-108 0 -185 77t-77 186q0 110 77 187t185 77q110 0 187 -77t77 -187zM536 712q0 81 -56 137q-55 55 -135 55t-135 -55t-55 -137q0 -79 55 -135q56 -56 135 -56t135 56q56 58 56 135z" />
<glyph unicode="&#xfb1e;" horiz-adv-x="700" d="M609 712q0 -110 -77 -187q-76 -76 -187 -76q-108 0 -185 77t-77 186q0 110 77 187t185 77q110 0 187 -77t77 -187zM536 712q0 81 -56 137q-55 55 -135 55t-135 -55t-55 -137q0 -79 55 -135q56 -56 135 -56t135 56q56 58 56 135z" />
<glyph unicode="&#xfb1f;" horiz-adv-x="700" d="M609 712q0 -110 -77 -187q-76 -76 -187 -76q-108 0 -185 77t-77 186q0 110 77 187t185 77q110 0 187 -77t77 -187zM536 712q0 81 -56 137q-55 55 -135 55t-135 -55t-55 -137q0 -79 55 -135q56 -56 135 -56t135 56q56 58 56 135z" />
<glyph unicode="&#xfb20;" horiz-adv-x="700" d="M609 712q0 -110 -77 -187q-76 -76 -187 -76q-108 0 -185 77t-77 186q0 110 77 187t185 77q110 0 187 -77t77 -187zM536 712q0 81 -56 137q-55 55 -135 55t-135 -55t-55 -137q0 -79 55 -135q56 -56 135 -56t135 56q56 58 56 135z" />
<glyph unicode="&#xfb21;" horiz-adv-x="700" d="M609 712q0 -110 -77 -187q-76 -76 -187 -76q-108 0 -185 77t-77 186q0 110 77 187t185 77q110 0 187 -77t77 -187zM536 712q0 81 -56 137q-55 55 -135 55t-135 -55t-55 -137q0 -79 55 -135q56 -56 135 -56t135 56q56 58 56 135z" />
<glyph unicode="&#xfb22;" horiz-adv-x="700" d="M609 712q0 -110 -77 -187q-76 -76 -187 -76q-108 0 -185 77t-77 186q0 110 77 187t185 77q110 0 187 -77t77 -187zM536 712q0 81 -56 137q-55 55 -135 55t-135 -55t-55 -137q0 -79 55 -135q56 -56 135 -56t135 56q56 58 56 135z" />
<glyph unicode="&#xfb23;" horiz-adv-x="700" d="M609 712q0 -110 -77 -187q-76 -76 -187 -76q-108 0 -185 77t-77 186q0 110 77 187t185 77q110 0 187 -77t77 -187zM536 712q0 81 -56 137q-55 55 -135 55t-135 -55t-55 -137q0 -79 55 -135q56 -56 135 -56t135 56q56 58 56 135z" />
<glyph unicode="&#xfb24;" horiz-adv-x="700" d="M609 712q0 -110 -77 -187q-76 -76 -187 -76q-108 0 -185 77t-77 186q0 110 77 187t185 77q110 0 187 -77t77 -187zM536 712q0 81 -56 137q-55 55 -135 55t-135 -55t-55 -137q0 -79 55 -135q56 -56 135 -56t135 56q56 58 56 135z" />
<glyph unicode="&#xfb25;" horiz-adv-x="700" d="M609 712q0 -110 -77 -187q-76 -76 -187 -76q-108 0 -185 77t-77 186q0 110 77 187t185 77q110 0 187 -77t77 -187zM536 712q0 81 -56 137q-55 55 -135 55t-135 -55t-55 -137q0 -79 55 -135q56 -56 135 -56t135 56q56 58 56 135z" />
<glyph unicode="&#xfb26;" horiz-adv-x="700" d="M609 712q0 -110 -77 -187q-76 -76 -187 -76q-108 0 -185 77t-77 186q0 110 77 187t185 77q110 0 187 -77t77 -187zM536 712q0 81 -56 137q-55 55 -135 55t-135 -55t-55 -137q0 -79 55 -135q56 -56 135 -56t135 56q56 58 56 135z" />
<glyph unicode="&#xfb27;" horiz-adv-x="700" d="M609 712q0 -110 -77 -187q-76 -76 -187 -76q-108 0 -185 77t-77 186q0 110 77 187t185 77q110 0 187 -77t77 -187zM536 712q0 81 -56 137q-55 55 -135 55t-135 -55t-55 -137q0 -79 55 -135q56 -56 135 -56t135 56q56 58 56 135z" />
<glyph unicode="&#xfb28;" horiz-adv-x="700" d="M609 712q0 -110 -77 -187q-76 -76 -187 -76q-108 0 -185 77t-77 186q0 110 77 187t185 77q110 0 187 -77t77 -187zM536 712q0 81 -56 137q-55 55 -135 55t-135 -55t-55 -137q0 -79 55 -135q56 -56 135 -56t135 56q56 58 56 135z" />
<glyph unicode="&#xfb29;" horiz-adv-x="874" d="M792 514q0 -61 -4 -84h-705v74v71h279v283q12 2 30 3t43 1q27 0 46.5 -1t31.5 -3v-283h275q2 -13 3 -28.5t1 -32.5z" />
<glyph unicode="&#xfb2a;" horiz-adv-x="1329" d="M1205 510q0 -352 -272 -469q-117 -51 -307 -51q-216 0 -334 78q-170 108 -170 391v569h201v-616q0 -35 39 -27q198 43 198 291v352h197v-305q0 -161 -64 -256q-103 -160 -344 -186q31 -76 68 -101q83 -55 205 -55q146 0 233 41q150 73 150 319v543h200v-518zM1114 1290 q0 -18 -7 -33.5t-18.5 -27t-27 -18.5t-33.5 -7q-17 0 -32.5 7t-27.5 18.5t-19 27t-7 33.5q0 16 7 31.5t19 27t27.5 18.5t32.5 7q39 0 62.5 -23.5t23.5 -60.5z" />
<glyph unicode="&#xfb2b;" horiz-adv-x="1329" d="M1205 510q0 -352 -272 -469q-117 -51 -307 -51q-216 0 -334 78q-170 108 -170 391v569h201v-616q0 -35 39 -27q198 43 198 291v352h197v-305q0 -161 -64 -256q-103 -160 -344 -186q31 -76 68 -101q83 -55 205 -55q146 0 233 41q150 73 150 319v543h200v-518zM304 1290 q0 -18 -7 -33.5t-18.5 -27t-27 -18.5t-33.5 -7q-17 0 -32.5 7t-27.5 18.5t-19 27t-7 33.5q0 16 7 31.5t19 27t27.5 18.5t32.5 7q39 0 62.5 -23.5t23.5 -60.5z" />
<glyph unicode="&#xfb2c;" horiz-adv-x="1329" d="M1205 510q0 -352 -272 -469q-117 -51 -307 -51q-216 0 -334 78q-170 108 -170 391v569h201v-616q0 -35 39 -27q198 43 198 291v352h197v-305q0 -161 -64 -256q-103 -160 -344 -186q31 -76 68 -101q83 -55 205 -55q146 0 233 41q150 73 150 319v543h200v-518zM1114 1290 q0 -18 -7 -33.5t-18.5 -27t-27 -18.5t-33.5 -7q-17 0 -32.5 7t-27.5 18.5t-19 27t-7 33.5q0 16 7 31.5t19 27t27.5 18.5t32.5 7q39 0 62.5 -23.5t23.5 -60.5zM939 454q0 -18 -7 -33.5t-18.5 -27t-27 -18.5t-33.5 -7t-33.5 7t-27 18.5t-18.5 27t-7 33.5q0 32 27 58 q28 26 59 26q37 0 61.5 -23.5t24.5 -60.5z" />
<glyph unicode="&#xfb2d;" horiz-adv-x="1329" d="M1205 510q0 -352 -272 -469q-117 -51 -307 -51q-216 0 -334 78q-170 108 -170 391v569h201v-616q0 -35 39 -27q198 43 198 291v352h197v-305q0 -161 -64 -256q-103 -160 -344 -186q31 -76 68 -101q83 -55 205 -55q146 0 233 41q150 73 150 319v543h200v-518zM304 1290 q0 -18 -7 -33.5t-18.5 -27t-27 -18.5t-33.5 -7q-17 0 -32.5 7t-27.5 18.5t-19 27t-7 33.5q0 16 7 31.5t19 27t27.5 18.5t32.5 7q39 0 62.5 -23.5t23.5 -60.5zM939 454q0 -18 -7 -33.5t-18.5 -27t-27 -18.5t-33.5 -7t-33.5 7t-27 18.5t-18.5 27t-7 33.5q0 32 27 58 q28 26 59 26q37 0 61.5 -23.5t24.5 -60.5z" />
<glyph unicode="&#xfb31;" horiz-adv-x="993" d="M925 74q0 -13 -1 -31t-3 -43h-846q-2 20 -3 36t-1 27q0 7 1 24t3 46h330q142 0 192 107q37 78 37 282q0 186 -55 271q-64 100 -223 100h-265q-6 34 -6 72q0 -17 6 63h336q223 0 324 -125q92 -116 92 -354q0 -310 -156 -416h232q6 -39 6 -59zM358 494q0 -18 -7 -33.5 t-18.5 -27t-27 -18.5t-33.5 -7t-33.5 7t-27 18.5t-18.5 27t-7 33.5q0 32 27 58q28 26 59 26q37 0 61.5 -23.5t24.5 -60.5z" />
<glyph unicode="&#xfb32;" horiz-adv-x="782" d="M502 0q-25 73 -48 272q-122 -290 -329 -290q-49 0 -74 18q10 97 27 150q24 -9 41 -9q65 0 141 52q85 56 141 149q39 66 39 133v266q0 152 -149 152h-166q-2 25 -3 43.5t-1 32.5q0 3 1 18t3 41h227q285 0 285 -276v-265q0 -131 13.5 -252t41.5 -235h-190zM301 542 q0 -18 -7 -33.5t-18.5 -27t-27 -18.5t-33.5 -7t-33.5 7t-27 18.5t-18.5 27t-7 33.5q0 32 27 58q28 26 59 26q37 0 61.5 -23.5t24.5 -60.5z" />
<glyph unicode="&#xfb33;" horiz-adv-x="997" d="M884 967q0 -8 -1 -26.5t-3 -47.5h-127v-893h-198v893h-488q-6 37 -6 78q0 4 1 18t3 39h817q0 -5 0.5 -12.5t1.5 -18.5v-30zM369 484q0 -18 -7 -33.5t-18.5 -27t-27 -18.5t-33.5 -7t-33.5 7t-27 18.5t-18.5 27t-7 33.5q0 32 27 58q28 26 59 26q37 0 61.5 -23.5t24.5 -60.5 z" />
<glyph unicode="&#xfb34;" horiz-adv-x="1073" d="M950 0h-199v651q0 242 -234 242h-399q-2 17 -3 33t-1 32q0 17 1 35t3 35h459q373 0 373 -360v-668zM317 0h-199v594q67 34 199 45v-639zM615 457q0 -18 -7 -33.5t-18.5 -27t-27 -18.5t-33.5 -7t-33.5 7t-27 18.5t-18.5 27t-7 33.5q0 32 27 58q28 26 59 26 q37 0 61.5 -23.5t24.5 -60.5z" />
<glyph unicode="&#xfb35;" horiz-adv-x="456" d="M323 0h-201v1028h201v-1028zM98 524q0 -18 -7 -33.5t-18.5 -27t-27 -18.5t-33.5 -7t-33.5 7t-27 18.5t-18.5 27t-7 33.5q0 32 27 58q28 26 59 26q37 0 61.5 -23.5t24.5 -60.5z" />
<glyph unicode="&#xfb36;" horiz-adv-x="704" d="M625 1028q-1 -53 -52 -131q-170 0 -170 -225q0 -51 9 -121l57 -551h-203l-47 520q-1 14 -1.5 28t-0.5 27q0 236 154 318h-262q-4 20 -5.5 39.5t-1.5 36.5q0 7 1 21.5t3 37.5h519zM159 494q0 -18 -7 -33.5t-18.5 -27t-27 -18.5t-33.5 -7t-33.5 7t-27 18.5t-18.5 27 t-7 33.5q0 32 27 58q28 26 59 26q37 0 61.5 -23.5t24.5 -60.5z" />
<glyph unicode="&#xfb38;" horiz-adv-x="1138" d="M1029 465q0 -237 -127 -364q-128 -128 -358 -128q-422 0 -422 441v614h201v-571q0 -171 45 -250q55 -96 186 -96q155 0 217 98q51 79 51 258v135q0 77 -9 131t-27.5 88.5t-48 50t-70.5 15.5q-66 0 -109 -51q-30 37 -51 118q82 76 221 76q301 0 301 -399v-166zM658 494 q0 -18 -7 -33.5t-18.5 -27t-27 -18.5t-33.5 -7t-33.5 7t-27 18.5t-18.5 27t-7 33.5q0 32 27 58q28 26 59 26q37 0 61.5 -23.5t24.5 -60.5z" />
<glyph unicode="&#xfb39;" horiz-adv-x="456" d="M323 496q-77 -44 -201 -64v596h201v-532zM88 734q0 -18 -7 -33.5t-18.5 -27t-27 -18.5t-33.5 -7t-33.5 7t-27 18.5t-18.5 27t-7 33.5q0 32 27 58q28 26 59 26q37 0 61.5 -23.5t24.5 -60.5z" />
<glyph unicode="&#xfb3a;" horiz-adv-x="903" d="M779 -297h-198v928q0 137 -56.5 199.5t-187.5 62.5h-252q-2 17 -3 33t-1 32q0 17 1 35t3 35h311q383 0 383 -401v-924zM368 546q0 -18 -7 -33.5t-18.5 -27t-27 -18.5t-33.5 -7t-33.5 7t-27 18.5t-18.5 27t-7 33.5q0 32 27 58q28 26 59 26q37 0 61.5 -23.5t24.5 -60.5z " />
<glyph unicode="&#xfb3b;" horiz-adv-x="946" d="M854 522q0 -255 -127 -388q-128 -134 -344 -134h-277q-2 25 -3 42t-1 28q0 5 1 21t3 42h227q312 0 312 389q0 168 -78 266q-84 105 -242 105h-213q-6 34 -6 72q0 -17 6 63h264q478 0 478 -506zM368 497q0 -18 -7 -33.5t-18.5 -27t-27 -18.5t-33.5 -7t-33.5 7t-27 18.5 t-18.5 27t-7 33.5q0 32 27 58q28 26 59 26q37 0 61.5 -23.5t24.5 -60.5z" />
<glyph unicode="&#xfb3c;" horiz-adv-x="950" d="M848 676q0 -295 -201 -502q-176 -182 -395 -203q-8 22 -8 64q0 40 8 67q389 113 389 553q0 238 -240 238h-280q-44 0 -60 11q-14 11 -14 69v358h199v-280q0 -23 16 -23h229q357 0 357 -352zM347 519q0 -18 -7 -33.5t-18.5 -27t-27 -18.5t-33.5 -7t-33.5 7t-27 18.5 t-18.5 27t-7 33.5q0 32 27 58q28 26 59 26q37 0 61.5 -23.5t24.5 -60.5z" />
<glyph unicode="&#xfb3e;" horiz-adv-x="1204" d="M1102 496q0 -242 -119 -376t-338 -134q-91 0 -158 18q2 38 7.5 70.5t15.5 58.5q43 -18 117 -18q268 0 268 381q0 403 -260 403q-131 0 -193 -86q-61 -85 -94 -324l-63 -489h-197l66 473q22 175 66 273q43 97 128 147h-242q-2 26 -3 41.5t-1 19.5q0 13 1 31t3 43h566 q202 0 316 -135t114 -397zM706 488q0 -18 -7 -33.5t-18.5 -27t-27 -18.5t-33.5 -7t-33.5 7t-27 18.5t-18.5 27t-7 33.5q0 32 27 58q28 26 59 26q37 0 61.5 -23.5t24.5 -60.5z" />
<glyph unicode="&#xfb40;" horiz-adv-x="702" d="M579 45q0 -45 -37 -45h-459q-1 14 -1.5 29t-0.5 32q0 52 4 72h295v608q0 152 -127 152h-125q-2 25 -3 43.5t-1 32.5q0 3 1 18t3 41h207q108 0 174 -67q70 -73 70 -209v-707zM293 497q0 -18 -7 -33.5t-18.5 -27t-27 -18.5t-33.5 -7t-33.5 7t-27 18.5t-18.5 27t-7 33.5 q0 32 27 58q28 26 59 26q37 0 61.5 -23.5t24.5 -60.5z" />
<glyph unicode="&#xfb41;" horiz-adv-x="1165" d="M1077 512q0 -251 -137 -396q-137 -143 -353 -143q-457 0 -457 512q0 141 53 253q54 112 136 155h-201q-6 43 -6 63q0 16 1 34t3 38h526q219 0 332 -143q103 -133 103 -373zM868 508q0 391 -281 391q-256 0 -256 -401q0 -387 258 -387q279 0 279 397zM683 494 q0 -18 -7 -33.5t-18.5 -27t-27 -18.5t-33.5 -7t-33.5 7t-27 18.5t-18.5 27t-7 33.5q0 32 27 58q28 26 59 26q37 0 61.5 -23.5t24.5 -60.5z" />
<glyph unicode="&#xfb43;" horiz-adv-x="1087" d="M964 -297h-201v950q0 246 -225 246q-229 0 -229 -219q0 -127 96 -199q-79 -83 -162 -121q-129 103 -129 261q0 174 146 272h-148q-6 34 -6 72q0 -17 6 63h455q397 0 397 -389v-936zM636 504q0 -18 -7 -33.5t-18.5 -27t-27 -18.5t-33.5 -7t-33.5 7t-27 18.5t-18.5 27 t-7 33.5q0 32 27 58q28 26 59 26q37 0 61.5 -23.5t24.5 -60.5z" />
<glyph unicode="&#xfb44;" horiz-adv-x="1136" d="M1028 516q0 -231 -111 -369q-119 -147 -340 -147h-440q-2 25 -3 42t-1 28q0 5 1 21t3 42h422q260 0 260 383t-277 383q-219 0 -219 -201q0 -118 98 -192q-79 -84 -161 -121q-55 32 -95 99q-41 70 -41 145q0 73 48 151q50 79 116 113h-176q-6 34 -6 72q0 -17 6 63h479 q437 0 437 -512zM649 514q0 -18 -7 -33.5t-18.5 -27t-27 -18.5t-33.5 -7t-33.5 7t-27 18.5t-18.5 27t-7 33.5q0 32 27 58q28 26 59 26q37 0 61.5 -23.5t24.5 -60.5z" />
<glyph unicode="&#xfb46;" horiz-adv-x="1046" d="M923 872q0 -120 -66 -229q-71 -118 -198 -176l147 -170l72 -83q43 -49 43 -103q0 -62 -45 -93q-26 -18 -82 -18h-680q-2 23 -3 40t-1 28q0 18 1 34.5t3 30.5h606q25 0 4 21q-42 42 -101.5 105.5t-140.5 148.5q-284 313 -432 591q-14 29 15 29h209q57 -119 126.5 -227 t153.5 -207q21 -23 43 -23q42 0 80 60q49 76 49 215v182h197v-156zM290 445q0 -18 -7 -33.5t-18.5 -27t-27 -18.5t-33.5 -7t-33.5 7t-27 18.5t-18.5 27t-7 33.5q0 32 27 58q28 26 59 26q37 0 61.5 -23.5t24.5 -60.5z" />
<glyph unicode="&#xfb47;" horiz-adv-x="1116" d="M1019 635q0 -265 -153 -452q-151 -187 -369 -199q-8 30 0 125q159 31 244 184q75 135 75 334q0 266 -262 266h-434q-6 40 -6 63q0 39 6 72h500q399 0 399 -393zM335 -299h-201v897q100 67 201 66v-963zM652 531q0 -18 -7 -33.5t-18.5 -27t-27 -18.5t-33.5 -7t-33.5 7 t-27 18.5t-18.5 27t-7 33.5q0 32 27 58q28 26 59 26q37 0 61.5 -23.5t24.5 -60.5z" />
<glyph unicode="&#xfb48;" horiz-adv-x="923" d="M800 0h-199v631q0 69 -13.5 118.5t-42.5 81.5t-75.5 47t-112.5 15h-272q-2 17 -3 33t-1 32q0 17 1 35t3 35h322q196 0 290 -82q103 -91 103 -299v-647zM405 469q0 -18 -7 -33.5t-18.5 -27t-27 -18.5t-33.5 -7t-33.5 7t-27 18.5t-18.5 27t-7 33.5q0 32 27 58q28 26 59 26 q37 0 61.5 -23.5t24.5 -60.5z" />
<glyph unicode="&#xfb49;" horiz-adv-x="1329" d="M1205 510q0 -352 -272 -469q-117 -51 -307 -51q-216 0 -334 78q-170 108 -170 391v569h201v-616q0 -35 39 -27q198 43 198 291v352h197v-305q0 -161 -64 -256q-103 -160 -344 -186q31 -76 68 -101q83 -55 205 -55q146 0 233 41q150 73 150 319v543h200v-518zM939 454 q0 -18 -7 -33.5t-18.5 -27t-27 -18.5t-33.5 -7t-33.5 7t-27 18.5t-18.5 27t-7 33.5q0 32 27 58q28 26 59 26q37 0 61.5 -23.5t24.5 -60.5z" />
<glyph unicode="&#xfb4a;" horiz-adv-x="1161" d="M1038 0h-201v659q0 234 -213 234h-235v-641q0 -139 -86 -211q-72 -57 -183 -57q-62 0 -96 24q0 80 10 123q34 -14 56 -14q40 0 69 33t29 96v743q0 39 45 39h463q342 0 342 -340v-688zM698 504q0 -18 -7 -33.5t-18.5 -27t-27 -18.5t-33.5 -7t-33.5 7t-27 18.5t-18.5 27 t-7 33.5q0 32 27 58q28 26 59 26q37 0 61.5 -23.5t24.5 -60.5z" />
<glyph unicode="&#xfb4b;" horiz-adv-x="456" d="M323 0h-201v1028h201v-1028zM304 1290q0 -18 -7 -33.5t-18.5 -27t-27 -18.5t-33.5 -7q-17 0 -32.5 7t-27.5 18.5t-19 27t-7 33.5q0 16 7 31.5t19 27t27.5 18.5t32.5 7q39 0 62.5 -23.5t23.5 -60.5z" />
<glyph horiz-adv-x="0" />
<glyph horiz-adv-x="700" d="M609 712q0 -110 -77 -187q-76 -76 -187 -76q-108 0 -185 77t-77 186q0 110 77 187t185 77q110 0 187 -77t77 -187zM536 712q0 81 -56 137q-55 55 -135 55t-135 -55t-55 -137q0 -79 55 -135q56 -56 135 -56t135 56q56 58 56 135z" />
<glyph horiz-adv-x="700" d="M609 712q0 -110 -77 -187q-76 -76 -187 -76q-108 0 -185 77t-77 186q0 110 77 187t185 77q110 0 187 -77t77 -187zM536 712q0 81 -56 137q-55 55 -135 55t-135 -55t-55 -137q0 -79 55 -135q56 -56 135 -56t135 56q56 58 56 135z" />
<glyph horiz-adv-x="700" d="M609 712q0 -110 -77 -187q-76 -76 -187 -76q-108 0 -185 77t-77 186q0 110 77 187t185 77q110 0 187 -77t77 -187zM536 712q0 81 -56 137q-55 55 -135 55t-135 -55t-55 -137q0 -79 55 -135q56 -56 135 -56t135 56q56 58 56 135z" />
<glyph horiz-adv-x="700" d="M609 712q0 -110 -77 -187q-76 -76 -187 -76q-108 0 -185 77t-77 186q0 110 77 187t185 77q110 0 187 -77t77 -187zM536 712q0 81 -56 137q-55 55 -135 55t-135 -55t-55 -137q0 -79 55 -135q56 -56 135 -56t135 56q56 58 56 135z" />
<glyph d="M657 770q0 -119 -83 -202t-203 -83q-118 0 -200 84q-83 85 -83 201q0 118 83 203q82 84 200 84q120 0 203 -84q83 -85 83 -203zM578 770q0 88 -60 148q-58 61 -147 61q-86 0 -146 -61q-59 -61 -59 -148q0 -84 59 -146q60 -61 146 -61q89 0 147 61q60 61 60 146z" />
<glyph d="M657 770q0 -119 -83 -202t-203 -83q-118 0 -200 84q-83 85 -83 201q0 118 83 203q82 84 200 84q120 0 203 -84q83 -85 83 -203zM578 770q0 88 -60 148q-58 61 -147 61q-86 0 -146 -61q-59 -61 -59 -148q0 -84 59 -146q60 -61 146 -61q89 0 147 61q60 61 60 146z" />
<glyph d="M657 770q0 -119 -83 -202t-203 -83q-118 0 -200 84q-83 85 -83 201q0 118 83 203q82 84 200 84q120 0 203 -84q83 -85 83 -203zM578 770q0 88 -60 148q-58 61 -147 61q-86 0 -146 -61q-59 -61 -59 -148q0 -84 59 -146q60 -61 146 -61q89 0 147 61q60 61 60 146z" />
<glyph horiz-adv-x="0" d="M934 -299q0 -39 -26 -66.5t-68 -27.5q-39 0 -65.5 27.5t-26.5 66.5t26.5 64.5t65.5 25.5t66.5 -25.5t27.5 -64.5zM934 -600q0 -42 -26 -68t-68 -26q-39 0 -65.5 26t-26.5 68q0 18 7.5 35t20 29.5t29.5 20t35 7.5q42 0 68 -26.5t26 -65.5zM639 -672h-94v445h94v-445z M418 -346h-170l-6 -100q0 -23 29 -67q30 -44 30 -65q0 -40 -26.5 -67t-65.5 -27q-20 0 -36.5 7.5t-29 20.5t-19.5 30t-7 36q0 25 30 67q31 41 31 67l-8 98h-170v119h418v-119z" />
<glyph d="M657 770q0 -119 -83 -202t-203 -83q-118 0 -200 84q-83 85 -83 201q0 118 83 203q82 84 200 84q120 0 203 -84q83 -85 83 -203zM578 770q0 88 -60 148q-58 61 -147 61q-86 0 -146 -61q-59 -61 -59 -148q0 -84 59 -146q60 -61 146 -61q89 0 147 61q60 61 60 146z" />
<glyph d="M657 770q0 -119 -83 -202t-203 -83q-118 0 -200 84q-83 85 -83 201q0 118 83 203q82 84 200 84q120 0 203 -84q83 -85 83 -203zM578 770q0 88 -60 148q-58 61 -147 61q-86 0 -146 -61q-59 -61 -59 -148q0 -84 59 -146q60 -61 146 -61q89 0 147 61q60 61 60 146z" />
<glyph d="M657 770q0 -119 -83 -202t-203 -83q-118 0 -200 84q-83 85 -83 201q0 118 83 203q82 84 200 84q120 0 203 -84q83 -85 83 -203zM578 770q0 88 -60 148q-58 61 -147 61q-86 0 -146 -61q-59 -61 -59 -148q0 -84 59 -146q60 -61 146 -61q89 0 147 61q60 61 60 146z" />
<glyph d="M657 770q0 -119 -83 -202t-203 -83q-118 0 -200 84q-83 85 -83 201q0 118 83 203q82 84 200 84q120 0 203 -84q83 -85 83 -203zM578 770q0 88 -60 148q-58 61 -147 61q-86 0 -146 -61q-59 -61 -59 -148q0 -84 59 -146q60 -61 146 -61q89 0 147 61q60 61 60 146z" />
</font>
</defs>
</svg>
